<?xml version="1.0" encoding="UTF-8"?>
<svg xmlns="http://www.w3.org/2000/svg" xmlns:i="http://ns.adobe.com/AdobeIllustrator/10.0/" id="Layer_1" version="1.1" viewBox="0 0 1190.55 130.93">
  <defs>
    <style>
      .st0 {
        fill: #103652;
      }
    </style>
  </defs>
  <path class="st0" d="M964.53,72.63c0,26.16-11.83,40.56-33.32,40.56s-33.68-14.41-33.68-40.56V1.46h-18.11v72.98c0,34.92,19.36,55.77,51.79,55.77s51.43-20.85,51.43-55.77V1.46h-18.11v71.17Z"></path>
  <path class="st0" d="M243.28,39.21c0-11.45-4.32-21.13-12.49-28.01-7.4-6.23-17.43-9.66-28.26-9.66h-44.37v127.84h16.48v-50.7h21.98l33.34,50.46.16.24h19.59l-34.38-52.56c17-5.2,27.94-19.88,27.94-37.62ZM178.36,62.75l-3.71-3.71V21.18l3.71-3.71h22.37c23.69,0,25.53,16.63,25.53,21.73,0,16.26-12.82,23.54-25.53,23.54h-22.37Z"></path>
  <path class="st0" d="M348.79,16.93c19.77,0,30.46,14.11,33.36,21.56l.22.64h18.67l-.1-.93c-1.68-10.03-16.85-37.57-50.88-37.57-16.39,0-31.38,6.53-42.21,18.4-10.85,11.88-16.83,28.37-16.83,46.43,0,37.56,24.98,64.83,59.4,64.83,13.5,0,24.82-4.15,34.61-12.68h1.74l3.26,11.77h10.92V62.75h-51.98v15.93h32.37l3.69,3.69v14.49c-7.05,10.01-21.65,17.14-35.52,17.14-24.05,0-40.2-19.5-40.2-48.53s16.23-48.53,39.48-48.53Z"></path>
  <polygon class="st0" points="744.29 18.38 775.03 18.38 778.51 21.87 778.51 129.38 796.62 129.38 796.62 21.94 800.19 18.38 830.85 18.38 830.85 1.54 744.29 1.54 744.29 18.38"></polygon>
  <polygon class="st0" points="477.54 107.58 477.54 71.26 529.69 71.26 529.69 54.42 477.54 54.42 477.54 23.06 482.22 18.38 540.56 18.38 540.56 1.54 459.61 1.54 459.61 129.38 542.37 129.38 542.37 112.36 482.32 112.36 477.54 107.58"></polygon>
  <path class="st0" d="M66.82,1.91l-.13-.37h-23.59L.24,128.67l-.24.72h18.72l11.18-34.68h50.01l11.06,34.3.12.38h18.72L66.82,1.91ZM69.66,78.68h-29.53l-3.75-3.75,15.93-49.4h5.17l15.93,49.4-3.75,3.75Z"></path>
  <polygon class="st0" points="678.69 1.54 678.69 101.89 675.66 101.89 615.96 1.81 615.8 1.54 594.67 1.54 594.67 129.39 611.51 129.39 611.51 33.23 615.43 33.23 672.07 129.12 672.23 129.39 695.72 129.39 695.72 1.54 678.69 1.54"></polygon>
  <polygon class="st0" points="1170.8 129.39 1188.43 129.39 1169.65 1.54 1152.61 1.54 1109.47 90.24 1107.68 90.24 1064.54 1.54 1047.5 1.54 1028.73 129.39 1046.35 129.39 1059.78 41.29 1064.93 41.29 1100.17 112.36 1117.36 112.36 1152.26 41.29 1157.38 41.29 1170.8 129.39"></polygon>
  <metadata></metadata>
</svg>
