<svg
  width="21"
  height="30"
  viewBox="0 0 21 30"
  fill="none"
  xmlns="http://www.w3.org/2000/svg"
>
  <path
    d="M14.5204 17.2522C13.6993 18.767 12.0719 19.8003 10.1952 19.8003C7.49317 19.8003 5.30277 17.6599 5.30277 15.0195C5.30277 12.3792 7.49317 10.2387 10.1952 10.2387C12.0719 10.2387 13.6993 11.272 14.5204 12.7868H19.6135C18.5917 8.62477 14.7685 5.52734 10.1952 5.52734C4.84062 5.52734 0.5 9.76897 0.5 15.001C0.5 20.2332 4.84062 24.4745 10.1952 24.4745C14.7546 24.4745 18.5683 21.3954 19.6039 17.2522H14.5204Z"
    fill="#FFB0C2"
  />
  <path
    d="M14.7603 10.2904C15.9319 10.2797 17.014 9.86869 17.8673 9.19166C16.1258 6.96149 13.3629 5.53918 10.2238 5.56781C10.1325 5.56852 10.0416 5.57069 9.95105 5.57397C9.90837 8.20371 12.0609 10.3149 14.7603 10.2904Z"
    fill="#CC66B8"
  />
  <path
    d="M17.8645 9.22366C18.9579 8.35205 19.6562 7.02493 19.6562 5.53853C19.6562 2.91325 17.4783 0.785156 14.7917 0.785156C12.1049 0.785156 9.927 2.91325 9.927 5.53853L9.927 5.54213C10.0174 5.53973 10.1077 5.53836 10.1986 5.53836C13.3212 5.53836 16.0941 6.98258 17.8645 9.22366Z"
    fill="#CC91F0"
  />
</svg>
