<svg width="131" height="52" viewBox="0 0 131 52" fill="none" xmlns="http://www.w3.org/2000/svg">
<g id="Clip path group">
<mask id="mask0_1_5" style="mask-type:luminance" maskUnits="userSpaceOnUse" x="0" y="0" width="131" height="52">
<g id="clippath">
<path id="Vector" d="M130.36 0H0V52H130.36V0Z" fill="white"/>
</g>
</mask>
<g mask="url(#mask0_1_5)">
<g id="Group">
<path id="Vector_2" d="M63.475 0H38.06C18.6251 0 7.76963 6.95471 4.97498 22.6204L0.0345163 50.116C-0.160905 51.3511 0.489222 52.0013 1.6592 52.0013H7.05436C8.09406 52.0013 8.93961 51.5466 9.39431 50.5707L24.4098 19.5C29.0246 10.0099 29.9991 8.12468 40.3999 8.12468H47.6062C47.8476 8.12468 48.0316 8.34309 47.9881 8.58194L45.0147 25.1557C44.1691 29.8356 42.6747 31.3964 37.9297 31.3964H27.0091C25.9042 31.3964 25.189 31.9163 24.8645 33.0211L24.2796 35.1018C23.9551 36.3369 24.5401 37.0522 25.7752 37.0522H36.7597C41.7002 37.0522 42.4154 39.1967 41.7002 43.2929L40.465 50.1173C40.2696 51.3524 40.9198 52.0026 42.0897 52.0026H54.2455C55.4154 52.0026 56.1958 51.4176 56.39 50.2476L65.1648 1.88524C65.3602 0.650128 64.6449 0 63.475 0ZM122.301 28.8598C125.421 24.8952 130.36 15.5354 130.36 9.8145C130.36 3.6402 125.42 0 112.095 0H77.9706C76.8007 0 76.0203 0.584987 75.8248 1.75496L67.05 50.1148C66.8546 51.3499 67.5699 52 68.7399 52H80.8305C82.0004 52 82.7808 51.415 82.975 50.245L90.5875 8.444C90.6207 8.26007 90.7816 8.12468 90.9694 8.12468H106.115C110.99 8.12468 112.615 9.8145 112.615 12.8046C112.615 16.2494 110.08 23.0751 108.39 26.3896C106.959 29.1842 104.88 31.3952 100.394 31.3952H95.3248C94.22 31.3952 93.5047 31.915 93.1803 33.0198L92.5953 35.1005C92.2709 36.3356 92.8559 37.0509 94.091 37.0509H102.411C113.461 37.0509 116.906 35.8158 122.302 28.8611" fill="#EF8F45"/>
</g>
</g>
</g>
</svg>
