<svg width="440" height="147" viewBox="0 0 440 147" fill="none" xmlns="http://www.w3.org/2000/svg">
<path d="M0.0751953 139.78H4.5252C7.8352 139.78 9.3152 137.73 9.3152 135.11V75.72C9.3152 73.21 7.8352 71.16 4.5252 71.16H0.0751953V65.57H59.5852L61.0652 87.8H55.7052C52.3952 77.2 49.8952 71.84 38.3752 71.84H25.0352C22.5252 71.84 20.8152 73.55 20.8152 76.17V103.19H33.0152C35.8652 103.19 40.3152 102.16 40.6552 96.46L40.7652 93.61H46.3552V118.92H40.7652L40.6552 115.96C40.3152 110.37 35.8652 109.46 33.0152 109.46H20.8152V135.11C20.8152 137.73 22.7552 139.78 27.0852 139.78H33.2452V145.37H0.0751953V139.78Z" fill="#C3AF5A"/>
<path d="M100.395 140.58H103.585C106.895 140.58 108.375 138.98 108.375 136.25V104.9C108.375 102.85 107.695 101.48 105.635 100.34L99.9352 97.38V95.1L116.355 89.97H117.385L117.845 101.26H118.525C120.575 95.56 127.185 89.97 136.425 89.97C146.345 89.97 153.985 96.35 153.985 109.24V136.26C153.985 139 155.465 140.59 158.775 140.59H161.965V145.38H135.515V140.59H138.705C141.895 140.59 143.375 138.99 143.375 136.26V111.86C143.375 104.34 138.705 99.09 132.085 99.09C123.645 99.09 118.975 105.93 118.975 116.65V136.26C118.975 139 120.455 140.59 123.645 140.59H126.835V145.38H100.385V140.59L100.395 140.58Z" fill="#C3AF5A"/>
<path d="M169.475 132.83C169.475 123.37 175.975 118.01 187.145 114.7L200.595 110.82V105.92C200.595 99.65 196.145 95.89 190.675 95.89C184.635 95.89 182.465 99.65 181.785 102.84C181.105 106.37 179.275 108.65 175.745 108.65C172.785 108.65 170.505 106.71 170.505 103.18C170.505 96.57 179.625 89.96 190.455 89.96C202.995 89.96 211.205 96.57 211.205 106.6V135.78C211.205 138.86 212.915 139.88 214.735 139.88C215.985 139.88 217.355 139.42 218.615 138.51L220.665 141.93C217.355 144.78 214.855 146.49 210.975 146.49C205.615 146.49 201.625 143.18 201.175 137.83L201.065 135.44H200.385C197.425 141.94 192.295 146.5 184.195 146.5C176.095 146.5 169.485 141.14 169.485 132.82L169.475 132.83ZM187.835 138.53C194.675 138.53 200.605 131.58 200.605 121.77V116.53L189.315 120.18C184.185 121.78 180.535 125.31 180.535 131.01C180.535 135.57 183.845 138.53 187.835 138.53Z" fill="#C3AF5A"/>
<path d="M225.105 140.58H228.295C231.605 140.58 233.085 138.98 233.085 136.25V104.9C233.085 102.85 232.405 101.48 230.345 100.34L224.645 97.38V95.1L241.065 89.97H242.095L242.555 101.26H243.235C245.285 95.56 251.895 89.97 261.135 89.97C271.055 89.97 278.695 96.35 278.695 109.24V136.26C278.695 139 280.175 140.59 283.485 140.59H286.675V145.38H260.225V140.59H263.415C266.605 140.59 268.085 138.99 268.085 136.26V111.86C268.085 104.34 263.415 99.09 256.795 99.09C248.355 99.09 243.685 105.93 243.685 116.65V136.26C243.685 139 245.165 140.59 248.355 140.59H251.545V145.38H225.095V140.59L225.105 140.58Z" fill="#C3AF5A"/>
<path d="M293.055 118.46C293.055 101.47 305.025 89.96 319.955 89.96C330.675 89.96 339.905 95.43 339.905 102.61C339.905 106.14 337.855 108.2 334.665 108.2C331.475 108.2 330.105 106.83 328.505 103.41C327.025 100.22 324.975 95.89 318.585 95.89C310.035 95.89 303.765 104.21 303.765 115.38C303.765 127.92 311.285 136.7 319.835 136.7C328.845 136.7 333.175 131 334.655 124.73H341.265C339.555 137.04 331.005 146.5 317.665 146.5C303.525 146.5 293.045 134.99 293.045 118.46H293.055Z" fill="#C3AF5A"/>
<path d="M349.255 118.35C349.255 102.16 359.405 89.96 374.105 89.96C387.445 89.96 397.015 99.99 397.015 113.22C397.015 114.25 397.015 114.59 396.785 115.84H359.735V116.64C359.735 128.84 366.345 136.82 376.155 136.82C383.335 136.82 388.585 132.72 390.745 126.67H396.785C394.615 137.84 386.525 146.51 374.215 146.51C359.735 146.51 349.245 134.54 349.245 118.35H349.255ZM385.615 109.91C385.725 101.47 380.715 96.23 373.755 96.23C366.795 96.23 362.015 101.7 360.415 109.91H385.605H385.615Z" fill="#C3AF5A"/>
<path d="M155.705 75.07H158.895C162.205 75.07 163.685 73.47 163.685 70.73V39.36C163.685 37.31 163.005 35.94 160.945 34.8L155.245 31.83V29.55L171.675 24.42H172.705L173.165 36.17H173.845C176.585 27.5 185.135 24.42 189.365 24.42C194.845 24.42 197.805 27.61 197.805 31.26C197.805 34.91 195.635 37.65 191.875 37.65C187.765 37.65 187.315 35.03 183.545 35.03C178.065 35.03 174.305 41.19 174.305 48.61V70.74C174.305 73.48 176.135 75.08 180.355 75.08H184.575V79.87H155.715V75.08L155.705 75.07Z" fill="#F4F2EB"/>
<path d="M202.025 52.93C202.025 35.93 214.005 24.41 228.945 24.41C239.665 24.41 248.905 29.89 248.905 37.07C248.905 40.61 246.855 42.66 243.655 42.66C240.455 42.66 239.095 41.29 237.495 37.87C236.015 34.68 233.955 30.34 227.565 30.34C219.005 30.34 212.735 38.67 212.735 49.85C212.735 62.4 220.265 71.18 228.825 71.18C237.835 71.18 242.175 65.48 243.655 59.2H250.275C248.565 71.52 240.005 80.99 226.655 80.99C212.505 80.99 202.015 69.47 202.015 52.93H202.025Z" fill="#F4F2EB"/>
<path d="M266.595 67.19V32.05H256.555V26.57H257.465C265.675 26.57 268.985 21.89 270.015 15.39L270.925 9.90997H277.195V25.54H290.775V32.04H277.195V66.27C277.195 70.49 279.705 72.77 282.895 72.77C285.635 72.77 288.145 71.4 290.655 69.01L293.965 72.77C289.625 77.45 285.065 80.98 279.025 80.98C272.405 80.98 266.595 77.22 266.595 67.18V67.19Z" fill="#F4F2EB"/>
<path d="M298.875 75.07H302.065C305.375 75.07 306.855 73.47 306.855 70.73V39.36C306.855 37.31 306.175 35.94 304.115 34.8L298.415 31.83V29.55L316.435 24.42H317.465V70.74C317.465 73.48 318.945 75.08 322.145 75.08H325.335V79.87H298.865V75.08L298.875 75.07ZM304.925 7.86997C304.925 3.98997 308.115 0.909973 312.225 0.909973C316.105 0.909973 319.295 3.98997 319.295 7.86997C319.295 11.75 316.105 14.94 312.225 14.94C308.115 14.94 304.925 11.75 304.925 7.86997Z" fill="#F4F2EB"/>
<path d="M331.955 52.93C331.955 35.93 343.935 24.41 358.875 24.41C369.595 24.41 378.835 29.89 378.835 37.07C378.835 40.61 376.785 42.66 373.585 42.66C370.385 42.66 369.025 41.29 367.425 37.87C365.945 34.68 363.885 30.34 357.505 30.34C348.945 30.34 342.675 38.67 342.675 49.85C342.675 62.4 350.205 71.18 358.765 71.18C367.775 71.18 372.115 65.48 373.595 59.2H380.215C378.505 71.52 369.945 80.99 356.595 80.99C342.445 80.99 331.955 69.47 331.955 52.93Z" fill="#F4F2EB"/>
<path d="M388.315 67.31C388.315 57.84 394.815 52.48 405.995 49.17L419.455 45.29V40.38C419.455 34.11 415.005 30.34 409.525 30.34C403.475 30.34 401.315 34.1 400.625 37.3C399.945 40.84 398.115 43.12 394.575 43.12C391.605 43.12 389.325 41.18 389.325 37.64C389.325 31.02 398.455 24.41 409.285 24.41C421.835 24.41 430.045 31.03 430.045 41.07V70.28C430.045 73.36 431.755 74.39 433.585 74.39C434.835 74.39 436.205 73.93 437.465 73.02L439.515 76.44C436.205 79.29 433.695 81 429.815 81C424.455 81 420.465 77.69 420.005 72.33L419.895 69.93H419.215C416.245 76.43 411.115 81 403.015 81C394.915 81 388.295 75.64 388.295 67.31H388.315ZM406.685 73.01C413.525 73.01 419.465 66.05 419.465 56.24V50.99L408.175 54.64C403.045 56.24 399.395 59.77 399.395 65.48C399.395 70.04 402.705 73.01 406.695 73.01H406.685Z" fill="#F4F2EB"/>
<path d="M139.165 67.88L111.555 0H98.5451V1.83L101.735 9.36L93.5151 29.34H100.215L105.155 17.12H105.835L126.255 67.32C127.965 71.43 125.915 74.28 121.575 74.28H116.895V79.87H148.035V74.28C144.845 74.05 141.305 73.03 139.135 67.89L139.165 67.88Z" fill="#F4F2EB"/>
<path d="M66.1952 140.58H69.3852C72.6952 140.58 74.1752 138.98 74.1752 136.25V104.9C74.1752 102.85 73.4952 101.48 71.4352 100.34L65.7352 97.38V95.1L83.7452 89.97H84.7752V136.25C84.7752 138.99 86.2552 140.58 89.4452 140.58H92.6352V145.37H66.1852V140.58H66.1952Z" fill="#C3AF5A"/>
<path d="M72.2352 73.43C72.2352 69.55 75.4252 66.48 79.5352 66.48C83.4152 66.48 86.6052 69.56 86.6052 73.43C86.6052 77.3 83.4152 80.5 79.5352 80.5C75.4352 80.5 72.2352 77.31 72.2352 73.43Z" fill="#F4F2EB"/>
</svg>
