<?xml version="1.0" encoding="UTF-8"?> <!-- Generator: Adobe Illustrator 23.0.6, SVG Export Plug-In . SVG Version: 6.00 Build 0) --> <svg xmlns="http://www.w3.org/2000/svg" xmlns:xlink="http://www.w3.org/1999/xlink" version="1.1" id="Layer_1" x="0px" y="0px" viewBox="0 0 204.96 19.88" style="enable-background:new 0 0 204.96 19.88;" xml:space="preserve"> <style type="text/css"> .st0{fill:#010202;} </style> <g> <g> <g> <g> <rect x="192.91" y="6.15" class="st0" width="12.05" height="2.33"></rect> <rect x="192.91" y="10.93" class="st0" width="12.05" height="2.33"></rect> </g> </g> <g> <g> <g> <g> <path class="st0" d="M53.98,14.74c-4.17,0-5.52-2.96-5.52-4.94h11.99c0-3.98-2.62-6.64-6.56-6.64c-4.95,0-6.65,3.63-6.65,6.24 c0,3.96,2.54,6.42,6.63,6.42c4.73,0,5.83-3.13,6.29-4.43h-1.22C58.35,13,57.19,14.74,53.98,14.74z M53.77,4.24 c2.96,0,4.88,1.63,5.31,4.48H48.47C48.97,5.91,50.94,4.24,53.77,4.24z"></path> </g> </g> <path class="st0" d="M63.26,0v2.04h1.21V0H63.26z"></path> <path class="st0" d="M95.17,8.11c0-3.3-1.57-4.95-5.48-4.95c-2.94,0-4.33,1.53-4.93,2.57c0-0.37,0-2.2,0-2.2h-1.21v11.92h1.21 V8.5c0-1.97,1.29-4.26,4.91-4.26c3,0,4.29,1.17,4.29,3.92v7.29h1.22V8.11z"></path> <path class="st0" d="M109.65,15.45h1.21V0.03h-1.21V5.9c-0.49-0.82-1.98-2.75-5.19-2.75c-3.74,0-6.35,2.59-6.35,6.31 c0,3.16,1.96,6.35,6.35,6.35c2.88,0,4.54-1.39,5.19-2.77V15.45z M109.79,9.6c0,2.49-1.43,5.15-5.45,5.15 c-3.01,0-5.03-2.13-5.03-5.31c0-3.6,2.6-5.21,5.17-5.21C106.85,4.22,109.79,5.53,109.79,9.6z"></path> <path class="st0" d="M131.47,3.52h-1.21v11.93h1.21V8.36c0-2.55,1.65-4.13,4.32-4.13c2.48,0,3.74,1.11,3.74,3.31v7.92h1.21V8.13 c0-2.52,1.53-3.9,4.32-3.9c2.38,0,3.74,1.28,3.74,3.51v7.71h1.21V7.39c0-2.81-1.67-4.24-4.97-4.24c-2.1,0-3.66,0.91-4.54,2.63 c-0.65-1.76-2.13-2.63-4.52-2.63c-1.9,0-3.57,0.85-4.5,2.27V3.52z"></path> <path class="st0" d="M154.86,3.52h-1.21v11.93h1.21V8.36c0-2.55,1.65-4.13,4.32-4.13c2.48,0,3.74,1.11,3.74,3.31v7.92h1.21V8.13 c0-2.52,1.53-3.9,4.32-3.9c2.38,0,3.74,1.28,3.74,3.51v7.71h1.21V7.39c0-2.81-1.67-4.24-4.97-4.24c-2.1,0-3.66,0.91-4.54,2.63 c-0.65-1.76-2.13-2.63-4.52-2.63c-1.9,0-3.57,0.85-4.5,2.27V3.52z"></path> </g> <g> <g> <path class="st0" d="M74.24,14.73c-4.17,0-5.52-2.96-5.52-4.94h11.99c0-3.98-2.62-6.64-6.56-6.64c-4.95,0-6.65,3.63-6.65,6.24 c0,3.96,2.54,6.42,6.63,6.42c4.73,0,5.83-3.13,6.29-4.43H79.2C78.61,12.99,77.45,14.73,74.24,14.73z M74.04,4.23 c2.96,0,4.88,1.63,5.31,4.48H68.73C69.23,5.9,71.21,4.23,74.04,4.23z"></path> </g> </g> <g> <g> <path class="st0" d="M183.08,14.74c-4.17,0-5.52-2.96-5.52-4.94h11.99c0-3.98-2.63-6.64-6.56-6.64c-4.95,0-6.65,3.63-6.65,6.24 c0,3.96,2.54,6.42,6.63,6.42c4.73,0,5.83-3.13,6.29-4.43h-1.22C187.45,13,186.28,14.74,183.08,14.74z M182.87,4.24 c2.96,0,4.88,1.63,5.31,4.48h-10.61C178.06,5.91,180.04,4.24,182.87,4.24z"></path> </g> </g> <path class="st0" d="M61.36,19.88c-0.62,0-1.2-0.08-1.5-0.15v-1.07c0.27,0.06,0.92,0.16,1.5,0.16c1.9,0,1.9-0.63,1.9-2.24V3.52 h1.21v13.34C64.47,18.86,63.43,19.88,61.36,19.88z"></path> <g> <g> <path class="st0" d="M120.57,3.15c-4.82,0-6.71,3.57-6.71,6.33c0,2.76,1.89,6.33,6.71,6.33c4.82,0,6.71-3.57,6.71-6.33 C127.28,6.73,125.39,3.15,120.57,3.15z M120.56,14.75c-3.79,0-5.51-2.73-5.51-5.26c0-2.53,1.73-5.26,5.51-5.26 c3.79,0,5.51,2.73,5.51,5.26C126.08,12.02,124.35,14.75,120.56,14.75z"></path> </g> </g> </g> </g> <g> <g> <g> <g> <path class="st0" d="M10.65,3.58v1.3C9.72,3.92,8.14,3.31,6.44,3.31C2.28,3.31,0,6.17,0,9.58c0,3.33,2.25,6.27,6.44,6.27 c1.73,0,3.24-0.57,4.21-1.68c0,0.43,0,1.28,0,1.28h2.59V3.58H10.65z M6.73,13.61c-2.47,0-4.01-1.54-4.01-4.03 c0-1.95,1.05-4.03,4.01-4.03c2.98,0,4.05,2.08,4.05,4.03C10.78,12.06,9.23,13.61,6.73,13.61z"></path> </g> </g> <path class="st0" d="M23.87,5.68h-3.28v6.88c0,0.52,0.19,1.05,1.57,1.05c0.42,0,0.88-0.05,1.48-0.15l0.23-0.04v2.24l-0.16,0.03 c-0.73,0.13-1.53,0.16-2.49,0.16c-2.11,0-3.22-1.01-3.22-2.92V5.68h-2.76V3.58h2.76V0.05h2.59v3.53h3.28V5.68z"></path> <g> <g> <path class="st0" d="M33.02,3.31c-1.69,0-3.28,0.6-4.2,1.57v-1.3h-2.59v16.3h2.59v-5.59c0.92,0.97,2.47,1.57,4.2,1.57 c4.2,0,6.44-2.94,6.44-6.27C39.46,6.17,37.18,3.31,33.02,3.31z M32.73,13.61c-2.5,0-4.05-1.54-4.05-4.03 c0-1.95,1.06-4.03,4.05-4.03c2.96,0,4.01,2.08,4.01,4.03C36.74,12.06,35.2,13.61,32.73,13.61z"></path> </g> </g> </g> </g> </g> </svg> 