<?xml version="1.0" encoding="UTF-8"?>
<svg width="879px" height="111px" viewBox="0 0 879 111" version="1.1" xmlns="http://www.w3.org/2000/svg" xmlns:xlink="http://www.w3.org/1999/xlink">
    <!-- Generator: Sketch 41.2 (35397) - http://www.bohemiancoding.com/sketch -->
    <title>Page 1</title>
    <desc>Created with Sketch.</desc>
    <defs></defs>
    <g id="Page-1" stroke="none" stroke-width="1" fill="none" fill-rule="evenodd">
        <g>
            <path d="M56.7361,57.4573 L22.3311,57.4573 L39.4731,14.7833 L56.7361,57.4573 Z M44.1301,2.7163 C43.7741,1.6733 43.0001,1.0163 42.0471,1.0163 L37.0031,1.0163 C35.6871,1.0163 35.1891,2.0403 34.9501,2.5243 L0.0001,88.1133 L8.4001,88.1133 C9.8501,88.1133 10.4321,86.9233 10.6941,86.3563 L18.8591,66.0443 L60.0981,66.0443 L68.3251,86.4093 C68.6751,87.4873 69.5031,88.1133 70.5231,88.1133 L78.9801,88.1133 L44.1301,2.7163 Z" id="Fill-1" fill="#FFFFFF"></path>
            <path d="M218.0579,1.0164 L225.0399,1.0164 C226.3159,1.0164 227.3079,2.0124 227.3079,3.3124 L227.3079,88.1134 L220.3399,88.1134 C219.0609,88.1134 218.0579,87.1234 218.0579,85.8484 L218.0579,1.0164 Z" id="Fill-3" fill="#FFFFFF"></path>
            <path d="M302.1209,79.47 L261.5839,79.47 L261.5839,3.17 C261.5839,1.952 260.6419,1.016 259.4169,1.016 L252.3199,1.016 L252.3199,88.113 L304.3959,88.113 L304.3959,81.619 C304.3959,80.436 303.3789,79.47 302.1209,79.47" id="Fill-5" fill="#FFFFFF"></path>
            <path d="M535.4783,79.47 L494.9363,79.47 L494.9363,3.17 C494.9363,1.952 493.9863,1.016 492.7823,1.016 L485.6813,1.016 L485.6813,88.113 L537.7473,88.113 L537.7473,81.619 C537.7473,80.436 536.7303,79.47 535.4783,79.47" id="Fill-7" fill="#FFFFFF"></path>
            <path d="M387.6687,1.0164 L380.5557,1.0164 C379.3097,1.0164 378.4007,1.9864 378.4007,3.3124 L378.4007,40.1164 L325.4207,40.1164 L325.4207,3.1704 C325.4207,1.9524 324.4707,1.0164 323.2537,1.0164 L316.1267,1.0164 L316.1267,88.1134 L323.1257,88.1134 C324.3977,88.1134 325.4077,87.1234 325.4077,85.8484 L325.4207,48.7614 L378.4007,48.7614 L378.4007,85.9604 C378.4007,87.1784 379.3367,88.1134 380.5557,88.1134 L387.6687,88.1134 L387.6687,1.0164 Z" id="Fill-9" fill="#FFFFFF"></path>
            <path d="M409.5823,1.0164 L409.5823,88.1134 L470.9353,88.1134 L470.9353,81.6194 C470.9353,80.4654 469.9333,79.4704 468.7833,79.4704 L418.8363,79.4704 L418.8363,48.7614 L453.6313,48.7614 C454.9043,48.7614 455.9083,47.7684 455.9083,46.4934 L455.9083,42.2734 C455.9083,41.0824 454.8833,40.1164 453.6313,40.1164 L418.8363,40.1164 L418.8363,9.6584 L468.7833,9.6584 C469.9733,9.6584 470.9353,8.6354 470.9353,7.3934 L470.9353,1.0164 L409.5823,1.0164 Z" id="Fill-11" fill="#FFFFFF"></path>
            <path d="M723.9197,1.0164 L723.9197,88.1134 L785.2777,88.1134 L785.2777,81.6194 C785.2777,80.4654 784.2697,79.4704 783.1187,79.4704 L733.1887,79.4704 L733.1887,48.7614 L767.9827,48.7614 C769.2537,48.7614 770.2427,47.7684 770.2427,46.4934 L770.2427,42.2734 C770.2427,41.0824 769.2407,40.1164 767.9827,40.1164 L733.1887,40.1164 L733.1887,9.6584 L783.1187,9.6584 C784.3087,9.6584 785.2777,8.6354 785.2777,7.3934 L785.2777,1.0164 L723.9197,1.0164 Z" id="Fill-13" fill="#FFFFFF"></path>
            <path d="M634.7166,0.9895 L627.6296,0.9895 C626.5266,0.9895 625.7666,2.4035 625.7046,2.5245 L591.9996,56.0705 L558.4146,2.4905 C558.3746,2.4365 557.5826,0.9895 556.3566,0.9895 L549.3626,0.9895 L549.3626,88.0855 L556.4856,88.0855 C557.6826,88.0855 558.6446,87.0635 558.6446,85.8195 L558.6446,19.8885 L588.0546,66.5805 C588.5616,67.5465 589.4146,68.0235 590.5186,68.0235 L593.6226,68.0235 C594.7116,68.0235 595.5866,67.5175 596.0646,66.5805 L625.4776,19.8885 L625.4776,85.9315 C625.4776,87.0635 626.4866,88.0855 627.6296,88.0855 L634.7166,88.0855 L634.7166,0.9895 Z" id="Fill-15" fill="#FFFFFF"></path>
            <path d="M690.363,41.1692 C688.634,40.5702 687.018,40.0862 685.604,39.6892 C684.648,39.4132 683.773,39.1842 683.041,38.9282 C681.507,38.4172 679.917,37.9382 678.336,37.4542 C669.411,34.7932 661,32.2682 661,23.1792 C661,13.7972 668.045,9.0122 681.977,9.0122 C688.928,9.0122 695.209,10.9342 700.619,14.7062 C701.596,15.3822 703.043,15.0432 703.676,14.0802 L707.633,8.2722 C707.236,7.9052 705.687,6.8522 705.661,6.8522 C700.916,3.7092 690.484,0.0002 681.977,0.0002 C662.681,0.0002 651.617,8.4402 651.617,23.1792 C651.617,34.8832 659.37,39.7762 666.962,43.0602 C670.616,44.5382 674.425,45.7022 678.108,46.8332 C679.144,47.1722 680.167,47.4822 681.183,47.7982 L682.61,48.2502 C692.375,51.2252 701.609,54.0582 701.609,63.6612 C701.609,74.4002 694.2,80.3202 680.732,80.3202 C669.337,80.3202 663.207,76.2942 658.602,72.5312 C657.579,71.8462 656.139,72.1352 655.607,72.9562 L651.772,78.5912 C652.013,78.9372 653.339,80.0402 653.374,80.0672 C659.007,84.6002 669.027,89.1912 680.732,89.1912 C699.402,89.1912 710.984,79.4182 710.984,63.6612 C710.984,47.4822 695.417,42.7242 690.363,41.1692" id="Fill-17" fill="#FFFFFF"></path>
            <path d="M878.0408,0.9895 L870.9338,0.9895 C869.7418,0.9895 868.7868,2.0125 868.7868,3.2505 L868.7868,71.8805 L810.6768,1.7835 C810.6488,1.7225 809.8698,0.9895 808.9348,0.9895 L801.8058,0.9895 L801.8058,88.0855 L808.8188,88.0855 C810.0978,88.0855 811.0948,87.0635 811.0948,85.7905 L811.0948,17.0545 L869.3048,87.1505 C869.8088,87.6605 870.2598,88.0855 870.9338,88.0855 L878.0408,88.0855 L878.0408,0.9895 Z" id="Fill-19" fill="#FFFFFF"></path>
            <path d="M201.2063,0.9895 L192.9763,0.9895 C191.6763,0.9895 191.0773,2.1805 190.8523,2.6385 L165.9743,73.8305 L141.0593,2.6895 C140.7223,1.6425 139.9073,0.9895 138.9923,0.9895 L134.0593,0.9895 C132.7593,0.9895 132.1683,2.1805 131.9493,2.6385 L107.0733,73.8305 L82.1423,2.6895 C81.8023,1.6425 81.0073,0.9895 80.0753,0.9895 L71.7963,0.9895 L102.6683,88.1135 L110.0323,88.1135 C111.2393,88.1135 111.7043,87.1235 111.9333,86.6385 L136.5293,17.4455 L160.9663,86.4085 C161.3023,87.4605 162.0573,88.1135 162.9043,88.1135 L170.3013,88.1135 L201.2063,0.9895 Z" id="Fill-21" fill="#E63529"></path>
            <polygon id="Fill-23" fill="#FFFFFF" points="170.302 101.3718 170.302 110.6388 102.669 110.6368 102.669 101.3718"></polygon>
        </g>
    </g>
</svg>