<svg xmlns="http://www.w3.org/2000/svg" viewBox="0 0 146 34">
  <defs/>
  <defs>
    <radialGradient id="b" cx="-10.2506%" cy="111.7811%" r="167.0185%" fx="-10.2506%" fy="111.7811%" gradientTransform="matrix(.99582 0 0 1 -.0004 0)">
      <stop offset="0%" stop-color="#FFCB05"/>
      <stop offset="100%" stop-color="#E0861A"/>
    </radialGradient>
    <radialGradient id="c" cx="-25.502%" cy="44.9473%" r="192.0415%" fx="-25.502%" fy="44.9473%" gradientTransform="matrix(.69 0 0 1 -.079 0)">
      <stop offset="0%" stop-color="#FFCB05"/>
      <stop offset="100%" stop-color="#E0861A"/>
    </radialGradient>
    <radialGradient id="d" cx="-10.3464%" cy="-20.1525%" r="167.7342%" fx="-10.3464%" fy="-20.1525%" gradientTransform="matrix(1 0 0 .9958 0 -.0008)">
      <stop offset="0%" stop-color="#FFCB05"/>
      <stop offset="100%" stop-color="#E0861A"/>
    </radialGradient>
    <radialGradient id="e" cx="56.699%" cy="-33.3177%" r="190.2005%" fx="56.699%" fy="-33.3177%" gradientTransform="matrix(1 0 0 .69667 0 -.101)">
      <stop offset="0%" stop-color="#FFCB05"/>
      <stop offset="100%" stop-color="#E0861A"/>
    </radialGradient>
    <radialGradient id="f" cx="56.4885%" cy="126.6807%" r="191.1135%" fx="56.4885%" fy="126.6807%" gradientTransform="matrix(1 0 0 .69333 0 .3885)">
      <stop offset="0%" stop-color="#FFCB05"/>
      <stop offset="100%" stop-color="#E0861A"/>
    </radialGradient>
    <linearGradient id="a" x1="102.7438%" x2=".3278%" y1="49.9751%" y2="49.9751%">
      <stop offset=".4926%" stop-color="#58595B"/>
      <stop offset="31.22%" stop-color="#626365"/>
      <stop offset="85.89%" stop-color="#7A7B7E"/>
      <stop offset="100%" stop-color="#808285"/>
    </linearGradient>
  </defs>
  <g fill="none" fill-rule="nonzero" opacity=".8">
    <g style="mix-blend-mode:luminosity">
      <path fill="url(#a)" d="M0 18.4875h7.3525l-3.6975 3.655 2.72 2.72 8.2875-8.2875L6.375 8.2875l-2.72 2.6775 3.6975 3.6975H0z"/>
      <path fill="url(#b)" d="M18.4875 14.96l4.8025-4.8025-.085 2.1675 3.1875-1.2325.0425-6.2475-6.205.0425-1.36 3.1875 2.21-.1275-4.8025 4.8025c.4675.2125.935.51 1.3175.8925.3825.3825.68.85.8925 1.3175z"/>
      <path fill="url(#c)" d="M18.4875 18.1475h6.8l-1.615 1.4875 3.145 1.36 4.42-4.42-4.42-4.3775-3.1875 1.36 1.6575 1.4875h-6.8c.2125.4675.2975 1.02.2975 1.5725.0425.51-.085 1.0625-.2975 1.53z"/>
      <path fill="url(#d)" d="M16.2775 20.4l4.8025 4.8025-2.21-.1275 1.2325 3.1875 6.2475.0425v-6.2475L23.1625 20.74l.1275 2.21-4.8025-4.76c-.2125.4675-.51.935-.8925 1.3175-.3825.3825-.85.68-1.3175.8925z"/>
      <path fill="url(#e)" d="M13.09 20.4v6.8l-1.4875-1.615L10.2 28.73l4.4625 4.42 4.42-4.42-1.36-3.1875L16.235 27.2v-6.8c-.4675.2125-1.02.2975-1.5725.2975S13.6 20.6125 13.09 20.4z"/>
      <path fill="url(#f)" d="M16.235 12.75v-6.8l1.4875 1.615 1.36-3.145-4.42-4.42-4.42 4.3775 1.36 3.23L13.09 5.95v6.8c.4675-.2125 1.02-.2975 1.5725-.2975s1.105.085 1.5725.2975z"/>
    </g>
    <g fill="#5B5B5A">
      <path d="M42.67 21.2925h4.845c.3825 0 .5525.1275.51.51l-.2125 1.36c-.085.3825-.2125.5525-.595.5525h-7.31c-.34 0-.4675-.2125-.425-.5525l1.7-13.685c.0425-.3825.2125-.5525.595-.5525H43.69c.3825 0 .51.17.4675.5525L42.67 21.2925zM51.255 23.205c-.0425.3825-.2125.5525-.595.5525h-1.8275c-.3825 0-.51-.17-.4675-.5525l1.19-9.775c.0425-.3825.2125-.5525.595-.5525h1.8275c.3825 0 .4675.17.425.5525l-1.1475 9.775zm1.36-12.0275c-.1275.17-.3825.3825-.7225.3825h-1.445c-.34 0-.4675-.17-.2125-.5525l1.19-1.955c.2125-.2975.425-.5525.8075-.5525h1.955c.3825 0 .4675.255.2125.5525l-1.785 2.125zM55.08 12.92l.17-1.275c.255-1.955 1.7-3.23 5.015-3.23h.2975c.3825 0 .51.17.4675.5525l-.17 1.275c-.0425.3825-.255.5525-.595.5525h-.2125c-1.2325 0-1.8275.3825-1.955 1.19l-.1275.9775h1.8275c.3825 0 .5525.1275.51.51l-.17 1.2325c-.0425.3825-.255.5525-.595.5525H57.715L56.27 27.03c-.0425.3825-.17.5525-.5525.5525H53.89c-.3825 0-.51-.17-.4675-.5525l1.445-11.7725h-1.19c-.3825 0-.51-.17-.4675-.5525l.1275-1.105c.0425-.3825.2125-.4675.595-.51l1.105-.1275h.0425V12.92zM68.765 18.445c-.0425.34-.2125.51-.5525.51H62.645l-.17 1.36c-.0425.2125-.0425.3825-.0425.51 0 .6375.425.9775 1.5725.9775 1.2325 0 1.785-.4675 1.8275-1.105l.0425-.2125c.0425-.3825.255-.5525.595-.5525H68c.3825 0 .4675.2125.4675.5525l-.0425.255c-.17 1.87-1.275 3.23-4.6325 3.23-2.89 0-4.2075-1.105-4.2075-2.805 0-.1275 0-.2975.0425-.425l.5525-4.76c.255-1.955 1.53-3.1875 4.8025-3.1875 2.805 0 4.1225 1.105 4.1225 2.7625 0 .17 0 .2975-.0425.425l-.2975 2.465zM62.9 17.0425h3.4l.1275-.85c.0425-.1275.0425-.2975.0425-.34 0-.6375-.4675-1.02-1.5725-1.02-1.2325 0-1.7425.4675-1.8275 1.19l-.17 1.02zM79.135 12.8775h-1.6575c-.3825 0-.51.2125-.68.5525L73.95 19.7625 72.675 13.43c-.085-.34-.17-.5525-.5525-.5525h-1.785c-.3825 0-.68.2125-.595.5525l2.295 10.455-1.4025 3.1025c-.17.3825.085.5525.4675.5525h1.615c.3825 0 .5525-.255.68-.5525L79.645 13.43c.1275-.3825-.085-.5525-.51-.5525zM86.8275 13.26l-.17 1.4025c-.0425.3825-.2125.51-.6375.5525-1.53.17-2.7625.85-3.2725 1.275l-.8075 6.715c-.0425.3825-.2125.5525-.595.5525h-1.8275c-.3825 0-.51-.17-.4675-.5525l1.19-9.775c.0425-.3825.2125-.51.595-.51h1.7c.3825 0 .51.17.4675.51l-.0425.765c.6375-.595 1.7-1.445 3.3575-1.445.3825-.0425.5525.1275.51.51zM89.1225 23.1625c-.0425.3825-.2125.5525-.595.5525H86.7c-.3825 0-.51-.17-.4675-.5525l1.19-9.7325c.0425-.3825.2125-.5525.595-.5525h1.8275c.3825 0 .51.17.4675.5525l-1.19 9.7325zm1.53-12.24c-.0425.3825-.2125.51-.595.51H88.23c-.3825 0-.51-.17-.4675-.51l.2125-1.87c.0425-.3825.2125-.5525.595-.5525h1.8275c.3825 0 .4675.17.425.5525l-.17 1.87zM97.2825 15.7675c.0425-.2125.0425-.255.0425-.2975 0-.51-.5525-.7225-1.445-.7225-.935 0-1.53.17-1.6575.85l-.0425.1275c-.0425.1275-.0425.255-.0425.255 0 .2975.1275.5525.5525.68l3.0175 1.105c1.2325.425 1.8275 1.1475 1.8275 2.04 0 .17 0 .2125-.0425.51l-.1275.9775c-.17 1.4025-1.4025 2.6775-4.59 2.6775-2.9325 0-4.165-1.19-4.165-2.465 0-.085 0-.17.0425-.34l.085-.51c.0425-.34.2125-.51.5525-.51h1.615c.34 0 .4675.1275.425.51l-.0425.255c-.0425.17-.0425.255-.0425.2975 0 .5525.7225.765 1.615.765 1.02 0 1.8275-.2125 1.9125-.8925l.0425-.17c.0425-.17.0425-.2975.0425-.3825 0-.2975-.2975-.51-.8925-.7225l-2.975-1.1475c-.935-.34-1.4875-1.105-1.4875-2.0825 0-.0425 0-.17.0425-.3825l.085-.68c.1275-1.4025 1.19-2.7625 4.3775-2.7625 2.805 0 3.9525 1.275 3.9525 2.5925 0 .0425 0 .1275-.0425.34l-.0425.3825c-.0425.3825-.2125.51-.5525.51h-1.615c-.34 0-.4675-.17-.425-.51v-.2975zM103.105 12.9625c.2125 0 .2975.1275.2975.34l-.085.8075c.6375-.51 1.8275-1.3175 3.6975-1.3175 1.4025 0 2.38.595 2.635 1.4875.595-.4675 1.8275-1.4875 3.9525-1.4875 1.785 0 2.805.935 2.805 2.2525 0 .1275 0 .255-.0425.425l-.9775 7.9475c-.0425.2125-.1275.34-.3825.34h-.8925c-.17 0-.2975-.085-.2975-.34l.935-7.5225c.0425-.17.0425-.2975.0425-.3825 0-.85-.51-1.36-1.7425-1.36-1.615 0-2.89.8925-3.3575 1.275 0 .1275.0425.255 0 .3825l-.8925 7.6075c-.0425.2125-.1275.34-.34.34h-.8925c-.2125 0-.2975-.085-.2975-.34l.935-7.5225c.0425-.17.0425-.2975.0425-.3825 0-.85-.51-1.36-1.7425-1.36-1.5725 0-2.805.85-3.315 1.2325l-.9775 8.0325c-.0425.2125-.1275.34-.34.34h-.935c-.17 0-.2975-.085-.255-.34l1.275-10.115c.0425-.2125.1275-.34.34-.34h.8075zM124.015 22.61c-.68.51-1.9975 1.3175-3.8675 1.3175-1.8275 0-2.7625-.935-2.7625-2.3375 0-.17.0425-.2975.0425-.4675l.68-5.525c.2125-1.6575 1.19-2.805 3.3575-2.805 1.8275 0 3.0175.85 3.6125 1.3175l.17-.85c.0425-.2125.1275-.34.34-.34h.8075c.17 0 .2975.085.255.34l-1.275 10.1575c-.0425.2125-.1275.34-.34.34h-.8075c-.2125 0-.2975-.085-.2975-.34l.085-.8075zm-5.0575-1.7c-.0425.1275-.0425.2125-.0425.2975 0 .765.51 1.36 1.785 1.36 1.5725 0 2.89-.85 3.4425-1.2325l.7225-5.95c-.425-.3825-1.4875-1.2325-3.1025-1.2325-1.4025 0-1.9975.7225-2.125 1.6575l-.68 5.1zm4.2075-9.7325c-.085.085-.2125.2125-.425.2125h-.765c-.17 0-.255-.1275-.1275-.2975L123.505 8.84c.1275-.17.255-.2975.4675-.2975h.9775c.255 0 .2975.17.1275.34l-1.9125 2.295zM128.605 23.4175c-.0425.2125-.1275.34-.34.34h-.8925c-.2125 0-.2975-.1275-.255-.34l1.785-14.5775c.0425-.2125.1275-.34.34-.34h.8925c.2125 0 .2975.1275.255.34l-1.785 14.5775z"/>
    </g>
    <g fill="#5B5B5A">
      <path d="M131.92 23.4175c-.0425.255-.1275.34-.34.34h-.8925c-.2125 0-.2975-.085-.2975-.34l.2125-1.7c.0425-.2125.1275-.34.34-.34h.935c.2125 0 .255.1275.255.34l-.2125 1.7zM135.2775 23.4175c-.0425.2125-.17.34-.3825.34h-.8925c-.2125 0-.2975-.085-.255-.34l1.275-10.115c.0425-.2125.1275-.34.34-.34h.8925c.255 0 .34.1275.2975.34l-1.275 10.115zm1.53-12.58c-.0425.2125-.1275.34-.34.34h-.8925c-.2125 0-.2975-.1275-.255-.34l.255-2.04c.0425-.2125.1275-.34.34-.34h.8925c.2125 0 .2975.085.255.34l-.255 2.04zM144.33 15.47c.0425-.17.0425-.2975.0425-.3825 0-.6375-.68-1.1475-2.2525-1.1475-1.615 0-2.4225.425-2.55 1.3175l-.085.4675c-.0425.17-.0425.255-.0425.2975 0 .4675.255.85.935 1.0625l3.23 1.0625c1.0625.34 1.615 1.02 1.615 1.785 0 .17-.0425.34-.0425.4675l-.1275 1.19c-.1275 1.3175-1.36 2.3375-4.25 2.3375-2.5925 0-3.6975-1.02-3.6975-2.1675 0-.085 0-.2125.0425-.34l.085-.5525c.0425-.2125.1275-.2975.34-.2975h.85c.17 0 .255.085.2125.2975l-.0425.34c-.0425.1275-.0425.34-.0425.425 0 .7225.85 1.1475 2.38 1.1475 1.7 0 2.6775-.4675 2.7625-1.36l.085-.765c.0425-.17.0425-.2125.0425-.34 0-.4675-.4675-.765-1.1475-1.02l-3.145-1.0625c-.8925-.2975-1.53-.9775-1.53-1.9125 0-.085 0-.17.0425-.34l.085-.8075c.17-1.3175 1.19-2.38 3.995-2.38 2.5075 0 3.57 1.0625 3.57 2.21 0 .1275 0 .17-.0425.3825l-.0425.51c-.0425.2125-.1275.2975-.34.2975h-.765c-.17 0-.2975-.085-.255-.2975l.085-.425z"/>
    </g>
  </g>
</svg>