<?xml version="1.0" encoding="utf-8"?>
<!-- Generator: Adobe Illustrator 25.2.3, SVG Export Plug-In . SVG Version: 6.00 Build 0)  -->
<svg version="1.1" xmlns="http://www.w3.org/2000/svg" xmlns:xlink="http://www.w3.org/1999/xlink" x="0px" y="0px" width="566.9px"
	 height="340.2px" viewBox="0 0 566.9 340.2" style="enable-background:new 0 0 566.9 340.2;" xml:space="preserve">
<style type="text/css">
	.st0{fill:#FFFFFF;}
</style>
<g id="Layer_2">
	<g>
		<path class="st0" d="M264,290.7c-2-9.3-9.7-14.7-18.6-14.7c-16,0-22.8,13.4-22.8,26.6c0,13.2,6.8,26.6,22.8,26.6
			c11.2,0,18.3-8.6,19.4-19.4h5.8c-1.6,14.8-11,24.3-25.2,24.3c-19.1,0-28.6-15-28.6-31.5c0-16.5,9.5-31.5,28.6-31.5
			c11.4,0,22.8,6.9,24.3,19.6H264z"/>
		<path class="st0" d="M299.1,272.4h6.4l23.7,60.5H323l-7.4-18.8h-27.6l-7.3,18.8h-6.2L299.1,272.4z M289.9,309.2h23.8l-11.7-31
			L289.9,309.2z"/>
		<path class="st0" d="M338.6,272.4h26.9c10.9,0,18,6.4,18,17.3c0,10.9-7.1,17.3-18,17.3h-21.1v25.9h-5.8V272.4z M344.4,302h19.8
			c8,0,13.5-4.1,13.5-12.4c0-8.3-5.5-12.4-13.5-12.4h-19.8V302z"/>
		<path class="st0" d="M394.5,272.4h5.8v60.5h-5.8V272.4z"/>
		<path class="st0" d="M409.8,272.4h48v4.9h-21.1v55.6h-5.8v-55.6h-21.1V272.4z"/>
		<path class="st0" d="M477.5,272.4h6.4l23.7,60.5h-6.2l-7.4-18.8h-27.6l-7.3,18.8H453L477.5,272.4z M468.3,309.2h23.8l-11.7-31
			L468.3,309.2z"/>
		<path class="st0" d="M517,272.4h5.8V328h33.9v4.9H517V272.4z"/>
	</g>
	<g>
		<line class="st0" x1="245.4" y1="52.4" x2="245.4" y2="47.2"/>
		<path class="st0" d="M182.1,47.2c0.5,1.7,0.8,3.5,1.1,5.3"/>
		<path class="st0" d="M175.8,33.7c1.2,1.7,2.2,3.4,3.1,5.3"/>
		<line class="st0" x1="245.4" y1="38.9" x2="245.4" y2="33.7"/>
		<line class="st0" x1="280.4" y1="33.7" x2="280.4" y2="38.9"/>
		<path class="st0" d="M415.9,38.9c1-1.9,2.2-3.6,3.4-5.3"/>
		<path class="st0" d="M410.7,52.4c0.4-1.8,0.9-3.6,1.5-5.3"/>
		<line class="st0" x1="280.4" y1="47.2" x2="280.4" y2="52.4"/>
		<path class="st0" d="M147.4,52.4c-0.3-1.8-0.6-3.6-1.1-5.3"/>
		<line class="st0" x1="67.3" y1="47.2" x2="67.3" y2="52.4"/>
		<rect x="32.4" y="47.2" class="st0" width="35" height="5.3"/>
		<rect x="32.4" y="33.7" class="st0" width="35" height="5.3"/>
		<path class="st0" d="M67.3,19.5h32.4c15.1,0,27.1,2.2,35.4,8.9h36.2c-11.6-11.7-31.6-18.2-61.4-18.2H4.7v7.6l27.7,2.5v8h35V19.5z"
			/>
		<path class="st0" d="M146.4,47.2c0.4,1.7,0.8,3.4,1.1,5.3h35.8c-0.3-1.8-0.7-3.6-1.1-5.3H146.4z"/>
		<path class="st0" d="M148.4,66.2c0,16.9-3.5,28-10.5,35c-8.3,8.3-21.3,10.8-38.2,10.8H67.3V57.7h-35v164l-27.7,2.2v7.6h107.8
			c52.1,0,79.5-20.3,79.5-58.2c0-39.4-28.9-51.2-55.6-55.6v-4.1c25.4-6,47.7-15.3,47.7-50.9c0-1.7-0.1-3.4-0.2-5h-35.8
			C148.3,60.4,148.4,63.2,148.4,66.2z M143,134.2c8.6,8.9,11.8,22.3,11.8,38.5c0,30.8-11.8,49.6-52.5,49.6h-35V120.9h35
			C121.7,120.9,134.7,125.6,143,134.2z"/>
		<path class="st0" d="M178.9,38.9c-0.9-1.8-1.9-3.6-3.1-5.3h-35.6c1.2,1.6,2.2,3.3,3.2,5.3H178.9z"/>
		<rect x="245.4" y="33.7" class="st0" width="35" height="5.3"/>
		<rect x="245.4" y="47.2" class="st0" width="35" height="5.3"/>
		<polygon class="st0" points="245.4,221.7 217.7,223.9 217.7,231.5 381.1,231.5 381.1,174.6 366.2,174.6 356.7,222.6 280.4,222.6 
			280.4,57.7 245.4,57.7 		"/>
		<polygon class="st0" points="280.4,20.4 308,17.9 308,10.2 217.7,10.2 217.7,17.9 245.4,20.4 245.4,28.4 280.4,28.4 		"/>
		<polygon class="st0" points="529.1,38.9 550.6,38.9 550.6,33.7 527.9,33.7 		"/>
		<path class="st0" d="M444.3,38.9c0.8-1.9,1.8-3.6,2.9-5.3h-28c-1.2,1.7-2.3,3.4-3.4,5.3H444.3z"/>
		<path class="st0" d="M412.2,47.2c-0.6,1.7-1.1,3.4-1.5,5.3h30.2c0.2-1.8,0.5-3.6,0.8-5.3H412.2z"/>
		<polygon class="st0" points="535.7,67.5 550.6,67.5 550.6,57.7 533.4,57.7 		"/>
		<path class="st0" d="M490.5,14.7c20,0,34.3,5.4,34.3,5.4l1.9,8.3h23.9V12.8c0,0-29.9-6.4-57.5-6.4c-17.2,0-41,2.2-58.8,13.4
			c-3.8,2.5-7.4,5.3-10.6,8.6h27.7C460.3,19,474.3,14.7,490.5,14.7z"/>
		<polygon class="st0" points="532.2,52.4 550.6,52.4 550.6,47.2 531,47.2 		"/>
		<path class="st0" d="M409.8,57.7c-0.4,3-0.7,6.1-0.7,9.5c0,20,6.4,33.4,16.2,43.2c14.3,14,36.2,20.3,57.9,26.1
			c14.9,3.8,28.3,7.9,36.9,16.5c6,6.4,9.9,14.9,9.9,27.3c0,35-28.6,46.7-59.5,46.7c-17.2,0-36.6-6-36.6-6l-10.4-46.5l-15.3,0.1v52.8
			c0,0,26.4,8.3,61.7,8.3c32.1,0,56.6-6.7,72.5-20.3c12.7-11.1,19.4-26.7,19.4-47.1c0-20.3-7.6-34-18.8-43.9
			c-13.7-12.4-33.1-18.4-51.2-22.9c-15.6-3.8-31.2-7.3-41-16.8c-6-5.7-10.2-14-10.2-26.1c0-0.3,0-0.6,0-0.9H409.8z"/>
	</g>
</g>
<g id="Design">
</g>
</svg>
