<svg id="Group_4" data-name="Group 4" xmlns="http://www.w3.org/2000/svg" xmlns:xlink="http://www.w3.org/1999/xlink" width="162.967" height="58.872" viewBox="0 0 162.967 58.872">
  <defs>
    <clipPath id="clip-path">
      <rect id="Rectangle_26" data-name="Rectangle 26" width="162.967" height="58.872" fill="none"/>
    </clipPath>
  </defs>
  <g id="Group_3" data-name="Group 3" clip-path="url(#clip-path)">
    <path id="Path_6" data-name="Path 6" d="M106.092,10.248l-4.23,20.414h7.787l4.232-20.414ZM95.819,13.807v-.068l.8-3.491H89.1l-4.23,20.414h7.79l1.812-8.529c.8-3.761,2.416-5.239,4.9-5.239a7.925,7.925,0,0,1,3.225.54l1.476-6.987a5.3,5.3,0,0,0-2.214-.334,7.614,7.614,0,0,0-6.042,3.693m-38.341-.673.805-2.886H50.762L46.533,30.662h7.788L56.6,19.85c.47-2.149,1.276-3.9,3.759-3.9,1.278,0,2.217.67,2.217,1.948a31.472,31.472,0,0,1-.6,3.424l-2.015,9.335h7.655L70.1,19.112a19.74,19.74,0,0,0,.536-3.9c0-4.23-3.357-5.507-6.042-5.507a9.106,9.106,0,0,0-7.118,3.424m55.933,8.6c.068,4.363,2.083,9.4,11.079,9.4,5.305,0,10.341-2.953,11.615-8.728h-7.718c-.607,1.748-1.95,3.36-3.966,3.36-2.215,0-2.885-1.413-2.684-4.3.067-1.545.94-6.449,4.566-6.449,2.552,0,2.752,2.421,2.685,3.359h7.723c.067-5.841-4.1-8.662-10.207-8.662-7.989,0-13.094,5.978-13.094,12.02m32.3.336c0-3.221,1.816-7.052,4.569-7.052,2.283,0,3.089,1.546,3.089,3.628,0,4.3-2.082,6.984-4.635,6.984-1.81,0-3.022-1.009-3.022-3.56m-8.19.6c0,3.7,1.478,8.46,7.453,8.46a8.662,8.662,0,0,0,6.513-2.953v.069a5.747,5.747,0,0,0,.4,2.417h7.793a9.745,9.745,0,0,1,.065-5.036c.4-1.813,3.225-15.377,3.225-15.377h-7.789l-.605,2.618c-.94-1.88-2.955-3.156-6.044-3.156-7.185,0-11.012,6.983-11.012,12.958M36.729,14.076c2.216,0,3.29,1.276,2.887,3.7H32.7c.537-2.083,1.947-3.7,4.029-3.7M24.173,21.8c0,5.437,3.222,9.333,10.744,9.333,7.721,0,10.341-5.439,10.878-6.783H38.274a3.007,3.007,0,0,1-3.022,1.814,2.857,2.857,0,0,1-2.686-1.478A5.566,5.566,0,0,1,32.03,21.8H46.6a13.463,13.463,0,0,0,.4-3.491c0-6.179-4.566-9-10-9C31.088,9.309,24.173,13,24.173,21.8M0,21.327c0,4.432,1.879,9.805,11.012,9.805,5.371,0,10.407-3.291,11.615-9.066H14.906c-.6,1.748-1.946,3.693-3.894,3.693-2.35,0-2.954-1.745-2.753-4.631.133-1.478,1.007-6.718,4.565-6.718,2.551,0,2.752,2.621,2.752,3.628H23.3c.067-5.841-4.163-9-10.207-9A12.7,12.7,0,0,0,0,21.327M79.031,4.136c-2.553.067-3.424.067-3.424.067l-1.341,6.045H70.638a5.155,5.155,0,0,1,1.679,1.88,8.022,8.022,0,0,1,.336,4.5c-.605,3.424-1.345,6.716-1.345,6.716-1.275,5.842,1.075,7.72,6.582,7.72a29.514,29.514,0,0,0,4.834-.4l1.141-5.508a20.309,20.309,0,0,1-3.087.269,1.554,1.554,0,0,1-1.747-1.611,11.742,11.742,0,0,1,.336-2.217l1.343-6.178h5.237l1.208-5.169h-5.5L83.06,4s-1.208.067-4.029.134m30.752-3.02c-2.417,1.544-3.424,4.364-2.214,6.177s4.1,1.948,6.579.4c2.419-1.61,3.359-4.364,2.216-6.176A3.562,3.562,0,0,0,113.25,0a6.361,6.361,0,0,0-3.466,1.116" transform="translate(0 0)" fill="#fff"/>
    <path id="Path_7" data-name="Path 7" d="M.963,150.413v15.2H12.051v-2.3H3.623v-4.448h7.661v-2.171H3.623v-3.98H11.9v-2.3Z" transform="translate(-0.711 -111.098)" fill="#769e91"/>
    <path id="Path_8" data-name="Path 8" d="M51.118,165.611h2.3v1.617l.043.043a4.066,4.066,0,0,1,1.447-1.437,3.855,3.855,0,0,1,1.979-.521,4.114,4.114,0,0,1,2.852.936,3.588,3.588,0,0,1,1.043,2.81v7.555H58.354V169.7a2.988,2.988,0,0,0-.554-1.883,2.009,2.009,0,0,0-1.6-.585,2.634,2.634,0,0,0-1.106.223,2.4,2.4,0,0,0-.83.617,2.9,2.9,0,0,0-.532.926,3.3,3.3,0,0,0-.192,1.128v6.491H51.118Z" transform="translate(-37.757 -122.104)" fill="#769e91"/>
    <path id="Path_9" data-name="Path 9" d="M104.066,170.143a3.928,3.928,0,0,0-.245-1.106,2.963,2.963,0,0,0-.554-.926,2.754,2.754,0,0,0-.851-.639,2.517,2.517,0,0,0-1.118-.245,2.9,2.9,0,0,0-1.159.224,2.648,2.648,0,0,0-.894.617,3.049,3.049,0,0,0-.6.926,3.217,3.217,0,0,0-.245,1.149Zm-5.661,1.6a4.226,4.226,0,0,0,.181,1.234,3.034,3.034,0,0,0,.542,1.043,2.61,2.61,0,0,0,.915.713,3.01,3.01,0,0,0,1.319.266,2.911,2.911,0,0,0,1.713-.458,2.7,2.7,0,0,0,.969-1.372h2.3a4.556,4.556,0,0,1-1.788,2.777,4.861,4.861,0,0,1-1.479.723,5.947,5.947,0,0,1-1.713.245,5.83,5.83,0,0,1-2.3-.425,4.748,4.748,0,0,1-1.692-1.192,5.06,5.06,0,0,1-1.043-1.83,7.43,7.43,0,0,1-.351-2.341,6.614,6.614,0,0,1,.373-2.223,5.683,5.683,0,0,1,1.064-1.851,4.993,4.993,0,0,1,3.884-1.735,4.93,4.93,0,0,1,2.331.543,5.119,5.119,0,0,1,1.713,1.437,5.822,5.822,0,0,1,.99,2.054,6.3,6.3,0,0,1,.159,2.394Z" transform="translate(-70.893 -122.104)" fill="#769e91"/>
    <path id="Path_10" data-name="Path 10" d="M143.447,165.611h2.277v2.128h.043a2.456,2.456,0,0,1,.415-.873,4.043,4.043,0,0,1,.745-.777,3.769,3.769,0,0,1,.969-.564,2.9,2.9,0,0,1,1.085-.213,5.292,5.292,0,0,1,.585.021l.33.043v2.341c-.17-.028-.345-.053-.522-.074a4.348,4.348,0,0,0-.521-.032,2.787,2.787,0,0,0-1.16.245,2.666,2.666,0,0,0-.947.723,3.54,3.54,0,0,0-.638,1.182,5.094,5.094,0,0,0-.234,1.617v5.236h-2.426Z" transform="translate(-105.954 -122.104)" fill="#769e91"/>
    <path id="Path_11" data-name="Path 11" d="M175.555,174.7a2.576,2.576,0,0,0,2.288-1.2,3.857,3.857,0,0,0,.51-1.234,6.178,6.178,0,0,0,.159-1.394,5.429,5.429,0,0,0-.17-1.362,3.653,3.653,0,0,0-.522-1.171,2.52,2.52,0,0,0-.915-.808,2.857,2.857,0,0,0-1.351-.3,2.549,2.549,0,0,0-1.362.341,2.725,2.725,0,0,0-.894.883,3.8,3.8,0,0,0-.49,1.234,6.5,6.5,0,0,0-.148,1.372,5.183,5.183,0,0,0,.17,1.33,3.651,3.651,0,0,0,.521,1.16,2.785,2.785,0,0,0,.894.83,2.537,2.537,0,0,0,1.309.319m5.384,1.341a4.685,4.685,0,0,1-1.394,3.714,5.9,5.9,0,0,1-4.012,1.224,8.417,8.417,0,0,1-1.67-.17,4.973,4.973,0,0,1-1.532-.575,3.69,3.69,0,0,1-1.16-1.064,3.234,3.234,0,0,1-.553-1.617h2.426a1.944,1.944,0,0,0,.362.83,1.863,1.863,0,0,0,.607.5,2.306,2.306,0,0,0,.777.234,7.255,7.255,0,0,0,.894.053,2.831,2.831,0,0,0,2.15-.723,2.932,2.932,0,0,0,.681-2.085v-1.681h-.042a3.691,3.691,0,0,1-1.394,1.426,3.74,3.74,0,0,1-1.9.511,5.028,5.028,0,0,1-2.245-.458,4.279,4.279,0,0,1-1.532-1.255,5.224,5.224,0,0,1-.883-1.841,8.7,8.7,0,0,1-.276-2.235,6.478,6.478,0,0,1,.341-2.107,5.362,5.362,0,0,1,.979-1.756,4.7,4.7,0,0,1,1.564-1.2,4.762,4.762,0,0,1,2.1-.447,4.231,4.231,0,0,1,1.915.436,2.965,2.965,0,0,1,1.341,1.372h.042v-1.511h2.426Z" transform="translate(-125.74 -122.104)" fill="#769e91"/>
    <path id="Path_12" data-name="Path 12" d="M216.072,166.453h2.66l2.873,8.214h.043l2.788-8.214h2.532l-4.277,11.6q-.3.745-.585,1.426a5.112,5.112,0,0,1-.7,1.2,3.042,3.042,0,0,1-1.032.83,3.527,3.527,0,0,1-1.575.308,11.087,11.087,0,0,1-1.681-.127v-2.043q.3.042.574.1a3.03,3.03,0,0,0,.575.053,1.975,1.975,0,0,0,.7-.106,1.165,1.165,0,0,0,.457-.308,1.921,1.921,0,0,0,.309-.479,4.659,4.659,0,0,0,.234-.639l.277-.851Z" transform="translate(-159.596 -122.946)" fill="#769e91"/>
  </g>
</svg>
