<?xml version="1.0" encoding="UTF-8"?><svg id="Layer_1" xmlns="http://www.w3.org/2000/svg" viewBox="0 0 300 35"><defs><style>.cls-1{stroke-width:0px;}</style></defs><path class="cls-1" d="M237.25.49c1.78.33,3.59.54,5.32,1.01,5.3,1.43,7.74,5.01,7.16,10.45h-11.5c-.02-2.48-1.7-3.33-3.8-3.43-3.22-.16-6.47-.34-9.68-.11-4.26.3-5.32,1.81-4.96,6.25h30.05c-.16,4.46.51,8.86-1.21,13.05-1.59,3.86-4.86,5.45-8.67,6.12-2.24.39-4.54.64-6.81.67-4.69.05-9.39.04-14.07-.19-3.69-.18-7.05-1.38-9.31-4.61-1.27-1.82-1.92-3.88-2.19-6.05-.52-4.25-.64-8.51.17-12.72,1.18-6.1,5.15-9.51,11.55-10.19.46-.05.92-.16,1.38-.25,5.52,0,11.05,0,16.57,0ZM219.8,22.13c-.23,2.67.53,3.85,3.05,4.23,3.95.6,7.93.63,11.88-.08,2.23-.4,3.13-1.75,2.95-4.15h-17.88Z"/><path class="cls-1" d="M300,23.22c-.19.96-.32,1.94-.56,2.89-1.15,4.49-4.39,7.31-9.21,7.99-1.01.14-2.04.26-3.06.26-6.59.01-13.18.03-19.76-.05-1.44-.02-2.91-.3-4.3-.7-4.68-1.38-7.14-4.75-7.47-9.44-.29-4.2-.4-8.46.02-12.64.62-6.22,4.59-9.84,10.86-10.02,7.45-.21,14.91-.22,22.36,0,6.35.19,10.08,3.88,10.91,10.15.04.31.14.61.21.91v10.66ZM277.92,25.48c2.28-.21,4.41-.3,6.5-.63,2.21-.34,3.22-1.41,3.36-3.62.14-2.27.13-4.57-.01-6.84-.13-2.06-1.07-3.1-3.08-3.48-4.25-.8-8.56-.79-12.81-.14-2.93.45-4.22,2.19-4.34,5.17-.05,1.34-.05,2.68.01,4.02.12,2.75,1.39,4.4,4.07,4.89,2.11.39,4.29.44,6.3.63Z"/><path class="cls-1" d="M0,13.27c.2-1,.35-2.01.6-3C1.83,5.2,5.01,2.22,10.2,1.72c3.52-.34,7.08-.36,10.63-.35,3.94,0,7.88.13,11.82.33,1.19.06,2.4.45,3.54.86,4,1.43,6.26,4.24,6.47,8.55.06,1.21,0,2.42,0,3.7h-11.52c-.59-3.09-1.25-3.97-4.36-4.18-3.45-.23-6.94-.2-10.38.08-3.13.25-4.33,1.93-4.33,5.1,0,1.22,0,2.45,0,3.67.01,3.18,1.36,5.03,4.54,5.26,3.48.26,7.02.2,10.51-.07,2.86-.22,3.62-1.25,4.04-4.08h11.39c.98,7.31-1.97,11.69-8.66,13.22-1.45.33-2.97.51-4.45.51-5.87-.01-11.76.09-17.62-.26-6.72-.41-10.64-4.36-11.56-11C.19,22.71.08,22.37,0,22.03c0-2.92,0-5.84,0-8.76Z"/><path class="cls-1" d="M89.51,20.58h-28.88c-.71,3.68.49,5.69,4.03,5.96,3.52.27,7.08.15,10.61-.06,2.17-.13,2.9-1.1,3.17-3.21h11.15c.68,4.5-1.39,8.06-5.61,9.68-2.84,1.09-5.82,1.4-8.83,1.38-4.89-.03-9.79.13-14.66-.24-7.17-.55-10.77-4-11.78-11.11-.59-4.13-.62-8.35.28-12.47,1.14-5.22,4.33-8.31,9.64-8.76,4.66-.39,9.37-.37,14.05-.32,2.74.03,5.52.27,8.21.79,5.3,1.03,8.17,4.29,8.57,9.69.21,2.81.04,5.66.04,8.68ZM77.91,13.35c.08-2.54-.8-3.73-3.19-4.09-3.8-.58-7.62-.55-11.41.02-2.18.33-3.07,1.78-2.67,4.07h17.27Z"/><path class="cls-1" d="M95.87,1.95h11.94v4.62c.2-.02.32,0,.34-.04,1.69-3.09,4.48-4.45,7.81-4.85,4.44-.53,8.91-.6,13.29.41,5.61,1.3,8.95,4.96,9.19,10.7.28,6.89.11,13.8.14,20.71,0,.07-.05.14-.1.29h-11.88v-1.44c0-5.17,0-10.34,0-15.51,0-3.85-1.07-5.35-4.85-5.8-2.64-.32-5.38-.35-8.01-.03-3.94.47-5.89,3-5.9,7,0,4.77,0,9.55,0,14.32,0,.46,0,.93,0,1.45h-11.96V1.95Z"/><path class="cls-1" d="M149.79,10.51h-7.36V1.95h37.99v8.5h-18.51c-.04.51-.09.88-.09,1.26,0,3.55-.01,7.1,0,10.65,0,2.11.83,3.05,2.92,3.22,1.14.09,2.29.08,3.43,0,2.22-.15,3.15-1.16,3.23-3.41.03-.78,0-1.55,0-2.38h10.47c.16,4.15.46,8.25-2.99,11.36-2.07,1.87-4.59,2.75-7.32,2.98-4.4.37-8.83.56-13.2-.27-5.68-1.09-8.57-4.68-8.57-10.45,0-4.22,0-8.44,0-12.9Z"/><path class="cls-1" d="M188.79,1.93h11.91v31.86h-11.91V1.93Z"/></svg>