<svg width="1200" height="630" viewBox="0 0 1200 630" fill="none" xmlns="http://www.w3.org/2000/svg">
<g clip-path="url(#clip0_596_996)">
<rect width="1200" height="630" fill="#F2F2F2"/>
<path d="M635.94 282.395C638.129 282.395 639.896 284.159 639.896 286.341C639.896 288.523 638.129 290.287 635.94 290.287C633.766 290.287 632 288.519 632 286.341C632 284.163 633.766 282.395 635.94 282.395Z" fill="#2667FF"/>
<path d="M635.94 254.052C638.13 254.052 639.896 255.817 639.896 257.998C639.896 260.18 638.13 261.944 635.94 261.944C633.766 261.944 632 260.176 632 257.998C632 255.82 633.766 254.052 635.94 254.052Z" fill="#2667FF"/>
<path d="M635.94 225.711C638.129 225.711 639.896 227.475 639.896 229.657C639.896 231.838 638.129 233.603 635.94 233.603C633.766 233.603 632 231.835 632 229.657C632 227.479 633.766 225.711 635.94 225.711Z" fill="#CCE0FF"/>
<path d="M635.94 197.368C638.129 197.368 639.896 199.133 639.896 201.314C639.896 203.496 638.129 205.26 635.94 205.26C633.766 205.26 632 203.492 632 201.314C632 199.136 633.766 197.368 635.94 197.368Z" fill="#CCE0FF"/>
<path d="M635.94 169.026C638.129 169.026 639.896 170.791 639.896 172.973C639.896 175.155 638.129 176.918 635.94 176.918C633.766 176.918 632 175.15 632 172.973C632 170.794 633.766 169.026 635.94 169.026Z" fill="#CCE0FF"/>
<path d="M635.94 140.684C638.13 140.684 639.896 142.448 639.896 144.63C639.896 146.812 638.13 148.576 635.94 148.576C633.766 148.576 632 146.807 632 144.63C632 142.453 633.766 140.684 635.94 140.684Z" fill="#CCE0FF"/>
<path d="M635.94 112.343C638.129 112.343 639.896 114.108 639.896 116.288C639.896 118.47 638.129 120.235 635.94 120.235C633.765 120.235 631.999 118.467 631.999 116.288C631.999 114.11 633.765 112.343 635.94 112.343Z" fill="#CCE0FF"/>
<path d="M635.939 83.9998C638.129 83.9998 639.895 85.7641 639.895 87.9459C639.895 90.1277 638.129 91.8921 635.939 91.8921C633.765 91.8921 631.999 90.1233 631.999 87.9459C631.999 85.7671 633.765 83.9998 635.939 83.9998Z" fill="#CCE0FF"/>
<path d="M635.94 310.737C638.129 310.737 639.896 312.501 639.896 314.683C639.896 316.865 638.129 318.629 635.94 318.629C633.766 318.629 632 316.861 632 314.683C632 312.505 633.766 310.737 635.94 310.737Z" fill="#2667FF"/>
<path d="M662.781 282.395C664.97 282.395 666.736 284.159 666.736 286.341C666.736 288.523 664.97 290.287 662.781 290.287C660.607 290.287 658.841 288.519 658.841 286.341C658.841 284.163 660.607 282.395 662.781 282.395Z" fill="#2667FF"/>
<path d="M662.781 254.052C664.97 254.052 666.736 255.817 666.736 257.998C666.736 260.18 664.97 261.944 662.781 261.944C660.607 261.944 658.841 260.176 658.841 257.998C658.841 255.82 660.607 254.052 662.781 254.052Z" fill="#2667FF"/>
<path d="M662.781 225.711C664.97 225.711 666.736 227.475 666.736 229.657C666.736 231.839 664.97 233.603 662.781 233.603C660.607 233.603 658.841 231.835 658.841 229.657C658.841 227.479 660.607 225.711 662.781 225.711Z" fill="#CCE0FF"/>
<path d="M662.781 197.368C664.97 197.368 666.736 199.133 666.736 201.314C666.736 203.496 664.97 205.26 662.781 205.26C660.607 205.26 658.841 203.492 658.841 201.314C658.841 199.136 660.607 197.368 662.781 197.368Z" fill="#CCE0FF"/>
<path d="M662.781 169.026C664.97 169.026 666.736 170.791 666.736 172.973C666.736 175.155 664.97 176.918 662.781 176.918C660.607 176.918 658.841 175.15 658.841 172.973C658.841 170.794 660.607 169.026 662.781 169.026Z" fill="#CCE0FF"/>
<path d="M662.781 140.684C664.97 140.684 666.736 142.448 666.736 144.63C666.736 146.812 664.97 148.576 662.781 148.576C660.607 148.576 658.841 146.807 658.841 144.63C658.841 142.453 660.607 140.684 662.781 140.684Z" fill="#CCE0FF"/>
<path d="M662.781 112.343C664.97 112.343 666.736 114.108 666.736 116.288C666.736 118.47 664.97 120.235 662.781 120.235C660.606 120.235 658.84 118.467 658.84 116.288C658.84 114.11 660.606 112.343 662.781 112.343Z" fill="#CCE0FF"/>
<path d="M662.781 83.9998C664.97 83.9998 666.736 85.7641 666.736 87.9459C666.736 90.1277 664.97 91.8921 662.781 91.8921C660.607 91.8921 658.841 90.1233 658.841 87.9459C658.841 85.7671 660.607 83.9998 662.781 83.9998Z" fill="#CCE0FF"/>
<path d="M662.781 310.737C664.97 310.737 666.736 312.501 666.736 314.683C666.736 316.865 664.97 318.629 662.781 318.629C660.607 318.629 658.841 316.861 658.841 314.683C658.841 312.505 660.607 310.737 662.781 310.737Z" fill="#2667FF"/>
<path d="M689.619 282.395C691.808 282.395 693.574 284.159 693.574 286.341C693.574 288.523 691.808 290.287 689.619 290.287C687.445 290.287 685.679 288.519 685.679 286.341C685.679 284.163 687.445 282.395 689.619 282.395Z" fill="#2667FF"/>
<path d="M689.619 254.052C691.808 254.052 693.574 255.817 693.574 257.998C693.574 260.18 691.808 261.944 689.619 261.944C687.445 261.944 685.679 260.176 685.679 257.998C685.679 255.82 687.445 254.052 689.619 254.052Z" fill="#CCE0FF"/>
<path d="M689.619 225.711C691.808 225.711 693.574 227.475 693.574 229.657C693.574 231.838 691.808 233.603 689.619 233.603C687.445 233.603 685.679 231.835 685.679 229.657C685.679 227.479 687.445 225.711 689.619 225.711Z" fill="#CCE0FF"/>
<path d="M689.619 197.368C691.808 197.368 693.574 199.133 693.574 201.314C693.574 203.496 691.808 205.26 689.619 205.26C687.445 205.26 685.679 203.492 685.679 201.314C685.679 199.136 687.445 197.368 689.619 197.368Z" fill="#CCE0FF"/>
<path d="M689.619 169.026C691.808 169.026 693.574 170.791 693.574 172.973C693.574 175.155 691.808 176.918 689.619 176.918C687.444 176.918 685.679 175.15 685.679 172.973C685.679 170.794 687.444 169.026 689.619 169.026Z" fill="#CCE0FF"/>
<path d="M689.619 140.684C691.808 140.684 693.574 142.448 693.574 144.63C693.574 146.812 691.808 148.576 689.619 148.576C687.445 148.576 685.679 146.807 685.679 144.63C685.679 142.453 687.445 140.684 689.619 140.684Z" fill="#CCE0FF"/>
<path d="M689.619 112.343C691.808 112.343 693.574 114.108 693.574 116.288C693.574 118.47 691.808 120.235 689.619 120.235C687.444 120.235 685.678 118.467 685.678 116.288C685.678 114.11 687.444 112.343 689.619 112.343Z" fill="#CCE0FF"/>
<path d="M689.619 83.9998C691.808 83.9998 693.574 85.7641 693.574 87.9459C693.574 90.1277 691.808 91.8921 689.619 91.8921C687.445 91.8921 685.679 90.1233 685.679 87.9459C685.679 85.7671 687.445 83.9998 689.619 83.9998Z" fill="#CCE0FF"/>
<path d="M689.619 310.737C691.808 310.737 693.574 312.501 693.574 314.683C693.574 316.865 691.808 318.629 689.619 318.629C687.445 318.629 685.679 316.861 685.679 314.683C685.679 312.505 687.445 310.737 689.619 310.737Z" fill="#2667FF"/>
<path d="M716.457 282.395C718.646 282.395 720.412 284.159 720.412 286.341C720.412 288.523 718.646 290.287 716.457 290.287C714.282 290.287 712.517 288.519 712.517 286.341C712.517 284.163 714.282 282.395 716.457 282.395Z" fill="#2667FF"/>
<path d="M716.457 254.052C718.646 254.052 720.412 255.817 720.412 257.998C720.412 260.18 718.646 261.944 716.457 261.944C714.282 261.944 712.517 260.176 712.517 257.998C712.517 255.82 714.282 254.052 716.457 254.052Z" fill="#2667FF"/>
<path d="M716.457 225.711C718.646 225.711 720.412 227.475 720.412 229.657C720.412 231.839 718.646 233.603 716.457 233.603C714.282 233.603 712.517 231.835 712.517 229.657C712.517 227.479 714.282 225.711 716.457 225.711Z" fill="#2667FF"/>
<path d="M716.457 197.368C718.646 197.368 720.412 199.133 720.412 201.314C720.412 203.496 718.646 205.26 716.457 205.26C714.282 205.26 712.517 203.492 712.517 201.314C712.517 199.136 714.282 197.368 716.457 197.368Z" fill="#2667FF"/>
<path d="M716.457 169.026C718.646 169.026 720.412 170.791 720.412 172.973C720.412 175.155 718.646 176.918 716.457 176.918C714.282 176.918 712.517 175.15 712.517 172.973C712.517 170.794 714.282 169.026 716.457 169.026Z" fill="#2667FF"/>
<path d="M716.457 140.684C718.646 140.684 720.412 142.448 720.412 144.63C720.412 146.812 718.646 148.576 716.457 148.576C714.283 148.576 712.517 146.807 712.517 144.63C712.517 142.453 714.283 140.684 716.457 140.684Z" fill="#2667FF"/>
<path d="M716.457 112.343C718.646 112.343 720.412 114.108 720.412 116.288C720.412 118.47 718.646 120.235 716.457 120.235C714.282 120.235 712.516 118.467 712.516 116.288C712.516 114.11 714.282 112.343 716.457 112.343Z" fill="#2667FF"/>
<path d="M716.457 83.9998C718.646 83.9998 720.412 85.7641 720.412 87.9459C720.412 90.1277 718.646 91.8921 716.457 91.8921C714.283 91.8921 712.517 90.1233 712.517 87.9459C712.517 85.7671 714.283 83.9998 716.457 83.9998Z" fill="#2667FF"/>
<path d="M716.457 310.737C718.646 310.737 720.412 312.501 720.412 314.683C720.412 316.865 718.646 318.629 716.457 318.629C714.282 318.629 712.517 316.861 712.517 314.683C712.517 312.505 714.282 310.737 716.457 310.737Z" fill="#2667FF"/>
<path d="M743.297 282.395C745.486 282.395 747.252 284.159 747.252 286.341C747.252 288.523 745.486 290.287 743.297 290.287C741.122 290.287 739.356 288.519 739.356 286.341C739.356 284.163 741.122 282.395 743.297 282.395Z" fill="#2667FF"/>
<path d="M743.297 254.052C745.486 254.052 747.252 255.817 747.252 257.998C747.252 260.18 745.486 261.944 743.297 261.944C741.122 261.944 739.357 260.176 739.357 257.998C739.357 255.82 741.122 254.052 743.297 254.052Z" fill="#2667FF"/>
<path d="M743.297 225.711C745.486 225.711 747.252 227.475 747.252 229.657C747.252 231.839 745.486 233.603 743.297 233.603C741.122 233.603 739.356 231.835 739.356 229.657C739.356 227.479 741.122 225.711 743.297 225.711Z" fill="#2667FF"/>
<path d="M743.297 197.368C745.486 197.368 747.252 199.133 747.252 201.314C747.252 203.496 745.486 205.26 743.297 205.26C741.122 205.26 739.356 203.492 739.356 201.314C739.356 199.136 741.122 197.368 743.297 197.368Z" fill="#2667FF"/>
<path d="M743.297 169.026C745.486 169.026 747.252 170.791 747.252 172.973C747.252 175.155 745.486 176.918 743.297 176.918C741.122 176.918 739.356 175.15 739.356 172.973C739.356 170.794 741.122 169.026 743.297 169.026Z" fill="#2667FF"/>
<path d="M743.297 140.684C745.486 140.684 747.252 142.448 747.252 144.63C747.252 146.812 745.486 148.576 743.297 148.576C741.122 148.576 739.357 146.807 739.357 144.63C739.357 142.453 741.122 140.684 743.297 140.684Z" fill="#2667FF"/>
<path d="M743.297 112.343C745.486 112.343 747.252 114.108 747.252 116.288C747.252 118.47 745.486 120.235 743.297 120.235C741.122 120.235 739.356 118.467 739.356 116.288C739.356 114.11 741.122 112.343 743.297 112.343Z" fill="#2667FF"/>
<path d="M743.297 83.9998C745.486 83.9998 747.252 85.7641 747.252 87.9459C747.252 90.1277 745.486 91.8921 743.297 91.8921C741.122 91.8921 739.357 90.1233 739.357 87.9459C739.357 85.7671 741.122 83.9998 743.297 83.9998Z" fill="#2667FF"/>
<path d="M743.297 310.737C745.486 310.737 747.252 312.501 747.252 314.683C747.252 316.865 745.486 318.629 743.297 318.629C741.122 318.629 739.356 316.861 739.356 314.683C739.356 312.505 741.122 310.737 743.297 310.737Z" fill="#2667FF"/>
<path d="M770.137 282.395C772.326 282.395 774.092 284.159 774.092 286.341C774.092 288.523 772.326 290.287 770.137 290.287C767.962 290.287 766.196 288.519 766.196 286.341C766.196 284.163 767.962 282.395 770.137 282.395Z" fill="#2667FF"/>
<path d="M770.137 254.052C772.326 254.052 774.092 255.817 774.092 257.998C774.092 260.18 772.326 261.944 770.137 261.944C767.962 261.944 766.196 260.176 766.196 257.998C766.196 255.82 767.962 254.052 770.137 254.052Z" fill="#2667FF"/>
<path d="M770.137 225.711C772.326 225.711 774.092 227.475 774.092 229.657C774.092 231.839 772.326 233.603 770.137 233.603C767.962 233.603 766.196 231.835 766.196 229.657C766.196 227.479 767.962 225.711 770.137 225.711Z" fill="#2667FF"/>
<path d="M770.137 197.368C772.326 197.368 774.092 199.133 774.092 201.314C774.092 203.496 772.326 205.26 770.137 205.26C767.962 205.26 766.196 203.492 766.196 201.314C766.196 199.136 767.962 197.368 770.137 197.368Z" fill="#2667FF"/>
<path d="M770.137 169.026C772.326 169.026 774.092 170.791 774.092 172.973C774.092 175.155 772.326 176.918 770.137 176.918C767.962 176.918 766.196 175.15 766.196 172.973C766.196 170.794 767.962 169.026 770.137 169.026Z" fill="#2667FF"/>
<path d="M770.137 140.684C772.326 140.684 774.092 142.448 774.092 144.63C774.092 146.812 772.326 148.576 770.137 148.576C767.962 148.576 766.196 146.807 766.196 144.63C766.196 142.453 767.962 140.684 770.137 140.684Z" fill="#CCE0FF"/>
<path d="M770.136 112.343C772.326 112.343 774.092 114.108 774.092 116.288C774.092 118.47 772.326 120.235 770.136 120.235C767.962 120.235 766.196 118.467 766.196 116.288C766.196 114.11 767.962 112.343 770.136 112.343Z" fill="#CCE0FF"/>
<path d="M770.137 83.9998C772.326 83.9998 774.092 85.7641 774.092 87.9459C774.092 90.1277 772.326 91.8921 770.137 91.8921C767.962 91.8921 766.197 90.1233 766.197 87.9459C766.197 85.7671 767.962 83.9998 770.137 83.9998Z" fill="#CCE0FF"/>
<path d="M770.137 310.737C772.326 310.737 774.092 312.501 774.092 314.683C774.092 316.865 772.326 318.629 770.137 318.629C767.962 318.629 766.196 316.861 766.196 314.683C766.196 312.505 767.962 310.737 770.137 310.737Z" fill="#2667FF"/>
<path d="M796.976 282.395C799.165 282.395 800.931 284.159 800.931 286.341C800.931 288.523 799.165 290.287 796.976 290.287C794.801 290.287 793.035 288.519 793.035 286.341C793.035 284.163 794.801 282.395 796.976 282.395Z" fill="#2667FF"/>
<path d="M796.976 254.052C799.165 254.052 800.931 255.817 800.931 257.998C800.931 260.18 799.165 261.944 796.976 261.944C794.801 261.944 793.035 260.176 793.035 257.998C793.035 255.82 794.801 254.052 796.976 254.052Z" fill="#2667FF"/>
<path d="M796.976 225.711C799.165 225.711 800.931 227.475 800.931 229.657C800.931 231.838 799.165 233.603 796.976 233.603C794.801 233.603 793.035 231.835 793.035 229.657C793.035 227.479 794.801 225.711 796.976 225.711Z" fill="#2667FF"/>
<path d="M796.976 197.368C799.165 197.368 800.931 199.133 800.931 201.314C800.931 203.496 799.165 205.26 796.976 205.26C794.801 205.26 793.035 203.492 793.035 201.314C793.035 199.136 794.801 197.368 796.976 197.368Z" fill="#2667FF"/>
<path d="M796.975 169.026C799.165 169.026 800.931 170.791 800.931 172.973C800.931 175.155 799.165 176.918 796.975 176.918C794.801 176.918 793.035 175.15 793.035 172.973C793.035 170.794 794.801 169.026 796.975 169.026Z" fill="#2667FF"/>
<path d="M796.976 140.684C799.165 140.684 800.931 142.448 800.931 144.63C800.931 146.812 799.165 148.576 796.976 148.576C794.801 148.576 793.035 146.807 793.035 144.63C793.035 142.453 794.801 140.684 796.976 140.684Z" fill="#CCE0FF"/>
<path d="M796.975 112.343C799.165 112.343 800.931 114.108 800.931 116.288C800.931 118.47 799.165 120.235 796.975 120.235C794.801 120.235 793.035 118.467 793.035 116.288C793.035 114.11 794.801 112.343 796.975 112.343Z" fill="#CCE0FF"/>
<path d="M796.976 83.9998C799.165 83.9998 800.931 85.7641 800.931 87.9459C800.931 90.1277 799.165 91.8921 796.976 91.8921C794.801 91.8921 793.035 90.1233 793.035 87.9459C793.035 85.7671 794.801 83.9998 796.976 83.9998Z" fill="#CCE0FF"/>
<path d="M796.976 310.737C799.165 310.737 800.931 312.501 800.931 314.683C800.931 316.865 799.165 318.629 796.976 318.629C794.801 318.629 793.035 316.861 793.035 314.683C793.035 312.505 794.801 310.737 796.976 310.737Z" fill="#2667FF"/>
<path d="M823.816 282.395C826.005 282.395 827.771 284.159 827.771 286.341C827.771 288.523 826.005 290.287 823.816 290.287C821.642 290.287 819.876 288.519 819.876 286.341C819.876 284.163 821.642 282.395 823.816 282.395Z" fill="#2667FF"/>
<path d="M823.816 254.052C826.005 254.052 827.771 255.817 827.771 257.998C827.771 260.18 826.005 261.944 823.816 261.944C821.642 261.944 819.876 260.176 819.876 257.998C819.876 255.82 821.642 254.052 823.816 254.052Z" fill="#CCE0FF"/>
<path d="M823.816 225.711C826.005 225.711 827.771 227.475 827.771 229.657C827.771 231.839 826.005 233.603 823.816 233.603C821.642 233.603 819.876 231.835 819.876 229.657C819.876 227.479 821.642 225.711 823.816 225.711Z" fill="#CCE0FF"/>
<path d="M823.816 197.368C826.005 197.368 827.771 199.133 827.771 201.314C827.771 203.496 826.005 205.26 823.816 205.26C821.642 205.26 819.876 203.492 819.876 201.314C819.876 199.136 821.642 197.368 823.816 197.368Z" fill="#CCE0FF"/>
<path d="M823.816 169.026C826.005 169.026 827.771 170.791 827.771 172.973C827.771 175.155 826.005 176.918 823.816 176.918C821.642 176.918 819.876 175.15 819.876 172.973C819.876 170.794 821.642 169.026 823.816 169.026Z" fill="#CCE0FF"/>
<path d="M823.816 140.684C826.006 140.684 827.771 142.448 827.771 144.63C827.771 146.812 826.006 148.576 823.816 148.576C821.642 148.576 819.876 146.807 819.876 144.63C819.876 142.453 821.642 140.684 823.816 140.684Z" fill="#CCE0FF"/>
<path d="M823.816 112.343C826.005 112.343 827.771 114.108 827.771 116.288C827.771 118.47 826.005 120.235 823.816 120.235C821.641 120.235 819.875 118.467 819.875 116.288C819.875 114.11 821.641 112.343 823.816 112.343Z" fill="#CCE0FF"/>
<path d="M823.816 83.9998C826.006 83.9998 827.771 85.7641 827.771 87.9459C827.771 90.1277 826.006 91.8921 823.816 91.8921C821.642 91.8921 819.876 90.1233 819.876 87.9459C819.876 85.7671 821.642 83.9998 823.816 83.9998Z" fill="#CCE0FF"/>
<path d="M823.816 310.737C826.005 310.737 827.771 312.501 827.771 314.683C827.771 316.865 826.005 318.629 823.816 318.629C821.642 318.629 819.876 316.861 819.876 314.683C819.876 312.505 821.642 310.737 823.816 310.737Z" fill="#2667FF"/>
<path d="M850.654 282.395C852.843 282.395 854.609 284.159 854.609 286.341C854.609 288.523 852.843 290.287 850.654 290.287C848.48 290.287 846.714 288.519 846.714 286.341C846.714 284.163 848.48 282.395 850.654 282.395Z" fill="#2667FF"/>
<path d="M850.654 254.052C852.843 254.052 854.609 255.817 854.609 257.998C854.609 260.18 852.843 261.944 850.654 261.944C848.48 261.944 846.714 260.176 846.714 257.998C846.714 255.82 848.48 254.052 850.654 254.052Z" fill="#2667FF"/>
<path d="M850.654 225.711C852.843 225.711 854.609 227.475 854.609 229.657C854.609 231.838 852.843 233.603 850.654 233.603C848.48 233.603 846.714 231.835 846.714 229.657C846.714 227.479 848.48 225.711 850.654 225.711Z" fill="#2667FF"/>
<path d="M850.654 197.368C852.843 197.368 854.609 199.133 854.609 201.314C854.609 203.496 852.843 205.26 850.654 205.26C848.48 205.26 846.714 203.492 846.714 201.314C846.714 199.136 848.48 197.368 850.654 197.368Z" fill="#2667FF"/>
<path d="M850.654 169.026C852.843 169.026 854.609 170.791 854.609 172.973C854.609 175.155 852.843 176.918 850.654 176.918C848.48 176.918 846.714 175.15 846.714 172.973C846.714 170.794 848.48 169.026 850.654 169.026Z" fill="#2667FF"/>
<path d="M850.654 140.684C852.843 140.684 854.609 142.448 854.609 144.63C854.609 146.812 852.843 148.576 850.654 148.576C848.48 148.576 846.714 146.807 846.714 144.63C846.714 142.453 848.48 140.684 850.654 140.684Z" fill="#2667FF"/>
<path d="M850.654 112.343C852.843 112.343 854.609 114.108 854.609 116.288C854.609 118.47 852.843 120.235 850.654 120.235C848.479 120.235 846.713 118.467 846.713 116.288C846.713 114.11 848.479 112.343 850.654 112.343Z" fill="#2667FF"/>
<path d="M850.654 83.9998C852.843 83.9998 854.609 85.7641 854.609 87.9459C854.609 90.1277 852.843 91.8921 850.654 91.8921C848.48 91.8921 846.714 90.1233 846.714 87.9459C846.714 85.7671 848.48 83.9998 850.654 83.9998Z" fill="#2667FF"/>
<path d="M850.654 310.737C852.843 310.737 854.609 312.501 854.609 314.683C854.609 316.865 852.843 318.629 850.654 318.629C848.48 318.629 846.714 316.861 846.714 314.683C846.714 312.505 848.48 310.737 850.654 310.737Z" fill="#2667FF"/>
<path d="M877.492 282.395C879.681 282.395 881.447 284.159 881.447 286.341C881.447 288.523 879.681 290.287 877.492 290.287C875.318 290.287 873.552 288.519 873.552 286.341C873.552 284.163 875.318 282.395 877.492 282.395Z" fill="#2667FF"/>
<path d="M877.492 254.052C879.681 254.052 881.447 255.817 881.447 257.998C881.447 260.18 879.681 261.944 877.492 261.944C875.318 261.944 873.552 260.176 873.552 257.998C873.552 255.82 875.318 254.052 877.492 254.052Z" fill="#2667FF"/>
<path d="M877.492 225.711C879.681 225.711 881.447 227.475 881.447 229.657C881.447 231.839 879.681 233.603 877.492 233.603C875.318 233.603 873.552 231.835 873.552 229.657C873.552 227.479 875.318 225.711 877.492 225.711Z" fill="#2667FF"/>
<path d="M877.492 197.368C879.681 197.368 881.447 199.133 881.447 201.314C881.447 203.496 879.681 205.26 877.492 205.26C875.318 205.26 873.552 203.492 873.552 201.314C873.552 199.136 875.318 197.368 877.492 197.368Z" fill="#2667FF"/>
<path d="M877.492 169.026C879.681 169.026 881.447 170.791 881.447 172.973C881.447 175.155 879.681 176.918 877.492 176.918C875.318 176.918 873.552 175.15 873.552 172.973C873.552 170.794 875.318 169.026 877.492 169.026Z" fill="#2667FF"/>
<path d="M877.492 140.684C879.681 140.684 881.447 142.448 881.447 144.63C881.447 146.812 879.681 148.576 877.492 148.576C875.318 148.576 873.552 146.807 873.552 144.63C873.552 142.453 875.318 140.684 877.492 140.684Z" fill="#2667FF"/>
<path d="M877.492 112.343C879.681 112.343 881.447 114.108 881.447 116.288C881.447 118.47 879.681 120.235 877.492 120.235C875.317 120.235 873.551 118.467 873.551 116.288C873.551 114.11 875.317 112.343 877.492 112.343Z" fill="#2667FF"/>
<path d="M877.492 83.9998C879.681 83.9998 881.447 85.7641 881.447 87.9459C881.447 90.1277 879.681 91.8921 877.492 91.8921C875.318 91.8921 873.552 90.1233 873.552 87.9459C873.552 85.7671 875.318 83.9998 877.492 83.9998Z" fill="#2667FF"/>
<path d="M877.492 310.737C879.681 310.737 881.447 312.501 881.447 314.683C881.447 316.865 879.681 318.629 877.492 318.629C875.318 318.629 873.552 316.861 873.552 314.683C873.552 312.505 875.318 310.737 877.492 310.737Z" fill="#2667FF"/>
<path d="M904.332 282.395C906.521 282.395 908.287 284.159 908.287 286.341C908.287 288.523 906.521 290.287 904.332 290.287C902.157 290.287 900.392 288.519 900.392 286.341C900.392 284.163 902.157 282.395 904.332 282.395Z" fill="#2667FF"/>
<path d="M904.332 254.052C906.521 254.052 908.287 255.817 908.287 257.998C908.287 260.18 906.521 261.944 904.332 261.944C902.157 261.944 900.392 260.176 900.392 257.998C900.392 255.82 902.157 254.052 904.332 254.052Z" fill="#CCE0FF"/>
<path d="M904.332 225.711C906.521 225.711 908.287 227.475 908.287 229.657C908.287 231.839 906.521 233.603 904.332 233.603C902.157 233.603 900.392 231.835 900.392 229.657C900.392 227.479 902.157 225.711 904.332 225.711Z" fill="#CCE0FF"/>
<path d="M904.332 197.368C906.521 197.368 908.287 199.133 908.287 201.314C908.287 203.496 906.521 205.26 904.332 205.26C902.157 205.26 900.392 203.492 900.392 201.314C900.392 199.136 902.157 197.368 904.332 197.368Z" fill="#CCE0FF"/>
<path d="M904.332 169.026C906.521 169.026 908.287 170.791 908.287 172.973C908.287 175.155 906.521 176.918 904.332 176.918C902.157 176.918 900.392 175.15 900.392 172.973C900.392 170.794 902.157 169.026 904.332 169.026Z" fill="#CCE0FF"/>
<path d="M904.332 140.684C906.521 140.684 908.287 142.448 908.287 144.63C908.287 146.812 906.521 148.576 904.332 148.576C902.158 148.576 900.392 146.807 900.392 144.63C900.392 142.453 902.158 140.684 904.332 140.684Z" fill="#CCE0FF"/>
<path d="M904.332 112.343C906.521 112.343 908.287 114.108 908.287 116.288C908.287 118.47 906.521 120.235 904.332 120.235C902.157 120.235 900.391 118.467 900.391 116.288C900.391 114.11 902.157 112.343 904.332 112.343Z" fill="#CCE0FF"/>
<path d="M904.332 83.9998C906.521 83.9998 908.287 85.7641 908.287 87.9459C908.287 90.1277 906.521 91.8921 904.332 91.8921C902.158 91.8921 900.392 90.1233 900.392 87.9459C900.392 85.7671 902.158 83.9998 904.332 83.9998Z" fill="#CCE0FF"/>
<path d="M904.332 310.737C906.521 310.737 908.287 312.501 908.287 314.683C908.287 316.865 906.521 318.629 904.332 318.629C902.157 318.629 900.392 316.861 900.392 314.683C900.392 312.505 902.157 310.737 904.332 310.737Z" fill="#2667FF"/>
<path d="M931.172 282.395C933.361 282.395 935.127 284.159 935.127 286.341C935.127 288.523 933.361 290.287 931.172 290.287C928.997 290.287 927.231 288.519 927.231 286.341C927.231 284.163 928.997 282.395 931.172 282.395Z" fill="#2667FF"/>
<path d="M931.172 254.052C933.361 254.052 935.127 255.817 935.127 257.998C935.127 260.18 933.361 261.944 931.172 261.944C928.997 261.944 927.232 260.176 927.232 257.998C927.232 255.82 928.997 254.052 931.172 254.052Z" fill="#2667FF"/>
<path d="M931.172 225.711C933.361 225.711 935.127 227.475 935.127 229.657C935.127 231.839 933.361 233.603 931.172 233.603C928.997 233.603 927.231 231.835 927.231 229.657C927.231 227.479 928.997 225.711 931.172 225.711Z" fill="#2667FF"/>
<path d="M931.172 197.368C933.361 197.368 935.127 199.133 935.127 201.314C935.127 203.496 933.361 205.26 931.172 205.26C928.997 205.26 927.231 203.492 927.231 201.314C927.231 199.136 928.997 197.368 931.172 197.368Z" fill="#2667FF"/>
<path d="M931.172 169.026C933.361 169.026 935.127 170.791 935.127 172.973C935.127 175.155 933.361 176.918 931.172 176.918C928.997 176.918 927.231 175.15 927.231 172.973C927.231 170.794 928.997 169.026 931.172 169.026Z" fill="#2667FF"/>
<path d="M931.172 140.684C933.361 140.684 935.127 142.448 935.127 144.63C935.127 146.812 933.361 148.576 931.172 148.576C928.997 148.576 927.232 146.807 927.232 144.63C927.232 142.453 928.997 140.684 931.172 140.684Z" fill="#2667FF"/>
<path d="M931.172 112.343C933.361 112.343 935.127 114.108 935.127 116.288C935.127 118.47 933.361 120.235 931.172 120.235C928.997 120.235 927.231 118.467 927.231 116.288C927.231 114.11 928.997 112.343 931.172 112.343Z" fill="#CCE0FF"/>
<path d="M931.172 83.9998C933.361 83.9998 935.127 85.7641 935.127 87.9459C935.127 90.1277 933.361 91.8921 931.172 91.8921C928.997 91.8921 927.232 90.1233 927.232 87.9459C927.232 85.7671 928.997 83.9998 931.172 83.9998Z" fill="#CCE0FF"/>
<path d="M931.172 310.737C933.361 310.737 935.127 312.501 935.127 314.683C935.127 316.865 933.361 318.629 931.172 318.629C928.997 318.629 927.231 316.861 927.231 314.683C927.231 312.505 928.997 310.737 931.172 310.737Z" fill="#2667FF"/>
<path d="M958.011 282.395C960.2 282.395 961.966 284.159 961.966 286.341C961.966 288.523 960.2 290.287 958.011 290.287C955.836 290.287 954.07 288.519 954.07 286.341C954.07 284.163 955.836 282.395 958.011 282.395Z" fill="#2667FF"/>
<path d="M958.011 254.052C960.2 254.052 961.966 255.817 961.966 257.998C961.966 260.18 960.2 261.944 958.011 261.944C955.836 261.944 954.07 260.176 954.07 257.998C954.07 255.82 955.836 254.052 958.011 254.052Z" fill="#2667FF"/>
<path d="M958.011 225.711C960.2 225.711 961.966 227.475 961.966 229.657C961.966 231.838 960.2 233.603 958.011 233.603C955.836 233.603 954.07 231.835 954.07 229.657C954.07 227.479 955.836 225.711 958.011 225.711Z" fill="#2667FF"/>
<path d="M958.011 197.368C960.2 197.368 961.966 199.133 961.966 201.314C961.966 203.496 960.2 205.26 958.011 205.26C955.836 205.26 954.07 203.492 954.07 201.314C954.07 199.136 955.836 197.368 958.011 197.368Z" fill="#2667FF"/>
<path d="M958.011 169.026C960.2 169.026 961.966 170.791 961.966 172.973C961.966 175.155 960.2 176.918 958.011 176.918C955.836 176.918 954.07 175.15 954.07 172.973C954.07 170.794 955.836 169.026 958.011 169.026Z" fill="#2667FF"/>
<path d="M958.011 140.684C960.2 140.684 961.966 142.448 961.966 144.63C961.966 146.812 960.2 148.576 958.011 148.576C955.836 148.576 954.071 146.807 954.071 144.63C954.071 142.453 955.836 140.684 958.011 140.684Z" fill="#2667FF"/>
<path d="M958.01 112.343C960.2 112.343 961.966 114.108 961.966 116.288C961.966 118.47 960.2 120.235 958.01 120.235C955.836 120.235 954.07 118.467 954.07 116.288C954.07 114.11 955.836 112.343 958.01 112.343Z" fill="#CCE0FF"/>
<path d="M958.011 83.9998C960.2 83.9998 961.966 85.7641 961.966 87.9459C961.966 90.1277 960.2 91.8921 958.011 91.8921C955.836 91.8921 954.071 90.1233 954.071 87.9459C954.071 85.7671 955.836 83.9998 958.011 83.9998Z" fill="#CCE0FF"/>
<path d="M958.011 310.737C960.2 310.737 961.966 312.501 961.966 314.683C961.966 316.865 960.2 318.629 958.011 318.629C955.836 318.629 954.07 316.861 954.07 314.683C954.07 312.505 955.836 310.737 958.011 310.737Z" fill="#2667FF"/>
<path d="M984.851 282.395C987.041 282.395 988.807 284.159 988.807 286.341C988.807 288.523 987.041 290.287 984.851 290.287C982.677 290.287 980.911 288.519 980.911 286.341C980.911 284.163 982.677 282.395 984.851 282.395Z" fill="#2667FF"/>
<path d="M984.852 254.052C987.041 254.052 988.807 255.817 988.807 257.998C988.807 260.18 987.041 261.944 984.852 261.944C982.677 261.944 980.911 260.176 980.911 257.998C980.911 255.82 982.677 254.052 984.852 254.052Z" fill="#2667FF"/>
<path d="M984.851 225.711C987.041 225.711 988.807 227.475 988.807 229.657C988.807 231.839 987.041 233.603 984.851 233.603C982.677 233.603 980.911 231.835 980.911 229.657C980.911 227.479 982.677 225.711 984.851 225.711Z" fill="#2667FF"/>
<path d="M984.851 197.368C987.041 197.368 988.807 199.133 988.807 201.314C988.807 203.496 987.041 205.26 984.851 205.26C982.677 205.26 980.911 203.492 980.911 201.314C980.911 199.136 982.677 197.368 984.851 197.368Z" fill="#CCE0FF"/>
<path d="M984.851 169.026C987.041 169.026 988.807 170.791 988.807 172.973C988.807 175.155 987.041 176.918 984.851 176.918C982.677 176.918 980.911 175.15 980.911 172.973C980.911 170.794 982.677 169.026 984.851 169.026Z" fill="#CCE0FF"/>
<path d="M984.852 140.684C987.041 140.684 988.807 142.448 988.807 144.63C988.807 146.812 987.041 148.576 984.852 148.576C982.677 148.576 980.911 146.807 980.911 144.63C980.911 142.453 982.677 140.684 984.852 140.684Z" fill="#CCE0FF"/>
<path d="M984.851 112.343C987.041 112.343 988.807 114.108 988.807 116.288C988.807 118.47 987.041 120.235 984.851 120.235C982.677 120.235 980.911 118.467 980.911 116.288C980.911 114.11 982.677 112.343 984.851 112.343Z" fill="#CCE0FF"/>
<path d="M984.852 83.9998C987.041 83.9998 988.807 85.7641 988.807 87.9459C988.807 90.1277 987.041 91.8921 984.852 91.8921C982.677 91.8921 980.911 90.1233 980.911 87.9459C980.911 85.7671 982.677 83.9998 984.852 83.9998Z" fill="#CCE0FF"/>
<path d="M984.851 310.737C987.041 310.737 988.807 312.501 988.807 314.683C988.807 316.865 987.041 318.629 984.851 318.629C982.677 318.629 980.911 316.861 980.911 314.683C980.911 312.505 982.677 310.737 984.851 310.737Z" fill="#2667FF"/>
<path d="M1011.69 282.395C1013.88 282.395 1015.64 284.159 1015.64 286.341C1015.64 288.523 1013.88 290.287 1011.69 290.287C1009.51 290.287 1007.75 288.519 1007.75 286.341C1007.75 284.163 1009.51 282.395 1011.69 282.395Z" fill="#2667FF"/>
<path d="M1011.69 254.052C1013.88 254.052 1015.64 255.817 1015.64 257.998C1015.64 260.18 1013.88 261.944 1011.69 261.944C1009.51 261.944 1007.75 260.176 1007.75 257.998C1007.75 255.82 1009.51 254.052 1011.69 254.052Z" fill="#2667FF"/>
<path d="M1011.69 225.711C1013.88 225.711 1015.64 227.475 1015.64 229.657C1015.64 231.838 1013.88 233.603 1011.69 233.603C1009.51 233.603 1007.75 231.835 1007.75 229.657C1007.75 227.479 1009.51 225.711 1011.69 225.711Z" fill="#2667FF"/>
<path d="M1011.69 197.368C1013.88 197.368 1015.64 199.133 1015.64 201.314C1015.64 203.496 1013.88 205.26 1011.69 205.26C1009.51 205.26 1007.75 203.492 1007.75 201.314C1007.75 199.136 1009.51 197.368 1011.69 197.368Z" fill="#2667FF"/>
<path d="M1011.69 169.026C1013.88 169.026 1015.64 170.791 1015.64 172.973C1015.64 175.155 1013.88 176.918 1011.69 176.918C1009.51 176.918 1007.75 175.15 1007.75 172.973C1007.75 170.794 1009.51 169.026 1011.69 169.026Z" fill="#CCE0FF"/>
<path d="M1011.69 140.684C1013.88 140.684 1015.64 142.448 1015.64 144.63C1015.64 146.812 1013.88 148.576 1011.69 148.576C1009.52 148.576 1007.75 146.807 1007.75 144.63C1007.75 142.453 1009.52 140.684 1011.69 140.684Z" fill="#CCE0FF"/>
<path d="M1011.69 112.343C1013.88 112.343 1015.64 114.108 1015.64 116.288C1015.64 118.47 1013.88 120.235 1011.69 120.235C1009.51 120.235 1007.75 118.467 1007.75 116.288C1007.75 114.11 1009.51 112.343 1011.69 112.343Z" fill="#CCE0FF"/>
<path d="M1011.69 83.9998C1013.88 83.9998 1015.64 85.7641 1015.64 87.9459C1015.64 90.1277 1013.88 91.8921 1011.69 91.8921C1009.52 91.8921 1007.75 90.1233 1007.75 87.9459C1007.75 85.7671 1009.52 83.9998 1011.69 83.9998Z" fill="#CCE0FF"/>
<path d="M1011.69 310.737C1013.88 310.737 1015.64 312.501 1015.64 314.683C1015.64 316.865 1013.88 318.629 1011.69 318.629C1009.51 318.629 1007.75 316.861 1007.75 314.683C1007.75 312.505 1009.51 310.737 1011.69 310.737Z" fill="#2667FF"/>
<path d="M1038.53 282.395C1040.72 282.395 1042.48 284.159 1042.48 286.341C1042.48 288.523 1040.72 290.287 1038.53 290.287C1036.35 290.287 1034.59 288.519 1034.59 286.341C1034.59 284.163 1036.35 282.395 1038.53 282.395Z" fill="#2667FF"/>
<path d="M1038.53 254.052C1040.72 254.052 1042.48 255.817 1042.48 257.998C1042.48 260.18 1040.72 261.944 1038.53 261.944C1036.35 261.944 1034.59 260.176 1034.59 257.998C1034.59 255.82 1036.35 254.052 1038.53 254.052Z" fill="#2667FF"/>
<path d="M1038.53 225.711C1040.72 225.711 1042.48 227.475 1042.48 229.657C1042.48 231.839 1040.72 233.603 1038.53 233.603C1036.35 233.603 1034.59 231.835 1034.59 229.657C1034.59 227.479 1036.35 225.711 1038.53 225.711Z" fill="#2667FF"/>
<path d="M1038.53 197.368C1040.72 197.368 1042.48 199.133 1042.48 201.314C1042.48 203.496 1040.72 205.26 1038.53 205.26C1036.35 205.26 1034.59 203.492 1034.59 201.314C1034.59 199.136 1036.35 197.368 1038.53 197.368Z" fill="#2667FF"/>
<path d="M1038.53 169.026C1040.72 169.026 1042.48 170.791 1042.48 172.973C1042.48 175.155 1040.72 176.918 1038.53 176.918C1036.35 176.918 1034.59 175.15 1034.59 172.973C1034.59 170.794 1036.35 169.026 1038.53 169.026Z" fill="#CCE0FF"/>
<path d="M1038.53 140.684C1040.72 140.684 1042.48 142.448 1042.48 144.63C1042.48 146.812 1040.72 148.576 1038.53 148.576C1036.35 148.576 1034.59 146.807 1034.59 144.63C1034.59 142.453 1036.35 140.684 1038.53 140.684Z" fill="#CCE0FF"/>
<path d="M1038.53 112.343C1040.72 112.343 1042.48 114.108 1042.48 116.288C1042.48 118.47 1040.72 120.235 1038.53 120.235C1036.35 120.235 1034.59 118.467 1034.59 116.288C1034.59 114.11 1036.35 112.343 1038.53 112.343Z" fill="#CCE0FF"/>
<path d="M1038.53 83.9998C1040.72 83.9998 1042.48 85.7641 1042.48 87.9459C1042.48 90.1277 1040.72 91.8921 1038.53 91.8921C1036.35 91.8921 1034.59 90.1233 1034.59 87.9459C1034.59 85.7671 1036.35 83.9998 1038.53 83.9998Z" fill="#CCE0FF"/>
<path d="M1038.53 310.737C1040.72 310.737 1042.48 312.501 1042.48 314.683C1042.48 316.865 1040.72 318.629 1038.53 318.629C1036.35 318.629 1034.59 316.861 1034.59 314.683C1034.59 312.505 1036.35 310.737 1038.53 310.737Z" fill="#2667FF"/>
<path d="M1065.37 282.395C1067.56 282.395 1069.32 284.159 1069.32 286.341C1069.32 288.523 1067.56 290.287 1065.37 290.287C1063.19 290.287 1061.43 288.519 1061.43 286.341C1061.43 284.163 1063.19 282.395 1065.37 282.395Z" fill="#2667FF"/>
<path d="M1065.37 254.052C1067.56 254.052 1069.32 255.817 1069.32 257.998C1069.32 260.18 1067.56 261.944 1065.37 261.944C1063.19 261.944 1061.43 260.176 1061.43 257.998C1061.43 255.82 1063.19 254.052 1065.37 254.052Z" fill="#CCE0FF"/>
<path d="M1065.37 225.711C1067.56 225.711 1069.32 227.475 1069.32 229.657C1069.32 231.839 1067.56 233.603 1065.37 233.603C1063.19 233.603 1061.43 231.835 1061.43 229.657C1061.43 227.479 1063.19 225.711 1065.37 225.711Z" fill="#CCE0FF"/>
<path d="M1065.37 197.368C1067.56 197.368 1069.32 199.133 1069.32 201.314C1069.32 203.496 1067.56 205.26 1065.37 205.26C1063.19 205.26 1061.43 203.492 1061.43 201.314C1061.43 199.136 1063.19 197.368 1065.37 197.368Z" fill="#CCE0FF"/>
<path d="M1065.37 169.026C1067.56 169.026 1069.32 170.791 1069.32 172.973C1069.32 175.155 1067.56 176.918 1065.37 176.918C1063.19 176.918 1061.43 175.15 1061.43 172.973C1061.43 170.794 1063.19 169.026 1065.37 169.026Z" fill="#CCE0FF"/>
<path d="M1065.37 140.684C1067.56 140.684 1069.32 142.448 1069.32 144.63C1069.32 146.812 1067.56 148.576 1065.37 148.576C1063.19 148.576 1061.43 146.807 1061.43 144.63C1061.43 142.453 1063.19 140.684 1065.37 140.684Z" fill="#CCE0FF"/>
<path d="M1065.37 112.343C1067.56 112.343 1069.32 114.108 1069.32 116.288C1069.32 118.47 1067.56 120.235 1065.37 120.235C1063.19 120.235 1061.43 118.467 1061.43 116.288C1061.43 114.11 1063.19 112.343 1065.37 112.343Z" fill="#CCE0FF"/>
<path d="M1065.37 83.9998C1067.56 83.9998 1069.32 85.7641 1069.32 87.9459C1069.32 90.1277 1067.56 91.8921 1065.37 91.8921C1063.19 91.8921 1061.43 90.1233 1061.43 87.9459C1061.43 85.7671 1063.19 83.9998 1065.37 83.9998Z" fill="#CCE0FF"/>
<path d="M1065.37 310.737C1067.56 310.737 1069.32 312.501 1069.32 314.683C1069.32 316.865 1067.56 318.629 1065.37 318.629C1063.19 318.629 1061.43 316.861 1061.43 314.683C1061.43 312.505 1063.19 310.737 1065.37 310.737Z" fill="#2667FF"/>
<path d="M1092.21 282.395C1094.4 282.395 1096.16 284.159 1096.16 286.341C1096.16 288.523 1094.4 290.287 1092.21 290.287C1090.03 290.287 1088.27 288.519 1088.27 286.341C1088.27 284.163 1090.03 282.395 1092.21 282.395Z" fill="#2667FF"/>
<path d="M1092.21 254.052C1094.4 254.052 1096.16 255.817 1096.16 257.998C1096.16 260.18 1094.4 261.944 1092.21 261.944C1090.03 261.944 1088.27 260.176 1088.27 257.998C1088.27 255.82 1090.03 254.052 1092.21 254.052Z" fill="#CCE0FF"/>
<path d="M1092.21 225.711C1094.4 225.711 1096.16 227.475 1096.16 229.657C1096.16 231.839 1094.4 233.603 1092.21 233.603C1090.03 233.603 1088.27 231.835 1088.27 229.657C1088.27 227.479 1090.03 225.711 1092.21 225.711Z" fill="#CCE0FF"/>
<path d="M1092.21 197.368C1094.4 197.368 1096.16 199.133 1096.16 201.314C1096.16 203.496 1094.4 205.26 1092.21 205.26C1090.03 205.26 1088.27 203.492 1088.27 201.314C1088.27 199.136 1090.03 197.368 1092.21 197.368Z" fill="#CCE0FF"/>
<path d="M1092.21 169.026C1094.4 169.026 1096.16 170.791 1096.16 172.973C1096.16 175.155 1094.4 176.918 1092.21 176.918C1090.03 176.918 1088.27 175.15 1088.27 172.973C1088.27 170.794 1090.03 169.026 1092.21 169.026Z" fill="#CCE0FF"/>
<path d="M1092.21 140.684C1094.4 140.684 1096.16 142.448 1096.16 144.63C1096.16 146.812 1094.4 148.576 1092.21 148.576C1090.03 148.576 1088.27 146.807 1088.27 144.63C1088.27 142.453 1090.03 140.684 1092.21 140.684Z" fill="#CCE0FF"/>
<path d="M1092.21 112.343C1094.4 112.343 1096.16 114.108 1096.16 116.288C1096.16 118.47 1094.4 120.235 1092.21 120.235C1090.03 120.235 1088.27 118.467 1088.27 116.288C1088.27 114.11 1090.03 112.343 1092.21 112.343Z" fill="#CCE0FF"/>
<path d="M1092.21 83.9998C1094.4 83.9998 1096.16 85.7641 1096.16 87.9459C1096.16 90.1277 1094.4 91.8921 1092.21 91.8921C1090.03 91.8921 1088.27 90.1233 1088.27 87.9459C1088.27 85.7671 1090.03 83.9998 1092.21 83.9998Z" fill="#CCE0FF"/>
<path d="M1092.21 310.737C1094.4 310.737 1096.16 312.502 1096.16 314.683C1096.16 316.865 1094.4 318.629 1092.21 318.629C1090.03 318.629 1088.27 316.861 1088.27 314.683C1088.27 312.505 1090.03 310.737 1092.21 310.737Z" fill="#2667FF"/>
<path d="M1119.05 282.395C1121.23 282.395 1123 284.159 1123 286.341C1123 288.523 1121.23 290.287 1119.05 290.287C1116.87 290.287 1115.11 288.519 1115.11 286.341C1115.11 284.163 1116.87 282.395 1119.05 282.395Z" fill="#2667FF"/>
<path d="M1119.05 254.052C1121.23 254.052 1123 255.817 1123 257.998C1123 260.18 1121.23 261.944 1119.05 261.944C1116.87 261.944 1115.11 260.176 1115.11 257.998C1115.11 255.82 1116.87 254.052 1119.05 254.052Z" fill="#CCE0FF"/>
<path d="M1119.05 225.711C1121.23 225.711 1123 227.475 1123 229.657C1123 231.838 1121.23 233.603 1119.05 233.603C1116.87 233.603 1115.11 231.835 1115.11 229.657C1115.11 227.479 1116.87 225.711 1119.05 225.711Z" fill="#CCE0FF"/>
<path d="M1119.05 197.368C1121.23 197.368 1123 199.133 1123 201.314C1123 203.496 1121.23 205.26 1119.05 205.26C1116.87 205.26 1115.11 203.492 1115.11 201.314C1115.11 199.136 1116.87 197.368 1119.05 197.368Z" fill="#CCE0FF"/>
<path d="M1119.05 169.026C1121.23 169.026 1123 170.791 1123 172.973C1123 175.155 1121.23 176.918 1119.05 176.918C1116.87 176.918 1115.11 175.15 1115.11 172.973C1115.11 170.794 1116.87 169.026 1119.05 169.026Z" fill="#CCE0FF"/>
<path d="M1119.05 140.684C1121.24 140.684 1123 142.448 1123 144.63C1123 146.812 1121.24 148.576 1119.05 148.576C1116.87 148.576 1115.11 146.807 1115.11 144.63C1115.11 142.453 1116.87 140.684 1119.05 140.684Z" fill="#CCE0FF"/>
<path d="M1119.05 112.343C1121.23 112.343 1123 114.108 1123 116.288C1123 118.47 1121.23 120.235 1119.05 120.235C1116.87 120.235 1115.1 118.467 1115.1 116.288C1115.1 114.11 1116.87 112.343 1119.05 112.343Z" fill="#CCE0FF"/>
<path d="M1119.05 83.9998C1121.24 83.9998 1123 85.7641 1123 87.9459C1123 90.1277 1121.24 91.8921 1119.05 91.8921C1116.87 91.8921 1115.11 90.1233 1115.11 87.9459C1115.11 85.7671 1116.87 83.9998 1119.05 83.9998Z" fill="#CCE0FF"/>
<path d="M1119.05 310.737C1121.23 310.737 1123 312.501 1123 314.683C1123 316.865 1121.23 318.629 1119.05 318.629C1116.87 318.629 1115.11 316.861 1115.11 314.683C1115.11 312.505 1116.87 310.737 1119.05 310.737Z" fill="#2667FF"/>
<path d="M635.942 375.159C638.131 375.159 639.897 373.395 639.897 371.213C639.897 369.031 638.131 367.267 635.942 367.267C633.768 367.267 632.002 369.035 632.002 371.213C632.002 373.391 633.768 375.159 635.942 375.159Z" fill="#2667FF"/>
<path d="M635.942 403.502C638.131 403.502 639.897 401.737 639.897 399.555C639.897 397.374 638.131 395.609 635.942 395.609C633.768 395.609 632.002 397.378 632.002 399.555C632.002 401.733 633.768 403.502 635.942 403.502Z" fill="#2667FF"/>
<path d="M635.942 431.843C638.131 431.843 639.897 430.078 639.897 427.896C639.897 425.715 638.131 423.95 635.942 423.95C633.768 423.95 632.002 425.719 632.002 427.896C632.002 430.074 633.768 431.843 635.942 431.843Z" fill="#CCE0FF"/>
<path d="M635.942 460.186C638.131 460.186 639.897 458.421 639.897 456.24C639.897 454.058 638.131 452.293 635.942 452.293C633.768 452.293 632.002 454.062 632.002 456.24C632.002 458.417 633.768 460.186 635.942 460.186Z" fill="#CCE0FF"/>
<path d="M635.942 488.528C638.131 488.528 639.897 486.763 639.897 484.581C639.897 482.4 638.131 480.636 635.942 480.636C633.768 480.636 632.002 482.404 632.002 484.581C632.002 486.76 633.768 488.528 635.942 488.528Z" fill="#CCE0FF"/>
<path d="M635.942 516.87C638.131 516.87 639.897 515.106 639.897 512.924C639.897 510.742 638.131 508.978 635.942 508.978C633.768 508.978 632.002 510.747 632.002 512.924C632.002 515.101 633.768 516.87 635.942 516.87Z" fill="#CCE0FF"/>
<path d="M635.942 545.211C638.131 545.211 639.897 543.447 639.897 541.266C639.897 539.084 638.131 537.32 635.942 537.32C633.767 537.32 632.001 539.087 632.001 541.266C632.001 543.444 633.767 545.211 635.942 545.211Z" fill="#CCE0FF"/>
<path d="M635.942 346.817C638.131 346.817 639.897 345.052 639.897 342.871C639.897 340.689 638.131 338.925 635.942 338.925C633.768 338.925 632.002 340.693 632.002 342.871C632.002 345.049 633.768 346.817 635.942 346.817Z" fill="#2667FF"/>
<path d="M662.783 375.159C664.972 375.159 666.738 373.395 666.738 371.213C666.738 369.031 664.972 367.267 662.783 367.267C660.609 367.267 658.843 369.035 658.843 371.213C658.843 373.391 660.609 375.159 662.783 375.159Z" fill="#2667FF"/>
<path d="M662.783 403.502C664.972 403.502 666.738 401.737 666.738 399.555C666.738 397.374 664.972 395.609 662.783 395.609C660.609 395.609 658.843 397.378 658.843 399.555C658.843 401.733 660.609 403.502 662.783 403.502Z" fill="#2667FF"/>
<path d="M662.783 431.843C664.972 431.843 666.738 430.078 666.738 427.896C666.738 425.715 664.972 423.95 662.783 423.95C660.609 423.95 658.843 425.719 658.843 427.896C658.843 430.074 660.609 431.843 662.783 431.843Z" fill="#CCE0FF"/>
<path d="M662.783 460.186C664.972 460.186 666.738 458.421 666.738 456.24C666.738 454.058 664.972 452.293 662.783 452.293C660.609 452.293 658.843 454.062 658.843 456.24C658.843 458.417 660.609 460.186 662.783 460.186Z" fill="#CCE0FF"/>
<path d="M662.783 488.528C664.972 488.528 666.738 486.763 666.738 484.581C666.738 482.4 664.972 480.636 662.783 480.636C660.609 480.636 658.843 482.404 658.843 484.581C658.843 486.76 660.609 488.528 662.783 488.528Z" fill="#CCE0FF"/>
<path d="M662.783 516.87C664.972 516.87 666.738 515.106 666.738 512.924C666.738 510.742 664.972 508.978 662.783 508.978C660.609 508.978 658.843 510.747 658.843 512.924C658.843 515.101 660.609 516.87 662.783 516.87Z" fill="#CCE0FF"/>
<path d="M662.783 545.211C664.972 545.211 666.738 543.446 666.738 541.266C666.738 539.084 664.972 537.319 662.783 537.319C660.608 537.319 658.842 539.087 658.842 541.266C658.842 543.443 660.608 545.211 662.783 545.211Z" fill="#CCE0FF"/>
<path d="M662.783 346.817C664.972 346.817 666.738 345.052 666.738 342.871C666.738 340.689 664.972 338.925 662.783 338.925C660.609 338.925 658.843 340.693 658.843 342.871C658.843 345.049 660.609 346.817 662.783 346.817Z" fill="#2667FF"/>
<path d="M689.621 375.159C691.81 375.159 693.576 373.395 693.576 371.213C693.576 369.031 691.81 367.267 689.621 367.267C687.446 367.267 685.681 369.035 685.681 371.213C685.681 373.391 687.446 375.159 689.621 375.159Z" fill="#2667FF"/>
<path d="M689.621 403.502C691.81 403.502 693.576 401.737 693.576 399.555C693.576 397.374 691.81 395.609 689.621 395.609C687.447 395.609 685.681 397.378 685.681 399.555C685.681 401.733 687.447 403.502 689.621 403.502Z" fill="#CCE0FF"/>
<path d="M689.621 431.843C691.81 431.843 693.576 430.078 693.576 427.896C693.576 425.715 691.81 423.95 689.621 423.95C687.446 423.95 685.681 425.719 685.681 427.896C685.681 430.074 687.446 431.843 689.621 431.843Z" fill="#CCE0FF"/>
<path d="M689.621 460.186C691.81 460.186 693.576 458.421 693.576 456.24C693.576 454.058 691.81 452.293 689.621 452.293C687.446 452.293 685.681 454.062 685.681 456.24C685.681 458.417 687.446 460.186 689.621 460.186Z" fill="#CCE0FF"/>
<path d="M689.621 488.528C691.81 488.528 693.576 486.763 693.576 484.581C693.576 482.4 691.81 480.636 689.621 480.636C687.446 480.636 685.681 482.404 685.681 484.581C685.681 486.76 687.446 488.528 689.621 488.528Z" fill="#CCE0FF"/>
<path d="M689.621 516.87C691.81 516.87 693.576 515.106 693.576 512.924C693.576 510.742 691.81 508.978 689.621 508.978C687.447 508.978 685.681 510.747 685.681 512.924C685.681 515.101 687.447 516.87 689.621 516.87Z" fill="#CCE0FF"/>
<path d="M689.621 545.211C691.81 545.211 693.576 543.446 693.576 541.266C693.576 539.084 691.81 537.319 689.621 537.319C687.446 537.319 685.68 539.087 685.68 541.266C685.68 543.443 687.446 545.211 689.621 545.211Z" fill="#CCE0FF"/>
<path d="M689.621 346.817C691.81 346.817 693.576 345.052 693.576 342.871C693.576 340.689 691.81 338.925 689.621 338.925C687.446 338.925 685.681 340.693 685.681 342.871C685.681 345.049 687.446 346.817 689.621 346.817Z" fill="#2667FF"/>
<path d="M716.459 375.159C718.648 375.159 720.414 373.395 720.414 371.213C720.414 369.031 718.648 367.267 716.459 367.267C714.284 367.267 712.519 369.035 712.519 371.213C712.519 373.391 714.284 375.159 716.459 375.159Z" fill="#2667FF"/>
<path d="M716.459 403.502C718.648 403.502 720.414 401.737 720.414 399.555C720.414 397.374 718.648 395.609 716.459 395.609C714.284 395.609 712.519 397.378 712.519 399.555C712.519 401.733 714.284 403.502 716.459 403.502Z" fill="#2667FF"/>
<path d="M716.459 431.843C718.648 431.843 720.414 430.078 720.414 427.896C720.414 425.715 718.648 423.95 716.459 423.95C714.284 423.95 712.519 425.719 712.519 427.896C712.519 430.074 714.284 431.843 716.459 431.843Z" fill="#2667FF"/>
<path d="M716.459 460.186C718.648 460.186 720.414 458.421 720.414 456.24C720.414 454.058 718.648 452.293 716.459 452.293C714.284 452.293 712.519 454.062 712.519 456.24C712.519 458.417 714.284 460.186 716.459 460.186Z" fill="#2667FF"/>
<path d="M716.459 488.528C718.648 488.528 720.414 486.763 720.414 484.581C720.414 482.4 718.648 480.636 716.459 480.636C714.284 480.636 712.518 482.404 712.518 484.581C712.518 486.76 714.284 488.528 716.459 488.528Z" fill="#2667FF"/>
<path d="M716.459 516.87C718.648 516.87 720.414 515.106 720.414 512.924C720.414 510.742 718.648 508.978 716.459 508.978C714.285 508.978 712.519 510.747 712.519 512.924C712.519 515.101 714.285 516.87 716.459 516.87Z" fill="#2667FF"/>
<path d="M716.459 545.211C718.648 545.211 720.414 543.446 720.414 541.266C720.414 539.084 718.648 537.319 716.459 537.319C714.284 537.319 712.518 539.087 712.518 541.266C712.518 543.443 714.284 545.211 716.459 545.211Z" fill="#2667FF"/>
<path d="M716.459 346.817C718.648 346.817 720.414 345.052 720.414 342.871C720.414 340.689 718.648 338.925 716.459 338.925C714.284 338.925 712.519 340.693 712.519 342.871C712.519 345.049 714.284 346.817 716.459 346.817Z" fill="#2667FF"/>
<path d="M743.298 375.159C745.487 375.159 747.253 373.395 747.253 371.213C747.253 369.031 745.487 367.267 743.298 367.267C741.123 367.267 739.357 369.035 739.357 371.213C739.357 373.391 741.123 375.159 743.298 375.159Z" fill="#2667FF"/>
<path d="M743.298 403.502C745.487 403.502 747.253 401.737 747.253 399.555C747.253 397.374 745.487 395.609 743.298 395.609C741.123 395.609 739.357 397.378 739.357 399.555C739.357 401.733 741.123 403.502 743.298 403.502Z" fill="#2667FF"/>
<path d="M743.298 431.843C745.487 431.843 747.253 430.078 747.253 427.896C747.253 425.715 745.487 423.95 743.298 423.95C741.123 423.95 739.357 425.719 739.357 427.896C739.357 430.074 741.123 431.843 743.298 431.843Z" fill="#2667FF"/>
<path d="M743.298 460.186C745.487 460.186 747.253 458.421 747.253 456.24C747.253 454.058 745.487 452.293 743.298 452.293C741.123 452.293 739.357 454.062 739.357 456.24C739.357 458.417 741.123 460.186 743.298 460.186Z" fill="#2667FF"/>
<path d="M743.298 488.528C745.487 488.528 747.253 486.763 747.253 484.581C747.253 482.4 745.487 480.636 743.298 480.636C741.123 480.636 739.357 482.404 739.357 484.581C739.357 486.76 741.123 488.528 743.298 488.528Z" fill="#2667FF"/>
<path d="M743.298 516.87C745.487 516.87 747.253 515.106 747.253 512.924C747.253 510.742 745.487 508.978 743.298 508.978C741.123 508.978 739.358 510.747 739.358 512.924C739.358 515.101 741.123 516.87 743.298 516.87Z" fill="#2667FF"/>
<path d="M743.298 545.211C745.487 545.211 747.253 543.446 747.253 541.266C747.253 539.084 745.487 537.319 743.298 537.319C741.123 537.319 739.357 539.087 739.357 541.266C739.357 543.443 741.123 545.211 743.298 545.211Z" fill="#2667FF"/>
<path d="M743.298 346.817C745.487 346.817 747.253 345.052 747.253 342.871C747.253 340.689 745.487 338.925 743.298 338.925C741.123 338.925 739.357 340.693 739.357 342.871C739.357 345.049 741.123 346.817 743.298 346.817Z" fill="#2667FF"/>
<path d="M770.138 375.159C772.327 375.159 774.093 373.395 774.093 371.213C774.093 369.031 772.327 367.267 770.138 367.267C767.963 367.267 766.197 369.035 766.197 371.213C766.197 373.391 767.963 375.159 770.138 375.159Z" fill="#2667FF"/>
<path d="M770.138 403.502C772.327 403.502 774.093 401.737 774.093 399.555C774.093 397.374 772.327 395.609 770.138 395.609C767.963 395.609 766.197 397.378 766.197 399.555C766.197 401.733 767.963 403.502 770.138 403.502Z" fill="#2667FF"/>
<path d="M770.138 431.843C772.327 431.843 774.093 430.078 774.093 427.896C774.093 425.715 772.327 423.95 770.138 423.95C767.963 423.95 766.197 425.719 766.197 427.896C766.197 430.074 767.963 431.843 770.138 431.843Z" fill="#2667FF"/>
<path d="M770.138 460.186C772.327 460.186 774.093 458.421 774.093 456.24C774.093 454.058 772.327 452.293 770.138 452.293C767.963 452.293 766.197 454.062 766.197 456.24C766.197 458.417 767.963 460.186 770.138 460.186Z" fill="#2667FF"/>
<path d="M770.138 488.528C772.327 488.528 774.093 486.763 774.093 484.581C774.093 482.4 772.327 480.636 770.138 480.636C767.963 480.636 766.197 482.404 766.197 484.581C766.197 486.76 767.963 488.528 770.138 488.528Z" fill="#2667FF"/>
<path d="M770.138 516.87C772.327 516.87 774.093 515.106 774.093 512.924C774.093 510.742 772.327 508.978 770.138 508.978C767.963 508.978 766.197 510.747 766.197 512.924C766.197 515.101 767.963 516.87 770.138 516.87Z" fill="#CCE0FF"/>
<path d="M770.137 545.211C772.327 545.211 774.093 543.446 774.093 541.266C774.093 539.084 772.327 537.319 770.137 537.319C767.963 537.319 766.197 539.087 766.197 541.266C766.197 543.443 767.963 545.211 770.137 545.211Z" fill="#CCE0FF"/>
<path d="M770.138 346.817C772.327 346.817 774.093 345.052 774.093 342.871C774.093 340.689 772.327 338.925 770.138 338.925C767.963 338.925 766.197 340.693 766.197 342.871C766.197 345.049 767.963 346.817 770.138 346.817Z" fill="#2667FF"/>
<path d="M796.977 375.159C799.167 375.159 800.933 373.395 800.933 371.213C800.933 369.031 799.167 367.267 796.977 367.267C794.803 367.267 793.037 369.035 793.037 371.213C793.037 373.391 794.803 375.159 796.977 375.159Z" fill="#2667FF"/>
<path d="M796.978 403.502C799.167 403.502 800.933 401.737 800.933 399.555C800.933 397.374 799.167 395.609 796.978 395.609C794.803 395.609 793.037 397.378 793.037 399.555C793.037 401.733 794.803 403.502 796.978 403.502Z" fill="#2667FF"/>
<path d="M796.977 431.843C799.167 431.843 800.933 430.078 800.933 427.896C800.933 425.715 799.167 423.95 796.977 423.95C794.803 423.95 793.037 425.719 793.037 427.896C793.037 430.074 794.803 431.843 796.977 431.843Z" fill="#2667FF"/>
<path d="M796.977 460.186C799.167 460.186 800.933 458.421 800.933 456.24C800.933 454.058 799.167 452.293 796.977 452.293C794.803 452.293 793.037 454.062 793.037 456.24C793.037 458.417 794.803 460.186 796.977 460.186Z" fill="#2667FF"/>
<path d="M796.977 488.528C799.167 488.528 800.933 486.763 800.933 484.581C800.933 482.4 799.167 480.636 796.977 480.636C794.803 480.636 793.037 482.404 793.037 484.581C793.037 486.76 794.803 488.528 796.977 488.528Z" fill="#2667FF"/>
<path d="M796.978 516.87C799.167 516.87 800.933 515.106 800.933 512.924C800.933 510.742 799.167 508.978 796.978 508.978C794.803 508.978 793.037 510.747 793.037 512.924C793.037 515.101 794.803 516.87 796.978 516.87Z" fill="#CCE0FF"/>
<path d="M796.977 545.211C799.166 545.211 800.933 543.446 800.933 541.266C800.933 539.084 799.166 537.319 796.977 537.319C794.803 537.319 793.037 539.087 793.037 541.266C793.037 543.443 794.803 545.211 796.977 545.211Z" fill="#CCE0FF"/>
<path d="M796.977 346.817C799.167 346.817 800.933 345.052 800.933 342.871C800.933 340.689 799.167 338.925 796.977 338.925C794.803 338.925 793.037 340.693 793.037 342.871C793.037 345.049 794.803 346.817 796.977 346.817Z" fill="#2667FF"/>
<path d="M823.818 375.159C826.007 375.159 827.773 373.395 827.773 371.213C827.773 369.031 826.007 367.267 823.818 367.267C821.644 367.267 819.878 369.035 819.878 371.213C819.878 373.391 821.644 375.159 823.818 375.159Z" fill="#2667FF"/>
<path d="M823.818 403.502C826.007 403.502 827.773 401.737 827.773 399.555C827.773 397.374 826.007 395.609 823.818 395.609C821.644 395.609 819.878 397.378 819.878 399.555C819.878 401.733 821.644 403.502 823.818 403.502Z" fill="#CCE0FF"/>
<path d="M823.818 431.843C826.007 431.843 827.773 430.078 827.773 427.896C827.773 425.715 826.007 423.95 823.818 423.95C821.644 423.95 819.878 425.719 819.878 427.896C819.878 430.074 821.644 431.843 823.818 431.843Z" fill="#CCE0FF"/>
<path d="M823.818 460.186C826.007 460.186 827.773 458.421 827.773 456.24C827.773 454.058 826.007 452.293 823.818 452.293C821.644 452.293 819.878 454.062 819.878 456.24C819.878 458.417 821.644 460.186 823.818 460.186Z" fill="#CCE0FF"/>
<path d="M823.818 488.528C826.007 488.528 827.773 486.763 827.773 484.581C827.773 482.4 826.007 480.636 823.818 480.636C821.644 480.636 819.878 482.404 819.878 484.581C819.878 486.76 821.644 488.528 823.818 488.528Z" fill="#CCE0FF"/>
<path d="M823.818 516.87C826.007 516.87 827.773 515.106 827.773 512.924C827.773 510.742 826.007 508.978 823.818 508.978C821.644 508.978 819.878 510.747 819.878 512.924C819.878 515.101 821.644 516.87 823.818 516.87Z" fill="#CCE0FF"/>
<path d="M823.818 545.211C826.007 545.211 827.773 543.446 827.773 541.266C827.773 539.084 826.007 537.319 823.818 537.319C821.643 537.319 819.877 539.087 819.877 541.266C819.877 543.443 821.643 545.211 823.818 545.211Z" fill="#CCE0FF"/>
<path d="M823.818 346.817C826.007 346.817 827.773 345.052 827.773 342.871C827.773 340.689 826.007 338.925 823.818 338.925C821.644 338.925 819.878 340.693 819.878 342.871C819.878 345.049 821.644 346.817 823.818 346.817Z" fill="#2667FF"/>
<path d="M850.656 375.159C852.845 375.159 854.611 373.395 854.611 371.213C854.611 369.031 852.845 367.267 850.656 367.267C848.482 367.267 846.716 369.035 846.716 371.213C846.716 373.391 848.482 375.159 850.656 375.159Z" fill="#2667FF"/>
<path d="M850.656 403.502C852.845 403.502 854.611 401.737 854.611 399.555C854.611 397.374 852.845 395.609 850.656 395.609C848.482 395.609 846.716 397.378 846.716 399.555C846.716 401.733 848.482 403.502 850.656 403.502Z" fill="#2667FF"/>
<path d="M850.656 431.843C852.845 431.843 854.611 430.078 854.611 427.896C854.611 425.715 852.845 423.95 850.656 423.95C848.482 423.95 846.716 425.719 846.716 427.896C846.716 430.074 848.482 431.843 850.656 431.843Z" fill="#2667FF"/>
<path d="M850.656 460.186C852.845 460.186 854.611 458.421 854.611 456.24C854.611 454.058 852.845 452.293 850.656 452.293C848.482 452.293 846.716 454.062 846.716 456.24C846.716 458.417 848.482 460.186 850.656 460.186Z" fill="#2667FF"/>
<path d="M850.656 488.528C852.845 488.528 854.611 486.763 854.611 484.581C854.611 482.4 852.845 480.636 850.656 480.636C848.482 480.636 846.716 482.404 846.716 484.581C846.716 486.76 848.482 488.528 850.656 488.528Z" fill="#2667FF"/>
<path d="M850.656 516.87C852.845 516.87 854.611 515.106 854.611 512.924C854.611 510.742 852.845 508.978 850.656 508.978C848.482 508.978 846.716 510.747 846.716 512.924C846.716 515.101 848.482 516.87 850.656 516.87Z" fill="#2667FF"/>
<path d="M850.656 545.211C852.845 545.211 854.611 543.446 854.611 541.266C854.611 539.084 852.845 537.319 850.656 537.319C848.481 537.319 846.715 539.087 846.715 541.266C846.715 543.443 848.481 545.211 850.656 545.211Z" fill="#2667FF"/>
<path d="M850.656 346.817C852.845 346.817 854.611 345.052 854.611 342.871C854.611 340.689 852.845 338.925 850.656 338.925C848.482 338.925 846.716 340.693 846.716 342.871C846.716 345.049 848.482 346.817 850.656 346.817Z" fill="#2667FF"/>
<path d="M877.494 375.159C879.683 375.159 881.449 373.395 881.449 371.213C881.449 369.031 879.683 367.267 877.494 367.267C875.32 367.267 873.554 369.035 873.554 371.213C873.554 373.391 875.32 375.159 877.494 375.159Z" fill="#2667FF"/>
<path d="M877.494 403.502C879.683 403.502 881.449 401.737 881.449 399.555C881.449 397.374 879.683 395.609 877.494 395.609C875.32 395.609 873.554 397.378 873.554 399.555C873.554 401.733 875.32 403.502 877.494 403.502Z" fill="#2667FF"/>
<path d="M877.494 431.843C879.683 431.843 881.449 430.078 881.449 427.896C881.449 425.715 879.683 423.95 877.494 423.95C875.32 423.95 873.554 425.719 873.554 427.896C873.554 430.074 875.32 431.843 877.494 431.843Z" fill="#2667FF"/>
<path d="M877.494 460.186C879.683 460.186 881.449 458.421 881.449 456.24C881.449 454.058 879.683 452.293 877.494 452.293C875.32 452.293 873.554 454.062 873.554 456.24C873.554 458.417 875.32 460.186 877.494 460.186Z" fill="#2667FF"/>
<path d="M877.494 488.528C879.683 488.528 881.449 486.763 881.449 484.581C881.449 482.4 879.683 480.636 877.494 480.636C875.319 480.636 873.554 482.404 873.554 484.581C873.554 486.76 875.319 488.528 877.494 488.528Z" fill="#2667FF"/>
<path d="M877.494 516.87C879.683 516.87 881.449 515.106 881.449 512.924C881.449 510.742 879.683 508.978 877.494 508.978C875.32 508.978 873.554 510.747 873.554 512.924C873.554 515.101 875.32 516.87 877.494 516.87Z" fill="#2667FF"/>
<path d="M877.494 545.211C879.683 545.211 881.449 543.446 881.449 541.266C881.449 539.084 879.683 537.319 877.494 537.319C875.319 537.319 873.553 539.087 873.553 541.266C873.553 543.443 875.319 545.211 877.494 545.211Z" fill="#2667FF"/>
<path d="M877.494 346.817C879.683 346.817 881.449 345.052 881.449 342.871C881.449 340.689 879.683 338.925 877.494 338.925C875.32 338.925 873.554 340.693 873.554 342.871C873.554 345.049 875.32 346.817 877.494 346.817Z" fill="#2667FF"/>
<path d="M904.333 375.159C906.522 375.159 908.288 373.395 908.288 371.213C908.288 369.031 906.522 367.267 904.333 367.267C902.158 367.267 900.393 369.035 900.393 371.213C900.393 373.391 902.158 375.159 904.333 375.159Z" fill="#2667FF"/>
<path d="M904.333 403.502C906.522 403.502 908.288 401.737 908.288 399.555C908.288 397.374 906.522 395.609 904.333 395.609C902.158 395.609 900.393 397.378 900.393 399.555C900.393 401.733 902.158 403.502 904.333 403.502Z" fill="#CCE0FF"/>
<path d="M904.333 431.843C906.522 431.843 908.288 430.078 908.288 427.896C908.288 425.715 906.522 423.95 904.333 423.95C902.158 423.95 900.393 425.719 900.393 427.896C900.393 430.074 902.158 431.843 904.333 431.843Z" fill="#CCE0FF"/>
<path d="M904.333 460.186C906.522 460.186 908.288 458.421 908.288 456.24C908.288 454.058 906.522 452.293 904.333 452.293C902.158 452.293 900.393 454.062 900.393 456.24C900.393 458.417 902.158 460.186 904.333 460.186Z" fill="#CCE0FF"/>
<path d="M904.333 488.528C906.522 488.528 908.288 486.763 908.288 484.581C908.288 482.4 906.522 480.636 904.333 480.636C902.158 480.636 900.392 482.404 900.392 484.581C900.392 486.76 902.158 488.528 904.333 488.528Z" fill="#CCE0FF"/>
<path d="M904.333 516.87C906.522 516.87 908.288 515.106 908.288 512.924C908.288 510.742 906.522 508.978 904.333 508.978C902.159 508.978 900.393 510.747 900.393 512.924C900.393 515.101 902.159 516.87 904.333 516.87Z" fill="#CCE0FF"/>
<path d="M904.333 545.211C906.522 545.211 908.288 543.446 908.288 541.266C908.288 539.084 906.522 537.319 904.333 537.319C902.158 537.319 900.392 539.087 900.392 541.266C900.392 543.443 902.158 545.211 904.333 545.211Z" fill="#CCE0FF"/>
<path d="M904.333 346.817C906.522 346.817 908.288 345.052 908.288 342.871C908.288 340.689 906.522 338.925 904.333 338.925C902.158 338.925 900.393 340.693 900.393 342.871C900.393 345.049 902.158 346.817 904.333 346.817Z" fill="#2667FF"/>
<path d="M931.173 375.159C933.362 375.159 935.128 373.395 935.128 371.213C935.128 369.031 933.362 367.267 931.173 367.267C928.998 367.267 927.232 369.035 927.232 371.213C927.232 373.391 928.998 375.159 931.173 375.159Z" fill="#2667FF"/>
<path d="M931.173 403.502C933.362 403.502 935.128 401.737 935.128 399.555C935.128 397.374 933.362 395.609 931.173 395.609C928.998 395.609 927.232 397.378 927.232 399.555C927.232 401.733 928.998 403.502 931.173 403.502Z" fill="#2667FF"/>
<path d="M931.173 431.843C933.362 431.843 935.128 430.078 935.128 427.896C935.128 425.715 933.362 423.95 931.173 423.95C928.998 423.95 927.232 425.719 927.232 427.896C927.232 430.074 928.998 431.843 931.173 431.843Z" fill="#2667FF"/>
<path d="M931.173 460.186C933.362 460.186 935.128 458.421 935.128 456.24C935.128 454.058 933.362 452.293 931.173 452.293C928.998 452.293 927.232 454.062 927.232 456.24C927.232 458.417 928.998 460.186 931.173 460.186Z" fill="#2667FF"/>
<path d="M931.173 488.528C933.362 488.528 935.128 486.763 935.128 484.581C935.128 482.4 933.362 480.636 931.173 480.636C928.998 480.636 927.232 482.404 927.232 484.581C927.232 486.76 928.998 488.528 931.173 488.528Z" fill="#2667FF"/>
<path d="M931.173 516.87C933.362 516.87 935.128 515.106 935.128 512.924C935.128 510.742 933.362 508.978 931.173 508.978C928.998 508.978 927.233 510.747 927.233 512.924C927.233 515.101 928.998 516.87 931.173 516.87Z" fill="#2667FF"/>
<path d="M931.173 545.211C933.362 545.211 935.128 543.446 935.128 541.266C935.128 539.084 933.362 537.319 931.173 537.319C928.998 537.319 927.232 539.087 927.232 541.266C927.232 543.443 928.998 545.211 931.173 545.211Z" fill="#CCE0FF"/>
<path d="M931.173 346.817C933.362 346.817 935.128 345.052 935.128 342.871C935.128 340.689 933.362 338.925 931.173 338.925C928.998 338.925 927.232 340.693 927.232 342.871C927.232 345.049 928.998 346.817 931.173 346.817Z" fill="#2667FF"/>
<path d="M958.013 375.159C960.202 375.159 961.968 373.395 961.968 371.213C961.968 369.031 960.202 367.267 958.013 367.267C955.838 367.267 954.072 369.035 954.072 371.213C954.072 373.391 955.838 375.159 958.013 375.159Z" fill="#2667FF"/>
<path d="M958.013 403.502C960.202 403.502 961.968 401.737 961.968 399.555C961.968 397.374 960.202 395.609 958.013 395.609C955.838 395.609 954.072 397.378 954.072 399.555C954.072 401.733 955.838 403.502 958.013 403.502Z" fill="#2667FF"/>
<path d="M958.013 431.843C960.202 431.843 961.968 430.078 961.968 427.896C961.968 425.715 960.202 423.95 958.013 423.95C955.838 423.95 954.072 425.719 954.072 427.896C954.072 430.074 955.838 431.843 958.013 431.843Z" fill="#2667FF"/>
<path d="M958.013 460.186C960.202 460.186 961.968 458.421 961.968 456.24C961.968 454.058 960.202 452.293 958.013 452.293C955.838 452.293 954.072 454.062 954.072 456.24C954.072 458.417 955.838 460.186 958.013 460.186Z" fill="#2667FF"/>
<path d="M958.013 488.528C960.202 488.528 961.968 486.763 961.968 484.581C961.968 482.4 960.202 480.636 958.013 480.636C955.838 480.636 954.072 482.404 954.072 484.581C954.072 486.76 955.838 488.528 958.013 488.528Z" fill="#2667FF"/>
<path d="M958.013 516.87C960.202 516.87 961.968 515.106 961.968 512.924C961.968 510.742 960.202 508.978 958.013 508.978C955.838 508.978 954.072 510.747 954.072 512.924C954.072 515.101 955.838 516.87 958.013 516.87Z" fill="#2667FF"/>
<path d="M958.012 545.211C960.202 545.211 961.968 543.446 961.968 541.266C961.968 539.084 960.202 537.319 958.012 537.319C955.838 537.319 954.072 539.087 954.072 541.266C954.072 543.443 955.838 545.211 958.012 545.211Z" fill="#CCE0FF"/>
<path d="M958.013 346.817C960.202 346.817 961.968 345.052 961.968 342.871C961.968 340.689 960.202 338.925 958.013 338.925C955.838 338.925 954.072 340.693 954.072 342.871C954.072 345.049 955.838 346.817 958.013 346.817Z" fill="#2667FF"/>
<path d="M984.853 375.159C987.043 375.159 988.809 373.395 988.809 371.213C988.809 369.031 987.043 367.267 984.853 367.267C982.679 367.267 980.913 369.035 980.913 371.213C980.913 373.391 982.679 375.159 984.853 375.159Z" fill="#2667FF"/>
<path d="M984.853 403.502C987.043 403.502 988.809 401.737 988.809 399.555C988.809 397.374 987.043 395.609 984.853 395.609C982.679 395.609 980.913 397.378 980.913 399.555C980.913 401.733 982.679 403.502 984.853 403.502Z" fill="#2667FF"/>
<path d="M984.853 431.843C987.043 431.843 988.809 430.078 988.809 427.896C988.809 425.715 987.043 423.95 984.853 423.95C982.679 423.95 980.913 425.719 980.913 427.896C980.913 430.074 982.679 431.843 984.853 431.843Z" fill="#2667FF"/>
<path d="M984.853 460.186C987.043 460.186 988.809 458.421 988.809 456.24C988.809 454.058 987.043 452.293 984.853 452.293C982.679 452.293 980.913 454.062 980.913 456.24C980.913 458.417 982.679 460.186 984.853 460.186Z" fill="#CCE0FF"/>
<path d="M984.853 488.528C987.043 488.528 988.809 486.763 988.809 484.581C988.809 482.4 987.043 480.636 984.853 480.636C982.679 480.636 980.913 482.404 980.913 484.581C980.913 486.76 982.679 488.528 984.853 488.528Z" fill="#CCE0FF"/>
<path d="M984.854 516.87C987.043 516.87 988.809 515.106 988.809 512.924C988.809 510.742 987.043 508.978 984.854 508.978C982.679 508.978 980.913 510.747 980.913 512.924C980.913 515.101 982.679 516.87 984.854 516.87Z" fill="#CCE0FF"/>
<path d="M984.853 545.211C987.042 545.211 988.809 543.446 988.809 541.266C988.809 539.084 987.042 537.319 984.853 537.319C982.679 537.319 980.913 539.087 980.913 541.266C980.913 543.443 982.679 545.211 984.853 545.211Z" fill="#CCE0FF"/>
<path d="M984.853 346.817C987.043 346.817 988.809 345.052 988.809 342.871C988.809 340.689 987.043 338.925 984.853 338.925C982.679 338.925 980.913 340.693 980.913 342.871C980.913 345.049 982.679 346.817 984.853 346.817Z" fill="#2667FF"/>
<path d="M1011.69 375.159C1013.88 375.159 1015.65 373.395 1015.65 371.213C1015.65 369.031 1013.88 367.267 1011.69 367.267C1009.52 367.267 1007.75 369.035 1007.75 371.213C1007.75 373.391 1009.52 375.159 1011.69 375.159Z" fill="#2667FF"/>
<path d="M1011.69 403.502C1013.88 403.502 1015.65 401.737 1015.65 399.555C1015.65 397.374 1013.88 395.609 1011.69 395.609C1009.52 395.609 1007.75 397.378 1007.75 399.555C1007.75 401.733 1009.52 403.502 1011.69 403.502Z" fill="#2667FF"/>
<path d="M1011.69 431.843C1013.88 431.843 1015.65 430.078 1015.65 427.896C1015.65 425.715 1013.88 423.95 1011.69 423.95C1009.52 423.95 1007.75 425.719 1007.75 427.896C1007.75 430.074 1009.52 431.843 1011.69 431.843Z" fill="#2667FF"/>
<path d="M1011.69 460.186C1013.88 460.186 1015.65 458.421 1015.65 456.24C1015.65 454.058 1013.88 452.293 1011.69 452.293C1009.52 452.293 1007.75 454.062 1007.75 456.24C1007.75 458.417 1009.52 460.186 1011.69 460.186Z" fill="#2667FF"/>
<path d="M1011.69 488.528C1013.88 488.528 1015.65 486.763 1015.65 484.581C1015.65 482.4 1013.88 480.636 1011.69 480.636C1009.52 480.636 1007.75 482.404 1007.75 484.581C1007.75 486.76 1009.52 488.528 1011.69 488.528Z" fill="#CCE0FF"/>
<path d="M1011.69 516.87C1013.88 516.87 1015.65 515.106 1015.65 512.924C1015.65 510.742 1013.88 508.978 1011.69 508.978C1009.52 508.978 1007.75 510.747 1007.75 512.924C1007.75 515.101 1009.52 516.87 1011.69 516.87Z" fill="#CCE0FF"/>
<path d="M1011.69 545.211C1013.88 545.211 1015.65 543.446 1015.65 541.266C1015.65 539.084 1013.88 537.319 1011.69 537.319C1009.52 537.319 1007.75 539.087 1007.75 541.266C1007.75 543.443 1009.52 545.211 1011.69 545.211Z" fill="#CCE0FF"/>
<path d="M1011.69 346.817C1013.88 346.817 1015.65 345.052 1015.65 342.871C1015.65 340.689 1013.88 338.925 1011.69 338.925C1009.52 338.925 1007.75 340.693 1007.75 342.871C1007.75 345.049 1009.52 346.817 1011.69 346.817Z" fill="#2667FF"/>
<path d="M1038.53 375.159C1040.72 375.159 1042.48 373.395 1042.48 371.213C1042.48 369.031 1040.72 367.267 1038.53 367.267C1036.35 367.267 1034.59 369.035 1034.59 371.213C1034.59 373.391 1036.35 375.159 1038.53 375.159Z" fill="#2667FF"/>
<path d="M1038.53 403.502C1040.72 403.502 1042.48 401.737 1042.48 399.555C1042.48 397.374 1040.72 395.609 1038.53 395.609C1036.35 395.609 1034.59 397.378 1034.59 399.555C1034.59 401.733 1036.35 403.502 1038.53 403.502Z" fill="#2667FF"/>
<path d="M1038.53 431.843C1040.72 431.843 1042.48 430.078 1042.48 427.896C1042.48 425.715 1040.72 423.95 1038.53 423.95C1036.35 423.95 1034.59 425.719 1034.59 427.896C1034.59 430.074 1036.35 431.843 1038.53 431.843Z" fill="#2667FF"/>
<path d="M1038.53 460.186C1040.72 460.186 1042.48 458.421 1042.48 456.24C1042.48 454.058 1040.72 452.293 1038.53 452.293C1036.35 452.293 1034.59 454.062 1034.59 456.24C1034.59 458.417 1036.35 460.186 1038.53 460.186Z" fill="#2667FF"/>
<path d="M1038.53 488.528C1040.72 488.528 1042.48 486.763 1042.48 484.581C1042.48 482.4 1040.72 480.636 1038.53 480.636C1036.35 480.636 1034.59 482.404 1034.59 484.581C1034.59 486.76 1036.35 488.528 1038.53 488.528Z" fill="#CCE0FF"/>
<path d="M1038.53 516.87C1040.72 516.87 1042.48 515.106 1042.48 512.924C1042.48 510.742 1040.72 508.978 1038.53 508.978C1036.35 508.978 1034.59 510.747 1034.59 512.924C1034.59 515.101 1036.35 516.87 1038.53 516.87Z" fill="#CCE0FF"/>
<path d="M1038.53 545.211C1040.72 545.211 1042.48 543.446 1042.48 541.266C1042.48 539.084 1040.72 537.319 1038.53 537.319C1036.35 537.319 1034.59 539.087 1034.59 541.266C1034.59 543.443 1036.35 545.211 1038.53 545.211Z" fill="#CCE0FF"/>
<path d="M1038.53 346.817C1040.72 346.817 1042.48 345.052 1042.48 342.871C1042.48 340.689 1040.72 338.925 1038.53 338.925C1036.35 338.925 1034.59 340.693 1034.59 342.871C1034.59 345.049 1036.35 346.817 1038.53 346.817Z" fill="#2667FF"/>
<path d="M1065.37 375.159C1067.56 375.159 1069.32 373.395 1069.32 371.213C1069.32 369.031 1067.56 367.267 1065.37 367.267C1063.19 367.267 1061.43 369.035 1061.43 371.213C1061.43 373.391 1063.19 375.159 1065.37 375.159Z" fill="#2667FF"/>
<path d="M1065.37 403.502C1067.56 403.502 1069.32 401.737 1069.32 399.555C1069.32 397.374 1067.56 395.609 1065.37 395.609C1063.19 395.609 1061.43 397.378 1061.43 399.555C1061.43 401.733 1063.19 403.502 1065.37 403.502Z" fill="#CCE0FF"/>
<path d="M1065.37 431.843C1067.56 431.843 1069.32 430.078 1069.32 427.896C1069.32 425.715 1067.56 423.95 1065.37 423.95C1063.19 423.95 1061.43 425.719 1061.43 427.896C1061.43 430.074 1063.19 431.843 1065.37 431.843Z" fill="#CCE0FF"/>
<path d="M1065.37 460.186C1067.56 460.186 1069.32 458.421 1069.32 456.24C1069.32 454.058 1067.56 452.293 1065.37 452.293C1063.19 452.293 1061.43 454.062 1061.43 456.24C1061.43 458.417 1063.19 460.186 1065.37 460.186Z" fill="#CCE0FF"/>
<path d="M1065.37 488.528C1067.56 488.528 1069.32 486.763 1069.32 484.581C1069.32 482.4 1067.56 480.636 1065.37 480.636C1063.19 480.636 1061.43 482.404 1061.43 484.581C1061.43 486.76 1063.19 488.528 1065.37 488.528Z" fill="#CCE0FF"/>
<path d="M1065.37 516.87C1067.56 516.87 1069.32 515.106 1069.32 512.924C1069.32 510.742 1067.56 508.978 1065.37 508.978C1063.19 508.978 1061.43 510.747 1061.43 512.924C1061.43 515.101 1063.19 516.87 1065.37 516.87Z" fill="#CCE0FF"/>
<path d="M1065.37 545.211C1067.56 545.211 1069.32 543.446 1069.32 541.266C1069.32 539.084 1067.56 537.319 1065.37 537.319C1063.19 537.319 1061.43 539.087 1061.43 541.266C1061.43 543.443 1063.19 545.211 1065.37 545.211Z" fill="#CCE0FF"/>
<path d="M1065.37 346.817C1067.56 346.817 1069.32 345.052 1069.32 342.871C1069.32 340.689 1067.56 338.925 1065.37 338.925C1063.19 338.925 1061.43 340.693 1061.43 342.871C1061.43 345.049 1063.19 346.817 1065.37 346.817Z" fill="#2667FF"/>
<path d="M1092.21 375.159C1094.4 375.159 1096.16 373.395 1096.16 371.213C1096.16 369.031 1094.4 367.267 1092.21 367.267C1090.03 367.267 1088.27 369.035 1088.27 371.213C1088.27 373.391 1090.03 375.159 1092.21 375.159Z" fill="#2667FF"/>
<path d="M1092.21 403.502C1094.4 403.502 1096.16 401.737 1096.16 399.555C1096.16 397.374 1094.4 395.609 1092.21 395.609C1090.03 395.609 1088.27 397.378 1088.27 399.555C1088.27 401.733 1090.03 403.502 1092.21 403.502Z" fill="#CCE0FF"/>
<path d="M1092.21 431.843C1094.4 431.843 1096.16 430.078 1096.16 427.896C1096.16 425.715 1094.4 423.95 1092.21 423.95C1090.03 423.95 1088.27 425.719 1088.27 427.896C1088.27 430.074 1090.03 431.843 1092.21 431.843Z" fill="#CCE0FF"/>
<path d="M1092.21 460.186C1094.4 460.186 1096.16 458.421 1096.16 456.24C1096.16 454.058 1094.4 452.293 1092.21 452.293C1090.03 452.293 1088.27 454.062 1088.27 456.24C1088.27 458.417 1090.03 460.186 1092.21 460.186Z" fill="#CCE0FF"/>
<path d="M1092.21 488.528C1094.4 488.528 1096.16 486.763 1096.16 484.581C1096.16 482.4 1094.4 480.636 1092.21 480.636C1090.03 480.636 1088.27 482.404 1088.27 484.581C1088.27 486.76 1090.03 488.528 1092.21 488.528Z" fill="#CCE0FF"/>
<path d="M1092.21 516.87C1094.4 516.87 1096.16 515.106 1096.16 512.924C1096.16 510.742 1094.4 508.978 1092.21 508.978C1090.03 508.978 1088.27 510.747 1088.27 512.924C1088.27 515.101 1090.03 516.87 1092.21 516.87Z" fill="#CCE0FF"/>
<path d="M1092.21 545.211C1094.4 545.211 1096.16 543.446 1096.16 541.266C1096.16 539.084 1094.4 537.319 1092.21 537.319C1090.03 537.319 1088.27 539.087 1088.27 541.266C1088.27 543.443 1090.03 545.211 1092.21 545.211Z" fill="#CCE0FF"/>
<path d="M1092.21 346.817C1094.4 346.817 1096.16 345.052 1096.16 342.871C1096.16 340.689 1094.4 338.925 1092.21 338.925C1090.03 338.925 1088.27 340.693 1088.27 342.871C1088.27 345.049 1090.03 346.817 1092.21 346.817Z" fill="#2667FF"/>
<path d="M1119.05 375.159C1121.24 375.159 1123 373.395 1123 371.213C1123 369.031 1121.24 367.267 1119.05 367.267C1116.87 367.267 1115.11 369.035 1115.11 371.213C1115.11 373.391 1116.87 375.159 1119.05 375.159Z" fill="#2667FF"/>
<path d="M1119.05 403.502C1121.24 403.502 1123 401.737 1123 399.555C1123 397.374 1121.24 395.609 1119.05 395.609C1116.87 395.609 1115.11 397.378 1115.11 399.555C1115.11 401.733 1116.87 403.502 1119.05 403.502Z" fill="#CCE0FF"/>
<path d="M1119.05 431.843C1121.24 431.843 1123 430.078 1123 427.896C1123 425.715 1121.24 423.95 1119.05 423.95C1116.87 423.95 1115.11 425.719 1115.11 427.896C1115.11 430.074 1116.87 431.843 1119.05 431.843Z" fill="#CCE0FF"/>
<path d="M1119.05 460.186C1121.24 460.186 1123 458.421 1123 456.24C1123 454.058 1121.24 452.293 1119.05 452.293C1116.87 452.293 1115.11 454.062 1115.11 456.24C1115.11 458.417 1116.87 460.186 1119.05 460.186Z" fill="#CCE0FF"/>
<path d="M1119.05 488.528C1121.24 488.528 1123 486.763 1123 484.581C1123 482.4 1121.24 480.636 1119.05 480.636C1116.87 480.636 1115.11 482.404 1115.11 484.581C1115.11 486.76 1116.87 488.528 1119.05 488.528Z" fill="#CCE0FF"/>
<path d="M1119.05 516.87C1121.24 516.87 1123 515.106 1123 512.924C1123 510.742 1121.24 508.978 1119.05 508.978C1116.87 508.978 1115.11 510.747 1115.11 512.924C1115.11 515.101 1116.87 516.87 1119.05 516.87Z" fill="#CCE0FF"/>
<path d="M1119.05 545.211C1121.24 545.211 1123 543.446 1123 541.266C1123 539.084 1121.24 537.319 1119.05 537.319C1116.87 537.319 1115.11 539.087 1115.11 541.266C1115.11 543.443 1116.87 545.211 1119.05 545.211Z" fill="#CCE0FF"/>
<path d="M1119.05 346.817C1121.24 346.817 1123 345.052 1123 342.871C1123 340.689 1121.24 338.925 1119.05 338.925C1116.87 338.925 1115.11 340.693 1115.11 342.871C1115.11 345.049 1116.87 346.817 1119.05 346.817Z" fill="#2667FF"/>
<path d="M99.52 541.48C97.6533 541.48 95.92 541.133 94.32 540.44C92.72 539.72 91.36 538.747 90.24 537.52C89.12 536.293 88.2933 534.88 87.76 533.28L91.76 531.6C92.48 533.44 93.5333 534.853 94.92 535.84C96.3067 536.827 97.9067 537.32 99.72 537.32C100.787 537.32 101.72 537.16 102.52 536.84C103.32 536.493 103.933 536.013 104.36 535.4C104.813 534.787 105.04 534.08 105.04 533.28C105.04 532.187 104.733 531.32 104.12 530.68C103.507 530.04 102.6 529.533 101.4 529.16L95.8 527.4C93.56 526.707 91.8533 525.653 90.68 524.24C89.5067 522.8 88.92 521.12 88.92 519.2C88.92 517.52 89.3333 516.053 90.16 514.8C90.9867 513.52 92.12 512.52 93.56 511.8C95.0267 511.08 96.6933 510.72 98.56 510.72C100.347 510.72 101.973 511.04 103.44 511.68C104.907 512.293 106.16 513.147 107.2 514.24C108.267 515.333 109.04 516.6 109.52 518.04L105.6 519.76C105.013 518.187 104.093 516.973 102.84 516.12C101.613 515.267 100.187 514.84 98.56 514.84C97.5733 514.84 96.7067 515.013 95.96 515.36C95.2133 515.68 94.6267 516.16 94.2 516.8C93.8 517.413 93.6 518.133 93.6 518.96C93.6 519.92 93.9067 520.773 94.52 521.52C95.1333 522.267 96.0667 522.827 97.32 523.2L102.52 524.84C104.893 525.56 106.68 526.6 107.88 527.96C109.08 529.293 109.68 530.96 109.68 532.96C109.68 534.613 109.24 536.08 108.36 537.36C107.507 538.64 106.32 539.653 104.8 540.4C103.28 541.12 101.52 541.48 99.52 541.48ZM114.538 541V519.36H118.858V524.04L118.298 523.32C118.752 521.853 119.578 520.747 120.778 520C121.978 519.253 123.352 518.88 124.898 518.88C126.632 518.88 128.165 519.347 129.498 520.28C130.858 521.187 131.765 522.4 132.218 523.92L130.938 524.04C131.578 522.307 132.552 521.013 133.858 520.16C135.192 519.307 136.712 518.88 138.418 518.88C139.912 518.88 141.258 519.227 142.458 519.92C143.685 520.613 144.658 521.573 145.378 522.8C146.098 524.027 146.458 525.427 146.458 527V541H141.938V528.24C141.938 527.147 141.738 526.227 141.338 525.48C140.965 524.707 140.432 524.12 139.738 523.72C139.072 523.293 138.285 523.08 137.378 523.08C136.472 523.08 135.672 523.293 134.978 523.72C134.285 524.12 133.738 524.707 133.338 525.48C132.938 526.253 132.738 527.173 132.738 528.24V541H128.258V528.24C128.258 527.147 128.058 526.227 127.658 525.48C127.285 524.707 126.752 524.12 126.058 523.72C125.392 523.293 124.592 523.08 123.658 523.08C122.752 523.08 121.952 523.293 121.258 523.72C120.565 524.12 120.018 524.707 119.618 525.48C119.245 526.253 119.058 527.173 119.058 528.24V541H114.538ZM157.776 541.48C156.31 541.48 155.016 541.227 153.896 540.72C152.803 540.187 151.95 539.467 151.336 538.56C150.723 537.627 150.416 536.533 150.416 535.28C150.416 534.107 150.67 533.053 151.176 532.12C151.71 531.187 152.523 530.4 153.616 529.76C154.71 529.12 156.083 528.667 157.736 528.4L165.256 527.16V530.72L158.616 531.88C157.416 532.093 156.536 532.48 155.976 533.04C155.416 533.573 155.136 534.267 155.136 535.12C155.136 535.947 155.443 536.627 156.056 537.16C156.696 537.667 157.51 537.92 158.496 537.92C159.723 537.92 160.79 537.653 161.696 537.12C162.63 536.587 163.35 535.88 163.856 535C164.363 534.093 164.616 533.093 164.616 532V526.44C164.616 525.373 164.216 524.507 163.416 523.84C162.643 523.147 161.603 522.8 160.296 522.8C159.096 522.8 158.043 523.12 157.136 523.76C156.256 524.373 155.603 525.173 155.176 526.16L151.416 524.28C151.816 523.213 152.47 522.28 153.376 521.48C154.283 520.653 155.336 520.013 156.536 519.56C157.763 519.107 159.056 518.88 160.416 518.88C162.123 518.88 163.63 519.2 164.936 519.84C166.27 520.48 167.296 521.373 168.016 522.52C168.763 523.64 169.136 524.947 169.136 526.44V541H164.816V537.08L165.736 537.2C165.23 538.08 164.576 538.84 163.776 539.48C163.003 540.12 162.11 540.613 161.096 540.96C160.11 541.307 159.003 541.48 157.776 541.48ZM174.421 541V519.36H178.741V523.72L178.341 523.08C178.821 521.667 179.595 520.653 180.661 520.04C181.728 519.4 183.008 519.08 184.501 519.08H185.821V523.2H183.941C182.448 523.2 181.235 523.667 180.301 524.6C179.395 525.507 178.941 526.813 178.941 528.52V541H174.421ZM198.664 541.24C196.397 541.24 194.637 540.6 193.384 539.32C192.131 538.04 191.504 536.24 191.504 533.92V523.44H187.704V519.36H188.304C189.317 519.36 190.104 519.067 190.664 518.48C191.224 517.893 191.504 517.093 191.504 516.08V514.4H196.024V519.36H200.944V523.44H196.024V533.72C196.024 534.467 196.144 535.107 196.384 535.64C196.624 536.147 197.011 536.547 197.544 536.84C198.077 537.107 198.771 537.24 199.624 537.24C199.837 537.24 200.077 537.227 200.344 537.2C200.611 537.173 200.864 537.147 201.104 537.12V541C200.731 541.053 200.317 541.107 199.864 541.16C199.411 541.213 199.011 541.24 198.664 541.24ZM212.947 541V511.2H217.347L228.547 526.72H226.347L237.347 511.2H241.747V541H237.067V516.76L238.827 517.24L227.587 532.6H227.107L216.107 517.24L217.667 516.76V541H212.947ZM257.908 541.48C255.828 541.48 253.921 540.987 252.188 540C250.481 539.013 249.121 537.667 248.108 535.96C247.095 534.253 246.588 532.32 246.588 530.16C246.588 527.973 247.095 526.04 248.108 524.36C249.121 522.653 250.481 521.32 252.188 520.36C253.895 519.373 255.801 518.88 257.908 518.88C260.041 518.88 261.948 519.373 263.628 520.36C265.335 521.32 266.681 522.653 267.668 524.36C268.681 526.04 269.188 527.973 269.188 530.16C269.188 532.347 268.681 534.293 267.668 536C266.655 537.707 265.295 539.053 263.588 540.04C261.881 541 259.988 541.48 257.908 541.48ZM257.908 537.28C259.188 537.28 260.321 536.973 261.308 536.36C262.295 535.747 263.068 534.907 263.628 533.84C264.215 532.747 264.508 531.52 264.508 530.16C264.508 528.8 264.215 527.587 263.628 526.52C263.068 525.453 262.295 524.613 261.308 524C260.321 523.387 259.188 523.08 257.908 523.08C256.655 523.08 255.521 523.387 254.508 524C253.521 524.613 252.735 525.453 252.148 526.52C251.588 527.587 251.308 528.8 251.308 530.16C251.308 531.52 251.588 532.747 252.148 533.84C252.735 534.907 253.521 535.747 254.508 536.36C255.521 536.973 256.655 537.28 257.908 537.28ZM273.601 541V519.36H277.921V523.6L277.401 523.04C277.934 521.68 278.788 520.653 279.961 519.96C281.134 519.24 282.494 518.88 284.041 518.88C285.641 518.88 287.054 519.227 288.281 519.92C289.508 520.613 290.468 521.573 291.161 522.8C291.854 524.027 292.201 525.44 292.201 527.04V541H287.721V528.24C287.721 527.147 287.521 526.227 287.121 525.48C286.721 524.707 286.148 524.12 285.401 523.72C284.681 523.293 283.854 523.08 282.921 523.08C281.988 523.08 281.148 523.293 280.401 523.72C279.681 524.12 279.121 524.707 278.721 525.48C278.321 526.253 278.121 527.173 278.121 528.24V541H273.601ZM307.198 541.48C305.038 541.48 303.118 540.987 301.438 540C299.785 538.987 298.492 537.627 297.558 535.92C296.625 534.187 296.158 532.253 296.158 530.12C296.158 527.933 296.625 526 297.558 524.32C298.518 522.64 299.798 521.32 301.398 520.36C302.998 519.373 304.812 518.88 306.838 518.88C308.465 518.88 309.918 519.16 311.198 519.72C312.478 520.28 313.558 521.053 314.438 522.04C315.318 523 315.985 524.107 316.438 525.36C316.918 526.613 317.158 527.947 317.158 529.36C317.158 529.707 317.145 530.067 317.118 530.44C317.092 530.813 317.038 531.16 316.958 531.48H299.718V527.88H314.398L312.238 529.52C312.505 528.213 312.412 527.053 311.958 526.04C311.532 525 310.865 524.187 309.958 523.6C309.078 522.987 308.038 522.68 306.838 522.68C305.638 522.68 304.572 522.987 303.638 523.6C302.705 524.187 301.985 525.04 301.478 526.16C300.972 527.253 300.772 528.587 300.878 530.16C300.745 531.627 300.945 532.907 301.478 534C302.038 535.093 302.812 535.947 303.798 536.56C304.812 537.173 305.958 537.48 307.238 537.48C308.545 537.48 309.652 537.187 310.558 536.6C311.492 536.013 312.225 535.253 312.758 534.32L316.438 536.12C316.012 537.133 315.345 538.053 314.438 538.88C313.558 539.68 312.492 540.32 311.238 540.8C310.012 541.253 308.665 541.48 307.198 541.48ZM323.49 549.8C322.956 549.8 322.423 549.747 321.89 549.64C321.383 549.56 320.916 549.427 320.49 549.24V545.36C320.81 545.44 321.196 545.507 321.65 545.56C322.103 545.64 322.543 545.68 322.97 545.68C324.223 545.68 325.143 545.4 325.73 544.84C326.343 544.307 326.89 543.48 327.37 542.36L328.81 539.08L328.73 542.88L319.37 519.36H324.21L331.13 537.4H329.49L336.37 519.36H341.25L331.69 543.36C331.183 544.64 330.543 545.76 329.77 546.72C329.023 547.707 328.13 548.467 327.09 549C326.076 549.533 324.876 549.8 323.49 549.8ZM359.175 541.48C357.202 541.48 355.469 540.987 353.975 540C352.482 539.013 351.389 537.667 350.695 535.96L352.775 535C353.442 536.307 354.335 537.347 355.455 538.12C356.575 538.867 357.815 539.24 359.175 539.24C360.562 539.24 361.722 538.907 362.655 538.24C363.615 537.547 364.095 536.64 364.095 535.52C364.095 534.827 363.909 534.24 363.535 533.76C363.189 533.28 362.735 532.893 362.175 532.6C361.615 532.28 361.015 532.04 360.375 531.88L357.095 530.96C355.255 530.453 353.895 529.707 353.015 528.72C352.162 527.733 351.735 526.573 351.735 525.24C351.735 524.04 352.042 523 352.655 522.12C353.269 521.213 354.095 520.52 355.135 520.04C356.175 519.533 357.322 519.28 358.575 519.28C360.335 519.28 361.935 519.733 363.375 520.64C364.815 521.547 365.829 522.773 366.415 524.32L364.255 525.32C363.695 524.12 362.909 523.187 361.895 522.52C360.882 521.827 359.762 521.48 358.535 521.48C357.255 521.48 356.215 521.827 355.415 522.52C354.615 523.187 354.215 524.04 354.215 525.08C354.215 525.747 354.375 526.307 354.695 526.76C355.015 527.187 355.429 527.547 355.935 527.84C356.469 528.107 357.015 528.32 357.575 528.48L361.135 529.52C362.869 530 364.202 530.76 365.135 531.8C366.095 532.84 366.575 534.067 366.575 535.48C366.575 536.627 366.255 537.653 365.615 538.56C364.975 539.467 364.095 540.187 362.975 540.72C361.855 541.227 360.589 541.48 359.175 541.48ZM380.048 541.24C378.288 541.24 376.928 540.747 375.968 539.76C375.008 538.747 374.528 537.28 374.528 535.36V522.04H370.528V519.76H372.048C372.848 519.76 373.461 519.52 373.888 519.04C374.314 518.56 374.528 517.907 374.528 517.08V514.8H376.928V519.76H381.568V522.04H376.928V535.36C376.928 535.947 377.008 536.52 377.168 537.08C377.354 537.64 377.701 538.093 378.208 538.44C378.714 538.787 379.448 538.96 380.408 538.96C380.621 538.96 380.874 538.947 381.168 538.92C381.488 538.893 381.741 538.867 381.928 538.84V541C381.634 541.08 381.301 541.133 380.928 541.16C380.554 541.213 380.261 541.24 380.048 541.24ZM393.173 541.48C391.84 541.48 390.653 541.227 389.613 540.72C388.573 540.213 387.747 539.507 387.133 538.6C386.52 537.693 386.213 536.653 386.213 535.48C386.213 534.44 386.44 533.467 386.893 532.56C387.347 531.653 388.08 530.88 389.093 530.24C390.107 529.573 391.427 529.107 393.053 528.84L401.653 527.4V529.64L393.693 530.96C391.88 531.253 390.6 531.8 389.853 532.6C389.107 533.4 388.733 534.333 388.733 535.4C388.733 536.547 389.16 537.48 390.013 538.2C390.893 538.92 392 539.28 393.333 539.28C394.88 539.28 396.227 538.933 397.373 538.24C398.52 537.52 399.413 536.587 400.053 535.44C400.693 534.267 401.013 532.987 401.013 531.6V526.32C401.013 524.907 400.507 523.76 399.493 522.88C398.48 522 397.16 521.56 395.533 521.56C394.2 521.56 393 521.893 391.933 522.56C390.867 523.227 390.053 524.093 389.493 525.16L387.333 524C387.733 523.147 388.347 522.36 389.173 521.64C390 520.92 390.96 520.347 392.053 519.92C393.147 519.493 394.307 519.28 395.533 519.28C397.08 519.28 398.44 519.587 399.613 520.2C400.813 520.787 401.747 521.613 402.413 522.68C403.08 523.72 403.413 524.933 403.413 526.32V541H401.013V536.56L401.293 536.76C400.947 537.613 400.373 538.4 399.573 539.12C398.773 539.813 397.827 540.387 396.733 540.84C395.667 541.267 394.48 541.48 393.173 541.48ZM410.023 541V519.76H412.423V523.72L411.983 523.36C412.436 522.16 413.21 521.213 414.303 520.52C415.423 519.827 416.743 519.48 418.263 519.48H419.623V521.88H417.983C416.25 521.88 414.89 522.44 413.903 523.56C412.916 524.653 412.423 526.133 412.423 528V541H410.023ZM431.298 541.24C429.538 541.24 428.178 540.747 427.218 539.76C426.258 538.747 425.778 537.28 425.778 535.36V522.04H421.778V519.76H423.298C424.098 519.76 424.711 519.52 425.138 519.04C425.564 518.56 425.778 517.907 425.778 517.08V514.8H428.178V519.76H432.818V522.04H428.178V535.36C428.178 535.947 428.258 536.52 428.418 537.08C428.604 537.64 428.951 538.093 429.458 538.44C429.964 538.787 430.698 538.96 431.658 538.96C431.871 538.96 432.124 538.947 432.418 538.92C432.738 538.893 432.991 538.867 433.178 538.84V541C432.884 541.08 432.551 541.133 432.178 541.16C431.804 541.213 431.511 541.24 431.298 541.24ZM446.089 541.48C444.116 541.48 442.383 540.987 440.889 540C439.396 539.013 438.303 537.667 437.609 535.96L439.689 535C440.356 536.307 441.249 537.347 442.369 538.12C443.489 538.867 444.729 539.24 446.089 539.24C447.476 539.24 448.636 538.907 449.569 538.24C450.529 537.547 451.009 536.64 451.009 535.52C451.009 534.827 450.823 534.24 450.449 533.76C450.103 533.28 449.649 532.893 449.089 532.6C448.529 532.28 447.929 532.04 447.289 531.88L444.009 530.96C442.169 530.453 440.809 529.707 439.929 528.72C439.076 527.733 438.649 526.573 438.649 525.24C438.649 524.04 438.956 523 439.569 522.12C440.183 521.213 441.009 520.52 442.049 520.04C443.089 519.533 444.236 519.28 445.489 519.28C447.249 519.28 448.849 519.733 450.289 520.64C451.729 521.547 452.743 522.773 453.329 524.32L451.169 525.32C450.609 524.12 449.823 523.187 448.809 522.52C447.796 521.827 446.676 521.48 445.449 521.48C444.169 521.48 443.129 521.827 442.329 522.52C441.529 523.187 441.129 524.04 441.129 525.08C441.129 525.747 441.289 526.307 441.609 526.76C441.929 527.187 442.343 527.547 442.849 527.84C443.383 528.107 443.929 528.32 444.489 528.48L448.049 529.52C449.783 530 451.116 530.76 452.049 531.8C453.009 532.84 453.489 534.067 453.489 535.48C453.489 536.627 453.169 537.653 452.529 538.56C451.889 539.467 451.009 540.187 449.889 540.72C448.769 541.227 447.503 541.48 446.089 541.48ZM465.843 541V510.72H468.243V524.04L467.643 523.88C468.123 522.467 468.977 521.347 470.203 520.52C471.457 519.693 472.91 519.28 474.563 519.28C476.03 519.28 477.363 519.613 478.563 520.28C479.763 520.947 480.723 521.88 481.443 523.08C482.163 524.253 482.523 525.6 482.523 527.12V541H480.123V527.8C480.123 526.52 479.857 525.427 479.323 524.52C478.817 523.587 478.11 522.88 477.203 522.4C476.323 521.893 475.323 521.64 474.203 521.64C473.003 521.64 471.95 521.92 471.043 522.48C470.163 523.04 469.47 523.813 468.963 524.8C468.483 525.787 468.243 526.92 468.243 528.2V541H465.843ZM498.454 541.48C496.454 541.48 494.654 541 493.054 540.04C491.454 539.053 490.187 537.72 489.254 536.04C488.321 534.333 487.854 532.427 487.854 530.32C487.854 528.213 488.307 526.333 489.214 524.68C490.121 523 491.347 521.68 492.894 520.72C494.441 519.76 496.174 519.28 498.094 519.28C499.561 519.28 500.881 519.547 502.054 520.08C503.254 520.613 504.281 521.36 505.134 522.32C506.014 523.253 506.681 524.333 507.134 525.56C507.614 526.76 507.854 528.027 507.854 529.36C507.854 529.627 507.841 529.907 507.814 530.2C507.787 530.493 507.747 530.8 507.694 531.12H489.254V528.92H506.334L505.254 529.76C505.414 528.213 505.187 526.827 504.574 525.6C503.961 524.347 503.081 523.36 501.934 522.64C500.814 521.893 499.534 521.52 498.094 521.52C496.654 521.52 495.334 521.907 494.134 522.68C492.934 523.427 491.987 524.467 491.294 525.8C490.601 527.107 490.281 528.627 490.334 530.36C490.281 532.093 490.614 533.627 491.334 534.96C492.054 536.293 493.041 537.347 494.294 538.12C495.547 538.867 496.934 539.24 498.454 539.24C500.001 539.24 501.347 538.88 502.494 538.16C503.641 537.413 504.574 536.427 505.294 535.2L507.334 536.28C506.854 537.267 506.174 538.16 505.294 538.96C504.414 539.733 503.387 540.347 502.214 540.8C501.067 541.253 499.814 541.48 498.454 541.48ZM513.578 541V519.76H515.978V523.72L515.538 523.36C515.991 522.16 516.764 521.213 517.858 520.52C518.978 519.827 520.298 519.48 521.818 519.48H523.178V521.88H521.538C519.804 521.88 518.444 522.44 517.458 523.56C516.471 524.653 515.978 526.133 515.978 528V541H513.578ZM536.853 541.48C534.853 541.48 533.053 541 531.453 540.04C529.853 539.053 528.586 537.72 527.653 536.04C526.719 534.333 526.253 532.427 526.253 530.32C526.253 528.213 526.706 526.333 527.613 524.68C528.519 523 529.746 521.68 531.293 520.72C532.839 519.76 534.573 519.28 536.493 519.28C537.959 519.28 539.279 519.547 540.453 520.08C541.653 520.613 542.679 521.36 543.533 522.32C544.413 523.253 545.079 524.333 545.533 525.56C546.013 526.76 546.253 528.027 546.253 529.36C546.253 529.627 546.239 529.907 546.213 530.2C546.186 530.493 546.146 530.8 546.093 531.12H527.653V528.92H544.733L543.653 529.76C543.813 528.213 543.586 526.827 542.973 525.6C542.359 524.347 541.479 523.36 540.333 522.64C539.213 521.893 537.933 521.52 536.493 521.52C535.053 521.52 533.733 521.907 532.533 522.68C531.333 523.427 530.386 524.467 529.692 525.8C528.999 527.107 528.679 528.627 528.733 530.36C528.679 532.093 529.013 533.627 529.733 534.96C530.453 536.293 531.439 537.347 532.693 538.12C533.946 538.867 535.333 539.24 536.853 539.24C538.399 539.24 539.746 538.88 540.893 538.16C542.039 537.413 542.973 536.427 543.693 535.2L545.733 536.28C545.253 537.267 544.573 538.16 543.693 538.96C542.813 539.733 541.786 540.347 540.613 540.8C539.466 541.253 538.213 541.48 536.853 541.48Z" fill="#2667FF"/>
<g clip-path="url(#clip1_596_996)">
<line y1="49.5" x2="1200" y2="49.5" stroke="#69A4FF"/>
<line y1="579.5" x2="1200" y2="579.5" stroke="#69A4FF"/>
<path d="M50 630V0" stroke="#69A4FF"/>
<path d="M600 630V0" stroke="#69A4FF"/>
<path d="M1150 630V0" stroke="#69A4FF"/>
</g>
<path d="M416 87.4733V87.4384C416 83.8614 418.659 80.927 422.47 80.927C424.793 80.927 426.227 81.7167 427.36 82.8704L425.625 84.9028C424.648 84.0201 423.71 83.482 422.451 83.482C420.36 83.482 418.853 85.2434 418.853 87.4036V87.4384C418.853 89.5986 420.326 91.3948 422.451 91.3948C423.87 91.3948 424.736 90.8374 425.712 89.9199L427.448 91.7006C426.17 93.0865 424.77 93.9498 422.363 93.9498C418.712 93.9498 416 91.089 416 87.4733Z" fill="#2667FF"/>
<path d="M447.762 81.144H450.276L456.089 88.8942V81.144H458.783V93.7333H456.463L450.455 85.7315V93.7333H447.762V81.144Z" fill="#2667FF"/>
<path d="M462.922 87.4733V87.4384C462.922 83.8575 465.581 80.927 469.392 80.927C471.715 80.927 473.149 81.7167 474.282 82.8704L472.547 84.9028C471.57 84.0201 470.632 83.482 469.373 83.482C467.282 83.482 465.775 85.2434 465.775 87.4036V87.4384C465.775 89.5986 467.248 91.3948 469.373 91.3948C470.792 91.3948 471.658 90.8374 472.634 89.9199L474.37 91.7006C473.092 93.0865 471.692 93.9498 469.285 93.9498C465.634 93.9498 462.922 91.089 462.922 87.4771" fill="#2667FF"/>
<path d="M506.22 87.2606C507.566 87.2606 508.31 86.5599 508.31 85.4798V85.445C508.31 84.241 507.513 83.6449 506.166 83.6449H503.454V87.2606H506.22ZM500.723 81.144H506.395C507.971 81.144 509.176 81.5737 510.012 82.4215C510.721 83.1416 511.076 84.0939 511.076 85.2979V85.3327C511.076 87.3651 509.996 88.6426 508.417 89.2349L511.446 93.7294H508.257L505.598 89.6995H503.454V93.7294H500.726V81.144H500.723Z" fill="#2667FF"/>
<path d="M517.977 83.6449V91.2325H520.086C522.303 91.2325 523.825 89.7033 523.825 87.4735V87.4387C523.825 85.2088 522.299 83.6449 520.086 83.6449H517.977ZM515.249 81.144H520.086C523.985 81.144 526.678 83.8616 526.678 87.4038V87.4387C526.678 90.9808 523.985 93.7333 520.086 93.7333H515.249V81.144Z" fill="#2667FF"/>
<path d="M533.671 81.144H530.943V93.7333H533.671V81.144Z" fill="#2667FF"/>
<path d="M538.29 88.3368V81.144H541.018V88.2671C541.018 90.3343 542.009 91.3796 543.696 91.3796C545.382 91.3796 546.374 90.3731 546.374 88.36V81.144H549.101V88.2477C549.101 92.0609 546.992 93.9307 543.661 93.9307C540.331 93.9307 538.29 92.0609 538.29 88.3368Z" fill="#2667FF"/>
<path d="M553.594 81.144H556.535L559.797 86.467L563.054 81.144H565.999V93.7333H563.287V85.5147L559.797 90.8918H559.724L556.268 85.5689V93.7333H553.594V81.144Z" fill="#2667FF"/>
<path d="M480.409 87.5C480.409 91.1467 483.338 94.1004 486.959 94.1004C487.928 94.1004 488.847 93.8798 489.675 93.5004V96.5974C488.816 96.8568 487.905 97 486.959 97C481.755 97 477.536 92.7494 477.536 87.5C477.536 82.2506 481.755 78 486.962 78C487.908 78 488.816 78.1432 489.679 78.4026V81.4996C488.851 81.1163 487.931 80.8996 486.962 80.8996C483.346 80.8996 480.412 83.8533 480.412 87.5H480.409ZM486.959 91.5222C484.754 91.5222 482.965 89.7221 482.965 87.4961C482.965 85.2702 484.754 83.47 486.959 83.47C489.164 83.47 490.953 85.274 490.953 87.4961C490.953 89.7182 489.164 91.5222 486.959 91.5222ZM495.5 91.5222H492.143C492.994 90.4073 493.509 89.0175 493.509 87.5C493.509 85.9825 492.994 84.5888 492.139 83.4739H495.496C496.064 84.6972 496.385 86.0599 496.385 87.5C496.385 88.9401 496.064 90.3028 495.496 91.5222" fill="#2667FF"/>
<path d="M437.042 91.5337C434.822 91.5337 433.021 89.7103 433.021 87.4534C433.021 85.1965 434.822 83.377 437.042 83.377C439.262 83.377 441.063 85.2004 441.063 87.4534C441.063 89.7065 439.262 91.5337 437.042 91.5337ZM437.042 80.9807C433.517 80.9807 430.66 83.8803 430.66 87.4573C430.66 91.0343 433.517 93.9339 437.042 93.9339C440.567 93.9339 443.424 91.0343 443.424 87.4573C443.424 83.8803 440.567 80.9807 437.042 80.9807Z" fill="#2667FF"/>
<path d="M437.042 83.4156C434.845 83.4156 433.06 85.2273 433.06 87.4533C433.06 89.6792 434.845 91.4948 437.042 91.4948C439.24 91.4948 441.025 89.6831 441.025 87.4533C441.025 85.2234 439.24 83.4156 437.042 83.4156ZM437.042 91.5723C434.803 91.5723 432.983 89.7257 432.983 87.4533C432.983 85.1809 434.803 83.3382 437.042 83.3382C439.282 83.3382 441.101 85.1847 441.101 87.4533C441.101 89.7218 439.282 91.5723 437.042 91.5723ZM437.042 81.0193C433.544 81.0193 430.698 83.9072 430.698 87.4571C430.698 91.0071 433.544 93.895 437.042 93.895C440.54 93.895 443.386 91.0071 443.386 87.4571C443.386 83.9072 440.54 81.0193 437.042 81.0193ZM437.042 93.9686C433.502 93.9686 430.622 91.0458 430.622 87.4533C430.622 83.8608 433.502 80.938 437.042 80.938C440.582 80.938 443.463 83.8608 443.463 87.4533C443.463 91.0458 440.582 93.9686 437.042 93.9686Z" fill="#2667FF"/>
</g>
<defs>
<clipPath id="clip0_596_996">
<rect width="1200" height="630" fill="white"/>
</clipPath>
<clipPath id="clip1_596_996">
<rect width="1200" height="630" fill="white"/>
</clipPath>
</defs>
</svg>
