<?xml version="1.0" encoding="UTF-8"?><svg id="Layer_1" xmlns="http://www.w3.org/2000/svg" viewBox="0 0 717.42 276.69"><defs><style>.cls-1{fill:#0f2d46;stroke-width:0px;}</style></defs><rect class="cls-1" x="414.5" y="26.64" width="3.82" height="223.41"/><polygon class="cls-1" points="482.05 86.32 466.56 86.32 466.56 76.12 481.24 76.12 481.24 72.71 466.56 72.71 466.56 62.51 482.05 62.51 482.05 59.14 462.71 59.14 462.71 89.69 482.05 89.69 482.05 86.32"/><polygon class="cls-1" points="502.79 89.69 512.81 59.14 508.74 59.14 500.46 85.47 500.27 85.99 500.09 85.47 491.81 59.14 487.7 59.14 497.76 89.69 502.79 89.69"/><polygon class="cls-1" points="539.02 86.32 523.64 86.32 523.64 59.14 519.79 59.14 519.79 89.69 539.02 89.69 539.02 86.32"/><polygon class="cls-1" points="561.21 86.21 554.88 86.21 554.88 62.62 561.21 62.62 561.21 59.14 544.75 59.14 544.75 62.62 551.04 62.62 551.04 86.21 544.75 86.21 544.75 89.69 561.21 89.69 561.21 86.21"/><path class="cls-1" d="M474.25,125.92c4.81,0,7.95,2.51,8.21,6.92l.04,1.85h4.03l-.04-1.48c-.37-6.07-4.77-10.69-12.28-10.69-8.54,0-12.72,5.7-12.72,13.13v5.03c0,7.43,4.25,13.13,12.24,13.13,4.88,0,8.1-2.18,9.84-5.29l.44,4.92h2.51v-15.61h-14.35v3.18h10.28v1.74c-.3,4.96-3.51,7.66-8.51,7.66-5.77,0-8.5-3.81-8.5-9.43v-5.66c0-5.51,2.7-9.39,8.8-9.39Z"/><path class="cls-1" d="M517.95,145.85c0-3.44-1.63-5.84-4.77-6.66,3.22-.93,4.81-3.33,4.81-7.51v-.22c0-6.03-3.11-8.58-9.69-8.58h-12.91v30.55h3.85v-12.54h8.99c2.96,0,5.81.81,5.81,4.92v4.88c0,1.04,0,2.26.44,2.74h3.88c-.41-.55-.41-1.74-.41-2.74v-4.84ZM508.22,137.61h-8.99v-11.43h8.69c3.99,0,6.06,1,6.06,5.1v.96c0,4.4-2.29,5.36-5.77,5.36Z"/><path class="cls-1" d="M551.23,135.65c0-7.36-4.33-13.13-12.72-13.13s-12.76,5.77-12.76,13.13v4.96c0,7.43,4.33,13.2,12.76,13.2s12.72-5.77,12.72-13.2v-4.96ZM547.27,140.97c0,5.55-2.88,9.39-8.76,9.39s-8.8-3.85-8.8-9.39v-5.66c0-5.47,2.88-9.36,8.8-9.36s8.76,3.88,8.76,9.36v5.66Z"/><polygon class="cls-1" points="588.39 153.43 596.41 122.89 592.42 122.89 585.94 148.77 585.91 148.96 585.83 148.74 579.07 122.89 574.15 122.89 567.38 148.92 560.8 122.89 556.84 122.89 564.86 153.43 569.82 153.43 576.55 127.84 576.63 127.55 576.7 127.84 583.39 153.43 588.39 153.43"/><polygon class="cls-1" points="614.48 153.43 614.48 126.25 623.99 126.25 623.99 122.89 601.17 122.89 601.17 126.25 610.64 126.25 610.64 153.43 614.48 153.43"/><polygon class="cls-1" points="649.83 153.43 653.68 153.43 653.68 122.89 649.83 122.89 649.83 136.46 635 136.46 635 122.89 631.16 122.89 631.16 153.43 635 153.43 635 139.86 649.83 139.86 649.83 153.43"/><path class="cls-1" d="M475.69,186.63h-12.98v30.55h3.85v-10.28h9.13c6.81,0,10.02-3.33,10.02-9.99v-.41c0-6.69-3.29-9.87-10.02-9.87ZM481.72,197.36c0,4.33-1.81,6.21-6.1,6.21h-9.06v-13.65h9.06c4.29,0,6.1,1.81,6.1,6.1v1.33Z"/><path class="cls-1" d="M498.91,186.63l-10.02,30.55h4.07l1.89-5.99h13.17l1.89,5.99h4.1l-10.06-30.55h-5.03ZM495.91,207.82l5.32-16.97.18-.52.19.52,5.32,16.97h-11.02Z"/><path class="cls-1" d="M543.53,209.6c0-3.44-1.63-5.84-4.77-6.66,3.22-.93,4.81-3.33,4.81-7.51v-.22c0-6.03-3.11-8.58-9.69-8.58h-12.91v30.55h3.85v-12.54h8.99c2.96,0,5.81.81,5.81,4.92v4.88c0,1.03,0,2.26.44,2.74h3.88c-.41-.56-.41-1.74-.41-2.74v-4.84ZM533.81,201.35h-8.99v-11.43h8.69c3.99,0,6.06,1,6.06,5.1v.96c0,4.4-2.29,5.36-5.77,5.36Z"/><polygon class="cls-1" points="549.37 190 558.84 190 558.84 217.18 562.68 217.18 562.68 190 572.19 190 572.19 186.63 549.37 186.63 549.37 190"/><polygon class="cls-1" points="598.73 210.49 583.09 186.63 579.36 186.63 579.36 217.18 583.05 217.18 583.05 193.33 598.7 217.18 602.43 217.18 602.43 186.63 598.73 186.63 598.73 210.49"/><polygon class="cls-1" points="612.11 217.18 631.46 217.18 631.46 213.81 615.96 213.81 615.96 203.61 630.64 203.61 630.64 200.21 615.96 200.21 615.96 190 631.46 190 631.46 186.63 612.11 186.63 612.11 217.18"/><path class="cls-1" d="M662.51,209.6c0-3.44-1.63-5.84-4.77-6.66,3.22-.93,4.81-3.33,4.81-7.51v-.22c0-6.03-3.11-8.58-9.69-8.58h-12.91v30.55h3.85v-12.54h8.99c2.96,0,5.81.81,5.81,4.92v4.88c0,1.03,0,2.26.44,2.74h3.88c-.41-.56-.41-1.74-.41-2.74v-4.84ZM652.79,201.35h-8.99v-11.43h8.69c3.99,0,6.06,1,6.06,5.1v.96c0,4.4-2.29,5.36-5.77,5.36Z"/><path class="cls-1" d="M685.69,200.65l-5.81-1.74c-2.85-.78-5.1-1.89-5.1-4.73v-.26c0-2.96,2.29-4.33,6.58-4.33,4.81,0,7.03,1.66,7.03,5.51v1.07h3.96v-.92c0-5.81-3.81-8.99-10.98-8.99-6.81,0-10.54,2.85-10.54,7.99,0,4.59,3.11,6.55,6.99,7.77l5.7,1.74c3.48.92,5.44,1.89,5.44,5.29v.37c0,3.37-2.15,4.77-6.84,4.77-5.62,0-8.21-1.89-8.21-6.36v-1.44h-3.96v1.07c0,6.58,3.92,10.1,12.06,10.1,7.51,0,10.95-2.77,10.95-8.58,0-5.29-3.18-7.1-7.25-8.32Z"/><polygon class="cls-1" points="91.5 77.85 116.97 114.24 113.63 73 57.23 73 24.48 73 31.15 82.7 31.15 193.99 24.48 203.7 113.63 203.7 116.97 162.15 91.5 198.84 61.17 198.84 61.17 140.62 77.85 140.62 91.8 160.63 91.8 115.75 77.85 135.77 61.17 135.77 61.17 77.85 91.5 77.85"/><path class="cls-1" d="M226.7,162.84v33.63s-5.48,6.27-17.45,6.27c-14.84,0-26.94-9.63-26.94-9.63v-110.27s11.29-7.56,25.36-7.56c6.15,0,12.23.55,18.69,4.48,2.65,1.61,4.89,3.8,6.67,6.34l15.25,21.78,4.55,6.5-3.33-41.24h-1.16l-18.05,2.52c-6.36-3.67-13.86-6.67-22.92-6.67-35.46,0-60.89,34.81-60.89,69.5s26.34,69.24,62.96,69.24c18.75,0,27.87-2.63,45.74-12.65v-32.22l6.69-9.72h-41.85l6.68,9.72Z"/><path class="cls-1" d="M345.3,72.5h-59.61l6.69,9.72v111.25l-6.69,9.72h44.17l-6.69-9.72v-51.26h14.48c37.87,0,49.02-14.73,49.02-35.81,0-16.79-11.14-33.9-41.37-33.9ZM358.91,127s-1.73,10.35-21.26,10.35h-14.48v-60.01h14.48c19.54,0,21.26,7.15,21.26,7.15v42.5Z"/></svg>