<?xml version="1.0" encoding="utf-8"?>
<!-- Generator: Adobe Illustrator 16.0.0, SVG Export Plug-In . SVG Version: 6.00 Build 0)  -->
<!DOCTYPE svg PUBLIC "-//W3C//DTD SVG 1.1//EN" "http://www.w3.org/Graphics/SVG/1.1/DTD/svg11.dtd">
<svg version="1.1" id="Layer_1" xmlns="http://www.w3.org/2000/svg" xmlns:xlink="http://www.w3.org/1999/xlink" x="0px" y="0px"
	 width="595.275px" height="195px" viewBox="0 85.263 595.275 195" enable-background="new 0 85.263 595.275 195"
	 xml:space="preserve">
<g id="Background">
</g>
<g id="Guides">
</g>
<g id="Foreground">
	<g>
		<g>
			<path fill="#D1C9BD" d="M261.106,171.346c24.848-2.862,51.867-4.763,65.313-18.407c-10.885,43.777-45.866,39.844-67.228,45.567
				c0.723,2.008,1.575,4.03,2.532,6.046c19.217-2.114,37.574-5.416,48.104-15.728c-6.444,23.747-19.718,33.254-33.946,37.865
				c8.755,11.149,17.837,19.859,20.935,22.328c-23.422-5.71-71.815-47.95-66.188-87.66c4.917-34.697,87.723-19.305,112.892-44.848
				c-12.776,51.384-58.748,37.038-76.929,49.725C264.357,167.793,262.546,169.505,261.106,171.346z"/>
			<g>
				<polygon fill="#00305C" points="43.219,236.201 41.557,230.825 26.419,230.825 26.419,220.179 39.892,220.179 39.892,214.909 
					26.419,214.909 26.419,205.263 41.112,205.263 42.389,199.941 20.597,199.941 20.597,236.201 				"/>
				<path fill="#00305C" d="M84.667,199.886h-6.652l-6.266,12.918c-0.721,1.497-1.275,2.94-1.275,2.94s-0.499-1.441-1.221-2.94
					l-6.321-12.918h-6.54l11.2,21.567v14.748h5.765v-14.803L84.667,199.886z"/>
				<path fill="#00305C" d="M126.691,236.201l-6.211-10.876c-0.83-1.434-1.555-2.431-2.327-3.207
					c3.326-1.664,5.209-4.878,5.209-9.093v-2.383c0-6.265-3.991-10.702-10.311-10.702h-12.254v36.261h5.766v-12.863h4.381
					c1.941,0,2.772,1.104,3.66,2.705l5.766,10.158L126.691,236.201L126.691,236.201z M117.542,212.859
					c0,3.382-1.608,5.378-4.989,5.378h-5.987v-12.862h5.877c3.438,0,5.1,2.107,5.1,5.377V212.859z"/>
				<rect x="148.579" y="199.886" fill="#00305C" width="5.821" height="36.315"/>
				<path fill="#00305C" d="M204.288,236.201l-6.209-10.876c-0.831-1.434-1.555-2.431-2.329-3.207
					c3.327-1.664,5.211-4.878,5.211-9.093v-2.383c0-6.265-3.991-10.702-10.312-10.702h-12.254v36.261h5.768v-12.863h4.379
					c1.941,0,2.772,1.104,3.66,2.705l5.768,10.158L204.288,236.201L204.288,236.201z M195.139,212.859
					c0,3.382-1.608,5.378-4.99,5.378h-5.987v-12.862h5.876c3.438,0,5.102,2.107,5.102,5.377V212.859z"/>
				<rect x="351.218" y="199.886" fill="#00305C" width="5.82" height="36.315"/>
				<path fill="#00305C" d="M403.1,199.886h-5.544v22.064c0,1.554,0.223,3.604,0.223,3.604s-0.943-2.162-1.83-3.604l-13.252-22.064
					h-4.435v36.315h5.544v-22.014c0-1.55-0.277-3.604-0.277-3.604s0.942,2.163,1.829,3.604l13.252,22.013h4.49V199.886z"/>
				<path fill="#00305C" d="M447.76,199.886h-6.154l-7.595,23.784c-0.555,1.664-0.831,3.716-0.831,3.716s-0.331-2.052-0.83-3.659
					l-7.486-23.841h-6.209l12.364,36.315h4.435L447.76,199.886z"/>
				<polygon fill="#00305C" points="487.049,236.201 485.386,230.825 470.249,230.825 470.249,220.179 483.722,220.179 
					483.722,214.909 470.249,214.909 470.249,205.263 484.943,205.263 486.219,199.941 464.428,199.941 464.428,236.201 				"/>
				<path fill="#00305C" d="M529.329,226.335v-1.832c0-6.985-4.602-9.646-10.979-9.646h-1.996c-3.215,0-5.322-1.33-5.322-4.103
					v-1.275c0-2.996,2.052-4.491,5.322-4.491c0.665,0,1.609,0.108,2.329,0.222l7.818,1.221l1.107-5.379l-8.261-1.387
					c-1.054-0.166-1.94-0.222-2.938-0.222c-5.768,0-11.366,2.495-11.366,9.979v1.608c0,6.93,4.823,9.204,10.923,9.368l2.052,0.057
					c3.326,0.109,5.378,1.332,5.378,4.381v1.498c0,3.325-2.44,4.878-6.099,4.878c-0.832,0-1.885-0.111-2.83-0.224l-8.313-1.163
					l-0.832,5.435l8.594,1.219c1.22,0.166,2.273,0.277,3.216,0.277C523.23,236.756,529.329,234.316,529.329,226.335z"/>
				<polygon fill="#00305C" points="574.677,199.941 548.675,199.941 548.675,205.431 558.488,205.431 558.488,236.201 
					564.477,236.201 564.477,205.431 573.567,205.431 				"/>
			</g>
		</g>
	</g>
</g>
</svg>
