<svg width="1015" height="360" viewBox="0 0 1015 360" fill="none" xmlns="http://www.w3.org/2000/svg">
<g clip-path="url(#clip0_755_9043)">
<path d="M0.0302734 288.96H112.04V302.75H13.8703V318.62H112.05V329.76H13.8703V359.74H0.0302734V288.95V288.96ZM247.69 288.96V359.75H233.85V329.77H149.6V359.75H135.68V318.63H233.86V302.76H135.68V288.97H247.69V288.96ZM364.58 359.78H274.25V289.07H288.2V346H364.57V359.79L364.58 359.78ZM473.47 359.78H383.15V289.07H397.12V346H473.47V359.79V359.78ZM744.45 288.96V315.21L736.04 323.62L744.45 331.97V359.74H730.53V336.9L723.43 329.76H646.45V359.74H632.59V318.62H723.61L730.52 311.69V302.74H632.58V288.95H744.43L744.45 288.96ZM1014.64 288.96V359.75H1000.81V329.77H916.56V359.75H902.64V318.63H1000.81V302.76H902.64V288.97H1014.64V288.96ZM605.99 345.9L592.15 359.72H494.1V302.81L507.94 288.95H605.99V345.91V345.9ZM584.26 345.92L592.03 338.13V302.71H515.7L507.95 310.44V345.91H584.26V345.92ZM772.55 288.95H786.47V318.15H830.67L860.2 288.95H880.07L845.27 323.15L882.08 359.76H861.54L832.56 329.72H786.47V359.7H772.55V288.96V288.95ZM628.17 122.89C628.17 95.78 638.67 71.11 655.84 52.74C684.37 61.01 707.73 81.66 719.1 107.69C714.74 111.26 711.97 116.67 711.97 122.74C711.97 132.22 718.74 140.11 727.73 141.84C731.61 172.48 747.5 199.3 770.31 217.81C758.2 222.86 744.89 225.64 730.93 225.64C674.18 225.64 628.17 179.64 628.17 122.88M697.68 25.65C708.1 22.08 719.3 20.14 730.93 20.14C787.68 20.14 833.68 66.15 833.68 122.89C833.68 147.47 825.06 170.03 810.67 187.72C781.18 182.42 756.05 164.14 742.31 138.85C747.45 135.35 750.85 129.45 750.85 122.74C750.85 112.55 742.98 104.19 733.01 103.38C731.67 72.92 718.4 45.56 697.68 25.64M564.37 62.38C559.71 48.97 550.82 37.49 539.17 29.45C558.98 11.18 585.63 0 614.98 0C674.63 0 723.25 46.26 725.51 104.18C709.56 67.26 672.05 41.35 628.33 41.35C604.28 41.35 582.11 49.19 564.37 62.38ZM899.25 170.34C904.94 183.33 914.76 194.06 927.02 201.12C908.73 220.94 883.06 234.23 853.81 236.57C794.37 241.39 742.18 199.18 735.25 141.62C754.13 177.14 793.6 199.96 837.2 196.43C861.17 194.51 882.64 184.9 899.26 170.34" fill="#01539B"/>
<path d="M628.17 122.891C628.17 95.7806 638.67 71.1106 655.84 52.7406C684.37 61.0106 707.73 81.6606 719.1 107.691C714.74 111.261 711.97 116.671 711.97 122.741C711.97 132.221 718.74 140.111 727.73 141.841C731.61 172.481 747.5 199.301 770.31 217.811C758.2 222.861 744.89 225.641 730.93 225.641C674.18 225.641 628.17 179.641 628.17 122.881M697.68 25.6506C708.1 22.0806 719.3 20.1406 730.93 20.1406C787.69 20.1406 833.68 66.1506 833.68 122.891C833.68 147.471 825.06 170.041 810.67 187.721C781.18 182.421 756.05 164.141 742.31 138.851C747.45 135.351 750.85 129.451 750.85 122.741C750.85 112.551 742.98 104.191 733.01 103.381C731.67 72.9206 718.4 45.5606 697.68 25.6406" fill="#667478"/>
<path d="M564.37 62.38C582.11 49.19 604.27 41.35 628.33 41.35C672.05 41.35 709.56 67.26 725.51 104.18C723.24 46.26 674.63 0 614.98 0C585.62 0 558.98 11.19 539.17 29.45C550.82 37.49 559.71 48.97 564.37 62.38Z" fill="#12426E"/>
<path d="M899.25 170.341C882.63 184.901 861.16 194.511 837.19 196.431C793.6 199.961 754.13 177.141 735.24 141.621C742.17 199.181 794.36 241.391 853.8 236.571C883.06 234.231 908.72 220.941 927.01 201.121C914.75 194.061 904.93 183.331 899.24 170.341" fill="#12426E"/>
<path d="M744.43 288.99H632.56V302.77H730.51V311.72L723.58 318.65H632.56V359.78H646.43V329.81H723.41L730.51 336.97V359.78H744.43V332L736.01 323.66L744.43 315.24V288.99Z" fill="#12426E"/>
<path d="M1014.62 288.99H902.6V302.77H1000.79V318.65H902.6V359.78H916.53V329.81H1000.79V359.78H1014.62V288.99Z" fill="#12426E"/>
<path d="M584.21 345.961H507.92V310.491L515.67 302.751H592V338.161L584.21 345.961ZM605.96 345.931V288.971H507.89L494.06 302.861V359.751H592.1L605.96 345.941V345.931Z" fill="#12426E"/>
<path d="M772.521 288.991H786.44V318.171H830.63L860.17 288.971H880.04L845.24 323.171L882.05 359.781H861.51L832.531 329.751H786.44V359.721H772.521V288.991Z" fill="#12426E"/>
<path d="M473.44 359.799H383.13V289.119H397.08V346.039H473.44V359.799Z" fill="#667478"/>
<path d="M364.53 359.799H274.22V289.119H288.17V346.039H364.53V359.799Z" fill="#667478"/>
<path d="M247.65 288.99H135.65V302.77H233.82V318.65H135.65V359.78H149.56V329.81H233.82V359.78H247.65V288.99Z" fill="#667478"/>
<path d="M0 288.99H112.01V302.77H13.84V318.65H112.01V329.81H13.84V359.78H0V288.99Z" fill="#667478"/>
</g>
<defs>
<clipPath id="clip0_755_9043">
<rect width="1014.64" height="359.8" fill="white"/>
</clipPath>
</defs>
</svg>
