<svg xmlns="http://www.w3.org/2000/svg" fill="none" viewBox="0 0 228 48" height="48" width="228">
<path fill="#1D2824" d="M202.853 35.4991C202.853 28.1841 208.42 23.0787 215.308 23.0787C222.195 23.0787 227.8 28.1812 227.8 35.4991C227.8 42.8171 222.233 47.9195 215.308 47.9195C208.383 47.9195 202.853 42.8171 202.853 35.4991ZM225.123 35.4991C225.123 29.7165 220.981 25.3975 215.308 25.3975C209.634 25.3975 205.531 29.7165 205.531 35.4991C205.531 41.2817 209.669 45.6007 215.308 45.6007C220.947 45.6007 225.123 41.2817 225.123 35.4991Z"></path>
<path fill="#1D2824" d="M177.12 35.4991C177.12 28.1841 182.687 23.0787 189.574 23.0787C193.856 23.0787 197.142 24.6829 199.211 27.7909L197.248 29.2172C195.678 26.8984 193.073 25.3975 189.574 25.3975C183.901 25.3975 179.794 29.7165 179.794 35.4991C179.794 41.2817 183.898 45.6007 189.574 45.6007C193.107 45.6007 195.819 44.0654 197.57 41.5314L199.567 42.9232C197.426 46.0628 193.928 47.9195 189.574 47.9195C182.687 47.9195 177.12 42.8171 177.12 35.4991Z"></path>
<path fill="#1D2824" d="M157.312 42.995L159.453 41.8528C160.596 43.8875 162.274 45.6352 165.698 45.6352C168.519 45.6352 170.732 44.0654 170.732 41.4941C170.732 38.9228 169.196 37.7806 166.163 36.4261L164.234 35.5336C160.773 33.9638 158.882 32.285 158.882 28.8958C158.882 25.5066 161.632 23.0787 165.27 23.0787C168.519 23.0787 170.554 24.5768 171.836 26.7176L169.767 28.0033C168.84 26.5052 167.555 25.3602 165.27 25.3602C162.986 25.3602 161.416 26.7521 161.416 28.8212C161.416 30.8903 162.558 31.9263 165.27 33.1775L167.196 34.07C171.231 35.855 173.3 37.8523 173.3 41.4941C173.3 45.4917 170.123 47.9167 165.77 47.9167C161.129 47.9167 158.595 45.5634 157.312 42.9921"></path>
<path fill="#1D2824" d="M137.896 30.7525C137.253 30.0035 136.326 28.7178 136.22 28.5399C136.22 28.7178 136.435 30.2876 136.435 31.2518V47.6325H134.007V23.1132H134.435L148.924 40.2457C149.567 41.0292 150.494 42.3521 150.6 42.4956C150.6 42.4239 150.422 40.7824 150.422 39.7464V23.3657H152.813V47.8851H152.385L137.896 30.7554V30.7525Z"></path>
<path fill="#1D2824" d="M118.691 23.116H119.119L129.398 47.6354H126.686L124.474 42.1742H113.339L111.161 47.6354H108.627L118.691 23.116ZM123.581 39.9616L119.833 30.6808C119.369 29.5386 118.906 27.8598 118.906 27.7909C118.869 27.8626 118.407 29.5386 117.942 30.6463L114.229 39.9616H123.581Z"></path>
<path fill="#1D2824" d="M89.781 30.7525C89.1382 30.0035 88.2112 28.7178 88.1022 28.5399C88.1022 28.7178 88.3145 30.2876 88.3145 31.2518V47.6325H85.8867V23.1132H86.3143L100.804 40.2457C101.447 41.0292 102.374 42.3521 102.483 42.4956C102.483 42.4239 102.305 40.7824 102.305 39.7464V23.3657H104.695V47.8851H104.268L89.7781 30.7554L89.781 30.7525Z"></path>
<path fill="#1D2824" d="M79.1458 23.3657H76.54V47.6354H79.1458V23.3657Z"></path>
<path fill="#1D2824" d="M56.5864 23.3657V47.6354H59.1577V37.2497H70.0772V34.9281H59.1577V25.6501H71.185V23.3657H56.5864Z"></path>
<path fill="#1D2824" d="M11.6542 11.6542H0V23.337H11.6542V11.6542Z"></path>
<path fill="#1D2824" d="M11.6543 23.337V47.9195H12.3086H23.3142V35.017H37.2355V23.337H11.6543Z"></path>
<path fill="#1D2824" d="M37.2355 0H11.6543V11.6542H37.2355V0Z"></path>
</svg>
