<svg version="1.1" id="Слой_1" xmlns="http://www.w3.org/2000/svg" x="0" y="0" viewBox="0 0 142 61.5" xml:space="preserve"><path d="M39.5 20v25.7L31 37.2v-9.8l8.5-7.4zm-10.3 7.9v25.7l-8.5-8.5v-9.8l8.5-7.4zm-10.4 7.9v25.7L10.3 53v-9.8l8.5-7.4zM29.2 0v25.7l-8.5-8.5V7.5L29.2 0zM18.8 7.9v25.7l-8.5-8.5v-9.8l8.5-7.4zM8.5 15.8v25.7L0 33.1v-9.8l8.5-7.5z" fill="#9fb3c0"/><path d="M51.6 37.6h3.3v-4.2h5.5v-3.2h-5.5v-2.5h6.4v-3.2h-9.7v13.1zm21.2-3.3c-.7 0-1.4-.2-2-.6-.6-.4-1-.9-1.3-1.6-.3-.6-.3-1.3-.2-2s.5-1.3 1-1.8 1.1-.8 1.8-1c.7-.1 1.4-.1 2 .2s1.2.7 1.6 1.3c.4.6.6 1.3.6 2 0 .9-.4 1.8-1 2.5-.7.6-1.6 1-2.5 1zm0-10c-1.3 0-2.6.4-3.7 1.1-1.1.7-1.9 1.8-2.4 3s-.6 2.5-.4 3.8c.3 1.3.9 2.4 1.8 3.4.9.9 2.1 1.5 3.4 1.8 1.3.3 2.6.1 3.8-.4 1.2-.5 2.2-1.3 3-2.4.7-1.1 1.1-2.4 1.1-3.7 0-.9-.2-1.7-.5-2.5s-.8-1.5-1.4-2.1c-.6-.6-1.3-1.1-2.1-1.4-.9-.5-1.7-.6-2.6-.6zm18.9 3.3c-.5-.2-1-.3-1.5-.3-.4 0-.7.1-1 .3-.2.1-.3.2-.4.4s-.1.3-.1.5c0 .1.1.2.2.3.3.3.6.4 1 .5.3.1.6.1.9.1h.1l.5.1c.6.1 1.2.3 1.8.6.5.2.9.5 1.3.9.6.6 1 1.4 1.1 2.2 0 1-.3 1.9-1 2.7-.5.5-1.2.9-1.9 1.2-.7.3-1.5.4-2.2.4H90c-.9 0-1.8-.2-2.7-.6-.6-.3-1.2-.7-1.7-1.2-.3-.3-.5-.6-.7-1l2.3-1.6c.2.4.5.7.9 1 .6.5 1.4.7 2.1.7.3 0 .6 0 1-.1.3-.1.6-.3.8-.5.2-.2.2-.5.2-.7 0-.3-.2-.5-.3-.7-.2-.2-.4-.3-.7-.4l-1-.2-1.1-.2c-1.1-.1-2.1-.5-2.9-1.2-.6-.6-1-1.5-1-2.3 0-1 .4-2 1.1-2.7.2-.2.4-.4.7-.6.2-.2.5-.3.8-.4.8-.3 1.6-.5 2.4-.5.4 0 .8 0 1.2.1.9.1 1.7.5 2.4.9l1.2.8-1.9 1.8-.1.1-.3.3c-.3-.2-.6-.5-.9-.6m15.9-.1c-.5-.2-1-.3-1.5-.3-.4 0-.7.1-1 .3-.2.1-.3.2-.4.4-.1.2-.1.3-.1.5 0 .1.1.2.2.3.3.3.6.4 1 .5.3.1.6.1.9.1h.1l.5.1c.6.1 1.2.3 1.8.6.5.2.9.5 1.3.9.6.6 1 1.4 1.1 2.2 0 1-.3 1.9-1 2.7-.5.5-1.2.9-1.9 1.2-.7.3-1.5.4-2.2.4h-.2c-.9 0-1.8-.2-2.7-.6-.6-.3-1.2-.7-1.7-1.2-.3-.3-.5-.6-.7-1l2.3-1.6c.2.4.5.7.9 1 .6.5 1.4.7 2.1.7.3 0 .6 0 .9-.1.3-.1.6-.3.8-.5.2-.2.2-.5.2-.7 0-.3-.2-.5-.3-.7-.2-.2-.4-.3-.7-.4l-1-.2-1.1-.2c-1.1-.1-2.1-.5-2.9-1.2-.6-.6-1-1.5-1-2.3 0-1 .3-2 1-2.7.2-.2.4-.4.7-.6.2-.2.5-.3.8-.4.8-.3 1.6-.5 2.4-.5.4 0 .8 0 1.2.1.9.1 1.7.5 2.4.9l1.2.8-1.9 1.8-.1.1-.3.3c-.3-.2-.6-.5-.9-.6m12.2 5.1l1.1-4.9 1.4 4.9h-2.5zm-1-8.5l-2.9 13.2h2.8l.3-1.6h3.9l.4 1.6h2.9L123 24.3h-3.9zm19.7 4.2v.1c0 .4-.1.7-.3 1 0 .1-.2.3-.8.3h-2.5v-2.6h2.5c1.1 0 1.2.6 1.1 1.2zm.5 3.8c.5-.1.9-.4 1.3-.8.8-.9 1.1-2 1.1-3.2 0-.5-.1-1-.3-1.5-.2-.5-.5-.9-.8-1.3-.3-.4-.8-.7-1.2-.9s-1-.3-1.5-.3h-5.8v13.2h2.9v-4.6h1.1l2.3 4.6h3.4l-2.5-5.2z" fill="#3c5168"/></svg>