<?xml version="1.0" encoding="utf-8"?>
<!-- Generator: Adobe Illustrator 16.0.0, SVG Export Plug-In . SVG Version: 6.00 Build 0)  -->
<!DOCTYPE svg PUBLIC "-//W3C//DTD SVG 1.1//EN" "http://www.w3.org/Graphics/SVG/1.1/DTD/svg11.dtd">
<svg version="1.1" id="Layer_1" xmlns="http://www.w3.org/2000/svg" xmlns:xlink="http://www.w3.org/1999/xlink" x="0px" y="0px"
	 width="79.75px" height="59.879px" viewBox="0 0 79.75 59.879" enable-background="new 0 0 79.75 59.879" xml:space="preserve">
<g>
	<path fill="#FFFFFF" d="M4.821,23.62v4.628h7.626v2.981H4.821v8.691H1.375V20.609h11.072v3.011H4.821z"/>
	<path fill="#FFFFFF" d="M21.785,29.38c-0.308,0-0.873,0.051-1.182,0.131c-1.902,0.486-2.957,1.645-2.957,3.674v6.736h-3.135V27.218
		l3.059-0.282v2.149l0.051-0.081c0.694-1.732,2.396-2.414,4.293-2.414c0.333,0,0.72,0,1.054,0.077v2.79
		C22.556,29.38,22.223,29.38,21.785,29.38z"/>
	<path fill="#FFFFFF" d="M30.038,40.229c-3.188,0-6.041-1.801-6.041-5.168v-3.007c0-3.573,3.033-5.525,5.938-5.525
		c3.188,0,6.041,2.105,6.041,5.474v2.7C35.976,38.275,32.944,40.229,30.038,40.229z M32.788,31.721c0-1.595-1.233-2.521-2.853-2.521
		c-1.311,0-2.75,0.693-2.75,2.596v3.24c0,1.595,1.232,2.544,2.852,2.544c1.312,0,2.75-0.692,2.75-2.595V31.721z"/>
	<path fill="#FFFFFF" d="M46.542,39.921v-7.636c0-1.979-0.849-3.032-2.442-3.032c-1.722,0-2.725,1.054-2.725,3.29v7.378h-3.137
		V27.103l3.06-0.275v1.459h0.051c0.874-1.259,2.261-1.784,3.726-1.784c2.957,0,4.602,1.851,4.602,4.985v8.434H46.542z"/>
	<polygon fill="#54B948" points="63.075,0.619 73.716,29.939 63.075,59.26 67.734,59.26 78.375,29.939 67.734,0.619 	"/>
	<path fill="#FFFFFF" d="M56.523,40.057c-2.028,0-3.67-0.924-3.67-3.26v-7.545h-1.771v-2.489h1.771v-3.875l3.131-0.269v4.144h2.849
		v2.489h-2.849v6.801c0,0.976,0.513,1.258,1.232,1.258c0.642,0,1-0.025,1.617-0.129v2.67C58.166,39.979,56.882,40.057,56.523,40.057
		z"/>
</g>
</svg>
