<?xml version="1.0" encoding="UTF-8"?><svg id="Lager_1" xmlns="http://www.w3.org/2000/svg" viewBox="0 0 501.49 209.86"><defs><style>.cls-1{fill:#336733;}</style></defs><path class="cls-1" d="M148.78,9.84v22.91h-26.72v-5.04c0-3.2-.41-5.47-1.23-6.8s-2.17-1.99-4.04-1.99-3.28.64-4.1,1.93-1.23,3.57-1.23,6.86v37.09c0,3.24.41,5.51,1.23,6.8s2.19,1.93,4.1,1.93,3.27-.64,4.07-1.93c.8-1.29,1.2-3.55,1.2-6.8v-6.62h-4.45v-17.75h31.17v42.95c-3.98,3.16-8.71,5.52-14.18,7.06-5.47,1.54-11.86,2.31-19.16,2.31-11.64,0-19.85-2.36-24.64-7.09-4.79-4.73-7.18-12.97-7.18-24.73v-29.06c0-11.6,2.37-19.81,7.12-24.64S103.44,0,114.62,0c6.72,0,12.97.83,18.75,2.49,5.78,1.66,10.92,4.11,15.41,7.35Z"/><path class="cls-1" d="M215.87,48.22v19.92c0,8.98-2.11,15.21-6.33,18.66s-11.82,5.19-22.79,5.19-18.57-1.73-22.76-5.19c-4.2-3.46-6.3-9.68-6.3-18.66v-19.92c0-8.98,2.1-15.21,6.3-18.69,4.2-3.48,11.79-5.21,22.76-5.21s18.62,1.74,22.82,5.21c4.2,3.48,6.3,9.71,6.3,18.69ZM191.55,47.11c0-2.85-.37-4.84-1.11-5.98-.74-1.13-1.97-1.7-3.69-1.7s-2.95.59-3.69,1.76c-.74,1.17-1.11,3.14-1.11,5.92v22.09c0,2.89.36,4.91,1.08,6.06.72,1.15,1.96,1.73,3.72,1.73s2.9-.59,3.66-1.76,1.14-3.18,1.14-6.04v-22.09Z"/><path class="cls-1" d="M257.77,25.2c0-2.89-.23-4.96-.69-6.21s-1.26-2.07-2.42-2.46V1.76h27.6v67.44c0,2.23.24,3.83.73,4.8.49.98,1.34,1.7,2.55,2.17v14.77h-26.66v-4.45c-2.42,1.68-5.05,2.94-7.88,3.78-2.83.84-5.81,1.26-8.94,1.26-6.45,0-11.05-1.63-13.83-4.89-2.77-3.26-4.16-8.9-4.16-16.9v-20.45c0-9.34,1.38-15.74,4.15-19.22,2.77-3.48,7.45-5.21,14.04-5.21,2.46,0,5,.31,7.63.94s5.25,1.54,7.87,2.75v-3.34ZM257.77,73.18l.06-30c-.78-.39-1.49-.66-2.14-.82s-1.3-.25-1.96-.29c-1.95,0-3.32.55-4.1,1.64-.78,1.09-1.17,3.55-1.17,7.38v14.3c0,3.32.42,5.59,1.26,6.8.84,1.21,2.29,1.82,4.37,1.82.59,0,1.18-.07,1.79-.21.61-.14,1.24-.34,1.9-.62Z"/><path class="cls-1" d="M294.86,83.03V23.73c0-2.46-.21-4.18-.64-5.16s-1.21-1.7-2.34-2.17V1.76h27.48v26.43c2.38-1.25,4.7-2.14,6.94-2.67,2.25-.53,4.78-.79,7.59-.79,6.64,0,11.53,1.87,14.68,5.6,3.14,3.73,4.72,9.58,4.72,17.55v17.29c0,10.16-2.1,17.17-6.3,21.04-4.2,3.87-11.65,5.8-22.35,5.8-5.82,0-11.22-.75-16.2-2.26s-9.5-3.74-13.56-6.71ZM319.47,74.24c.86.27,1.63.47,2.31.59.68.12,1.3.18,1.85.18,1.95,0,3.33-.57,4.13-1.7.8-1.13,1.2-3.34,1.2-6.62v-16.64c0-2.97-.37-5.06-1.11-6.27s-1.97-1.82-3.69-1.82c-.78,0-2.11.33-3.98,1l-.7.23v31.05Z"/><path class="cls-1" d="M378.77,93.11l-16.7-47.52c-.39-1.09-.9-2.13-1.52-3.11-.62-.98-1.31-1.78-2.05-2.4v-14.65h30.35v14.65c-.7.27-1.24.68-1.61,1.23s-.56,1.21-.56,1.99c0,.2.03.48.09.85s.15.87.26,1.49l5.16,22.97,4.45-22.32c.08-.39.14-.81.18-1.26.04-.45.06-.99.06-1.61,0-.86-.2-1.56-.59-2.11-.39-.55-.98-.96-1.76-1.23l-.06-14.65h26.43v14.65c-.78.47-1.46,1.22-2.05,2.26s-1.15,2.43-1.7,4.19l-14,47.99c-2.19,7.5-5.04,12.86-8.55,16.08s-8.22,4.83-14.12,4.83c-1.84,0-3.7-.15-5.6-.44s-3.8-.71-5.71-1.26v-14.12c2.54-.08,4.6-.64,6.18-1.7s2.72-2.66,3.43-4.8Z"/><path class="cls-1" d="M1.29,177.11v-24.49h27.01v4.92c0,3.83.42,6.43,1.26,7.79.84,1.37,2.31,2.05,4.42,2.05,1.8,0,3.2-.68,4.22-2.05,1.02-1.37,1.52-3.28,1.52-5.74,0-4.61-4.38-8.22-13.12-10.84-1.68-.51-2.95-.9-3.81-1.17-9.49-3.01-15.67-6.27-18.52-9.79-2.85-3.52-4.28-8.69-4.28-15.53,0-9.73,2.6-16.88,7.79-21.45,5.19-4.57,13.28-6.86,24.26-6.86,6.29,0,12.21.81,17.75,2.43,5.55,1.62,10.78,4.09,15.7,7.41v22.15h-26.13v-4.04c0-2.85-.49-5.03-1.46-6.53-.98-1.5-2.38-2.26-4.22-2.26s-3.28.53-4.22,1.58-1.41,2.62-1.41,4.69c0,3.98,4.57,7.29,13.71,9.9l1.76.53c10.2,2.97,16.77,6.41,19.72,10.31,2.95,3.91,4.42,9.98,4.42,18.22,0,9.61-2.71,16.74-8.12,21.39-5.41,4.65-13.7,6.97-24.87,6.97-6.88,0-13.17-.83-18.9-2.49-5.72-1.66-10.56-4.03-14.5-7.12Z"/><path class="cls-1" d="M102.98,161.52c0,2.54.23,4.47.7,5.8s1.23,2.27,2.29,2.81v14.77h-30.59v-14.77c1.09-.31,1.9-1.16,2.43-2.55s.79-3.33.79-5.83v-44.3c0-2.19-.23-3.76-.7-4.72s-1.31-1.71-2.52-2.26v-14.77h27.6v27.36c2.42-1.48,4.95-2.59,7.59-3.31s5.38-1.08,8.23-1.08c6.41,0,11.02,1.63,13.83,4.89s4.22,8.74,4.22,16.44v21.62c0,3.05.21,5.12.62,6.21s1.16,1.86,2.26,2.29v14.77h-26.07c-.47-2.19-.8-4.92-1-8.2-.2-3.28-.29-9.1-.29-17.46v-14.3c0-3.4-.42-5.7-1.26-6.91-.84-1.21-2.26-1.82-4.25-1.82-.55,0-1.12.06-1.73.18-.61.12-1.32.33-2.14.64v24.49Z"/><path class="cls-1" d="M175.79,161.52c0,2.62.22,4.57.67,5.86.45,1.29,1.18,2.21,2.2,2.75v14.77h-30.59v-14.77c1.09-.31,1.9-1.14,2.43-2.49s.79-3.27.79-5.77v-20.8c0-2.15-.23-3.71-.7-4.69s-1.31-1.72-2.52-2.23v-14.77h27.71v42.13ZM175.55,105.33c0,2.89-1.23,5.29-3.69,7.21s-5.59,2.87-9.38,2.87-6.91-.97-9.38-2.9-3.69-4.33-3.69-7.18,1.23-5.24,3.69-7.18,5.59-2.9,9.38-2.9,6.86.97,9.35,2.9c2.48,1.93,3.72,4.33,3.72,7.18Z"/><path class="cls-1" d="M214.67,184.9c0,2.77.24,4.8.73,6.09.49,1.29,1.32,2.13,2.49,2.52v14.65h-30.82v-14.59c1.05-.31,1.84-1.15,2.34-2.52.51-1.37.76-3.34.76-5.92v-44.06c0-2.23-.23-3.81-.67-4.75-.45-.94-1.26-1.68-2.43-2.23v-14.71h26.66v4.45c2.46-1.72,5.1-3.01,7.91-3.87s5.72-1.29,8.73-1.29c6.45,0,11.05,1.64,13.83,4.92,2.77,3.28,4.16,8.95,4.16,16.99v20.39c0,9.34-1.38,15.75-4.13,19.25s-7.45,5.24-14.09,5.24c-2.46,0-5.03-.32-7.71-.97-2.68-.64-5.26-1.55-7.76-2.72v3.11ZM214.67,137.03v30.12c.7.35,1.39.62,2.05.79.66.18,1.35.26,2.05.26,1.95,0,3.32-.54,4.1-1.61.78-1.07,1.17-3.53,1.17-7.35v-14.3c0-3.32-.43-5.59-1.29-6.8-.86-1.21-2.32-1.82-4.39-1.82-.59,0-1.18.06-1.79.18-.61.12-1.24.29-1.9.53Z"/><path class="cls-1" d="M284.89,184.9c0,2.77.24,4.8.73,6.09.49,1.29,1.32,2.13,2.49,2.52v14.65h-30.82v-14.59c1.05-.31,1.84-1.15,2.34-2.52.51-1.37.76-3.34.76-5.92v-44.06c0-2.23-.23-3.81-.67-4.75-.45-.94-1.26-1.68-2.43-2.23v-14.71h26.66v4.45c2.46-1.72,5.1-3.01,7.91-3.87s5.72-1.29,8.73-1.29c6.45,0,11.05,1.64,13.83,4.92,2.77,3.28,4.16,8.95,4.16,16.99v20.39c0,9.34-1.38,15.75-4.13,19.25s-7.45,5.24-14.09,5.24c-2.46,0-5.03-.32-7.71-.97s-5.26-1.55-7.76-2.72v3.11ZM284.89,137.03v30.12c.7.35,1.39.62,2.05.79.66.18,1.35.26,2.05.26,1.95,0,3.32-.54,4.1-1.61.78-1.07,1.17-3.53,1.17-7.35v-14.3c0-3.32-.43-5.59-1.29-6.8-.86-1.21-2.32-1.82-4.39-1.82-.59,0-1.18.06-1.79.18-.61.12-1.24.29-1.9.53Z"/><path class="cls-1" d="M355.7,161.52c0,2.62.23,4.57.68,5.86.45,1.29,1.18,2.21,2.2,2.75v14.77h-30.59v-14.77c1.09-.31,1.91-1.14,2.43-2.49s.79-3.27.79-5.77v-20.8c0-2.15-.23-3.71-.7-4.69s-1.31-1.72-2.52-2.23v-14.77h27.71v42.13ZM355.47,105.33c0,2.89-1.23,5.29-3.69,7.21s-5.59,2.87-9.38,2.87-6.91-.97-9.38-2.9-3.69-4.33-3.69-7.18,1.23-5.24,3.69-7.18,5.59-2.9,9.38-2.9,6.87.97,9.35,2.9c2.48,1.93,3.72,4.33,3.72,7.18Z"/><path class="cls-1" d="M394.82,161.52c0,2.54.23,4.47.7,5.8s1.23,2.27,2.29,2.81v14.77h-30.59v-14.77c1.09-.31,1.9-1.14,2.43-2.49s.79-3.27.79-5.77v-20.8c0-2.15-.23-3.71-.7-4.69s-1.31-1.72-2.52-2.23v-14.77h26.66v4.45c2.46-1.72,5.12-3.01,7.97-3.87,2.85-.86,5.78-1.29,8.79-1.29,6.41,0,11.02,1.63,13.83,4.89s4.22,8.74,4.22,16.44v21.62c0,3.05.2,5.12.61,6.21s1.16,1.86,2.26,2.29v14.77h-26.07c-.47-2.19-.8-4.92-1-8.2-.2-3.28-.29-9.1-.29-17.46v-14.3c0-3.4-.42-5.7-1.26-6.91s-2.25-1.82-4.25-1.82c-.55,0-1.12.06-1.73.18s-1.32.33-2.14.64v24.49Z"/><path class="cls-1" d="M441.49,203v-15.94h22.91v.47c0,2.19.39,3.86,1.17,5.01s1.91,1.73,3.4,1.73c1.72,0,2.95-.67,3.69-2.02s1.11-3.8,1.11-7.35v-4.57c-2.46,1.21-5.06,2.14-7.79,2.78s-5.43.97-8.09.97c-6.45,0-11.04-1.78-13.77-5.33s-4.1-9.94-4.1-19.16v-18.98c0-8.05,1.39-13.71,4.16-16.99s7.38-4.92,13.83-4.92c3.05,0,6,.43,8.85,1.29s5.51,2.15,7.97,3.87v-4.45h26.66v14.77c-1.21.51-2.06,1.25-2.55,2.23s-.73,2.54-.73,4.69v39.26c0,5.23-.18,9.01-.53,11.34s-.98,4.31-1.88,5.95c-2.15,4.14-5.22,7.22-9.23,9.23-4.01,2.01-9.04,3.02-15.09,3.02-5.55,0-10.83-.58-15.85-1.73-5.02-1.15-9.74-2.86-14.15-5.13ZM473.78,165.45v-28.42c-.7-.23-1.36-.41-1.96-.53-.61-.12-1.2-.18-1.79-.18-2.07,0-3.52.61-4.36,1.82-.84,1.21-1.26,3.48-1.26,6.8v12.6c0,3.83.39,6.29,1.17,7.38s2.15,1.64,4.1,1.64c.62,0,1.27-.09,1.93-.26s1.39-.46,2.17-.85Z"/></svg>