<?xml version="1.0" encoding="UTF-8"?> <svg xmlns="http://www.w3.org/2000/svg" width="57" height="47" viewBox="0 0 57 47" fill="none"><path d="M35.2 23.5496C35 23.5496 34.9 23.6485 34.9 23.8464C34.9 24.0443 35 24.1432 35.2 24.1432H46.9C47.1 24.1432 47.2 24.0443 47.2 23.8464C47.2 23.6485 47.1 23.5496 46.9 23.5496H35.2Z" fill="#F0EBE6"></path><path d="M34.8 23.8462C34.8 23.6483 35 23.4504 35.2 23.4504V23.5494V23.6483C35.1 23.6483 35 23.7473 35 23.8462C35 23.9452 35.1 24.0441 35.2 24.0441H46.9C47 24.0441 47.1 23.9452 47.1 23.8462C47.1 23.7473 47 23.6483 46.9 23.6483H35.2V23.5494V23.4504H46.9C47.1 23.4504 47.3 23.6483 47.3 23.8462C47.3 24.0441 47.1 24.242 46.9 24.242H35.2C35 24.242 34.8 24.0441 34.8 23.8462Z" fill="#F0EBE6"></path><path d="M34.8 24.8358C34.8 25.0337 34.9 25.1327 35 25.1327L56.1 29.5853C56.3 29.5853 56.4 29.4864 56.4 29.3874C56.4 29.1895 56.3 29.0906 56.2 29.0906L35.1 24.6379C35 24.539 34.8 24.6379 34.8 24.8358Z" fill="#F0EBE6"></path><path d="M56.1 29.6842L35 25.2315C34.8 25.2315 34.7 25.0336 34.7 24.8357C34.7 24.8357 34.7 24.8357 34.7 24.7368C34.7 24.5389 34.9 24.4399 35.1 24.4399H35.2L56.2 28.8926C56.4 28.8926 56.5 29.0905 56.5 29.2884V29.3873C56.5 29.4863 56.3 29.6842 56.1 29.6842ZM34.9 24.8357C34.9 24.9347 34.9 25.0336 35 25.0336L56 29.4863C56.1 29.4863 56.1 29.3873 56.2 29.3873C56.2 29.2884 56.1 29.2884 56.1 29.1894L35.1 24.7368C35 24.6378 34.9 24.7368 34.9 24.8357H34.8H34.9Z" fill="#F0EBE6"></path><path d="M34.5 25.7262C34.4 25.8251 34.5 26.023 34.6 26.122L47 31.4651C47.1 31.5641 47.3 31.4651 47.4 31.3662C47.5 31.2673 47.4 31.0694 47.3 30.9704L34.9 25.6272C34.7 25.5283 34.6 25.5283 34.5 25.7262Z" fill="#F0EBE6"></path><path d="M47 31.4653L34.6 26.1221C34.4 26.0232 34.4 25.9243 34.4 25.7264C34.4 25.6274 34.4 25.6274 34.4 25.5285C34.5 25.3306 34.6 25.3306 34.8 25.3306C34.9 25.3306 34.9 25.3306 35 25.3306L47.4 30.6737C47.5 30.7727 47.6 30.8716 47.6 31.0695C47.6 31.1685 47.6 31.1685 47.6 31.2674C47.5 31.3664 47.4 31.4653 47.2 31.4653C47.1 31.5643 47.1 31.5643 47 31.4653ZM34.6 25.7264C34.6 25.7264 34.6 25.8253 34.6 25.7264C34.6 25.8253 34.6 25.9243 34.7 25.9243L47.1 31.2674C47.1 31.2674 47.1 31.2674 47.2 31.2674C47.3 31.2674 47.3 31.2674 47.3 31.1685C47.3 31.1685 47.3 31.1685 47.3 31.0695C47.3 30.9706 47.3 30.9706 47.2 30.8716L34.8 25.5285C34.8 25.5285 34.8 25.5285 34.7 25.5285C34.7 25.6274 34.7 25.7264 34.6 25.7264H34.5H34.6Z" fill="#F0EBE6"></path><path d="M34 26.5178C34 26.7157 34 26.8147 34.1 26.9136L53.3 40.0736C53.4 40.1725 53.6 40.1726 53.7 39.9747C53.8 39.8757 53.8 39.6778 53.6 39.5789L34.4 26.5178C34.3 26.4189 34.1 26.4189 34 26.5178Z" fill="#F0EBE6"></path><path d="M53.2 40.2716L34 27.0127C33.9 26.9138 33.8 26.8148 33.8 26.7159C33.8 26.6169 33.8 26.518 33.9 26.518C34 26.419 34.1 26.3201 34.2 26.3201C34.3 26.3201 34.4 26.3201 34.4 26.419L53.7 39.579C53.8 39.678 53.9 39.7769 53.9 39.8759C53.9 39.9748 53.9 40.0738 53.8 40.0738C53.7 40.1727 53.6 40.2716 53.5 40.2716C53.4 40.2716 53.3 40.2716 53.2 40.2716ZM34.1 26.6169C34.1 26.6169 34.1 26.7159 34.1 26.6169C34.1 26.7159 34.1 26.8148 34.1 26.8148L53.3 39.9748H53.4C53.5 39.9748 53.5 39.9748 53.5 39.8759V39.7769C53.5 39.678 53.5 39.678 53.4 39.678L34.4 26.6169H34.3C34.2 26.518 34.2 26.518 34.1 26.6169Z" fill="#F0EBE6"></path><path d="M33.4 27.3096C33.3 27.4085 33.3 27.6064 33.4 27.7054L42.4 37.0064C42.5 37.1054 42.7 37.1054 42.8 37.0064C42.9 36.9075 42.9 36.7096 42.8 36.6106L33.8 27.3096C33.7 27.2106 33.5 27.2106 33.4 27.3096Z" fill="#F0EBE6"></path><path d="M42.3 37.0064L33.3 27.7053C33.2 27.6064 33.2 27.5074 33.2 27.4085C33.2 27.3095 33.2 27.2106 33.3 27.1116C33.4 27.0127 33.5 27.0127 33.6 27.0127C33.7 27.0127 33.8 27.0127 33.9 27.1116L42.9 36.4127C43 36.5116 43 36.6106 43 36.7095C43 36.8085 43 36.9074 42.9 37.0064C42.8 37.1053 42.7 37.1053 42.6 37.1053C42.5 37.1053 42.4 37.1053 42.3 37.0064ZM33.5 27.3095L33.4 27.4085V27.5074L42.4 36.8085H42.5H42.6L42.7 36.7095V36.6106L33.7 27.3095H33.6H33.5Z" fill="#F0EBE6"></path><path d="M32.6 27.8042C32.5 27.9031 32.4 28.101 32.5 28.2L44 46.7031C44.1 46.8021 44.3 46.901 44.4 46.8021C44.5 46.7031 44.6 46.5052 44.5 46.4063L33 27.9031C32.9 27.8042 32.8 27.8042 32.6 27.8042Z" fill="#F0EBE6"></path><path d="M43.9 46.8022L32.5 28.299C32.5 28.2001 32.4 28.2001 32.4 28.1011C32.4 28.0022 32.5 27.8043 32.6 27.8043C32.7 27.8043 32.7 27.7053 32.8 27.7053C32.9 27.7053 33.1 27.8043 33.1 27.9032L44.6 46.4064C44.6 46.5053 44.7 46.5053 44.7 46.6043C44.7 46.7032 44.6 46.9011 44.5 46.9011C44.4 46.9011 44.4 47.0001 44.3 47.0001C44.1 47.0001 44 46.9011 43.9 46.8022ZM32.7 27.9032C32.6 27.9032 32.6 28.0022 32.6 28.0022V28.1011L44.1 46.6043L44.2 46.7032H44.3C44.4 46.7032 44.4 46.6043 44.4 46.6043V46.5053L32.9 28.0022C32.9 28.0022 32.8 27.9032 32.7 27.9032C32.8 27.9032 32.7 27.9032 32.7 27.9032Z" fill="#F0EBE6"></path><path d="M31.8 28.2988C31.7 28.3978 31.6 28.4967 31.6 28.6946L37.5 44.922C37.6 45.0209 37.7 45.1199 37.9 45.1199C38 45.0209 38.1 44.922 38.1 44.7241L32.2 28.4967C32.1 28.2988 31.9 28.1999 31.8 28.2988Z" fill="#F0EBE6"></path><path d="M37.4 44.9221L31.5 28.6947V28.5957C31.5 28.3978 31.6 28.2989 31.8 28.2H31.9C32.1 28.2 32.2 28.2989 32.3 28.4968L38.2 44.7242V44.8231C38.2 45.021 38.1 45.12 37.9 45.2189H37.8C37.6 45.2189 37.5 45.12 37.4 44.9221ZM31.8 28.3978C31.7 28.3978 31.7 28.4968 31.7 28.5957C31.7 28.5957 31.7 28.5957 31.7 28.6947L37.6 44.9221C37.6 45.021 37.7 45.021 37.8 45.021C37.8 45.021 37.8 45.021 37.9 45.021C38 45.021 38 44.9221 38 44.8231C38 44.8231 38 44.8231 38 44.7242L32 28.4968C32 28.3978 31.9 28.3978 31.8 28.3978C31.9 28.3978 31.8 28.3978 31.8 28.3978V28.2989V28.3978Z" fill="#F0EBE6"></path><path d="M30.8 28.4968C30.6 28.4968 30.5 28.6947 30.6 28.7937L32.2 39.9747C32.2 40.1726 32.4 40.2716 32.5 40.1726C32.7 40.1726 32.8 39.9747 32.7 39.8758L31.2 28.6947C31.1 28.5958 31 28.4968 30.8 28.4968Z" fill="#F0EBE6"></path><path d="M32.1 39.9746L30.5 28.7936C30.5 28.7936 30.5 28.7936 30.5 28.6946C30.5 28.4967 30.6 28.2988 30.8 28.2988C30.8 28.2988 30.8 28.2988 30.9 28.2988C31.1 28.2988 31.3 28.3978 31.3 28.5957L32.9 39.7767C32.9 39.7767 32.9 39.7767 32.9 39.8757C32.9 40.0736 32.8 40.2715 32.6 40.2715C32.6 40.2715 32.6 40.2715 32.5 40.2715C32.3 40.3704 32.1 40.1725 32.1 39.9746ZM30.9 28.5957C30.8 28.5957 30.8 28.6946 30.8 28.7936L32.4 39.9746C32.4 40.0736 32.5 40.0736 32.6 40.0736C32.7 40.0736 32.7 39.9746 32.7 39.8757L31 28.7936C31 28.6946 31 28.5957 30.9 28.5957V28.4967V28.5957Z" fill="#F0EBE6"></path><path d="M29.6 28.7937L28.5 45.4168C28.5 45.6147 28.6 45.7137 28.8 45.7137C29 45.7137 29.1 45.6147 29.1 45.4168L30.2 28.7937C30.2 28.5958 30.1 28.4968 29.9 28.4968C29.7 28.4968 29.6 28.6947 29.6 28.7937Z" fill="#F0EBE6"></path><path d="M28.7 45.8127C28.5 45.8127 28.3 45.6148 28.3 45.4169L29.4 28.7937C29.4 28.5958 29.6 28.3979 29.8 28.3979C30 28.3979 30.2 28.5958 30.2 28.7937L29.1 45.4169C29.1 45.7137 29 45.8127 28.7 45.8127ZM29.7 28.7937L28.6 45.4169C28.6 45.5158 28.7 45.6148 28.7 45.6148C28.8 45.6148 28.9 45.5158 28.9 45.4169L30 28.7937C30 28.6948 29.9 28.5958 29.8 28.5958C29.8 28.6948 29.7 28.6948 29.7 28.7937H29.6H29.7Z" fill="#F0EBE6"></path><path d="M28.6 28.5958L24.1 44.5264C24.1 44.7243 24.1 44.8232 24.3 44.8232C24.5 44.8232 24.6 44.7243 24.6 44.6253L29.1 28.6948C29.1 28.4969 29.1 28.3979 28.9 28.3979C28.8 28.3979 28.6 28.3979 28.6 28.5958Z" fill="#F0EBE6"></path><path d="M24.3 45.0209C24.1 45.0209 24 44.823 24 44.6251V44.5262L28.5 28.5957C28.5 28.3978 28.7 28.2988 28.9 28.2988H29C29.2 28.2988 29.3 28.4967 29.3 28.6946V28.7936L24.8 44.7241C24.8 44.922 24.6 45.0209 24.4 45.0209H24.3ZM28.7 28.5957L24.2 44.5262C24.2 44.6251 24.2 44.6251 24.3 44.7241C24.4 44.7241 24.4 44.7241 24.5 44.6251L29 28.6946C29 28.5957 29 28.5957 28.9 28.4967C28.8 28.4967 28.7 28.5957 28.7 28.5957H28.6H28.7Z" fill="#F0EBE6"></path><path d="M27.6 28.2001L21 41.2611C20.9 41.3601 21 41.558 21.1 41.6569C21.2 41.7559 21.4 41.6569 21.5 41.558L28.2 28.4969C28.3 28.398 28.2 28.2001 28.1 28.1011C27.9 28.0022 27.7 28.0022 27.6 28.2001Z" fill="#F0EBE6"></path><path d="M21 41.6568C20.9 41.5579 20.8 41.4589 20.8 41.261C20.8 41.1621 20.8 41.1621 20.8 41.0631L27.5 28.0021C27.6 27.9031 27.7 27.8042 27.9 27.8042C28 27.8042 28 27.8042 28.1 27.8042C28.2 27.9031 28.3 28.0021 28.3 28.2C28.3 28.2989 28.3 28.2989 28.3 28.3979L21.6 41.5579C21.5 41.6568 21.4 41.7558 21.2 41.7558C21.2 41.7558 21.1 41.7558 21 41.6568ZM27.7 28.2L21 41.261C21 41.261 21 41.261 21 41.36C21 41.4589 21 41.4589 21.1 41.4589C21.1 41.4589 21.1 41.4589 21.2 41.4589C21.3 41.4589 21.3 41.4589 21.3 41.36L28 28.3979C28 28.3979 28 28.3979 28 28.2989C28 28.2 28 28.2 27.9 28.2C27.9 28.2 27.9 28.2 27.8 28.2C27.8 28.101 27.8 28.2 27.7 28.2L27.6 28.101L27.7 28.2Z" fill="#F0EBE6"></path><path d="M26.8 27.6062L16.3 40.5683C16.2 40.6673 16.2 40.8651 16.3 40.9641C16.4 41.063 16.6 41.063 16.7 40.9641L27.2 28.002C27.3 27.903 27.3 27.7051 27.2 27.6062C27.1 27.4083 26.9 27.5073 26.8 27.6062Z" fill="#F0EBE6"></path><path d="M16.2 41.0632C16.1 40.9642 16 40.8653 16 40.7663C16 40.6674 16 40.5684 16.1 40.5684L26.6 27.6063C26.7 27.5074 26.8 27.4084 26.9 27.4084C27 27.4084 27.1 27.4084 27.1 27.5074C27.2 27.6063 27.3 27.7053 27.3 27.8042C27.3 27.9032 27.3 28.0021 27.2 28.0021L16.8 40.9642C16.7 41.0632 16.6 41.0632 16.5 41.0632C16.4 41.1621 16.3 41.1621 16.2 41.0632ZM26.9 27.7053L16.4 40.6674V40.7663C16.4 40.7663 16.4 40.8653 16.5 40.8653H16.6C16.6 40.8653 16.7 40.8653 16.7 40.7663L27.2 27.8042V27.7053C27.2 27.6063 27.2 27.6063 27.1 27.6063H27C27 27.6063 26.9 27.6063 26.9 27.7053Z" fill="#F0EBE6"></path><path d="M26.1 26.8147L17.5 33.741C17.4 33.84 17.4 34.0378 17.5 34.1368C17.6 34.2357 17.8 34.2357 17.9 34.1368L26.5 27.2105C26.6 27.1115 26.6 26.9136 26.5 26.8147C26.4 26.7157 26.2 26.7157 26.1 26.8147Z" fill="#F0EBE6"></path><path d="M17.4 34.2359C17.3 34.1369 17.3 34.038 17.3 33.939C17.3 33.8401 17.3 33.7412 17.4 33.6422L25.9 26.7159C26 26.6169 26.1 26.6169 26.2 26.6169C26.3 26.6169 26.4 26.6169 26.5 26.7159C26.6 26.8148 26.6 26.9138 26.6 27.0127C26.6 27.1117 26.6 27.2106 26.5 27.3096L18 34.2359C17.9 34.3348 17.8 34.3348 17.7 34.3348C17.6 34.4338 17.5 34.3348 17.4 34.2359ZM26.2 26.9138L17.7 33.8401L17.6 33.939V34.038L17.7 34.1369H17.8L26.3 27.2106L26.4 27.1117V27.0127L26.3 26.9138C26.2 26.9138 26.2 26.9138 26.2 26.9138Z" fill="#F0EBE6"></path><path d="M25.6 25.9243L10.1 34.137C9.99998 34.2359 9.89998 34.3348 9.99998 34.5327C10.1 34.6317 10.2 34.7306 10.4 34.6317L25.9 26.4191C26 26.3201 26.1 26.2212 26 26.0233C25.9 25.9243 25.7 25.9243 25.6 25.9243Z" fill="#F0EBE6"></path><path d="M9.79999 34.5326C9.79999 34.4337 9.79999 34.4337 9.79999 34.3347C9.79999 34.2358 9.89999 34.0379 9.99999 33.939L25.5 25.7263C25.6 25.7263 25.6 25.7263 25.7 25.7263C25.8 25.7263 26 25.8253 26.1 25.9242C26.1 26.0232 26.1 26.0232 26.1 26.1221C26.1 26.2211 26 26.419 25.9 26.419L10.4 34.6316C10.3 34.6316 10.3 34.6316 10.2 34.6316C9.99999 34.7305 9.89999 34.7305 9.79999 34.5326ZM25.6 26.0232L10.1 34.2358C9.99999 34.2358 9.99999 34.3347 9.99999 34.3347V34.4337C9.99999 34.5326 10.1 34.5326 10.1 34.5326H10.2L25.7 26.32C25.8 26.32 25.8 26.2211 25.8 26.2211V26.1221C25.8 26.1221 25.8 26.0232 25.6 26.0232C25.7 26.0232 25.7 26.0232 25.6 26.0232L25.5 25.9242L25.6 26.0232Z" fill="#F0EBE6"></path><path d="M25.2 25.0337L15.4 27.8042C15.3 27.8042 15.2 28.0021 15.2 28.1011C15.2 28.2 15.4 28.299 15.5 28.299L25.3 25.5284C25.4 25.5284 25.5 25.3305 25.5 25.2316C25.5 25.0337 25.4 24.9347 25.2 25.0337Z" fill="#F0EBE6"></path><path d="M15.1 28.2001V28.1011C15.1 27.9032 15.2 27.8043 15.4 27.7053L25.2 24.9348H25.3C25.5 24.9348 25.6 25.0338 25.7 25.2317V25.3306C25.7 25.5285 25.6 25.6274 25.4 25.7264L15.6 28.4969H15.5C15.3 28.4969 15.2 28.398 15.1 28.2001ZM25.3 25.1327L15.5 27.9032C15.4 27.9032 15.4 28.0022 15.4 28.1011C15.4 28.2001 15.5 28.2001 15.6 28.2001L25.4 25.4296C25.5 25.4296 25.5 25.3306 25.5 25.2317C25.4 25.1327 25.4 25.1327 25.3 25.1327V25.0338V25.1327Z" fill="#F0EBE6"></path><path d="M25.1 24.0443L0.399997 25.8254C0.199997 25.8254 0.0999971 26.0232 0.199997 26.1222C0.199997 26.3201 0.299997 26.419 0.499997 26.3201L25.2 24.539C25.4 24.539 25.5 24.3411 25.5 24.2422C25.4 24.1432 25.2 23.9454 25.1 24.0443Z" fill="#F0EBE6"></path><path d="M0 26.1222C0 26.1222 0 26.0232 0 26.1222C0 25.9243 0.2 25.7264 0.4 25.7264L25.1 23.9453C25.3 23.9453 25.5 24.1432 25.5 24.3411C25.5 24.539 25.3 24.7369 25.1 24.7369L0.4 26.419C0.2 26.419 0 26.32 0 26.1222ZM25.1 24.1432L0.4 25.9243C0.3 25.9243 0.3 26.0232 0.3 26.1222C0.3 26.2211 0.4 26.2211 0.5 26.2211L25.2 24.44C25.3 24.44 25.3 24.3411 25.3 24.2422C25.3 24.1432 25.2 24.1432 25.1 24.1432V24.0443V24.1432Z" fill="#F0EBE6"></path><path d="M7.79999 20.8779C7.79999 21.0758 7.89999 21.1747 7.99999 21.1747L25.1 23.5495C25.3 23.5495 25.4 23.4505 25.4 23.3516C25.4 23.1537 25.3 23.0547 25.2 23.0547L8.09999 20.5811C7.89999 20.5811 7.79999 20.68 7.79999 20.8779Z" fill="#F0EBE6"></path><path d="M25.1 23.6485L7.99998 21.2738C7.79998 21.2738 7.59998 21.0759 7.59998 20.878C7.59998 20.6801 7.79998 20.4822 7.99998 20.4822L25.1 22.8569C25.3 22.8569 25.5 23.0548 25.5 23.2527C25.5 23.5495 25.3 23.6485 25.1 23.6485ZM7.89998 20.878C7.89998 20.9769 7.99998 21.0759 7.99998 21.0759L25.1 23.4506C25.2 23.4506 25.3 23.3517 25.3 23.3517C25.3 23.2527 25.2 23.1538 25.2 23.1538L8.09998 20.6801C7.99998 20.6801 7.89998 20.779 7.89998 20.878H7.79998H7.89998Z" fill="#F0EBE6"></path><path d="M9.20001 17.0189C9.20001 17.1179 9.20001 17.3158 9.40001 17.4147L25.3 22.56C25.4 22.56 25.6 22.56 25.7 22.3621C25.7 22.2632 25.7 22.0653 25.5 21.9663L9.50001 16.821C9.40001 16.821 9.20001 16.92 9.20001 17.0189Z" fill="#F0EBE6"></path><path d="M25.2 22.659L9.3 17.5137C9.1 17.4148 9 17.3159 9 17.118V17.019C9.1 16.8211 9.2 16.7222 9.4 16.7222H9.5L25.4 21.8674C25.6 21.9664 25.7 22.0653 25.7 22.2632V22.3622C25.6 22.5601 25.5 22.659 25.3 22.659C25.3 22.659 25.3 22.659 25.2 22.659ZM9.3 17.118C9.3 17.2169 9.3 17.3159 9.4 17.3159L25.3 22.4611C25.3 22.4611 25.3 22.4611 25.4 22.4611C25.5 22.4611 25.5 22.4611 25.6 22.3622C25.6 22.2632 25.6 22.2632 25.5 22.1643L9.5 17.019C9.4 16.9201 9.3 17.019 9.3 17.118H9.2H9.3Z" fill="#F0EBE6"></path><path d="M15.2 15.139C15.1 15.2379 15.2 15.4358 15.3 15.5347L25.6 21.5705C25.7 21.6695 25.9 21.5705 26 21.4716C26.1 21.3726 26 21.1747 25.9 21.0758L15.6 15.04C15.5 14.9411 15.3 15.04 15.2 15.139Z" fill="#F0EBE6"></path><path d="M25.8 21.7685C25.7 21.7685 25.7 21.7685 25.6 21.6696L15.3 15.6338C15.2 15.5348 15.1 15.4359 15.1 15.337C15.1 15.238 15.1 15.238 15.2 15.1391C15.3 15.0401 15.4 14.9412 15.5 14.9412C15.6 14.9412 15.6 14.9412 15.7 15.0401L26 20.977C26.1 21.0759 26.2 21.1748 26.2 21.2738C26.2 21.3727 26.2 21.3727 26.1 21.4717C26 21.6696 25.9 21.7685 25.8 21.7685ZM15.3 15.238C15.3 15.337 15.3 15.337 15.4 15.337L25.7 21.3727H25.8C25.9 21.3727 25.9 21.3727 25.9 21.2738V21.1748C25.9 21.0759 25.9 21.0759 25.8 21.0759L15.5 15.0401H15.4C15.4 15.1391 15.4 15.1391 15.3 15.238Z" fill="#F0EBE6"></path><path d="M16.6 5.93676C16.5 6.03571 16.4 6.2336 16.5 6.33255L26.9 19.9873C27 20.0862 27.2 20.0862 27.3 20.0862C27.4 19.9873 27.4 19.7894 27.4 19.6904L17 5.93676C16.9 5.83781 16.7 5.83781 16.6 5.93676Z" fill="#F0EBE6"></path><path d="M26.8 20.0864L16.4 6.3327C16.3 6.23375 16.3 6.1348 16.3 6.1348C16.3 6.03586 16.4 5.93691 16.5 5.83796C16.6 5.73901 16.7 5.73901 16.7 5.73901C16.8 5.73901 17 5.83796 17 5.93691L27.4 19.5916C27.5 19.6906 27.5 19.7895 27.5 19.7895C27.5 19.8885 27.4 19.9874 27.3 20.0864C27.2 20.1853 27.1 20.1853 27.1 20.1853C27 20.1853 26.9 20.1853 26.8 20.0864ZM16.6 6.03586L16.5 6.1348V6.23375L27 19.8885L27.1 19.9874H27.2L27.3 19.8885V19.7895L16.9 6.03586C16.8 6.03586 16.8 5.93691 16.6 6.03586C16.7 5.93691 16.7 6.03586 16.6 6.03586Z" fill="#F0EBE6"></path><path d="M20.6 3.76001C20.5 3.85896 20.4 3.9579 20.5 4.1558L27.8 19.3937C27.9 19.4926 28 19.5916 28.2 19.4926C28.3 19.3937 28.4 19.2947 28.3 19.0968L21 3.9579C20.9 3.76001 20.8 3.76001 20.6 3.76001Z" fill="#F0EBE6"></path><path d="M27.6 19.4927L20.4 4.25482C20.4 4.15587 20.4 4.15587 20.4 4.05692C20.4 3.95797 20.5 3.76008 20.6 3.66113C20.7 3.66113 20.7 3.66113 20.8 3.66113C21 3.66113 21.1 3.76008 21.2 3.85903L28.5 19.0969C28.5 19.1959 28.5 19.1959 28.5 19.2948C28.5 19.3938 28.4 19.5917 28.3 19.6906C28.2 19.6906 28.2 19.6906 28.1 19.6906C27.9 19.6906 27.7 19.5917 27.6 19.4927ZM20.7 3.85903C20.6 3.85903 20.6 3.95797 20.6 3.95797C20.6 3.95797 20.6 3.95797 20.6 4.05692L27.9 19.2948C27.9 19.3938 28 19.3938 28 19.3938C28 19.3938 28 19.3938 28.1 19.3938C28.2 19.3938 28.2 19.2948 28.2 19.2948C28.2 19.2948 28.2 19.2948 28.2 19.1959L20.9 3.95797C20.9 3.95797 20.8 3.85903 20.7 3.85903V3.76008V3.85903Z" fill="#F0EBE6"></path><path d="M26.6 9.69678C26.4 9.69678 26.4 9.89467 26.4 9.99362L28.7 18.9978C28.7 19.0968 28.9 19.1957 29 19.1957C29.1 19.1957 29.2 18.9978 29.2 18.8989L27 9.89467C26.9 9.69678 26.8 9.59783 26.6 9.69678Z" fill="#F0EBE6"></path><path d="M28.6 19.0968L26.3 10.0926V9.99369C26.3 9.7958 26.4 9.69685 26.6 9.5979H26.7C26.9 9.5979 27 9.69685 27.1 9.89474L29.4 18.899V18.9979C29.4 19.1958 29.3 19.2947 29.1 19.3937H29C28.8 19.3937 28.6 19.2947 28.6 19.0968ZM26.7 9.79579C26.6 9.79579 26.6 9.89474 26.6 9.99369L28.9 18.9979C28.9 19.0968 29 19.0968 29.1 19.0968C29.2 19.0968 29.2 18.9979 29.2 18.899L26.9 9.89474C26.8 9.7958 26.8 9.79579 26.7 9.79579V9.69685V9.79579Z" fill="#F0EBE6"></path><path d="M29.3 1.68213C29.1 1.68213 29 1.88002 29 1.97897L29.7 18.8C29.7 18.9979 29.8 19.0969 30 19.0969C30.2 19.0969 30.3 18.9979 30.3 18.8L29.6 1.97897C29.6 1.78108 29.5 1.68213 29.3 1.68213Z" fill="#F0EBE6"></path><path d="M30 19.1959C29.8 19.1959 29.6 18.998 29.6 18.8001L28.9 1.97904C28.9 1.78115 29.1 1.58325 29.3 1.58325C29.5 1.58325 29.7 1.78115 29.7 1.97904L30.4 18.8001C30.4 19.0969 30.2 19.1959 30 19.1959ZM30 18.998C30.1 18.998 30.2 18.899 30.2 18.8001L29.5 1.97904C29.5 1.88009 29.4 1.78115 29.3 1.78115C29.2 1.78115 29.1 1.88009 29.1 1.97904L29.8 18.8001C29.8 18.899 29.9 18.998 30 18.998Z" fill="#F0EBE6"></path><path d="M33.6 2.47377L30.7 18.899C30.7 19.0969 30.8 19.1959 30.9 19.1959C31.1 19.1959 31.2 19.0969 31.2 18.998L34.1 2.57272C34.1 2.37483 34 2.27588 33.9 2.27588C33.8 2.17693 33.6 2.27588 33.6 2.47377Z" fill="#F0EBE6"></path><path d="M30.9 19.2947C30.7 19.2947 30.6 19.0968 30.6 18.8989C30.6 18.8989 30.6 18.8989 30.6 18.8L33.5 2.37472C33.5 2.17683 33.7 2.07788 33.9 2.07788C33.9 2.07788 33.9 2.07788 34 2.07788C34.2 2.07788 34.3 2.27578 34.3 2.47367C34.3 2.47367 34.3 2.47367 34.3 2.57262L31.4 18.9979C31.4 19.1958 31.2 19.2947 30.9 19.2947C31 19.2947 31 19.2947 30.9 19.2947ZM30.8 18.8989C30.8 18.9979 30.9 19.0968 30.9 19.0968C31 19.0968 31 18.9979 31.1 18.9979L34 2.57262C34 2.47367 33.9 2.47367 33.9 2.37472C33.8 2.37472 33.8 2.47367 33.7 2.47367L30.8 18.8989Z" fill="#F0EBE6"></path><path d="M39.3 0.296772L31.7 19.0968C31.6 19.1957 31.7 19.3936 31.9 19.4926C32 19.5915 32.2 19.4926 32.3 19.2947L39.9 0.494666C40 0.395719 39.9 0.197824 39.7 0.098877C39.5 0.098877 39.3 0.197824 39.3 0.296772Z" fill="#F0EBE6"></path><path d="M31.9 19.5916C31.7 19.4926 31.6 19.3937 31.6 19.1958C31.6 19.0968 31.6 19.0968 31.6 19.0968L39.2 0.296842C39.2 0.0989474 39.4 0 39.6 0H39.7C39.9 0.0989474 40 0.197895 40 0.39579V0.494737L32.4 19.2947C32.3 19.4926 32.2 19.5916 32 19.5916C31.9 19.5916 31.9 19.5916 31.9 19.5916ZM39.4 0.296842L31.8 19.0968C31.8 19.0968 31.8 19.0968 31.8 19.1958C31.8 19.2947 31.8 19.2947 31.9 19.3937C31.9 19.3937 31.9 19.3937 32 19.3937C32.1 19.3937 32.1 19.3937 32.2 19.2947L39.8 0.494737C39.8 0.494737 39.8 0.494737 39.8 0.39579C39.8 0.296842 39.8 0.296842 39.7 0.197895C39.7 0.197895 39.7 0.197895 39.6 0.197895C39.5 0.197895 39.4 0.296842 39.4 0.296842H39.3H39.4Z" fill="#F0EBE6"></path><path d="M37 12.962L32.6 19.4926C32.5 19.5915 32.6 19.7894 32.7 19.8884C32.8 19.9873 33 19.8884 33.1 19.7894L37.5 13.2589C37.6 13.1599 37.5 12.962 37.4 12.8631C37.3 12.7641 37.1 12.7641 37 12.962Z" fill="#F0EBE6"></path><path d="M32.7 19.9873C32.6 19.8884 32.5 19.7894 32.5 19.6905C32.5 19.5915 32.5 19.5915 32.6 19.4926L37 12.9621C37.1 12.8631 37.2 12.7642 37.3 12.7642C37.4 12.7642 37.5 12.7642 37.5 12.8631C37.6 12.9621 37.7 13.061 37.7 13.16C37.7 13.2589 37.7 13.3578 37.6 13.3578L33.2 19.8884C33.1 19.9873 33 20.0863 32.9 20.0863C32.8 20.0863 32.8 19.9873 32.7 19.9873ZM37.1 12.9621L32.7 19.4926V19.5915C32.7 19.6905 32.7 19.6905 32.8 19.6905H32.9C33 19.7894 33 19.7894 33 19.7894L37.4 13.2589V13.16C37.4 13.061 37.4 13.061 37.3 13.061H37.2C37.2 12.9621 37.2 12.9621 37.1 12.9621Z" fill="#F0EBE6"></path><path d="M41.2 12.3684L33.5 20.1852C33.4 20.2842 33.4 20.4821 33.5 20.581C33.6 20.68 33.8 20.68 33.9 20.581L41.6 12.7642C41.7 12.6652 41.7 12.4673 41.6 12.3684C41.5 12.2695 41.3 12.2695 41.2 12.3684Z" fill="#F0EBE6"></path><path d="M33.4 20.581C33.3 20.4821 33.3 20.3831 33.3 20.2842C33.3 20.1852 33.3 20.0863 33.4 19.9873L41.1 12.1705C41.2 12.0715 41.3 12.0715 41.4 12.0715C41.5 12.0715 41.6 12.0715 41.7 12.1705C41.8 12.2694 41.8 12.3684 41.8 12.4673C41.8 12.5663 41.8 12.6652 41.7 12.7642L34 20.581C33.9 20.68 33.8 20.68 33.7 20.68C33.6 20.68 33.5 20.68 33.4 20.581ZM33.6 20.1852V20.2842V20.3831H33.7H33.8L41.5 12.5663V12.4673V12.3684H41.4H41.3L33.6 20.1852Z" fill="#F0EBE6"></path><path d="M44.3 14.2483L34.2 20.8778C34.1 20.9768 34 21.1747 34.1 21.2736C34.2 21.3726 34.4 21.4715 34.5 21.3726L44.6 14.7431C44.7 14.6441 44.8 14.4462 44.7 14.3473C44.6 14.1494 44.4 14.1494 44.3 14.2483Z" fill="#F0EBE6"></path><path d="M34 21.2737C34 21.1747 33.9 21.1747 33.9 21.0758C33.9 20.9769 34 20.779 34.1 20.779L44.2 14.1495C44.3 14.1495 44.3 14.0505 44.4 14.0505C44.5 14.0505 44.7 14.1495 44.7 14.2484C44.7 14.3474 44.8 14.3474 44.8 14.4463C44.8 14.5453 44.7 14.7432 44.6 14.7432L34.5 21.3726C34.4 21.3726 34.4 21.4716 34.3 21.4716C34.2 21.4716 34.1 21.3726 34 21.2737ZM44.3 14.3474L34.2 20.9769L34.1 21.0758V21.1747L34.2 21.2737H34.3L44.4 14.6442L44.5 14.5453V14.4463C44.5 14.3474 44.5 14.3474 44.3 14.3474C44.4 14.3474 44.3 14.3474 44.3 14.3474Z" fill="#F0EBE6"></path><path d="M51.1 15.2378L34.7 21.7683C34.6 21.8673 34.5 21.9662 34.5 22.1641C34.6 22.2631 34.7 22.362 34.9 22.362L51.3 15.8315C51.4 15.7325 51.5 15.6336 51.5 15.4357C51.4 15.2378 51.2 15.1388 51.1 15.2378Z" fill="#F0EBE6"></path><path d="M34.5 22.1642V22.0652C34.5 21.8673 34.6 21.7684 34.7 21.6694L51 15.1389H51.1C51.3 15.1389 51.4 15.2379 51.5 15.4358V15.5347C51.5 15.7326 51.4 15.8315 51.2 15.9305L35 22.3621H34.9C34.7 22.3621 34.5 22.2631 34.5 22.1642ZM51.1 15.3368L34.7 21.8673C34.6 21.8673 34.6 21.9663 34.6 21.9663C34.6 21.9663 34.6 21.9663 34.6 22.0652C34.6 22.1642 34.7 22.1642 34.8 22.1642C34.8 22.1642 34.8 22.1642 34.9 22.1642L51.3 15.6337C51.4 15.6337 51.4 15.5347 51.4 15.4358C51.4 15.4358 51.4 15.4358 51.4 15.3368C51.3 15.3368 51.2 15.3368 51.1 15.3368C51.2 15.3368 51.1 15.3368 51.1 15.3368V15.2379V15.3368Z" fill="#F0EBE6"></path><path d="M51.5 19.8884L35 22.7579C34.8 22.7579 34.7 22.9558 34.8 23.0547C34.8 23.2526 35 23.3516 35.1 23.2526L51.6 20.3832C51.8 20.3832 51.9 20.1853 51.8 20.0863C51.8 19.8884 51.7 19.7895 51.5 19.8884Z" fill="#F0EBE6"></path><path d="M34.7 23.0546C34.7 22.9557 34.7 22.9557 34.7 23.0546C34.7 22.7578 34.8 22.6588 35 22.5599L51.5 19.6904H51.6C51.8 19.6904 52 19.7894 52 19.9873C52 19.9873 52 19.9873 52 20.0862C52 20.2841 51.9 20.482 51.7 20.482L35.2 23.3515C35.2 23.3515 35.2 23.3515 35.1 23.3515C34.9 23.3515 34.8 23.2525 34.7 23.0546ZM51.6 19.9873L35.1 22.7578C35 22.7578 35 22.8567 35 22.9557C35 23.0546 35.1 23.0546 35.2 23.0546L51.7 20.1852C51.8 20.1852 51.8 20.0862 51.8 19.9873C51.7 19.9873 51.7 19.9873 51.6 19.9873V19.8883V19.9873Z" fill="#F0EBE6"></path><path d="M9.2 4.94726C9.1 5.0462 9.1 5.2441 9.2 5.34305L26.2 20.6799C26.3 20.7788 26.5 20.7788 26.6 20.6799C26.7 20.5809 26.7 20.383 26.6 20.2841L9.6 4.94726C9.5 4.84831 9.3 4.84831 9.2 4.94726Z" fill="#F0EBE6"></path><path d="M26.1 20.7789L9.1 5.44207C9 5.34313 9 5.24418 9 5.14523C9 5.04628 9 4.94734 9.1 4.94734C9.2 4.84839 9.3 4.84839 9.4 4.84839C9.5 4.84839 9.6 4.84839 9.7 4.94734L26.7 20.2842C26.8 20.3831 26.8 20.4821 26.8 20.581C26.8 20.68 26.8 20.7789 26.7 20.8779C26.6 20.9768 26.5 20.9768 26.4 20.9768C26.3 20.8779 26.2 20.8779 26.1 20.7789ZM9.3 5.04628C9.2 5.04628 9.2 5.14523 9.3 5.04628C9.3 5.14523 9.3 5.24418 9.3 5.24418L26.3 20.581H26.4H26.5V20.4821C26.5 20.4821 26.5 20.3831 26.4 20.3831L9.5 5.04628H9.4C9.3 5.04628 9.3 5.04628 9.3 5.04628Z" fill="#F0EBE6"></path></svg> 