<?xml version="1.0" encoding="UTF-8"?> <svg xmlns="http://www.w3.org/2000/svg" width="296.2" height="52" viewBox="0 0 296.2 52"><g transform="translate(0 -0.01)"><rect width="0.009" height="50" transform="translate(44.257 51.01) rotate(180)" fill="none" stroke="#fff" stroke-miterlimit="10" stroke-width="2"></rect><rect width="19.34" height="15.935" rx="3" transform="translate(0 8.32)" fill="#fff"></rect><rect width="16.55" height="13.671" rx="3" transform="translate(15.597 27.434)" fill="#fff"></rect><rect width="12.154" height="10.01" rx="2" transform="translate(22.152 14.175)" fill="#50bd91"></rect><path d="M65.4,40.695V17.52h4.325v9.307H87.979V17.52h4.334V40.695H87.979V30.337H69.725V40.695Z" transform="translate(-8.142 -2.055)" fill="#fff"></path><path d="M108.22,40.716V17.48h23.061v3.458H112.554V26.9h11.285v3.458H112.554v6.96H131.5v3.4Z" transform="translate(-13.473 -2.05)" fill="#fff"></path><path d="M148.158,21.827c0,.341,0,.805.053,1.392V40.756H144.7V17.52h3.555l11.382,15.067L170.142,17.52h4.01V40.756h-4.01V25.067A14.851,14.851,0,0,1,170.2,23.4c.061-.543.114-1.051.2-1.55a16.347,16.347,0,0,1-.77,1.944,6.933,6.933,0,0,1-.727,1.269l-8.834,12.021h-1.1l-9.158-11.916a9.3,9.3,0,0,1-.875-1.445,12.079,12.079,0,0,1-.762-1.9" transform="translate(-18.549 -2.082)" fill="#fff"></path><path d="M189.87,23.022c0-2.119.394-3.572,1.191-4.378s2.268-1.164,4.43-1.164h16.538q3.257,0,4.439,1.164c.788.77,1.191,2.224,1.191,4.378V35.279q0,3.2-1.173,4.378c-.788.77-2.268,1.156-4.456,1.156H195.491c-2.206,0-3.686-.385-4.456-1.138s-1.164-2.215-1.164-4.378ZM194.2,37.24h19.13V20.965H194.2Z" transform="translate(-24.172 -2.077)" fill="#fff"></path><path d="M236.758,22.178c.1.674.184,1.366.236,2.057s.079,1.392.079,2.092V40.756H233.09V17.52h3.292L253.2,32.692a14.3,14.3,0,0,1,1.4,1.418,17.909,17.909,0,0,1,1.34,1.751c-.123-.692-.219-1.4-.28-2.11s-.088-1.453-.088-2.224V17.52h3.975V40.756H256.6L239.446,25.365a21.247,21.247,0,0,1-1.541-1.62,13.5,13.5,0,0,1-1.147-1.567" transform="translate(-29.553 -2.082)" fill="#fff"></path><path d="M285.24,20.938V40.716h-4.307V20.938H270.12V17.48H296.1v3.458Z" transform="translate(-33.629 -2.05)" fill="#fff"></path><path d="M307.19,23.022c0-2.119.394-3.572,1.191-4.378s2.268-1.164,4.43-1.164h16.547q3.248,0,4.43,1.164c.788.77,1.191,2.224,1.191,4.378V35.279q0,3.2-1.173,4.378t-4.448,1.156H312.811c-2.2,0-3.686-.385-4.456-1.138s-1.164-2.215-1.164-4.378Zm4.334,14.218h19.138V20.965H311.524Z" transform="translate(-38.778 -2.077)" fill="#fff"></path></g></svg> 