<svg id="5c8f48a2-ae72-45ee-8258-421053a6608d" data-name="Layer 1" xmlns="http://www.w3.org/2000/svg" viewBox="0 0 123.32 68"><title>hp</title><path style="fill:#a3322b" class="hp" d="M98.18,0H41.65V5l3.28.44c2.74.32,4.38,1,4.38,4.26V29.52H19.57V9.73c0-3.28,1.64-3.94,4.37-4.26L27.33,5V0H0V5l3.39.44c2.73.32,4.37,1,4.37,4.26V58.27c0,3.28-1.64,3.72-4.37,4.15L0,63v5H27.33V63l-3.39-.55c-2.73-.43-4.37-.87-4.37-4.15V36.19H49.31V58.27c0,3.28-1.64,3.72-4.38,4.15L41.65,63v5h53.9V63l-3.39-.22c-2.73-.22-4.37-.87-4.37-4.15V40.12H98.18c17,0,25.14-4.92,25.14-20S115.23,0,98.18,0ZM76,58.6c0,3.28-1.64,3.93-4.37,4.15l-2.92.19-3.21-.52c-2.73-.43-4.37-.87-4.37-4.15V9.73c0-3.28,1.64-3.94,4.37-4.26l3.07-.4,3.06.4c2.73.32,4.37,1,4.37,4.26ZM95.33,33.45H87.79V6.56h7.54c13.56,0,15.42,5,15.42,13.56C110.75,27,108.89,33.45,95.33,33.45Z"></path></svg>