<?xml version="1.0" standalone="no"?>
<!DOCTYPE svg PUBLIC "-//W3C//DTD SVG 20010904//EN"
 "http://www.w3.org/TR/2001/REC-SVG-20010904/DTD/svg10.dtd">
<svg version="1.0" xmlns="http://www.w3.org/2000/svg"
 width="2216.000000pt" height="368.000000pt" viewBox="0 0 2216.000000 368.000000"
 preserveAspectRatio="xMidYMid meet">

<g transform="translate(0.000000,368.000000) scale(0.100000,-0.100000)"
fill="#000000" stroke="none">
<path d="M185 3580 l-170 -98 -3 -205 -2 -204 157 -91 c87 -50 166 -94 175
-97 12 -5 73 25 188 91 l170 99 0 201 0 202 -152 87 c-84 49 -162 94 -173 101
-18 11 -39 2 -190 -86z"/>
<path d="M6220 1855 l0 -1775 260 0 259 0 3 144 3 145 335 -181 334 -180 91
37 c49 20 253 104 453 187 l362 151 0 897 0 898 -428 175 c-236 97 -440 180
-453 186 -22 8 -68 -14 -360 -169 l-334 -179 -3 720 -2 719 -260 0 -260 0 0
-1775z m1410 62 l185 -73 3 -560 2 -560 -200 -88 -200 -89 -332 183 c-183 101
-339 187 -345 193 -10 7 -13 90 -13 351 l0 342 343 191 c188 105 349 189 357
187 8 -2 98 -37 200 -77z"/>
<path d="M15670 1855 l0 -1775 260 0 260 0 0 490 0 490 123 0 122 0 490 -490
490 -490 172 0 173 0 0 173 0 172 -425 425 -425 425 425 425 425 425 0 178 0
177 -168 0 -167 0 -475 -475 -475 -475 -142 0 -143 0 0 1050 0 1050 -260 0
-260 0 0 -1775z"/>
<path d="M13730 2474 c-239 -62 -463 -120 -497 -130 l-63 -16 0 -250 c0 -216
2 -249 15 -244 28 10 969 246 984 246 9 0 125 -46 259 -102 l243 -101 -3 -121
-3 -120 -715 -117 c-393 -65 -730 -121 -747 -124 l-33 -6 0 -588 0 -587 415
-107 415 -107 332 174 333 175 3 -135 3 -134 239 0 240 0 -2 1062 -3 1062
-480 193 c-264 105 -484 192 -490 191 -5 0 -206 -51 -445 -114z m940 -1436
l-1 -173 -357 -187 -358 -187 -145 37 -144 38 -3 241 -2 240 482 80 c266 44
493 81 506 82 l22 1 0 -172z"/>
<path d="M1782 2371 l-424 -176 -173 -458 -174 -459 172 -456 172 -456 435
-183 434 -183 415 120 c229 67 437 128 464 136 l47 16 0 262 0 263 -460 -135
-459 -134 -218 92 c-120 50 -223 97 -229 103 -14 15 -198 536 -196 557 1 31
192 554 204 561 27 17 428 179 442 179 15 0 867 -176 899 -186 16 -5 17 10 15
253 l-3 257 -460 103 c-253 56 -464 102 -470 102 -5 -1 -200 -81 -433 -178z"/>
<path d="M4215 2374 l-400 -176 -173 -457 -173 -458 177 -464 c97 -255 182
-469 188 -476 6 -6 199 -87 429 -178 l418 -166 252 84 c139 47 368 124 510
172 l257 87 0 254 c0 140 -2 254 -4 254 -2 0 -231 -76 -510 -170 l-506 -170
-223 89 -222 89 -82 198 c-45 110 -82 202 -83 207 0 4 367 7 815 7 l815 0 0
550 0 549 -447 146 c-247 80 -489 159 -538 176 -50 16 -92 29 -95 29 -3 0
-185 -79 -405 -176z m674 -400 c135 -36 263 -70 284 -75 l37 -10 0 -164 0
-165 -560 0 c-308 0 -560 3 -560 8 0 4 29 75 65 157 l66 150 197 82 c108 44
203 82 211 82 8 1 125 -28 260 -65z"/>
<path d="M11169 2373 l-396 -175 -172 -452 c-94 -249 -171 -458 -171 -464 0
-11 355 -941 361 -946 2 -2 194 -78 425 -170 l422 -167 503 169 504 169 3 256
2 256 -506 -169 -506 -169 -217 85 c-119 47 -221 90 -227 97 -11 12 -164 385
-164 400 0 4 365 7 810 7 l810 0 -2 552 -3 552 -530 173 c-291 95 -534 172
-540 172 -5 0 -188 -79 -406 -176z m712 -408 c155 -41 283 -75 285 -75 2 0 4
-74 4 -165 l0 -165 -560 0 c-441 0 -560 3 -560 13 0 6 29 77 64 157 l65 145
198 82 c109 45 203 82 210 82 6 1 139 -33 294 -74z"/>
<path d="M18650 2375 c-217 -95 -398 -180 -403 -187 -4 -7 -84 -214 -176 -459
l-169 -446 181 -474 182 -473 424 -168 424 -169 506 169 506 169 3 256 c1 141
1 257 0 257 -2 0 -230 -77 -507 -170 l-505 -171 -225 91 -226 91 -78 192 c-42
105 -77 198 -77 205 0 9 169 12 810 12 l810 0 -2 551 -3 551 -530 174 c-291
95 -534 173 -540 173 -5 0 -188 -78 -405 -174z m690 -405 c146 -39 275 -75
288 -80 22 -10 22 -12 20 -167 l-3 -158 -562 -3 c-310 -1 -563 1 -562 5 0 5
30 76 67 158 l68 150 199 82 c110 45 205 82 210 83 6 0 129 -32 275 -70z"/>
<path d="M90 1280 l0 -1200 260 0 260 0 0 1200 0 1200 -260 0 -260 0 0 -1200z"/>
<path d="M8850 1280 l0 -1200 260 0 260 0 0 588 0 587 490 444 490 444 0 169
0 168 -164 0 -164 0 -323 -294 -324 -293 -3 293 -2 294 -260 0 -260 0 0 -1200z"/>
<path d="M20650 1280 l0 -1200 260 0 260 0 1 588 0 587 487 440 487 440 3 173
2 172 -162 0 -163 0 -325 -295 -325 -295 -3 295 -2 295 -260 0 -260 0 0 -1200z"/>
</g>
</svg>
