<svg xmlns="http://www.w3.org/2000/svg" xmlns:xlink="http://www.w3.org/1999/xlink" id="Layer_1" x="0px" y="0px" viewBox="0 0 163.71 100" style="enable-background:new 0 0 163.71 100;" xml:space="preserve"><style type="text/css">	.st01{fill:#70AD46;}</style><path class="st01" d="M152.64,65.13c-6.19,17.19-16.58,25.79-31.16,25.79c-10.13,0-17.96-3.85-23.49-11.55 c-5.53-7.7-8.29-17.91-8.29-30.61c0-5.91,0.69-11.24,2.06-15.99c1.38-4.74,3.43-8.91,6.16-12.48c2.73-3.58,6.03-6.27,9.9-8.08 c3.87-1.81,8.29-2.72,13.24-2.72c15.45,0,25.26,7.18,29.44,21.53l11.83-1.79C155.96,9.74,142.34,0,121.48,0 c-6.83,0-12.37,0.83-16.61,2.48c-4.24,1.65-7.88,3.7-10.9,6.16c-3.03,2.45-5.65,5.41-7.87,8.87c-1.56,2.43-2.98,5.39-4.24,8.89 c-1.27-3.49-2.68-6.46-4.24-8.89c-2.22-3.46-4.85-6.42-7.87-8.87c-3.03-2.45-6.66-4.51-10.9-6.16C54.6,0.83,49.06,0,42.23,0 C21.37,0,7.75,9.74,1.38,29.23l11.83,1.79C17.38,16.67,27.19,9.49,42.64,9.49c4.95,0,9.37,0.91,13.24,2.72 c3.88,1.81,7.18,4.5,9.9,8.08c2.73,3.58,4.78,7.74,6.16,12.48C73.31,37.52,74,42.85,74,48.76c0,12.7-2.76,22.9-8.29,30.61 c-5.52,7.7-13.35,11.55-23.49,11.55c-14.58,0-24.97-8.6-31.16-25.79L0,66.85c3.62,10.87,8.83,19.11,15.61,24.73 c6.79,5.62,15.82,8.43,27.1,8.43c8.67,0,16.11-1.77,22.32-5.3c6.21-3.53,11.23-9.18,15.06-16.95c0.64-1.31,1.23-2.66,1.77-4.06 c0.54,1.39,1.12,2.75,1.77,4.06c3.83,7.77,8.85,13.42,15.06,16.95c6.21,3.53,13.65,5.3,22.32,5.3c11.28,0,20.31-2.81,27.1-8.43 c6.78-5.62,11.99-13.86,15.61-24.73L152.64,65.13z"></path></svg>