<?xml version="1.0" encoding="UTF-8"?>
<svg id="Layer_1" xmlns="http://www.w3.org/2000/svg" width="171.6mm" height="69.2mm" version="1.1" viewBox="0 0 486.5 196.2">
  <!-- Generator: Adobe Illustrator 30.1.0, SVG Export Plug-In . SVG Version: 2.1.1 Build 136)  -->
  <defs>
    <style>
      .st0 {
        fill: #1d1d1b;
      }

      .st1 {
        fill: #c0e3ea;
      }

      .st2 {
        fill: #009db1;
      }

      .st3 {
        fill: #1d1814;
      }
    </style>
  </defs>
  <path class="st3" d="M8.6,67.2c-4.8,0-8.6,3.7-8.6,8.4v67.5c0,4.7,3.8,8.4,8.6,8.4s8.4-3.7,8.4-8.4v-67.5c0-4.7-3.7-8.4-8.4-8.4Z"/>
  <path class="st3" d="M95.6,67.2c-4.6,0-8.3,3.7-8.3,8.3v45.1l-37.6-48.7c-1.8-2.2-4.1-4.7-8.5-4.7h-1.5c-4.7,0-8.6,3.8-8.6,8.5v67.3c0,4.6,3.8,8.3,8.4,8.3s8.3-3.7,8.3-8.3v-46.7l38.7,50.1c1.8,2.4,4.3,4.8,8.5,4.8h.6c4.7,0,8.3-3.7,8.3-8.4v-67.4c0-4.6-3.8-8.3-8.4-8.3h0Z"/>
  <path class="st3" d="M182.3,127c-1.9,0-3.8.7-5.2,1.9-6.2,5.2-11.7,7.4-19.1,7.4-14.3,0-25.1-11.6-25.1-27.2s10.8-26.9,25.1-26.9,12.4,2.1,18.3,6.9c1.5,1.1,3.2,1.7,5.1,1.7,4.7,0,8.4-3.6,8.4-8.3s-1.2-5.1-3.3-6.8c-8.4-6.5-17.2-9.4-28.4-9.4-24.4,0-42.9,18.5-42.9,43v.2c0,24,18.6,42.7,42.3,42.7s21.3-3.4,30.1-11.1c1.8-1.6,2.8-3.8,2.8-6.1,0-4.3-3.7-8-8.1-8h0Z"/>
  <path class="st3" d="M264.4,67.2c-4.8,0-8.5,3.7-8.5,8.4v39.8c0,13.4-6.7,20.8-18.8,20.8s-18.9-7.6-18.9-21.4v-39.2c0-4.7-3.7-8.4-8.4-8.4s-8.5,3.7-8.5,8.4v39.8c0,23.4,13,36.8,35.6,36.8s36-13.6,36-37.5v-39.1c0-4.7-3.7-8.4-8.4-8.4h0Z"/>
  <path class="st3" d="M341.2,107.4c6.4-4.2,9.6-10.1,9.6-17.9s-1.9-10.4-5.8-14.3c-4.9-4.9-12.5-7.5-22-7.5h-28.9c-4.8,0-8.5,3.8-8.5,8.5v66.1c0,4.8,3.8,8.5,8.5,8.5h30.1c19.5,0,31.1-8.8,31.1-23.7s-4.5-15.8-14.1-19.8h0ZM302.3,101.6v-18.5h18.9c8.1,0,12.7,3.2,12.7,9,0,8.2-8.6,9.5-13.7,9.5h-17.8,0ZM338.3,126c0,8.3-8.8,9.6-14,9.6h-22v-19.2h20.9c6.9,0,15.1,1.6,15.1,9.6h0Z"/>
  <path class="st3" d="M442.2,139.7l-29.8-66.5c-2-4.3-5.3-6.6-9.7-6.6h-.7c-4.4,0-7.9,2.3-9.8,6.6l-29.8,66.5c-.7,1.4-1.1,2.7-1.1,3.8,0,4.5,3.5,8,8,8s6.5-2,7.8-5.3l6.4-14.6h37.1l6.2,14.1c1.6,3.7,4.5,5.8,8.2,5.8s8.1-3.6,8.1-8.2-.3-2.5-.9-3.6h0ZM414.1,116.1h-23.8l11.9-27.4,11.9,27.4h0Z"/>
  <path class="st2" d="M425.7,15c-1.8,1.1-1.8,2.8,0,3.8l24.6,14.2c1.8,1.1,4.8,1.1,6.6,0l24.6-14.2c1.8-1.1,1.8-2.8,0-3.8l-24.6-14.2c-1.8-1.1-4.8-1.1-6.6,0l-24.6,14.2Z"/>
  <path class="st1" d="M455.3,70.1c0,2.1,1.5,3,3.3,1.9l24.6-14.2c1.8-1.1,3.3-3.6,3.3-5.8v-28.4c0-2.1-1.5-3-3.4-1.9l-24.6,14.2c-1.8,1.1-3.3,3.6-3.3,5.8v28.4Z"/>
  <path class="st0" d="M110.4,192.3l6.5-14.2c.2-.5.6-.8,1.1-.8h0c.5,0,.9.3,1.1.8l6.5,14.2c0,.2.1.3.1.5,0,.5-.4.9-.9.9s-.7-.3-.9-.7l-1.7-3.7h-8.8l-1.7,3.7c-.2.4-.5.6-.9.6s-.8-.4-.8-.8,0-.3.1-.5h0ZM121.8,187.6l-3.7-8.2-3.7,8.2h7.4Z"/>
  <path class="st0" d="M134,178.3c0-.5.4-.9.9-.9h4.7c5,0,8.5,3.5,8.5,8h0c0,4.6-3.5,8.1-8.5,8.1h-4.7c-.5,0-.9-.4-.9-.9v-14.2h0ZM139.5,191.8c4.1,0,6.6-2.8,6.6-6.3h0c0-3.6-2.6-6.4-6.6-6.4h-3.8v12.7h3.8Z"/>
  <path class="st0" d="M160.7,192.9l-6.2-14.3c0-.1,0-.2,0-.4,0-.5.4-.9.9-.9s.8.3.9.7l5.5,13.3,5.6-13.3c.2-.3.5-.6.9-.6s.9.4.9.9,0,.2,0,.4l-6.2,14.4c-.2.5-.5.8-1,.8h0c-.5,0-.9-.3-1-.8h0Z"/>
  <path class="st0" d="M174.1,192.3l6.5-14.2c.2-.5.6-.8,1.1-.8h0c.5,0,.9.3,1.1.8l6.5,14.2c0,.2.1.3.1.5,0,.5-.4.9-.9.9s-.7-.3-.9-.7l-1.7-3.7h-8.8l-1.7,3.7c-.2.4-.5.6-.9.6s-.8-.4-.8-.8,0-.3.1-.5h0ZM185.4,187.6l-3.7-8.2-3.7,8.2h7.4Z"/>
  <path class="st0" d="M197.6,178.2c0-.5.4-.9.9-.9h.2c.4,0,.7.2.9.5l9.7,12.4v-12.1c0-.5.4-.9.9-.9s.9.4.9.9v14.5c0,.5-.3.9-.8.9h0c-.4,0-.7-.2-.9-.5l-10-12.7v12.4c0,.5-.4.9-.9.9s-.9-.4-.9-.9v-14.4h0Z"/>
  <path class="st0" d="M219.6,185.5h0c0-4.6,3.4-8.3,8.1-8.3s4.2.9,5.7,2.1c.2.2.4.4.4.7,0,.5-.4.9-.9.9s-.5-.1-.6-.2c-1.2-1.1-2.6-1.8-4.6-1.8-3.5,0-6.2,2.9-6.2,6.6h0c0,3.8,2.7,6.7,6.2,6.7s3.4-.7,4.8-2c.1-.1.3-.2.6-.2.5,0,.9.4.9.9s-.1.5-.3.6c-1.6,1.4-3.3,2.4-6,2.4-4.6,0-8-3.6-8-8.2h0Z"/>
  <path class="st0" d="M241.8,192.5v-14.2c0-.5.4-.9.9-.9h10c.5,0,.8.4.8.8s-.4.8-.8.8h-9v5.5h8c.5,0,.8.4.8.8s-.4.8-.8.8h-8v5.6h9.2c.5,0,.8.4.8.8s-.4.8-.8.8h-10.1c-.5,0-.9-.4-.9-.9h0Z"/>
  <path class="st0" d="M260.8,195.3c.9-.4,1.3-1,1.3-1.9-.5-.1-.9-.5-.9-1.1v-.4c0-.6.4-1,1-1s1.1.5,1.1,1.3v.4c0,1.4-.3,2.2-.8,2.8s-1.2.8-1.6.8-.5-.2-.5-.5.1-.3.3-.4h0Z"/>
  <path class="st0" d="M287.6,179.1h-4.6c-.5,0-.9-.4-.9-.8s.4-.9.9-.9h11.1c.5,0,.9.4.9.9s-.4.8-.9.8h-4.6v13.6c0,.5-.4.9-.9.9s-.9-.4-.9-.9v-13.6Z"/>
  <path class="st0" d="M301,185.5h0c0-4.5,3.3-8.3,8.2-8.3s8.2,3.8,8.2,8.2h0c0,4.5-3.3,8.3-8.2,8.3s-8.2-3.8-8.2-8.2ZM315.5,185.5h0c0-3.7-2.7-6.7-6.3-6.7s-6.3,2.9-6.3,6.6h0c0,3.7,2.7,6.7,6.3,6.7s6.3-2.9,6.3-6.6Z"/>
  <path class="st0" d="M325.1,185.5h0c0-4.4,3.2-8.3,8-8.3s4,.6,5.5,1.7c.2.2.4.4.4.7,0,.5-.4.9-.9.9s-.4,0-.6-.2c-1.2-.9-2.4-1.5-4.5-1.5-3.5,0-6.1,3-6.1,6.6h0c0,3.9,2.5,6.7,6.3,6.7s3.5-.7,4.6-1.6v-4h-4.3c-.4,0-.8-.4-.8-.8s.4-.8.8-.8h5.2c.5,0,.9.4.9.9v4.9c0,.4-.2.8-.6,1.1-1.5,1.1-3.4,2-5.8,2-5,0-8.2-3.7-8.2-8.2h0Z"/>
  <path class="st0" d="M348.3,192.5v-14.2c0-.5.4-.9.9-.9h10c.5,0,.8.4.8.8s-.4.8-.8.8h-9v5.5h8c.5,0,.8.4.8.8s-.4.8-.8.8h-8v5.6h9.2c.5,0,.8.4.8.8s-.4.8-.8.8h-10.1c-.5,0-.9-.4-.9-.9h0Z"/>
  <path class="st0" d="M372.5,179.1h-4.7c-.5,0-.8-.4-.8-.8s.4-.9.8-.9h11.1c.5,0,.8.4.8.9s-.4.8-.8.8h-4.7v13.6c0,.5-.4.9-.9.9s-.9-.4-.9-.9v-13.6Z"/>
  <path class="st0" d="M387.7,178.2c0-.5.4-.9.9-.9s.9.4.9.9v6.3h9.3v-6.3c0-.5.4-.9.9-.9s.9.4.9.9v14.4c0,.5-.4.9-.9.9s-.9-.4-.9-.9v-6.4h-9.3v6.4c0,.5-.4.9-.9.9s-.9-.4-.9-.9v-14.4Z"/>
  <path class="st0" d="M409.7,192.5v-14.2c0-.5.4-.9.9-.9h10c.5,0,.8.4.8.8s-.4.8-.8.8h-9v5.5h8c.5,0,.8.4.8.8s-.4.8-.8.8h-8v5.6h9.2c.5,0,.8.4.8.8s-.4.8-.8.8h-10.1c-.5,0-.9-.4-.9-.9h0Z"/>
  <path class="st0" d="M429.7,178.3c0-.5.4-.9.9-.9h6c2,0,3.5.6,4.6,1.6.8.8,1.2,1.9,1.2,3.2h0c0,2.7-1.8,4.2-4.3,4.7l4,5.1c.2.2.3.4.3.7,0,.5-.5.9-.9.9s-.6-.2-.8-.5l-4.5-5.9h-4.6v5.4c0,.5-.4.9-.9.9s-.9-.4-.9-.9v-14.3h0ZM436.4,185.6c2.4,0,4.1-1.2,4.1-3.3h0c0-2-1.5-3.2-4.1-3.2h-5v6.5h4.9,0Z"/>
</svg>