<svg xmlns="http://www.w3.org/2000/svg" xmlns:xlink="http://www.w3.org/1999/xlink" version="1.1" viewBox="0 0 442.08 64.8">
<g id="surface1">
<path style="stroke: none; fill-rule: nonzero; fill: rgb(31, 97, 67); fill-opacity: 1; --darkreader-inline-stroke: none; --darkreader-inline-fill: #94ddbc;" d="M 291.585938 49.65625 L 291.242188 49.65625 L 290.898438 49.3125 L 290.550781 48.96875 L 290.550781 15.773438 L 290.898438 15.429688 L 291.242188 15.085938 L 302.445312 15.085938 L 305.03125 15.257812 L 306.238281 15.429688 L 307.269531 15.773438 L 309.167969 16.632812 L 310.71875 17.667969 L 312.097656 19.042969 L 312.957031 20.589844 L 313.476562 22.308594 L 313.648438 24.03125 L 313.476562 25.75 L 312.957031 27.296875 L 312.269531 28.503906 L 311.40625 29.535156 L 310.546875 30.394531 L 309.511719 30.910156 L 308.820312 31.253906 L 308.132812 31.253906 L 309.167969 31.425781 L 310.375 31.941406 L 311.578125 32.457031 L 312.613281 33.316406 L 313.648438 34.523438 L 314.511719 35.898438 L 315.199219 37.617188 L 315.371094 38.648438 L 315.371094 41.058594 L 315.027344 42.261719 L 314.855469 43.464844 L 314.335938 44.496094 L 313.820312 45.359375 L 313.132812 46.21875 L 312.441406 46.90625 L 311.578125 47.59375 L 310.71875 48.109375 L 309.683594 48.453125 L 308.648438 48.96875 L 307.445312 49.140625 L 305.03125 49.484375 L 302.445312 49.65625 Z M 296.757812 44.152344 L 302.273438 44.152344 L 304.339844 43.980469 L 305.546875 43.808594 L 306.582031 43.292969 L 307.445312 42.777344 L 308.132812 41.917969 L 308.476562 41.402344 L 308.648438 40.714844 L 308.820312 39.335938 L 308.648438 37.960938 L 308.476562 37.273438 L 308.132812 36.757812 L 307.445312 35.898438 L 306.582031 35.210938 L 304.511719 34.523438 L 302.273438 34.351562 L 296.757812 34.351562 Z M 296.757812 28.847656 L 303.132812 28.847656 L 303.996094 28.675781 L 304.859375 28.332031 L 305.71875 27.984375 L 306.410156 27.296875 L 306.925781 26.609375 L 307.269531 25.75 L 307.269531 23.515625 L 306.925781 22.65625 L 306.410156 21.964844 L 305.71875 21.449219 L 304.859375 21.105469 L 303.996094 20.761719 L 302.101562 20.589844 L 296.757812 20.589844 Z M 296.757812 28.847656 " data-darkreader-inline-stroke="" data-darkreader-inline-fill=""/>
<path style="stroke: none; fill-rule: nonzero; fill: rgb(31, 97, 67); fill-opacity: 1; --darkreader-inline-stroke: none; --darkreader-inline-fill: #94ddbc;" d="M 357.082031 49.65625 L 351.566406 49.65625 L 351.222656 49.484375 L 350.878906 49.140625 L 350.703125 48.96875 L 347.949219 40.886719 L 335.191406 40.886719 L 332.433594 48.96875 L 331.917969 49.484375 L 331.574219 49.65625 L 325.367188 49.65625 L 325.023438 49.3125 L 324.851562 48.96875 L 325.023438 48.453125 L 338.121094 15.773438 L 338.296875 15.429688 L 338.46875 15.257812 L 338.8125 15.085938 L 344.671875 15.085938 L 345.015625 15.257812 L 345.191406 15.429688 L 345.363281 15.773438 L 357.945312 48.453125 L 357.945312 48.96875 L 357.773438 49.3125 L 357.425781 49.65625 Z M 336.917969 35.554688 L 346.050781 35.554688 L 341.570312 22.136719 Z M 336.917969 35.554688 " data-darkreader-inline-stroke="" data-darkreader-inline-fill=""/>
<path style="stroke: none; fill-rule: nonzero; fill: rgb(31, 97, 67); fill-opacity: 1; --darkreader-inline-stroke: none; --darkreader-inline-fill: #94ddbc;" d="M 397.757812 49.65625 L 393.105469 49.65625 L 392.585938 49.484375 L 392.070312 49.140625 L 375.523438 24.71875 L 375.523438 48.96875 L 374.835938 49.65625 L 369.835938 49.65625 L 369.148438 48.96875 L 369.148438 15.773438 L 369.835938 15.085938 L 375.179688 15.085938 L 375.695312 15.257812 L 376.042969 15.601562 L 392.585938 39.683594 L 392.585938 15.773438 L 392.933594 15.429688 L 393.277344 15.085938 L 398.277344 15.085938 L 398.621094 15.429688 L 398.792969 15.773438 L 398.964844 16.289062 L 398.964844 48.453125 L 398.792969 48.96875 L 398.621094 49.3125 L 398.277344 49.65625 Z M 397.757812 49.65625 " data-darkreader-inline-stroke="" data-darkreader-inline-fill=""/>
<path style="stroke: none; fill-rule: nonzero; fill: rgb(31, 97, 67); fill-opacity: 1; --darkreader-inline-stroke: none; --darkreader-inline-fill: #94ddbc;" d="M 62.179688 42.089844 L 61.835938 41.746094 L 43.738281 23.859375 L 43.566406 23.34375 L 43.566406 22.828125 L 43.910156 22.308594 L 44.425781 22.136719 L 62.351562 22.136719 L 62.871094 22.308594 L 63.214844 22.484375 L 63.386719 22.828125 L 63.902344 25.0625 L 64.421875 27.46875 L 64.59375 29.878906 L 64.765625 32.457031 L 64.59375 34.695312 L 64.421875 36.929688 L 64.074219 39.164062 L 63.386719 41.402344 L 63.214844 41.746094 L 62.695312 42.089844 Z M 62.179688 42.089844 " data-darkreader-inline-stroke="" data-darkreader-inline-fill=""/>
<path style="stroke: none; fill-rule: nonzero; fill: rgb(31, 97, 67); fill-opacity: 1; --darkreader-inline-stroke: none; --darkreader-inline-fill: #94ddbc;" d="M 47.011719 60.664062 L 46.667969 60.320312 L 46.496094 59.804688 L 46.496094 34.523438 L 46.667969 34.007812 L 47.011719 33.664062 L 47.53125 33.488281 L 48.21875 33.835938 L 60.800781 46.390625 L 61.144531 46.90625 L 61.144531 47.25 L 60.972656 47.59375 L 59.765625 49.65625 L 58.386719 51.550781 L 57.007812 53.269531 L 55.457031 55.160156 L 53.734375 56.710938 L 51.839844 58.085938 L 49.941406 59.460938 L 48.046875 60.664062 L 47.53125 60.835938 Z M 47.011719 60.664062 " data-darkreader-inline-stroke="" data-darkreader-inline-fill=""/>
<path style="stroke: none; fill-rule: nonzero; fill: rgb(31, 97, 67); fill-opacity: 1; --darkreader-inline-stroke: none; --darkreader-inline-fill: #94ddbc;" d="M 29.949219 64.621094 L 27.707031 64.449219 L 25.46875 64.105469 L 23.226562 63.589844 L 22.882812 63.246094 L 22.539062 62.730469 L 22.539062 62.214844 L 22.882812 61.867188 L 40.808594 43.808594 L 41.324219 43.636719 L 41.839844 43.636719 L 42.359375 43.980469 L 42.53125 44.667969 L 42.53125 62.386719 L 42.359375 62.902344 L 42.1875 63.246094 L 41.839844 63.417969 L 39.601562 63.933594 L 37.1875 64.449219 L 34.773438 64.621094 L 32.191406 64.792969 Z M 29.949219 64.621094 " data-darkreader-inline-stroke="" data-darkreader-inline-fill=""/>
<path style="stroke: none; fill-rule: nonzero; fill: rgb(31, 97, 67); fill-opacity: 1; --darkreader-inline-stroke: none; --darkreader-inline-fill: #94ddbc;" d="M 17.367188 61.179688 L 17.023438 61.007812 L 14.953125 59.804688 L 13.058594 58.601562 L 11.164062 57.054688 L 9.4375 55.503906 L 6.335938 52.066406 L 5.128906 50 L 3.921875 48.109375 L 3.75 47.59375 L 3.921875 47.078125 L 4.269531 46.734375 L 4.785156 46.5625 L 30.121094 46.5625 L 30.636719 46.734375 L 30.984375 47.078125 L 31.15625 47.765625 L 30.8125 48.28125 L 18.230469 60.835938 L 17.710938 61.179688 Z M 17.367188 61.179688 " data-darkreader-inline-stroke="" data-darkreader-inline-fill=""/>
<path style="stroke: none; fill-rule: nonzero; fill: rgb(31, 97, 67); fill-opacity: 1; --darkreader-inline-stroke: none; --darkreader-inline-fill: #94ddbc;" d="M 2.199219 42.605469 L 1.511719 42.433594 L 1.335938 42.261719 L 1.164062 41.917969 L 0.648438 39.683594 L 0.132812 37.273438 L 0 35.449219 L 0 28.660156 L 0.132812 27.8125 L 0.476562 25.578125 L 0.992188 23.34375 L 1.335938 23 L 1.855469 22.65625 L 2.199219 22.65625 L 2.714844 23 L 20.640625 40.886719 L 20.988281 41.402344 L 20.988281 41.917969 L 20.640625 42.433594 L 19.953125 42.605469 Z M 2.199219 42.605469 " data-darkreader-inline-stroke="" data-darkreader-inline-fill=""/>
<path style="stroke: none; fill-rule: nonzero; fill: rgb(31, 97, 67); fill-opacity: 1; --darkreader-inline-stroke: none; --darkreader-inline-fill: #94ddbc;" d="M 16.332031 30.910156 L 3.75 18.355469 L 3.40625 17.839844 L 3.40625 17.496094 L 3.578125 17.152344 L 4.785156 15.085938 L 5.992188 13.195312 L 7.542969 11.476562 L 9.09375 9.753906 L 10.816406 8.035156 L 12.539062 6.660156 L 14.609375 5.285156 L 16.503906 4.078125 L 17.023438 3.90625 L 17.539062 4.078125 L 17.882812 4.421875 L 18.054688 4.9375 L 18.054688 30.222656 L 17.882812 30.738281 L 17.539062 31.082031 L 16.851562 31.253906 Z M 16.332031 30.910156 " data-darkreader-inline-stroke="" data-darkreader-inline-fill=""/>
<path style="stroke: none; fill-rule: nonzero; fill: rgb(31, 97, 67); fill-opacity: 1; --darkreader-inline-stroke: none; --darkreader-inline-fill: #94ddbc;" d="M 22.710938 21.105469 L 22.191406 20.761719 L 22.019531 20.074219 L 22.019531 2.359375 L 22.191406 1.84375 L 22.367188 1.5 L 22.710938 1.328125 L 24.949219 0.8125 L 27.363281 0.296875 L 29.777344 0.125 L 31.507812 0 L 32.871094 0 L 34.601562 0.125 L 36.84375 0.296875 L 39.082031 0.640625 L 41.324219 1.15625 L 41.667969 1.5 L 42.015625 2.015625 L 42.015625 2.53125 L 41.667969 2.875 L 23.746094 20.933594 L 23.226562 21.105469 Z M 22.710938 21.105469 " data-darkreader-inline-stroke="" data-darkreader-inline-fill=""/>
<path style="stroke: none; fill-rule: nonzero; fill: rgb(31, 97, 67); fill-opacity: 1; --darkreader-inline-stroke: none; --darkreader-inline-fill: #94ddbc;" d="M 34.429688 18.183594 L 33.914062 18.011719 L 33.570312 17.667969 L 33.394531 16.980469 L 33.742188 16.460938 L 46.324219 3.90625 L 46.839844 3.5625 L 47.183594 3.5625 L 47.53125 3.734375 L 49.425781 4.9375 L 51.492188 6.316406 L 53.21875 7.691406 L 54.941406 9.238281 L 56.664062 10.957031 L 58.042969 12.851562 L 59.421875 14.742188 L 60.628906 16.632812 L 60.800781 17.152344 L 60.628906 17.667969 L 60.285156 18.011719 L 59.765625 18.183594 Z M 34.429688 18.183594 " data-darkreader-inline-stroke="" data-darkreader-inline-fill=""/>
<path style="stroke: none; fill-rule: nonzero; fill: rgb(31, 97, 67); fill-opacity: 1; --darkreader-inline-stroke: none; --darkreader-inline-fill: #94ddbc;" d="M 101.132812 50.515625 L 99.410156 50.34375 L 97.859375 49.828125 L 96.480469 49.3125 L 95.445312 48.796875 L 94.410156 48.109375 L 93.546875 47.421875 L 92.6875 46.5625 L 92.515625 46.21875 L 92.34375 45.703125 L 92.515625 45.359375 L 92.6875 44.839844 L 95.617188 42.261719 L 95.960938 42.089844 L 96.480469 41.917969 L 96.824219 42.089844 L 97.339844 42.261719 L 98.375 43.292969 L 99.582031 43.980469 L 101.132812 44.324219 L 102.855469 44.496094 L 103.71875 44.496094 L 104.578125 44.152344 L 105.441406 43.808594 L 106.304688 43.121094 L 106.992188 42.433594 L 107.507812 41.574219 L 107.855469 40.371094 L 107.855469 16.289062 L 108.027344 15.773438 L 108.199219 15.429688 L 108.542969 15.085938 L 113.714844 15.085938 L 114.402344 15.773438 L 114.402344 41.058594 L 114.230469 42.433594 L 113.886719 43.636719 L 113.371094 44.667969 L 112.851562 45.703125 L 112.335938 46.734375 L 111.644531 47.421875 L 110.785156 48.109375 L 109.921875 48.796875 L 109.0625 49.3125 L 108.199219 49.65625 L 107.164062 50 L 105.097656 50.515625 L 103.027344 50.691406 Z M 101.132812 50.515625 " data-darkreader-inline-stroke="" data-darkreader-inline-fill=""/>
<path style="stroke: none; fill-rule: nonzero; fill: rgb(31, 97, 67); fill-opacity: 1; --darkreader-inline-stroke: none; --darkreader-inline-fill: #94ddbc;" d="M 141.808594 49.65625 L 136.984375 49.65625 L 136.636719 49.3125 L 136.464844 48.96875 L 136.292969 48.453125 L 136.292969 34.523438 L 125.089844 16.289062 L 124.917969 15.773438 L 125.089844 15.429688 L 125.261719 15.257812 L 125.78125 15.085938 L 130.777344 15.085938 L 131.46875 15.257812 L 131.8125 15.601562 L 139.742188 28.847656 L 147.839844 15.601562 L 148.1875 15.257812 L 148.875 15.085938 L 153.699219 15.085938 L 154.046875 15.257812 L 154.21875 15.429688 L 154.390625 15.773438 L 154.21875 16.289062 L 143.015625 34.523438 L 143.015625 48.453125 L 142.84375 48.96875 L 142.671875 49.3125 L 142.324219 49.65625 Z M 141.808594 49.65625 " data-darkreader-inline-stroke="" data-darkreader-inline-fill=""/>
<path style="stroke: none; fill-rule: nonzero; fill: rgb(31, 97, 67); fill-opacity: 1; --darkreader-inline-stroke: none; --darkreader-inline-fill: #94ddbc;" d="M 172.316406 50.515625 L 170.074219 50 L 168.179688 49.3125 L 166.285156 48.453125 L 164.730469 47.421875 L 163.527344 46.390625 L 162.148438 45.011719 L 161.972656 44.667969 L 161.800781 44.152344 L 161.972656 43.808594 L 162.148438 43.292969 L 165.078125 40.714844 L 165.421875 40.542969 L 165.9375 40.371094 L 166.285156 40.542969 L 166.800781 40.714844 L 167.488281 41.402344 L 168.351562 42.261719 L 169.386719 42.949219 L 170.59375 43.636719 L 171.796875 44.152344 L 173.175781 44.496094 L 174.730469 44.667969 L 176.28125 44.496094 L 177.488281 44.324219 L 178.519531 43.808594 L 179.382812 43.121094 L 179.898438 42.433594 L 180.417969 41.574219 L 180.761719 40.714844 L 180.761719 38.820312 L 180.417969 37.960938 L 179.898438 37.101562 L 179.039062 36.414062 L 177.832031 35.726562 L 176.453125 35.210938 L 174.554688 34.695312 L 172.488281 34.179688 L 170.246094 33.664062 L 168.351562 32.800781 L 166.800781 31.769531 L 165.421875 30.394531 L 164.386719 29.019531 L 163.699219 27.46875 L 163.351562 25.75 L 163.179688 24.03125 L 163.351562 22.136719 L 163.871094 20.417969 L 164.730469 18.699219 L 165.421875 17.839844 L 166.109375 17.152344 L 166.972656 16.460938 L 167.835938 15.945312 L 169.902344 14.914062 L 171.109375 14.570312 L 172.316406 14.398438 L 173.695312 14.226562 L 175.246094 14.054688 L 177.832031 14.226562 L 179.898438 14.742188 L 181.796875 15.429688 L 183.347656 16.289062 L 184.378906 16.980469 L 185.242188 17.839844 L 185.585938 18.183594 L 185.757812 18.527344 L 185.933594 19.042969 L 185.757812 19.386719 L 185.585938 19.730469 L 182.828125 22.308594 L 182.484375 22.484375 L 181.96875 22.65625 L 181.621094 22.484375 L 181.277344 22.308594 L 179.726562 21.277344 L 178.863281 20.761719 L 177.660156 20.246094 L 176.453125 20.074219 L 175.074219 19.902344 L 173.695312 19.902344 L 172.660156 20.246094 L 171.796875 20.589844 L 171.109375 21.105469 L 170.417969 21.792969 L 170.074219 22.484375 L 169.730469 23.859375 L 169.902344 24.71875 L 170.074219 25.40625 L 170.59375 26.09375 L 171.28125 26.78125 L 172.144531 27.46875 L 173.523438 27.984375 L 175.074219 28.332031 L 176.96875 28.847656 L 179.039062 29.363281 L 180.933594 30.050781 L 182.65625 31.082031 L 184.207031 32.285156 L 185.414062 33.664062 L 186.449219 35.382812 L 187.136719 37.445312 L 187.3125 38.648438 L 187.3125 41.058594 L 187.136719 42.089844 L 186.449219 44.152344 L 185.933594 45.1875 L 185.242188 46.046875 L 184.554688 46.734375 L 183.863281 47.59375 L 183 48.28125 L 181.96875 48.796875 L 179.898438 49.828125 L 178.691406 50.171875 L 177.488281 50.34375 L 176.109375 50.515625 L 174.902344 50.691406 Z M 172.316406 50.515625 " data-darkreader-inline-stroke="" data-darkreader-inline-fill=""/>
<path style="stroke: none; fill-rule: nonzero; fill: rgb(31, 97, 67); fill-opacity: 1; --darkreader-inline-stroke: none; --darkreader-inline-fill: #94ddbc;" d="M 261.597656 49.65625 L 239.707031 49.65625 L 239.363281 49.3125 L 239.191406 48.96875 L 239.019531 48.453125 L 239.019531 16.289062 L 239.191406 15.773438 L 239.363281 15.429688 L 239.707031 15.085938 L 260.734375 15.085938 L 261.25 15.429688 L 261.425781 15.773438 L 261.597656 16.289062 L 261.597656 19.730469 L 261.425781 20.074219 L 261.25 20.417969 L 260.734375 20.761719 L 245.566406 20.761719 L 245.566406 29.019531 L 256.597656 29.019531 L 256.941406 29.363281 L 257.289062 29.707031 L 257.289062 34.007812 L 256.941406 34.523438 L 256.597656 34.695312 L 256.082031 34.867188 L 245.566406 34.867188 L 245.566406 43.808594 L 261.597656 43.808594 L 261.941406 43.980469 L 262.457031 44.152344 L 262.628906 44.496094 L 262.804688 45.011719 L 262.804688 48.453125 L 262.628906 48.96875 L 262.457031 49.3125 L 261.941406 49.65625 Z M 261.597656 49.65625 " data-darkreader-inline-stroke="" data-darkreader-inline-fill=""/>
<path style="stroke: none; fill-rule: nonzero; fill: rgb(31, 97, 67); fill-opacity: 1; --darkreader-inline-stroke: none; --darkreader-inline-fill: #94ddbc;" d="M 221.4375 49.65625 L 220.921875 49.484375 L 220.574219 49.140625 L 210.234375 34.007812 L 207.132812 37.617188 L 207.132812 48.453125 L 206.960938 48.96875 L 206.785156 49.3125 L 206.269531 49.65625 L 201.273438 49.65625 L 200.925781 49.3125 L 200.582031 48.96875 L 200.582031 15.773438 L 200.925781 15.429688 L 201.273438 15.085938 L 206.269531 15.085938 L 206.785156 15.429688 L 206.960938 15.773438 L 207.132812 16.289062 L 207.132812 29.363281 L 219.542969 15.429688 L 219.886719 15.085938 L 225.402344 15.085938 L 225.917969 15.257812 L 226.261719 15.601562 L 226.261719 16.117188 L 226.089844 16.460938 L 214.542969 29.191406 L 227.816406 48.28125 L 227.988281 48.796875 L 227.816406 49.140625 L 227.640625 49.484375 L 227.125 49.65625 Z M 221.4375 49.65625 " data-darkreader-inline-stroke="" data-darkreader-inline-fill=""/>
<path style="stroke: none; fill-rule: nonzero; fill: rgb(31, 97, 67); fill-opacity: 1; --darkreader-inline-stroke: none; --darkreader-inline-fill: #94ddbc;" d="M 435.503906 49.65625 L 434.988281 49.484375 L 434.46875 49.140625 L 424.300781 34.007812 L 421.027344 37.617188 L 421.027344 48.96875 L 420.683594 49.3125 L 420.335938 49.65625 L 415.167969 49.65625 L 414.820312 49.3125 L 414.648438 48.96875 L 414.476562 48.453125 L 414.476562 16.289062 L 414.648438 15.773438 L 414.820312 15.429688 L 415.167969 15.085938 L 420.335938 15.085938 L 420.683594 15.429688 L 421.027344 15.773438 L 421.027344 29.363281 L 433.609375 15.429688 L 433.953125 15.085938 L 439.46875 15.085938 L 439.984375 15.257812 L 440.15625 15.601562 L 440.332031 16.117188 L 440.15625 16.460938 L 428.609375 29.191406 L 441.882812 48.28125 L 442.054688 48.796875 L 441.882812 49.140625 L 441.535156 49.484375 L 441.191406 49.65625 Z M 435.503906 49.65625 " data-darkreader-inline-stroke="" data-darkreader-inline-fill=""/>
</g>
</svg>