<svg width="93" height="22" viewBox="0 0 93 22" fill="none" xmlns="http://www.w3.org/2000/svg">
<path d="M89.7852 18.7958V4.3252H92.5463V18.7958H89.7852Z" fill="#141414"/>
<path d="M82.6099 18.7958H78.2969V4.3252H80.9371C82.4486 4.3252 83.678 4.48643 84.585 5.03059C85.6733 5.67552 86.3182 6.80415 86.3182 8.0537C86.3182 9.20249 85.7942 10.0691 84.8067 10.835C86.4996 11.6411 87.3461 12.8101 87.3461 14.5635C87.3461 15.7526 86.943 16.7401 86.0965 17.5463C85.1291 18.4935 84.0811 18.7958 82.6099 18.7958ZM81.7634 6.94523H81.058V9.9885H81.6626C82.9525 9.9885 83.6176 9.42418 83.6176 8.41648C83.6176 7.48939 82.9928 6.94523 81.7634 6.94523ZM81.7432 12.4473H81.058V16.1758H81.9851C83.7183 16.1758 84.6454 15.6921 84.6454 14.4627C84.6454 13.193 83.678 12.4473 81.7432 12.4473Z" fill="#141414"/>
<path d="M65.8359 18.7958V4.3252H68.5971V9.30326L72.5271 4.3252H75.8525L70.7737 10.7745L76.3362 18.7958H73.0713L68.5971 12.3667V18.7958H65.8359Z" fill="#141414"/>
<path d="M54.2891 18.7958V4.3252H57.6548C59.4888 4.3252 60.7787 4.54689 61.7461 5.49413C62.4716 6.19953 62.915 7.28785 62.915 8.51725C62.915 10.4117 61.9678 11.7016 60.1338 12.3667L63.5599 18.7958H60.557L57.3122 12.669H57.0502V18.7958H54.2891ZM57.0502 7.02585V9.9885H58.3199C59.5694 9.9885 60.2144 9.48465 60.2144 8.4971C60.2144 7.54985 59.5493 7.02585 58.2393 7.02585H57.0502Z" fill="#141414"/>
<path d="M48.2578 18.7958V4.3252H51.0189V18.7958H48.2578Z" fill="#141414"/>
<path d="M36 18.7958V4.3252H38.7611V9.30326L42.6912 4.3252H46.0166L40.9378 10.7745L46.5003 18.7958H43.2353L38.7611 12.3667V18.7958H36Z" fill="#141414"/>
<path d="M1 2.19077C1 1.53312 1.53312 1 2.19077 1H7.68435V7.66673H1V2.19077Z" stroke="#141414" stroke-width="1.407"/>
<rect x="14.3672" y="1" width="6.68435" height="6.66673" stroke="#141414" stroke-width="1.407"/>
<rect x="1" y="7.66675" width="6.68435" height="6.66673" stroke="#141414" stroke-width="1.407"/>
<rect x="7.68359" y="7.66699" width="6.68435" height="6.66673" stroke="#141414" stroke-width="1.407"/>
<rect x="1" y="14.3333" width="6.68435" height="6.66673" stroke="#141414" stroke-width="1.407"/>
<path d="M14.3672 14.333H21.0515V19.809C21.0515 20.4666 20.5184 20.9997 19.8608 20.9997H14.3672V14.333Z" stroke="#141414" stroke-width="1.407"/>
</svg>
