<svg width="365" height="84" fill="none" xmlns="http://www.w3.org/2000/svg"><g clip-path="url(#clip0_3407_27532)"><path d="M87.95 68.57c-8.8 0-14.01-6.27-14.01-15.12s5.37-15.17 14.01-15.17 14.17 6.64 14.17 15.17c0 8.53-5.32 15.12-14.17 15.12zm.16-45.08c-17.96-.26-31.55 12.43-31.29 30.07-.26 17.38 13.11 30.13 31.02 29.92 18.12.21 31.65-12.38 31.39-29.92.26-17.54-13.27-30.34-31.13-30.07m57.03 7.76h-.55l.11-6.58h-15.72c.05 2.16.1 5.38.1 9.71V81.4h17.26V56.59c0-12.43 3.65-17.38 12.16-17.38 1.57 0 2.98.16 4.28.53V23.57c-.68-.16-1.78-.21-3.29-.21-7.1 0-12.21 3.27-14.35 7.9m89.16 50.14h18.09V24.68h-18.09V81.4zM243.26 0c-5.79 0-10.01 4-10.01 9.48s4.27 9.59 10.01 9.59 10.01-3.95 10.01-9.59S249.01 0 243.26 0zm55.16 65.15c-1.95 3.58-5.85 6.21-11.74 6.21-5.89 0-9.38-2.63-9.38-7.11 0-5.37 4.95-6.9 15.38-6.9 2.9 0 4.79.05 5.74.11v7.69zm16.81 17.07a54.44 54.44 0 01-.32-3.85c-.05-1.21-.05-3.21-.05-5.95V45.45c0-8.16-2.47-13.85-7.41-17.01-4.89-3.21-11.4-4.79-19.49-4.79-9.3 0-18.07 2.16-23.95 5.48l6.36 12.64c3.36-2.32 9.3-4.11 15.6-4.11 7.62 0 12.45 2.11 12.45 8.01v.57s-3.63-.1-6.95-.1c-21.91 0-30.76 5.95-30.76 19.01 0 11.8 8.48 18.12 20.96 18.12 3.58 0 6.95-.58 10.11-1.69 3.21-1.11 5.64-2.58 7.32-4.29h.14v4.93h15.99zM208.92 24.68l-20.66 27.91V1.66h-18.09V81.4h18.09V53.49l20.66 27.91h19.76l-22.5-28.36 22.5-28.36h-19.76zM0 1.66V81.4h18.09V53.24L38.94 81.4H58.7L36.21 53.04 58.7 24.68H38.94L18.09 52.84V1.66H0z" fill="#082835"/><path d="M323.85 25.3l22.5 28.36-22.5 28.36h19.76l21-28.36-21-28.36h-19.76z" fill="#00E3B1"/></g><defs><clipPath id="clip0_3407_27532"><path fill="#fff" d="M0 0h364.61v83.48H0z"/></clipPath></defs></svg>