<svg version="1.1" id="Layer_1" xmlns="http://www.w3.org/2000/svg" xmlns:xlink="http://www.w3.org/1999/xlink" x="0px" y="0px" width="200px" height="40.367px" viewBox="0 0 200 40.367" style="enable-background:new 0 0 200 40.367;" xml:space="preserve">
<g>
  <polygon class="kvale-logo" points="0,0.284 6.993,0.284 6.993,20.297 25.868,0.284 34.568,0.284 17.966,17.397 35.307,40.083
    26.778,40.083 13.19,22.173 6.993,28.541 6.993,40.083 0,40.083   "></polygon>
  <polygon class="kvale-logo" points="40.887,0.284 48.619,0.284 60.616,30.872 72.556,0.284 80.117,0.284 63.629,40.367 57.375,40.367   "></polygon>
  <path class="kvale-logo" d="M108.769,24.277L101.89,8.358l-6.823,15.919H108.769z M98.762,0h6.482l17.511,40.083h-7.391l-4.037-9.608
    H92.508l-4.094,9.608h-7.164L98.762,0z"></path>
  <polygon class="kvale-logo" points="132.984,0.284 139.978,0.284 139.978,33.714 160.899,33.714 160.899,40.083 132.984,40.083   "></polygon>
  <polygon class="kvale-logo" points="170.208,0.284 199.716,0.284 199.716,6.539 177.201,6.539 177.201,16.885 197.157,16.885
    197.157,23.197 177.201,23.197 177.201,33.828 200,33.828 200,40.083 170.208,40.083   "></polygon>
</g>
</svg>
