<?xml version="1.0" encoding="UTF-8"?>
<svg id="Layer_2" xmlns="http://www.w3.org/2000/svg" viewBox="0 0 3000 1330.04">
  <defs>
    <style>
      .cls-1 {
        fill: #fff;
      }
    </style>
  </defs>
  <g id="Negative">
    <g>
      <path class="cls-1" d="M3000,946.55v-157.64h-496.51v157.64h35.58c6.97-80.32,25.54-130.35,117.58-130.35h46.39v453.22c0,29.55-59.56,28.03-79.66,28.03v25c85.07-2.26,172.46-2.26,257.54,0l-.79-25c-20.12,0-78.89,1.53-78.89-28.03v-453.22c116.03,0,151.61,11.37,163.21,130.35h35.56ZM2449.11,1166.35c0-192.51-293.12-144.77-293.12-270.59,0-59.84,45.65-88.66,102.11-88.66,84.29,0,113.66,50.76,125.28,125.06h36.35l-3.1-123.53c-49.49-18.21-102.09-29.58-154.66-29.58-95.91,0-185.61,49.29-185.61,153.11,0,184.16,294.65,128.85,294.65,271.32,0,68.21-58.78,99.29-121.42,99.29-87.39,0-125.28-45.48-138.43-125.82h-40.21l3.08,123.53c51.83,18.95,112.92,29.55,167.84,29.55,104.4,0,207.26-48.5,207.26-163.69M1966.39,1322.46v-167.48h-31.71c-11.6,96.24-40.21,139.45-143.83,139.45h-105.19v-233.43c10.05-.76,20.09-1.53,30.16-1.53,75.03.76,94.33,25.77,97.43,94.74h30.95v-216.01h-30.95c0,66.69-31.69,91.71-98.22,91.71-9.28,0-19.33-.76-29.38-1.53v-213.72h75c111.37,0,147.72,8.34,162.42,122.79h35.58l-1.55-149.32c-95.12,2.26-191.03.76-286.94.76-51.05,0-103.62,2.29-153.89-.76v25c18.56,0,71.16,1.53,71.16,28.82v426.7c0,27.29-52.6,28.79-71.16,28.79v25c51.8-3.03,105.19-.74,156.99-.74,97.46,0,195.69-1.53,293.12.74M1459.96,812.42v-24.26c-49.49,3.79-119.1,2.26-169.39,0v25c10.05.76,71.15,1.53,71.15,12.9,0,8.34-47.94,145.53-54.91,165.22-25.51,72-50.27,143.24-75.78,214.48l-110.59-319.83c-3.1-9.84-17.02-51.53-17.02-59.11,0-12.9,61.1-12.9,71.91-13.66v-25c-75.01,3.05-167.8,3.05-242.82,0l-.77,25c8.51,0,27.06,0,34.8,2.29,15.47,4.55,44.08,57.58,49.49,73.53l156.99,438.04h43.31l157.76-423.67c17.02-44.69,31.72-85.63,85.86-90.92M878.39,813.16v-25c-59.55,3.05-122.19,3.79-181.73.76v24.24c19.32,0,78.11-.74,78.11,28.05v340.3l-299.29-393.35c-51.05,3.05-119.87,3.05-170.91,0l-.77,25c18.55,0,71.15,1.53,71.15,28.05v428.22c0,28.03-51.83,28.03-71.15,28.03v25c56.45-3.79,125.28-3.03,181.73-.74v-24.26c-19.34,0-78.89.76-78.89-28.03v-409.27l357.29,466.86c14.7-.76,29.39-1.5,44.09-1.5l-.77-484.3c0-28.05,51.81-28.05,71.15-28.05M248.36,1322.46v-25c-19.33,0-74.24.76-74.24-28.03v-428.22c0-28.79,54.91-28.05,74.24-28.05v-25c-81.2,3.05-165.5,3.05-246.7,0v25c19.34,0,74.23-.74,74.23,28.05v428.22c0,29.55-54.13,28.03-74.23,28.03v25c81.97,0,164.73-3.79,246.7,0"/>
      <path class="cls-1" d="M1573.26,26.53V1.53c-81.1,3.05-164.6,3.05-245.81,0l.78,25c19.34,0,73.46-.74,73.46,28.05v509.3c0,59.11-22.55,107.69-87.52,128.13v25.1c130.68-14.75,185.69-78.97,185.69-187.34V54.58c0-28.79,54.07-28.05,73.4-28.05M1066.97,306.96h-137.66l70.38-188.72,67.28,188.72ZM1306.7,535.86v-25.03c-24.73.76-70.37-20.45-78.87-44.71L1057.69,0c-7.74.79-15.47.79-23.21.79-6.95,0-14.69,0-22.42-.79-13.16,40.18-177.88,488.85-191.8,500.22-9.28,8.34-47.17,9.84-61.09,11.37v24.26c58.76-3.05,121.41-3.05,180.18-.76v-24.26c-12.37-.76-71.92-.76-71.92-16.66,0-9.1,46.4-140.98,52.59-159.92h156.21s54.92,150.82,54.92,162.19c0,12.89-62.65,12.89-73.47,14.39v25.03c81.2-3.05,167.8-3.05,249.01,0M702.32,535.86v-25.03c-19.34,0-73.47,0-73.47-28.03V54.58c0-27.29,54.91-28.05,73.47-28.05V1.53c-55.69,3.05-115.23,3.05-170.91,0l-180.2,401.7L171.8,1.53C115.33,4.58,56.45,4.58,0,1.53v25.1c18.55,0,68.94,1.42,68.94,27.95v428.22c0,28.03-49.61,28.03-68.94,28.03v24.95c59.55-3.03,119.98-2.21,179.53.08v-25.03c-19.34,0-78.12,0-78.12-28.03V75.82l204.17,465.33h17.79l208.04-466.86v408.51c0,28.03-59.55,28.03-78.11,28.03v25.03c75.78-3.05,173.23-3.05,249.02,0"/>
    </g>
  </g>
</svg>