<?xml version="1.0" encoding="utf-8"?>
<!-- Generator: Adobe Illustrator 25.2.3, SVG Export Plug-In . SVG Version: 6.00 Build 0)  -->
<svg version="1.1" id="Layer_1" xmlns="http://www.w3.org/2000/svg" xmlns:xlink="http://www.w3.org/1999/xlink" x="0px" y="0px"
	 viewBox="0 0 432 63" style="enable-background:new 0 0 432 63;" xml:space="preserve">
<g>
	<path d="M20.1,63C8.3,63,0.1,56.1,0,45.6h7.8c0.4,6.8,5.1,11,12.5,11c6,0,9.7-2.8,9.7-7.4c0-5.9-6.3-6.8-12.3-8.3
		C10.6,39,1.4,36.6,1.4,26.3c0-8.8,6.8-14.5,17.4-14.5c10.6,0,18.1,5.7,18.2,14.5h-8c-0.3-5-4.2-7.8-10.5-7.8
		c-5.9,0-9.6,2.7-9.6,7.1c0,5.6,5.6,7.2,11.3,8.5c6.3,1.4,17.5,3.1,17.5,14.4C37.7,57.2,30.7,63,20.1,63z"/>
	<path d="M85,44.2h7.8C92.3,55.6,83.4,63,71.4,63c-14.5,0-23.8-10.6-23.8-25.9c0-15.2,9.4-25.4,24.1-25.4c11.8,0,19.8,6.6,21,17.1
		h-7.9c-0.7-5.9-6.2-9.9-13.3-9.9c-9.7,0-16,7.2-16,18c0,10.8,6.1,18.6,16,18.6C78.5,55.6,84.4,51.4,85,44.2z"/>
	<path d="M145.4,61.8h-7.8v-21h-24.5v21h-7.8V12.9h7.8v20.7h24.5V12.9h7.8V61.8z"/>
	<path d="M206.5,37.4c0,15.5-10.1,25.6-24.2,25.6c-14.1,0-24.3-10.1-24.3-25.6s10.1-25.7,24.3-25.7
		C196.5,11.7,206.5,21.9,206.5,37.4z M198.6,37.4c0-11.7-6.4-18.3-16.3-18.3c-9.9,0-16.3,6.6-16.3,18.3s6.4,18.2,16.3,18.2
		C192.2,55.6,198.6,49.1,198.6,37.4z M178.9,0h-6.7v7.5h6.7V0z M192.5,0h-6.7v7.5h6.7V0z"/>
	<path d="M249.3,61.8l-12.6-20.1H227v20.1h-7.7V12.9h19.6c9.6,0,15.9,5.7,15.9,13.9c0,6.4-4,11.8-10.2,13.4l13.6,21.6H249.3z
		 M247.1,27c0-4.3-3-7-7.8-7H227v14.6h11.6C243.7,34.7,247.1,31.5,247.1,27z"/>
	<path d="M300.3,61.8h-31.7V12.9h7.8v41.7h24V61.8z"/>
	<path d="M318.7,61.8H311V12.9h7.8V61.8z"/>
	<path d="M374,61.8h-8.7l-23.7-37.5v37.5H334V12.9h9.6l22.9,36.6V12.9h7.6V61.8z"/>
	<path d="M432,36.3v25.5h-7.1v-5.9c-3,4.3-7.5,7.2-15,7.2c-14.3,0-23.1-10.3-23.1-25.4c0-15.6,9.4-25.9,24.1-25.9
		c11.8,0,19.8,6.6,21,17.1h-7.8c-0.8-6-6.3-9.9-13.5-9.9c-9.9,0-16,7.1-16,18.5s6.2,18.4,16.1,18.4c8,0,13.2-4.5,13.8-12.4h-15.2
		v-7.2H432z"/>
</g>
</svg>
