<?xml version="1.0" encoding="UTF-8" standalone="no"?>
<svg
   xmlns:dc="http://purl.org/dc/elements/1.1/"
   xmlns:cc="http://creativecommons.org/ns#"
   xmlns:rdf="http://www.w3.org/1999/02/22-rdf-syntax-ns#"
   xmlns:svg="http://www.w3.org/2000/svg"
   xmlns="http://www.w3.org/2000/svg"
   viewBox="0 0 566.93335 110.66667"
   height="110.66667"
   width="566.93335"
   xml:space="preserve"
   id="svg2"
   version="1.1"><metadata
     id="metadata8"><rdf:RDF><cc:Work
         rdf:about=""><dc:format>image/svg+xml</dc:format><dc:type
           rdf:resource="http://purl.org/dc/dcmitype/StillImage" /></cc:Work></rdf:RDF></metadata><defs
     id="defs6" /><g
     transform="matrix(1.3333333,0,0,-1.3333333,0,110.66667)"
     id="g10"><g
       transform="scale(0.1)"
       id="g12"><path
         id="path14"
         style="fill:#231f20;fill-opacity:1;fill-rule:nonzero;stroke:none"
         d="m 854.609,547.516 c -40.664,-113.524 -26.718,-261.711 55.352,-348.489 47.141,-46.316 112.919,-70.39 183.049,-55.183 85.01,17.304 149.45,88.808 174.09,168.933 29.55,127.891 3.92,273.981 -99.96,348.606 -60.95,42.64 -158.66,41.308 -220.359,1.644 C 903.168,638.719 873.84,591.543 854.609,547.516 Z M 880.734,785.34 C 987.629,847.711 1144.8,844.633 1247.63,776.922 1384.41,695.313 1441.31,528.426 1424.94,362.27 1413.93,215.211 1325.4,72.0664 1183.48,21.4805 1054.33,-23.3164 899.879,1.52734 803.496,100.016 691.754,211.293 653.98,382.379 697.934,538.906 c 20.457,101.367 91.32,193.043 182.8,246.434" /><path
         id="path16"
         style="fill:#231f20;fill-opacity:1;fill-rule:nonzero;stroke:none"
         d="M 1646.9,680.59 V 433.199 c 0,0 55.46,0 82.28,0.086 75.88,-0.086 134.27,-4.254 181.92,38.664 30.88,29.653 39.5,77.953 29.53,122.055 -24.47,76.723 -66.71,88.363 -121.03,88.363 -17.25,0 -172.7,-1.777 -172.7,-1.777 z m 214.11,123.902 c 85.54,-1.172 181.45,-58.89 214.67,-145.539 30.06,-77.605 29.25,-180.09 -24.55,-246.316 -35.89,-46.383 -71.6,-58.063 -112.01,-78.129 L 2115.18,14.5273 H 1952.54 L 1790.28,310.191 1646.75,309.957 1646.9,14.6133 H 1506.01 V 798.277 c 0,0 235.22,7.852 355,6.215" /><path
         id="path18"
         style="fill:#231f20;fill-opacity:1;fill-rule:nonzero;stroke:none"
         d="m 2333.81,144.898 c 0,0 68.98,-0.031 88.84,0 80.22,0.086 161,2.743 208.85,65.43 59.72,92.567 61.68,232.195 23.73,336.223 -21.08,61.344 -80.96,104.14 -140.92,118.156 -58.39,9.75 -118.92,9.383 -180,5.816 z m -149.68,653.379 c 0,0 233.83,15.969 348.06,3.352 114.23,-12.617 224.9,-94.402 268.67,-205.375 43.24,-114.164 47.08,-269.793 -2.61,-382.637 C 2754.41,103.941 2651.6,14.6133 2528.37,14.6133 c -122.48,0 -344.24,0 -344.24,0 V 798.277" /><path
         id="path20"
         style="fill:#231f20;fill-opacity:1;fill-rule:nonzero;stroke:none"
         d="M 3558.26,14.6133 V 136.742 H 2905.13 V 14.6133 h 653.13" /><path
         id="path22"
         style="fill:#231f20;fill-opacity:1;fill-rule:nonzero;stroke:none"
         d="M 3558.26,676.148 V 798.277 H 2905.13 V 676.148 h 653.13" /><path
         id="path24"
         style="fill:#ed1738;fill-opacity:1;fill-rule:nonzero;stroke:none"
         d="M 2905.13,634.98 V 180.531 h 653.13 V 634.98 h -653.13" /><path
         id="path26"
         style="fill:#231f20;fill-opacity:1;fill-rule:nonzero;stroke:none"
         d="M 4117.03,797.988 V 258.52 l -336.47,539.515 -133.9,0.242 V 14.6133 h 138.75 V 552.344 c 1.46,-3.668 2.94,-7.301 4.59,-10.824 l 278.13,-442.5512 55.6,-84.9024 h 128.24 V 797.988 h -134.94" /><path
         id="path28"
         style="fill:#231f20;fill-opacity:1;fill-rule:nonzero;stroke:none"
         d="M 470.371,797.48 V 258.012 L 133.902,797.527 0,797.77 V 14.1055 H 138.754 V 551.836 c 1.453,-3.668 2.937,-7.305 4.582,-10.832 L 421.461,98.4609 477.07,13.5586 H 605.309 V 797.48 H 470.371" /><path
         id="path30"
         style="fill:#ffffff;fill-opacity:1;fill-rule:nonzero;stroke:none"
         d="m 3274.05,486.164 -42.29,102.215 -42.42,-102.215 -106.19,30.629 53.42,-96.777 -90.14,-64.024 108.97,-18.429 -6.09,-110.43 82.45,73.574 82.46,-73.574 -6.23,110.43 108.96,18.429 -90.14,64.024 53.42,96.777 -106.18,-30.629" /></g></g></svg>