<svg width="265" height="48" viewBox="0 0 265 48" fill="none" xmlns="http://www.w3.org/2000/svg">
<g clip-path="url(#clip0_39_1436)">
<rect x="7" y="5" width="36" height="36" fill="#FFD900"/>
<path d="M25.0777 0C25.6491 0.05 26.2204 0.1 26.8017 0.14C30.7809 0.43 34.6197 1.38 38.3884 2.62C40.7939 3.41 43.1694 4.28 45.5749 5.03C48.1208 5.82 50.7368 6.2 53.4029 6.3C57.2017 6.43 60.9202 5.84 64.6188 5.06C67.7059 4.41 70.813 4.13 73.9502 4.64C76.5562 5.06 78.9518 6.04 81.217 7.38C81.3272 7.44 81.3874 7.59 81.4675 7.7C81.3573 7.75 81.237 7.86 81.1468 7.84C78.6009 7.31 76.5763 8.36 74.7421 9.95C73.1183 11.35 71.7652 13.01 70.4823 14.7C67.2448 18.96 63.0952 22.04 58.3142 24.35C58.1338 24.44 57.9434 24.54 57.6728 24.68C58.3543 25.22 58.9657 25.73 59.6072 26.2C61.9426 27.91 64.6087 28.93 67.3551 29.74C69.5401 30.38 71.7552 30.92 73.9101 31.65C76.8068 32.63 79.2825 34.27 81.0366 36.85C81.9787 38.23 82.6703 39.75 83.2216 41.32C83.2617 41.44 83.2015 41.59 83.1915 41.72C83.0712 41.7 82.9109 41.72 82.8207 41.64C79.8438 39.34 76.5262 39.33 73.0682 40.14C70.2617 40.81 67.6257 41.96 65.0197 43.16C62.3636 44.37 59.6874 45.5 56.7907 46.06C53.5433 46.68 50.2858 46.67 47.0483 46.08C43.7507 45.48 40.4832 44.74 37.2057 44.06C32.9358 43.17 28.6259 42.62 24.2558 42.61C20.5072 42.6 16.8187 43.08 13.1603 43.83C9.05085 44.66 5.02157 45.76 1.1226 47.32C0.892067 47.41 0.671559 47.54 0.451052 47.65H0.180429C0.180429 47.19 0.190452 46.73 0.180429 46.27C0.150359 40.24 0.12029 34.22 0.090221 28.19C0.0701748 23.99 0.0701748 19.8 0.0501287 15.6C0.0501287 15.44 0.0100364 15.29 -0.0100098 15.13C-0.0100098 12.03 -0.0100098 8.94 -0.0100098 5.84C0.0701748 5.8 0.150359 5.77 0.230544 5.73C1.56361 5.05 2.86661 4.27 4.23977 3.69C9.77251 1.32 15.5859 0.33 21.5496 0.09C21.9806 0.07 22.4116 0.03 22.8326 0C23.5743 0 24.326 0 25.0677 0H25.0777ZM7.89819 17.87C8.09866 18.04 8.18886 18.14 8.29912 18.21C11.5967 20.6 14.8943 22.99 18.2019 25.36C18.4725 25.55 18.5427 25.73 18.4425 26.05C17.4301 29.11 16.4278 32.17 15.4255 35.24C15.1148 36.19 14.8141 37.15 14.4834 38.18C14.7039 38.03 14.8342 37.94 14.9645 37.84C18.2621 35.45 21.5596 33.06 24.8472 30.66C25.0577 30.51 25.2181 30.44 25.4686 30.62C28.215 32.63 30.9713 34.62 33.7276 36.62C34.4092 37.11 35.0908 37.6 35.7724 38.09C35.8024 38.07 35.8225 38.05 35.8525 38.03C34.5094 33.9 33.1664 29.78 31.8132 25.63C35.3414 23.07 38.8595 20.52 42.3776 17.96C42.3575 17.92 42.3375 17.89 42.3174 17.85C42.1571 17.85 41.9967 17.85 41.8363 17.85C37.787 17.85 33.7477 17.85 29.6984 17.85C29.4177 17.85 29.2574 17.81 29.1471 17.49C28.0145 13.94 26.8618 10.4 25.7092 6.85C25.5588 6.37 25.3885 5.9 25.188 5.32C25.1178 5.5 25.0978 5.55 25.0777 5.6C23.7948 9.52 22.5118 13.44 21.2489 17.37C21.1387 17.72 20.9983 17.85 20.6175 17.85C16.5882 17.83 12.5589 17.84 8.52965 17.84C8.36928 17.84 8.20891 17.84 7.91824 17.84L7.89819 17.87Z" fill="#2494D1"/>
<path d="M106.806 35.63C105.473 35.63 104.17 35.64 102.857 35.61C102.726 35.61 102.556 35.4 102.466 35.25C99.92 30.83 97.3741 26.41 94.8583 21.97C93.6756 19.89 92.553 17.78 91.4605 15.78C91.4906 16.01 91.5808 16.36 91.6008 16.73C91.681 17.9 91.7913 19.07 91.7913 20.25C91.8113 25.22 91.7913 30.19 91.7913 35.17V35.6H88.6641V12.58C89.6363 12.58 90.6085 12.67 91.5607 12.56C92.6132 12.44 93.1544 12.85 93.6656 13.75C96.5322 18.83 99.489 23.86 102.386 28.92C102.947 29.91 103.398 30.96 103.919 32.02C103.468 25.55 103.829 19.09 103.669 12.61H106.786V35.63H106.806Z" fill="white"/>
<path d="M150.356 12.64H153.373V35.55H150.396C150.326 35 150.256 34.47 150.186 33.88C149.785 34.19 149.424 34.45 149.083 34.74C145.705 37.5 139.451 35.8 138.469 30.66C138.038 28.41 137.917 26.16 138.729 23.97C139.641 21.53 141.205 19.7 143.911 19.26C146.096 18.91 148.071 19.5 149.815 20.87C149.965 20.99 150.116 21.11 150.356 21.3V12.64ZM141.365 27.88C141.426 29 141.526 30.09 141.987 31.12C142.989 33.34 145.355 34.32 147.429 33.31C148.782 32.65 149.604 31.5 149.955 30.07C150.396 28.3 150.416 26.5 149.985 24.72C149.514 22.77 148.001 21.4 146.237 21.26C144.122 21.09 142.438 22.29 141.887 24.49C141.606 25.59 141.546 26.74 141.375 27.87L141.365 27.88Z" fill="white"/>
<path d="M203.889 30.39C203.549 32.65 202.667 34.41 200.542 35.32C199.499 35.77 198.397 35.94 197.274 35.97C194.428 36.06 192.152 35.02 190.659 32.53C189.887 31.25 189.616 29.82 189.526 28.35C189.426 26.59 189.667 24.88 190.388 23.25C191.922 19.77 195.259 18.89 197.705 19.16C201.133 19.54 203.438 21.9 203.829 25.35C203.939 26.34 203.959 27.33 204.03 28.38H192.804C192.874 30.17 193.225 31.76 194.698 32.91C196.643 34.43 199.9 33.95 200.672 30.96C200.792 30.5 200.973 30.34 201.444 30.37C202.246 30.41 203.047 30.38 203.899 30.38L203.889 30.39ZM200.802 26.04C200.762 25.57 200.742 25.17 200.682 24.78C200.251 21.87 197.024 20.49 194.608 22.17C193.245 23.11 192.964 24.56 192.734 26.04H200.802Z" fill="white"/>
<path d="M248.231 35.55H245.104C245.004 35.03 244.914 34.51 244.803 33.94C244.332 34.29 243.911 34.64 243.46 34.95C241.376 36.39 239.15 36.47 236.925 35.41C234.059 34.04 233.437 29.93 235.672 27.6C236.895 26.32 238.429 25.74 240.153 25.66C241.666 25.59 243.19 25.65 244.743 25.65C244.803 24.4 244.894 23.2 243.911 22.27C242.889 21.3 240.995 21 239.722 21.61C238.86 22.02 238.359 22.71 238.208 23.63C238.138 24.05 237.948 24.13 237.547 24.11C236.735 24.07 235.913 24.1 235.111 24.1C234.921 22.54 235.903 20.89 237.406 20.09C238.89 19.31 240.494 19.21 242.107 19.28C242.899 19.31 243.711 19.44 244.483 19.65C246.357 20.16 247.359 21.46 247.59 23.36C247.65 23.88 247.67 24.4 247.68 24.92C247.71 27.69 247.71 30.45 247.78 33.22C247.8 33.99 248.061 34.76 248.211 35.55H248.231ZM244.713 27.61C243.48 27.61 242.258 27.54 241.045 27.63C239.942 27.72 238.93 28.16 238.138 28.97C236.615 30.52 237.236 32.93 239.331 33.48C239.972 33.65 240.694 33.66 241.356 33.57C242.989 33.34 244.483 31.99 244.683 30.5C244.813 29.57 244.703 28.61 244.703 27.62L244.713 27.61Z" fill="white"/>
<path d="M125.87 27.65C125.8 30.16 125.108 32.44 123.174 34.16C120.768 36.29 117.972 36.47 115.045 35.5C113.06 34.84 111.717 33.48 110.935 31.55C109.642 28.38 109.743 25.29 111.627 22.39C113.271 19.88 115.716 18.92 118.643 19.18C122.913 19.56 125.499 22.64 125.83 26.84C125.85 27.11 125.86 27.37 125.87 27.65ZM113.321 27.87C113.321 28.84 113.451 29.91 113.902 30.92C114.704 32.71 116.077 33.71 118.052 33.84C119.555 33.94 121.129 32.89 121.881 31.29C122.622 29.72 122.702 28.05 122.612 26.36C122.552 25.21 122.161 24.15 121.48 23.22C119.505 20.53 115.726 20.82 114.183 23.77C113.531 25.02 113.361 26.36 113.321 27.87Z" fill="white"/>
<path d="M254.766 35.55H251.709C251.659 30.24 251.619 24.95 251.569 19.63H254.546V21.26C254.786 21.09 254.947 20.99 255.117 20.87C256.15 20.14 257.222 19.51 258.505 19.34C260.67 19.05 262.564 19.56 263.998 21.31C264.8 22.29 264.93 23.48 264.97 24.68C265.01 26.17 264.99 27.66 265 29.14C265 31.12 265 33.1 265 35.08C265 35.24 265 35.4 265 35.59H262.033V35.1C262.033 32.18 262.063 29.26 262.013 26.35C261.993 25.46 261.853 24.53 261.572 23.68C260.921 21.7 258.806 20.96 256.992 21.99C255.598 22.78 254.947 24.03 254.887 25.55C254.797 27.6 254.807 29.65 254.786 31.71C254.776 32.97 254.786 34.24 254.786 35.54L254.766 35.55Z" fill="white"/>
<path d="M231.413 35.61H228.456V35.08C228.456 32.22 228.476 29.36 228.446 26.5C228.436 25.69 228.326 24.86 228.135 24.07C227.714 22.35 226.231 21.29 224.687 21.57C223.114 21.85 221.991 22.75 221.57 24.29C221.309 25.24 221.219 26.25 221.209 27.24C221.159 29.83 221.189 32.42 221.189 35.01V35.53H218.172C218.112 30.25 218.052 24.96 218.002 19.64H220.999V21.26C221.289 21.06 221.52 20.9 221.75 20.74C222.903 19.94 224.136 19.35 225.579 19.27C228.987 19.09 231.242 21.08 231.393 24.46C231.453 25.69 231.423 26.93 231.423 28.17C231.423 30.48 231.423 32.79 231.423 35.09C231.423 35.25 231.423 35.41 231.423 35.6L231.413 35.61Z" fill="white"/>
<path d="M156.169 30.75H159.287C159.327 30.94 159.367 31.09 159.397 31.25C159.637 32.66 160.53 33.48 161.963 33.6C162.815 33.67 163.667 33.63 164.479 33.32C165.541 32.92 166.193 31.91 166.032 30.94C165.902 30.16 165.441 29.62 164.699 29.4C163.577 29.06 162.424 28.8 161.291 28.49C160.69 28.33 160.078 28.17 159.487 27.96C157.914 27.4 156.881 26.32 156.661 24.65C156.45 23.03 157.021 21.65 158.314 20.63C159.778 19.48 161.492 19.1 163.316 19.17C164.338 19.21 165.321 19.46 166.243 19.91C167.536 20.54 168.418 21.5 168.728 22.93C168.799 23.28 168.889 23.62 168.979 24.01H165.872C165.772 22.74 165.08 21.98 163.877 21.68C162.564 21.35 161.291 21.3 160.239 22.33C159.136 23.4 159.397 24.95 160.82 25.53C161.672 25.87 162.604 26 163.486 26.27C164.509 26.58 165.541 26.88 166.543 27.26C167.045 27.45 167.546 27.74 167.957 28.09C169.641 29.5 169.841 31.5 168.548 33.35C168.067 34.05 167.455 34.62 166.704 35.01C164.318 36.24 161.863 36.4 159.357 35.43C157.553 34.73 156.48 33.42 156.27 31.46C156.24 31.23 156.21 31 156.169 30.74V30.75Z" fill="white"/>
<path d="M173.469 21.87H170.533V19.62H173.469C173.469 18.8 173.549 18.02 173.449 17.27C173.329 16.3 173.64 15.73 174.592 15.42C175.233 15.21 175.815 14.84 176.486 14.51V19.56H179.974V21.86H176.506V22.39C176.506 25.29 176.506 28.19 176.506 31.1C176.506 31.56 176.556 32.02 176.657 32.47C176.807 33.16 177.208 33.46 177.91 33.4C178.411 33.36 178.902 33.23 179.403 33.14C179.543 33.11 179.684 33.07 179.884 33.02C179.884 33.75 179.884 34.43 179.884 35.11C179.884 35.2 179.774 35.34 179.694 35.36C178.371 35.67 177.038 35.96 175.674 35.66C174.161 35.32 173.469 34.46 173.469 32.92C173.469 29.44 173.469 25.96 173.469 22.47C173.469 22.29 173.469 22.12 173.469 21.87Z" fill="white"/>
<path d="M180.475 41.46V39.16C181.027 39.13 181.558 39.13 182.079 39.08C183.182 38.96 183.563 38.52 183.563 37.42C183.563 31.68 183.563 25.93 183.563 20.19C183.563 20.01 183.563 19.84 183.563 19.64H186.64C186.64 19.8 186.66 19.95 186.66 20.11C186.66 26.05 186.66 31.99 186.66 37.92C186.66 38.36 186.589 38.81 186.489 39.24C186.179 40.51 185.206 41.36 183.833 41.44C182.731 41.51 181.608 41.45 180.475 41.45V41.46Z" fill="white"/>
<path d="M131.864 19.69C131.914 20.31 131.954 20.9 131.994 21.46C132.866 20.9 133.688 20.27 134.6 19.81C135.522 19.35 136.584 19.33 137.647 19.28V22.42C136.875 22.39 136.133 22.3 135.402 22.34C133.437 22.45 131.954 23.94 131.914 25.9C131.864 28.92 131.874 31.94 131.864 34.96C131.864 35.15 131.864 35.34 131.864 35.55H128.807V19.69H131.874H131.864Z" fill="white"/>
<path d="M209.923 35.56H206.876V19.69H209.933C209.983 20.29 210.023 20.89 210.084 21.64C211.667 20 213.501 19.22 215.717 19.32V22.42C214.955 22.39 214.203 22.3 213.451 22.35C211.517 22.46 210.054 23.92 210.003 25.85C209.933 28.9 209.943 31.95 209.923 35C209.923 35.18 209.923 35.35 209.923 35.57V35.56Z" fill="white"/>
<path d="M183.562 15.78V12.63H186.68V15.78H183.562Z" fill="white"/>
<path d="M26.942 18.63C26.942 19.9 26.942 21.13 26.942 22.36C26.942 23.39 26.912 24.41 26.942 25.44C27.0222 27.78 25.5288 28.34 23.6845 28.2C23.2936 28.17 22.9027 28.03 22.5419 27.87C21.8002 27.53 21.4293 26.92 21.4093 26.11C21.4093 25.71 21.4093 25.31 21.4093 24.88H23.454C23.4841 25.31 23.4841 25.73 23.5342 26.13C23.5743 26.47 23.7948 26.71 24.1556 26.71C24.5465 26.71 24.7971 26.5 24.8572 26.11C24.8873 25.95 24.8873 25.78 24.8873 25.62C24.8873 23.46 24.8873 21.31 24.8873 19.15C24.8873 18.99 24.8873 18.83 24.8873 18.64H26.922L26.942 18.63Z" fill="#2494D1"/>
</g>
<defs>
<clipPath id="clip0_39_1436">
<rect width="265" height="48" fill="white"/>
</clipPath>
</defs>
</svg>
