<svg width="1131" height="65" viewBox="0 0 1131 65" fill="none" xmlns="http://www.w3.org/2000/svg">
<g clip-path="url(#clip0_415_3650)">
<path d="M749.27 8.45994H769.4V63.0899H777.69V8.45994H797.909V1.18994H749.27V8.45994Z" fill="#2D333A"/>
<path d="M814.09 8.3702H832.12C835.98 8.3702 839.02 9.3102 841.23 11.1802C843.45 13.0602 844.56 15.6702 844.56 19.0102C844.56 22.3502 843.45 24.9702 841.23 26.8402C839.01 28.7202 835.97 29.6502 832.12 29.6502H814.09V8.3702ZM843.09 34.6102C846.2 33.1102 848.63 31.0302 850.39 28.3802C852.15 25.7302 853.03 22.6102 853.03 19.0302C853.03 15.4502 852.15 12.3402 850.39 9.6802C848.63 7.0302 846.2 4.9502 843.09 3.4502C839.98 1.9502 836.32 1.2002 832.12 1.2002H805.79V63.1002H814.09V36.8702H828.9L842.82 63.1002H853.27L838.29 36.2302C840.01 35.8502 841.62 35.3302 843.09 34.6102Z" fill="#2D333A"/>
<path d="M877.23 38.3899L888.08 10.5499L898.93 38.3899H877.23ZM883.67 1.18994L859.13 63.0899H867.6L874.23 46.0799H901.92L908.55 63.0899H917.36L892.74 1.18994H883.67Z" fill="#2D333A"/>
<path d="M966.59 44.5199C964.66 48.0699 961.91 50.8299 958.34 52.7899C954.77 54.7499 950.56 55.7299 945.73 55.7299H933.46V8.54994H945.73C950.57 8.54994 954.77 9.52994 958.34 11.4899C961.91 13.4499 964.66 16.1999 966.59 19.7099C968.52 23.2299 969.48 27.3599 969.48 32.0899C969.48 36.8199 968.52 40.9599 966.59 44.5099M962.62 5.16994C957.75 2.51994 952.12 1.18994 945.73 1.18994H925.17V63.0899H945.73C952.12 63.0899 957.75 61.7599 962.62 59.1099C967.49 56.4599 971.29 52.7899 974.02 48.1199C976.76 43.4499 978.13 38.1099 978.13 32.0999C978.13 26.0899 976.76 20.7699 974.02 16.1299C971.28 11.4899 967.48 7.82994 962.62 5.17994" fill="#2D333A"/>
<path d="M995.95 1.18994H987.65V63.0899H995.95V1.18994Z" fill="#2D333A"/>
<path d="M1052.45 51.3998L1018.67 1.50977H1009.77V63.4098H1017.8V13.6398L1051.58 63.4098H1060.48V1.50977H1052.45V51.3998Z" fill="#2D333A"/>
<path d="M1099.99 39.6699H1122.84C1122.4 41.6299 1121.84 43.5299 1121.02 45.2799C1119.25 49.0599 1116.78 52.0299 1113.62 54.1999C1110.46 56.3599 1107.39 57.4499 1102.73 57.4499C1098.07 57.4499 1093.93 56.3699 1090.33 54.1999C1086.73 52.0399 1083.92 49.0599 1081.91 45.2799C1079.89 41.4999 1078.89 37.2199 1078.89 32.4199C1078.89 27.6199 1079.9 23.3699 1081.91 19.6499C1083.93 15.9299 1086.72 12.9899 1090.29 10.8199C1093.86 8.65988 1097.89 7.56988 1102.39 7.56988C1106.89 7.56988 1111.17 8.64988 1114.85 10.8199C1118.53 12.9799 1121.41 15.9299 1123.49 19.6499L1130.06 15.3199C1128.76 13.1399 1127.21 11.1499 1125.42 9.34988C1122.51 6.43988 1119.1 4.16988 1115.18 2.54988C1111.26 0.939883 1107 0.129883 1102.39 0.129883C1097.78 0.129883 1093.52 0.939883 1089.6 2.54988C1085.68 4.16988 1082.27 6.42988 1079.36 9.34988C1076.45 12.2599 1074.19 15.6799 1072.58 19.6099C1070.97 23.5399 1070.16 27.8099 1070.16 32.4199C1070.16 37.0299 1070.95 41.4099 1072.54 45.3599C1074.12 49.3099 1076.37 52.7499 1079.28 55.6599C1082.19 58.5799 1085.59 60.8299 1089.47 62.4099C1093.36 63.9999 1097.58 64.7899 1102.13 64.7899C1106.68 64.7899 1110.7 63.9099 1114.36 62.1499C1117.71 60.5399 1120.37 58.3199 1122.39 55.5699L1125.84 63.4099H1129.77V32.6499H1099.99V39.6599V39.6699Z" fill="#2D333A"/>
<path d="M44.09 40.7098L11.78 1.31982H0V63.4698H13.05V23.6098L45.75 63.4698H57.19V1.31982H44.09V40.7098Z" fill="#2D333A"/>
<path d="M272.31 1.31982L257.47 27.9898L242.62 1.31982H227.85L250.86 41.5398V63.4698H264.08V41.5398L287.08 1.31982H272.31Z" fill="#2D333A"/>
<path d="M210.5 1.31982H197.36V63.4698H240.73V50.4998H210.5V1.31982Z" fill="#2D333A"/>
<path d="M167.51 28.6398H148.82V14.3298H166.88C167.85 14.3498 168.85 14.4198 169.91 14.7798C172.59 15.7898 174.51 18.4498 174.51 21.5698C174.51 25.4698 171.37 28.6398 167.51 28.6398ZM178.63 38.1298C184.23 34.3498 187.58 28.0698 187.58 21.3298C187.58 11.0498 179.83 2.55982 169.9 1.44982C169.25 1.39982 168.13 1.31982 167.12 1.31982H135.86V63.4798H149V41.5898H161.97L174.28 63.4798H189.05L175.66 39.6698C177.47 38.9398 178.47 38.2598 178.65 38.1298" fill="#2D333A"/>
<path d="M120.24 7.6C115.83 3.16 110.22 0.56 104.17 0.16C101.74 0 99.7795 0 99.7795 0V13.43C99.7795 13.43 103.41 13.61 105.23 14.09C110.27 15.4 114.22 20.17 114.51 25.87C114.84 32.33 114.86 33.09 114.51 38.73C114.16 44.46 110.2 49.29 105.19 50.58C103.08 51.12 99.7695 51.3 99.7695 51.3V64.67C99.7695 64.67 102.5 64.63 104.16 64.52C110.23 64.1 115.8 61.5 120.2 57.05C124.84 52.36 127.61 46.16 128.01 39.57C128.39 33.37 128.36 32.12 128.01 25.18C127.68 18.56 124.91 12.31 120.22 7.6" fill="#2D333A"/>
<path d="M88.8595 0.15C82.8095 0.55 77.1995 3.16 72.7895 7.59C68.0995 12.3 65.3395 18.55 64.9995 25.17C64.6495 32.11 64.6295 33.35 64.9995 39.56C65.3995 46.15 68.1695 52.36 72.8095 57.04C77.2095 61.49 82.7795 64.09 88.8495 64.51C90.5095 64.62 93.2395 64.66 93.2395 64.66V51.29C93.2395 51.29 89.9295 51.11 87.8195 50.57C82.8095 49.28 78.8495 44.46 78.4995 38.72C78.1595 33.08 78.1795 32.32 78.4995 25.86C78.7895 20.16 82.7395 15.4 87.7795 14.08C89.5995 13.6 93.2295 13.42 93.2295 13.42V0C93.2295 0 91.2695 0 88.8395 0.15" fill="#2D333A"/>
<path d="M319.91 26.57C316.89 25.9 313.31 25.35 310.16 24.88C307.93 24.54 305.83 24.22 304.69 23.97C300.1 22.94 300.12 19.97 300.13 18.66C300.16 15.39 303.87 13.44 307.54 13.16C308.15 13.1 308.89 13.06 309.78 13.06C310.74 13.06 311.52 13.11 312.18 13.17C316.98 13.47 319.77 15.99 320.58 17.9C320.83 18.5 320.95 18.87 320.95 18.87H333.76C333.77 14.12 331.48 9.37996 327.45 5.84996C323.56 2.42996 318.33 0.389955 312.74 0.0899549C311.29 0.00995495 309.31 -0.0100451 307.7 0.0399549C296.08 0.399955 287.25 8.35995 287.17 18.55C287.09 27.57 292.73 34.45 301.88 36.51C303.46 36.87 305.68 37.2 308.24 37.59C311.19 38.04 314.53 38.54 317.12 39.12C323.43 40.53 323.41 43.99 323.4 45.12C323.36 49.42 319.27 50.85 316.24 51.32C315.2 51.53 313.63 51.72 311.42 51.71C309.12 51.7 307.53 51.57 306.44 51.42C303.82 51.14 301.45 50.03 299.74 48.34C298.68 47.29 298.13 46.23 297.74 44.68H284.95C284.95 49.33 286.91 53.91 290.52 57.56C295.44 62.53 301.53 64.3999 307.91 64.59C310.01 64.6499 310.79 64.66 313.22 64.65C319.33 64.61 324.38 63.44 329.37 59.64C333.89 56.2 336.31 51 336.36 45.24C336.44 35.86 330.14 28.87 319.92 26.59" fill="#2D333A"/>
<path d="M372.11 63.4098H415.65V53.5398H383.79V37.0098H414.01V27.1398H383.79V11.3798H415.65V1.50977H372.11V63.4098Z" fill="#2D333A"/>
<path d="M497.9 63.4098H541.44V53.5398H509.59V37.0098H539.8V27.1398H509.59V11.3798H541.44V1.50977H497.9V63.4098Z" fill="#2D333A"/>
<path d="M471.95 45.5598L442.26 1.50977H429.96V63.4098H441.39V19.2498L471.08 63.4098H483.38V1.50977H471.95V45.5598Z" fill="#2D333A"/>
<path d="M566.44 11.3798H582.85C586.08 11.3798 588.62 12.1898 590.47 13.7998C592.32 15.4198 593.24 17.6098 593.24 20.3798C593.24 23.1498 592.32 25.4298 590.47 27.0498C588.62 28.6698 586.08 29.4698 582.85 29.4698H566.44V11.3798ZM594.49 36.9598C597.81 35.3698 600.41 33.1498 602.28 30.2898C604.15 27.4298 605.09 24.1298 605.09 20.3798C605.09 16.6298 604.15 13.3398 602.28 10.5098C600.4 7.67977 597.8 5.47977 594.49 3.88977C591.17 2.29977 587.29 1.50977 582.85 1.50977H554.76V63.4098H566.45V39.3398H577.19L592.19 63.4098H606.47L590.17 38.4598C591.7 38.0798 593.16 37.5998 594.5 36.9598" fill="#2D333A"/>
<path d="M635.36 13.2799C638.51 11.3799 642.1 10.4199 646.14 10.4199C650.44 10.4199 654.26 11.3699 657.61 13.2799C660.96 15.1899 663.58 17.7799 665.49 21.0699L674.15 14.4399C672.93 12.5699 671.52 10.8599 669.91 9.29988C666.94 6.41988 663.43 4.15988 659.39 2.54988C655.35 0.939883 650.94 0.129883 646.15 0.129883C641.36 0.129883 636.94 0.939883 632.91 2.54988C628.87 4.16988 625.36 6.41988 622.39 9.29988C619.42 12.1899 617.11 15.5899 615.46 19.5199C613.82 23.4499 612.99 27.7399 612.99 32.4199C612.99 37.0999 613.78 41.5099 615.37 45.4899C616.96 49.4699 619.19 52.9099 622.08 55.7899C624.97 58.6799 628.34 60.8999 632.21 62.4599C636.08 64.0199 640.26 64.7999 644.76 64.7999C649.03 64.7999 652.87 63.9799 656.27 62.3299C659.68 60.6799 662.36 58.3599 664.32 55.3599L667.22 63.4099H674.11V29.5599H641.72V38.9999H663.71C663.33 40.7399 662.8 42.3999 662.1 43.9299C660.56 47.2799 658.43 49.8999 655.7 51.8099C652.97 53.7099 649.76 54.6699 646.33 54.6699C642.23 54.6699 638.59 53.7199 635.42 51.8099C632.24 49.9099 629.76 47.2799 627.97 43.9299C626.18 40.5799 625.29 36.7399 625.29 32.4199C625.29 28.0999 626.18 24.3699 627.97 21.0799C629.76 17.7899 632.23 15.1899 635.37 13.2899" fill="#2D333A"/>
<path d="M718.59 1.50977L704.49 27.4798L690.47 1.50977H676.7L698.51 38.3898V63.4098H710.2V38.4798L732.18 1.50977H718.59Z" fill="#2D333A"/>
</g>
<defs>
<clipPath id="clip0_415_3650">
<rect width="1130.06" height="64.8" fill="white"/>
</clipPath>
</defs>
</svg>
