<?xml version="1.0" encoding="UTF-8"?>
<svg xmlns="http://www.w3.org/2000/svg" xmlns:xlink="http://www.w3.org/1999/xlink" viewBox="0 0 203.77 58.15">
  <defs>
    <style>
      .cls-1 {
        fill: url(#linear-gradient-5);
      }

      .cls-1, .cls-2 {
        mix-blend-mode: multiply;
      }

      .cls-1, .cls-2, .cls-3, .cls-4, .cls-5, .cls-6 {
        stroke-width: 0px;
      }

      .cls-2 {
        fill: url(#linear-gradient-4);
      }

      .cls-3 {
        fill: url(#linear-gradient);
      }

      .cls-4 {
        fill: url(#linear-gradient-2);
      }

      .cls-5 {
        fill: url(#linear-gradient-3);
      }

      .cls-7 {
        isolation: isolate;
      }

      .cls-6 {
        fill: #0e5435;
      }
    </style>
    <linearGradient id="linear-gradient" x1="32.46" y1="4.21" x2="9.64" y2="53.09" gradientUnits="userSpaceOnUse">
      <stop offset="0" stop-color="#069d39"/>
      <stop offset=".21" stop-color="#069839"/>
      <stop offset=".43" stop-color="#088b3a"/>
      <stop offset=".67" stop-color="#0a753b"/>
      <stop offset=".91" stop-color="#0e563e"/>
      <stop offset="1" stop-color="#10493f"/>
    </linearGradient>
    <linearGradient id="linear-gradient-2" x1="356.58" y1="-998.22" x2="310.52" y2="-942.42" gradientTransform="translate(-79.72 1019.74) rotate(-17.13) scale(.95) skewX(-5.9)" xlink:href="#linear-gradient"/>
    <linearGradient id="linear-gradient-3" x1="30.25" y1="9.92" x2="17.26" y2="58.19" xlink:href="#linear-gradient"/>
    <linearGradient id="linear-gradient-4" x1="283.54" y1="-1033.61" x2="283.54" y2="-974.89" gradientTransform="translate(.72 1067.76) rotate(-14.16)" gradientUnits="userSpaceOnUse">
      <stop offset="0" stop-color="#d04f16"/>
      <stop offset="1" stop-color="#fff"/>
    </linearGradient>
    <linearGradient id="linear-gradient-5" x1="283.24" y1="-1028.64" x2="283.24" y2="-978.27" xlink:href="#linear-gradient-4"/>
  </defs>
  <g class="cls-7">
    <g id="Layer_2" data-name="Layer 2">
      <g id="Layer_1-2" data-name="Layer 1">
        <g>
          <path class="cls-6" d="m95.68,43.15h-7.11v-13.28c0-1.89-.69-3.52-2.06-4.88-1.37-1.37-3.01-2.05-4.91-2.05s-3.59.67-4.97,2.02c-1.37,1.35-2.06,2.98-2.06,4.91v13.28h-7.11v-13.29c0-3.92,1.37-7.24,4.11-9.95,2.74-2.71,6.07-4.07,10-4.07s7.26,1.36,10,4.07c2.74,2.71,4.11,6.03,4.11,9.95v13.29Z"/>
          <path class="cls-6" d="m130.79,29.07c0,3.92-1.36,7.25-4.08,9.98-2.72,2.73-6.05,4.1-9.97,4.1s-7.31-1.36-10.03-4.07c-2.72-2.71-4.08-6.05-4.08-10.01s1.37-7.24,4.11-9.96c2.74-2.71,6.07-4.07,10-4.07s7.26,1.36,9.97,4.07c2.72,2.71,4.08,6.03,4.08,9.96Zm-7.11,0c0-1.89-.68-3.51-2.05-4.88-1.37-1.36-3-2.05-4.9-2.05s-3.58.67-4.95,2.02c-1.37,1.35-2.05,2.98-2.05,4.9s.68,3.57,2.05,4.93,3.02,2.04,4.95,2.04,3.57-.68,4.92-2.04c1.35-1.36,2.03-3.01,2.03-4.93Z"/>
          <path class="cls-6" d="m163.89,16.35l-11.57,25.9c-.57,1.21-2.29,1.21-2.87,0l-11.72-25.91h8.42l4.79,12.79,4.79-12.79h8.16Z"/>
          <path class="cls-6" d="m203.77,43.15h-7.56l-1.58-4.95c-2.81,3.3-6.39,4.95-10.74,4.95-3.93,0-7.26-1.37-9.98-4.11s-4.08-6.05-4.08-9.95c0-2.98.84-5.68,2.53-8.08,1.68-2.4,3.93-4.11,6.74-5.13,1.65-.6,3.26-.89,4.84-.89,2.98,0,5.68.85,8.08,2.55,2.4,1.7,4.11,3.96,5.13,6.76l6.62,18.84Zm-12.88-14.08c0-2.47-1-4.39-3-5.76-1.16-.81-2.49-1.22-4-1.22-2.46,0-4.35.99-5.69,2.96-.84,1.23-1.26,2.57-1.26,4.02,0,2.43,1,4.33,3,5.71,1.23.85,2.54,1.27,3.95,1.27,1.93,0,3.58-.68,4.95-2.03s2.05-3,2.05-4.94Z"/>
        </g>
        <g>
          <g>
            <path class="cls-3" d="m5.76,56.39h0C.16,52.89-1.67,45.29,1.67,39.42L15.43,15.28c3.35-5.87,10.6-7.79,16.21-4.29h0c5.6,3.51,7.44,11.11,4.09,16.98l-13.75,24.14c-3.35,5.87-10.6,7.79-16.21,4.29Z"/>
            <path class="cls-4" d="m28.75,46.85h0c-5.29-3.16-6.74-10.48-3.24-16.35l14.41-24.14C43.43.48,50.56-1.72,55.86,1.44h0c5.29,3.16,6.74,10.48,3.24,16.35l-14.41,24.14c-3.51,5.87-10.64,8.07-15.93,4.91Z"/>
            <path class="cls-5" d="m31.63,10.99c-.64-.4-1.31-.72-1.98-.98.36.18.71.37,1.06.59h0c5.6,3.51,7.44,11.11,4.09,16.98l-13.75,24.14c-2.96,5.2-8.99,7.29-14.22,5.27,5.43,2.66,12.01.63,15.15-4.87l13.75-24.14c3.35-5.87,1.51-13.47-4.09-16.98Z"/>
          </g>
          <path class="cls-2" d="m33.55,46.97c-.97-9.25,4.42-24.61,4.42-24.61l-12.18,20.41c.87.93,1.88,1.76,3.03,2.45h0c1.51.9,3.11,1.47,4.74,1.75Z"/>
          <path class="cls-1" d="m28.81,45.22c.19.12.39.21.59.31.8-9.83,8.19-22.22,8.19-22.22l-11.81,19.46c.87.93,1.88,1.76,3.03,2.45h0Z"/>
        </g>
      </g>
    </g>
  </g>
</svg>