<?xml version="1.0" encoding="utf-8"?>
<!-- Generator: Adobe Illustrator 26.3.1, SVG Export Plug-In . SVG Version: 6.00 Build 0)  -->
<svg version="1.1" id="Layer_1" xmlns="http://www.w3.org/2000/svg" xmlns:xlink="http://www.w3.org/1999/xlink" x="0px" y="0px"
	 viewBox="0 0 4071 1121" style="enable-background:new 0 0 4071 1121;" xml:space="preserve">
<style type="text/css">
	.st0{clip-path:url(#SVGID_00000037690933273500458960000012549789869826916514_);fill:#EB0055;}
	.st1{clip-path:url(#SVGID_00000103239482508607984280000016883126961273199253_);fill:#EB0055;}
	.st2{clip-path:url(#SVGID_00000118369109233378800790000002276017295945577109_);fill:#EB0055;}
	.st3{clip-path:url(#SVGID_00000037690241069143489760000004206161617356819628_);fill:#EB0055;}
	.st4{clip-path:url(#SVGID_00000147187453166281584330000005613399997059919547_);fill:#EB0055;}
	.st5{clip-path:url(#SVGID_00000116951123933062884950000010265125901202985099_);fill:#EB0055;}
	.st6{clip-path:url(#SVGID_00000111909579828585729160000012363254955953538982_);fill:#EB0055;}
	.st7{clip-path:url(#SVGID_00000119084259010914948450000012280293052038350229_);fill:#EB0055;}
	.st8{clip-path:url(#SVGID_00000036233393756472931230000003588671589156990344_);fill:#EB0055;}
	.st9{clip-path:url(#SVGID_00000033361832596279938020000017622313540549592744_);fill:#EB0055;}
	.st10{clip-path:url(#SVGID_00000142162307234298497310000004686804180951967362_);fill:#EB0055;}
</style>
<g>
	<g>
		<defs>
			<rect id="SVGID_1_" x="45" width="3981" height="1121"/>
		</defs>
		<clipPath id="SVGID_00000111891176828877970680000006092527353388311431_">
			<use xlink:href="#SVGID_1_"  style="overflow:visible;"/>
		</clipPath>
		<path style="clip-path:url(#SVGID_00000111891176828877970680000006092527353388311431_);fill:#EB0055;" d="M1772.5,1108h-151.9
			l-237.1-602.7h170.4l142,405.1h1.2c0,0,79.1-230.7,105-299.3c13-34.3,31.8-70.6,101.9-70.6s90.8,0,90.8,0L1772.5,1108z"/>
	</g>
	<g>
		<defs>
			<rect id="SVGID_00000111162893539993991990000010058686002268042378_" x="45" width="3981" height="1121"/>
		</defs>
		<clipPath id="SVGID_00000068668259905276904180000002675541428643209116_">
			<use xlink:href="#SVGID_00000111162893539993991990000010058686002268042378_"  style="overflow:visible;"/>
		</clipPath>
		<path style="clip-path:url(#SVGID_00000068668259905276904180000002675541428643209116_);fill:#EB0055;" d="M1218.6,806.7
			c0-98.8-66.7-166.7-156.9-166.7c-93.9,0-156.9,71.6-156.9,166.7c0,93.9,65.5,166.7,156.9,166.7
			C1149.5,973.4,1218.6,904.2,1218.6,806.7z M741.9,806.7c0-180.3,128.4-311.2,319.9-311.2c187.7,0,321.1,126,321.1,311.2
			c0,185.3-133.4,311.2-321.1,311.2C870.3,1117.9,741.9,987,741.9,806.7z"/>
	</g>
	<g>
		<defs>
			<rect id="SVGID_00000025420248221159048510000014970280064183717527_" x="45" width="3981" height="1121"/>
		</defs>
		<clipPath id="SVGID_00000109005771118582232830000014594482233559359111_">
			<use xlink:href="#SVGID_00000025420248221159048510000014970280064183717527_"  style="overflow:visible;"/>
		</clipPath>
		<path style="clip-path:url(#SVGID_00000109005771118582232830000014594482233559359111_);fill:#EB0055;" d="M2294.4,806.7
			c0-185.3,130.9-311.2,317.4-311.2c96.3,0,195.1,38.3,255.7,114.8l-108.7,93.9c-32.1-37.1-79.1-64.2-140.8-64.2
			c-96.4,0-160.6,67.9-160.6,165.5c0,98.8,66.7,168,161.8,168c64.3,0,112.4-29.6,140.8-61.7l109.9,97.6
			c-51.9,60.5-144.5,108.7-265.6,108.7C2425.3,1117.9,2294.4,991.9,2294.4,806.7z"/>
	</g>
	<g>
		<defs>
			<rect id="SVGID_00000174573814400505917960000003885272486267076031_" x="45" width="3981" height="1121"/>
		</defs>
		<clipPath id="SVGID_00000070086466521290974350000016728792482669496193_">
			<use xlink:href="#SVGID_00000174573814400505917960000003885272486267076031_"  style="overflow:visible;"/>
		</clipPath>
		<path style="clip-path:url(#SVGID_00000070086466521290974350000016728792482669496193_);fill:#EB0055;" d="M3071.9,742.4h265.6
			c-16-63-59.3-105-129.7-105C3142.3,637.5,3090.4,673.3,3071.9,742.4z M3494.3,858.6h-423.6c19.8,71.6,76.6,116.1,154.4,116.1
			c64.2,1.2,111.2-27.2,144.5-67.9l105,97.6C3422.7,1069.9,3335,1118,3214,1118c-176.6,0-310-123.5-310-312.5
			c0-182.8,127.2-310,298.9-310c176.6,0,295.2,128.4,295.2,305.1C3498,820.3,3498,848.6,3494.3,858.6z"/>
	</g>
	<g>
		<defs>
			<rect id="SVGID_00000098917333911733766470000001874966171539903390_" x="45" width="3981" height="1121"/>
		</defs>
		<clipPath id="SVGID_00000094601205021553324700000005071336025551530147_">
			<use xlink:href="#SVGID_00000098917333911733766470000001874966171539903390_"  style="overflow:visible;"/>
		</clipPath>
		
			<rect x="3592" y="383.5" style="clip-path:url(#SVGID_00000094601205021553324700000005071336025551530147_);fill:#EB0055;" width="161.8" height="724.6"/>
	</g>
	<g>
		<defs>
			<rect id="SVGID_00000116948084770220949100000002324803113389212087_" x="45" width="3981" height="1121"/>
		</defs>
		<clipPath id="SVGID_00000099659438958996866870000005888680416876737678_">
			<use xlink:href="#SVGID_00000116948084770220949100000002324803113389212087_"  style="overflow:visible;"/>
		</clipPath>
		
			<rect x="3864.2" y="383.5" style="clip-path:url(#SVGID_00000099659438958996866870000005888680416876737678_);fill:#EB0055;" width="161.8" height="724.6"/>
	</g>
	<g>
		<defs>
			<rect id="SVGID_00000160184418210603820900000009248887819865512123_" x="45" width="3981" height="1121"/>
		</defs>
		<clipPath id="SVGID_00000035525711990262641760000001759546316221098402_">
			<use xlink:href="#SVGID_00000160184418210603820900000009248887819865512123_"  style="overflow:visible;"/>
		</clipPath>
		<polygon style="clip-path:url(#SVGID_00000035525711990262641760000001759546316221098402_);fill:#EB0055;" points="658.5,383.5 
			658.5,1108.3 482,1108.3 217.5,708.4 217.5,1108.3 45,1108.3 45,383.5 217.5,383.5 485.1,812.8 485.1,383.5 		"/>
	</g>
	<g>
		<defs>
			<rect id="SVGID_00000066486064450941259880000008643245032114341050_" x="45" width="3981" height="1121"/>
		</defs>
		<clipPath id="SVGID_00000046330248906729654770000000359915420144396691_">
			<use xlink:href="#SVGID_00000066486064450941259880000008643245032114341050_"  style="overflow:visible;"/>
		</clipPath>
		<path style="clip-path:url(#SVGID_00000046330248906729654770000000359915420144396691_);fill:#EB0055;" d="M2026.3,718.1V1108
			h161.8V721.9c-3.1,1.7-35.7,20.4-78.1,20.4C2073.5,742.3,2038.1,726.2,2026.3,718.1z"/>
	</g>
	<g>
		<defs>
			<rect id="SVGID_00000009553736339626616590000010193391350069626299_" x="45" width="3981" height="1121"/>
		</defs>
		<clipPath id="SVGID_00000147914979680570897220000010459441328282868926_">
			<use xlink:href="#SVGID_00000009553736339626616590000010193391350069626299_"  style="overflow:visible;"/>
		</clipPath>
		<path style="clip-path:url(#SVGID_00000147914979680570897220000010459441328282868926_);fill:#EB0055;" d="M2143.5,340.1
			c75.9,121.8-35.6,172.9-60.5,183.9c-23.9,10.5-36.8,35.1-36.8,57.8c0,35.1,28.5,63.6,63.6,63.6c59.2,0,112.4-88.2,112.4-155.7
			C2222.1,399.7,2143.5,340.1,2143.5,340.1z"/>
	</g>
	<g>
		<defs>
			<rect id="SVGID_00000139982999613817388360000007479097069642456961_" x="45" width="3981" height="1121"/>
		</defs>
		<clipPath id="SVGID_00000054267877271667316970000018292059846903815830_">
			<use xlink:href="#SVGID_00000139982999613817388360000007479097069642456961_"  style="overflow:visible;"/>
		</clipPath>
		<path style="clip-path:url(#SVGID_00000054267877271667316970000018292059846903815830_);fill:#EB0055;" d="M2362.2,334.3
			C2362.2,176.1,2224.8,4,2111.3,4c-66.4,0-120.4,53.7-120.4,120.1c0,56.8,39.3,104.3,92.2,116.9c47.4,11.6,249.4,46.1,206.2,328.5
			C2289.3,569.5,2362.2,474.7,2362.2,334.3z"/>
	</g>
	<g>
		<defs>
			<rect id="SVGID_00000027576239088797506430000015592279670605422500_" x="45" width="3981" height="1121"/>
		</defs>
		<clipPath id="SVGID_00000107557132308180938100000008165884832058401209_">
			<use xlink:href="#SVGID_00000027576239088797506430000015592279670605422500_"  style="overflow:visible;"/>
		</clipPath>
		<path style="clip-path:url(#SVGID_00000107557132308180938100000008165884832058401209_);fill:#EB0055;" d="M1694.3,607.5
			c-22.4-256.4,167.3-330.4,277.2-330.4c81.4,0,118.2,50.5,118.2,101.5c0,70.2-72.6,118.5-135.2,92.1
			C1877.6,438.1,1736.3,421.8,1694.3,607.5z"/>
	</g>
</g>
</svg>
