<svg width="493" height="143" viewBox="0 0 493 143" fill="none" xmlns="http://www.w3.org/2000/svg">
<path d="M428.43 20.75C431.57 15.25 433.36 11.9 435.89 5.73L422.2 0C420.38 4.09 419.32 6.47 417.11 10.58C401.25 0.71 380.16 1.74 365.25 14.53C350.74 26.98 346.35 46.91 352.88 63.8C349.59 64.86 346.2 65.81 342.73 66.64L346.19 81.06C351.22 79.85 356.07 78.43 360.76 76.8C369.43 86.73 381.63 91.83 393.9 91.83C404.03 91.83 414.21 88.36 422.49 81.26C440.41 65.89 442.9 39.12 428.44 20.74L428.43 20.75ZM375.61 26.63C380.88 22.11 387.37 19.89 393.83 19.89C399 19.89 404.15 21.32 408.65 24.11C403.66 31.01 398.05 37.15 391.83 42.48C384.7 48.6 376.63 53.76 367.71 57.96C363.58 47.21 366.38 34.54 375.61 26.63ZM412.09 69.17C401.85 77.96 387.03 78.03 376.74 70.09C393.52 61.71 407.58 50.07 418.85 35.26C424.53 46.5 422.07 60.61 412.09 69.17Z" fill="white"/>
<path d="M44.81 3.89999C39.56 3.89999 34.5 5.20999 29.62 7.83999C24.75 10.47 20.56 14.09 17.06 18.72L14.62 5.77999H0V89.97H17.06V35.03C20.18 30.03 23.78 26.19 27.84 23.5C31.9 20.81 36.12 19.47 40.5 19.47C46.62 19.47 51.4 21.53 54.84 25.66C58.28 29.79 60 35.47 60 42.72V89.97H77.06V40.66C77.06 29.16 74.22 20.16 68.53 13.66C62.84 7.15999 54.94 3.90999 44.81 3.90999V3.89999Z" fill="white"/>
<path d="M212.6 40.46C205.1 38.34 200.01 36.33 197.32 34.46C194.63 32.59 193.29 30.15 193.29 27.15C193.29 24.15 194.48 21.96 196.85 20.21C199.22 18.46 202.41 17.58 206.41 17.58C209.78 17.58 213.32 18.33 217 19.83C220.68 21.33 223.97 23.33 226.84 25.83L235.47 13.83C231.47 10.58 227 8.11 222.06 6.42C217.12 4.73 211.96 3.89 206.59 3.89C197.84 3.89 190.75 6.08 185.31 10.45C179.87 14.83 177.15 20.51 177.15 27.51C177.15 34.51 179.27 39.7 183.52 43.82C187.77 47.94 194.83 51.45 204.71 54.32C211.58 56.32 216.21 58.16 218.59 59.85C220.96 61.54 222.15 63.82 222.15 66.69C222.15 70.06 220.71 72.78 217.84 74.85C214.96 76.91 211.15 77.94 206.4 77.94C201.9 77.94 197.62 77.03 193.56 75.22C189.5 73.41 185.53 70.69 181.65 67.06L172.84 79.06C177.84 83.31 183.12 86.5 188.69 88.62C194.25 90.74 200.16 91.81 206.41 91.81C216.03 91.81 223.75 89.5 229.57 84.87C235.38 80.25 238.29 74.06 238.29 66.31C238.29 59.94 236.2 54.66 232.01 50.47C227.82 46.28 221.35 42.94 212.6 40.44V40.46Z" fill="white"/>
<path d="M299.66 3.89999C294.41 3.89999 289.35 5.20999 284.47 7.83999C279.6 10.47 275.41 14.09 271.91 18.72L269.47 5.77999H254.84V89.97H271.9V35.03C275.02 30.03 278.62 26.19 282.68 23.5C286.74 20.81 290.96 19.47 295.34 19.47C301.46 19.47 306.24 21.53 309.68 25.66C313.12 29.79 314.84 35.47 314.84 42.72V89.97H331.9V40.66C331.9 29.16 329.06 20.16 323.37 13.66C317.68 7.15999 309.78 3.90999 299.65 3.90999L299.66 3.89999Z" fill="white"/>
<path d="M151.98 5.64999L126.77 70.44L101.72 5.76999H83.72L119.63 89.96L105.77 124.39L121.98 123.91L166.41 12.26L169.04 5.76999H168.99L169.04 5.64999H151.98Z" fill="white"/>
<path d="M176.83 111.58C176.83 109.72 176.17 109.02 173.11 109.02V107.7H184.12V109.02C181.45 109.02 180.79 109.72 180.79 111.58V122.43L189.16 112.97C190.28 111.73 190.87 111.03 190.87 109.99C190.87 109.25 189.82 109.02 187.69 109.02V107.7H197.46V109.02C194.94 109.02 193.62 110.34 192.34 111.73L186.22 118.32L193.7 130.45C194.79 132.23 195.48 133.05 198 133.05V134.37H187.34V133.05C188.85 133.05 189.94 132.9 189.94 132.2C189.94 131.08 189.09 130.22 188.35 128.98L183.7 121.35L180.79 124.57V130.5C180.79 132.36 181.45 133.06 184.12 133.06V134.38H173.11V133.06C176.17 133.06 176.83 132.36 176.83 130.5V111.59V111.58Z" fill="white"/>
<path d="M198.1 134.37V133.05C200.35 133.05 201.05 132.66 201.05 131.42V110.88C201.05 109.64 200.35 109.25 198.1 109.25V107.93L204.69 107.7V131.42C204.69 132.66 205.39 133.05 207.64 133.05V134.37H198.11H198.1Z" fill="white"/>
<path d="M208.88 134.37V133.05C211.13 133.05 211.83 132.66 211.83 131.42V119.1C211.83 117.86 211.13 117.47 208.88 117.47V116.15L215.47 115.92V131.42C215.47 132.66 216.17 133.05 218.42 133.05V134.37H208.89H208.88ZM215.39 110.11C215.39 111.35 214.38 112.28 213.22 112.28C212.06 112.28 211.05 111.35 211.05 110.11C211.05 108.87 212.06 107.94 213.22 107.94C214.38 107.94 215.39 108.87 215.39 110.11Z" fill="white"/>
<path d="M244.3 134.37V121.39C244.3 118.68 243.45 117.24 241.01 117.24C239.19 117.24 237.02 118.67 237.02 123.56V131.43C237.02 132.67 237.72 133.06 239.77 133.06V134.38H233.38V121.4C233.38 118.69 232.53 117.25 230.09 117.25C228.27 117.25 226.1 118.68 226.1 123.57V131.44C226.1 132.68 226.8 133.07 229.12 133.07V134.39H219.59V133.07C221.76 133.07 222.46 132.68 222.46 131.44V119.12C222.46 117.88 221.76 117.49 219.59 117.49V116.17L225.87 115.94V119.43H225.95C226.8 117.18 228.47 115.71 230.91 115.71C233.78 115.71 235.68 116.95 236.57 119.86C237.85 116.99 239.86 115.71 242.27 115.71C244.68 115.71 247.97 116.76 247.97 121.72V131.45C247.97 132.69 248.67 133.08 250.8 133.08V134.4H244.33L244.3 134.37Z" fill="white"/>
<path d="M271.23 129.87C271.23 132.39 269.99 134.6 267.24 134.6C264.95 134.6 264.41 133.13 264.1 131.11H264.02C262.93 133.98 260.65 134.83 257.78 134.83C254.91 134.83 252.32 133.4 252.32 130.37C252.32 125.91 260.5 124.13 263.79 123.01V119.41C263.79 117.47 261.27 117.01 259.8 117.01C258.44 117.01 257.32 117.24 256.16 117.98C257.21 118.17 257.83 118.95 257.83 120.03C257.83 121.19 256.9 122.28 255.58 122.28C254.26 122.28 253.33 121.2 253.33 120.03C253.33 117.67 256.39 115.69 259.92 115.69C264.96 115.69 267.44 116.93 267.44 121.04V130.42C267.44 132.36 267.9 132.59 268.64 132.59C269.88 132.59 270.15 130.81 270.15 129.88H271.24L271.23 129.87ZM263.79 124.25C261.08 124.91 256.5 126.85 256.5 130.22C256.5 131.96 257.39 133.2 259.21 133.2C261.65 133.2 263.78 130.91 263.78 127.62V124.25H263.79Z" fill="white"/>
<path d="M271.31 134.37V133.05C273.56 133.05 274.26 132.66 274.26 131.42V119.1C274.26 117.86 273.56 117.47 271.31 117.47V116.15L277.9 115.92V131.42C277.9 132.66 278.6 133.05 280.85 133.05V134.37H271.32H271.31ZM277.82 110.11C277.82 111.35 276.81 112.28 275.65 112.28C274.49 112.28 273.48 111.35 273.48 110.11C273.48 108.87 274.49 107.94 275.65 107.94C276.81 107.94 277.82 108.87 277.82 110.11Z" fill="white"/>
<path d="M288.01 115.92V119.56H288.09C289.48 117.16 291.35 115.68 294.02 115.68C296.69 115.68 299.79 117.11 299.79 122.77V131.41C299.79 132.65 300.49 133.04 302.54 133.04V134.36H296.15V121.42C296.15 118.05 294.48 117.23 293.05 117.23C290.18 117.23 288.32 120.83 288.32 123.78V131.41C288.32 132.65 289.02 133.04 291.34 133.04V134.36H281.92V133.04C283.97 133.04 284.67 132.65 284.67 131.41V119.09C284.67 117.85 283.97 117.46 281.92 117.46V116.14L288 115.91L288.01 115.92Z" fill="white"/>
<path d="M302.47 116.15H311.65V117.47C309.4 117.47 308.9 117.62 308.9 118.59C308.9 119.33 309.64 120.76 313.51 130.33H313.59C317.35 121.34 318.2 119.98 318.2 118.94C318.2 117.7 317.73 117.47 315.56 117.47V116.15H322.92V117.47C321.18 117.47 320.21 118.09 319.66 119.41L313.38 134.37H311.64L305.36 119.41C304.74 117.9 304.28 117.47 302.45 117.47V116.15H302.47Z" fill="white"/>
<path d="M327.89 125.15C327.89 130.5 330.18 133.52 333.51 133.52C336.11 133.52 337.85 131.93 339.32 129.95L340.25 130.57C338.51 133.13 336.37 134.83 332.23 134.83C327.42 134.83 323.7 130.41 323.7 125.26C323.7 120.11 327.42 115.69 332.23 115.69C336.76 115.69 340.45 118.87 340.45 125.15H327.89ZM336.5 123.83C336.5 121.04 335.96 117.01 332.16 117.01C328.36 117.01 327.9 121.04 327.9 123.83H336.5Z" fill="white"/>
<path d="M342.81 134.6V127.93H343.89C344.7 131.22 347.22 133.51 350.67 133.51C352.49 133.51 354.82 132.39 354.82 130.29C354.82 124.9 342.92 128 342.92 121.07C342.92 117.66 345.98 115.68 349.51 115.68C352.8 115.68 353.89 117 354.55 117C355.17 117 355.36 116.38 355.44 115.99H356.76V121.65H355.44C354.28 118.74 352.88 117 349.55 117C347.84 117 346.02 117.7 346.02 119.64C346.02 124.37 357.92 121.38 357.92 128.55C357.92 132.7 354.51 134.83 350.71 134.83C347.18 134.83 346.14 133.36 344.94 133.36C344.24 133.36 344.05 134.14 343.89 134.6H342.81Z" fill="white"/>
<path d="M365.52 110.11V116.16H370.91V117.48H365.52V131.51C365.52 133.14 366.53 133.53 367.65 133.53C369.16 133.53 370.48 132.44 370.48 129.34V128.53H371.56V129.19C371.56 132.68 370.51 134.85 366.68 134.85C363.97 134.85 361.87 133.96 361.87 130.12V117.49H359.04V116.17C362.64 115.86 363.11 114.85 364.12 110.12H365.52V110.11Z" fill="white"/>
<path d="M377.38 125.15C377.38 130.5 379.67 133.52 383 133.52C385.6 133.52 387.34 131.93 388.81 129.95L389.74 130.57C388 133.13 385.86 134.83 381.72 134.83C376.91 134.83 373.19 130.41 373.19 125.26C373.19 120.11 376.91 115.69 381.72 115.69C386.25 115.69 389.94 118.87 389.94 125.15H377.38ZM385.98 123.83C385.98 121.04 385.44 117.01 381.64 117.01C377.84 117.01 377.38 121.04 377.38 123.83H385.98Z" fill="white"/>
<path d="M402.03 134.37H391.8V133.05C394.05 133.05 394.75 132.66 394.75 131.42V119.1C394.75 117.86 394.05 117.47 391.96 117.47V116.15L398.12 115.92V121.19H398.2C399.01 118.09 400.29 115.69 403.51 115.69C405.64 115.69 406.57 117.2 406.57 118.36C406.57 119.41 405.72 120.41 404.52 120.41C403.32 120.41 402.62 119.67 402.62 118.59C402.62 117.97 402.89 117.43 403.43 117.08C403.27 117.04 403.16 117 402.93 117C400.33 117 398.4 121.77 398.4 129.13C398.4 132.35 398.63 133.04 402.04 133.04V134.36L402.03 134.37Z" fill="white"/>
<path d="M406.95 134.37V133.05C409.2 133.05 409.9 132.66 409.9 131.42V119.1C409.9 117.86 409.2 117.47 406.95 117.47V116.15L413.54 115.92V131.42C413.54 132.66 414.24 133.05 416.49 133.05V134.37H406.96H406.95ZM413.46 110.11C413.46 111.35 412.45 112.28 411.29 112.28C410.13 112.28 409.12 111.35 409.12 110.11C409.12 108.87 410.13 107.94 411.29 107.94C412.45 107.94 413.46 108.87 413.46 110.11Z" fill="white"/>
<path d="M423.65 115.92V119.56H423.73C425.12 117.16 426.99 115.68 429.66 115.68C432.33 115.68 435.43 117.11 435.43 122.77V131.41C435.43 132.65 436.13 133.04 438.18 133.04V134.36H431.79V121.42C431.79 118.05 430.12 117.23 428.69 117.23C425.82 117.23 423.96 120.83 423.96 123.78V131.41C423.96 132.65 424.66 133.04 426.98 133.04V134.36H417.56V133.04C419.61 133.04 420.31 132.65 420.31 131.41V119.09C420.31 117.85 419.61 117.46 417.56 117.46V116.14L423.64 115.91L423.65 115.92Z" fill="white"/>
<path d="M444.7 133.01C443.03 132.97 440.9 132.39 440.9 130.34C440.9 128.64 443.88 127.47 445.28 127.2V127.12C442.8 126.27 440.67 124.41 440.67 121.58C440.67 118.75 443.46 115.69 447.76 115.69C449.97 115.69 451.05 116 452.06 116.54C452.06 114.68 453.14 113.59 455.01 113.59C456.17 113.59 457.37 113.98 457.37 115.76C457.37 116.61 456.71 117.31 455.82 117.31C454.93 117.31 454.27 116.81 454.27 116.03C454.27 115.64 454.35 115.29 454.39 115.1C454.27 115.06 454.16 115.06 454.08 115.06C453.69 115.06 453.07 115.56 453.07 116.53V117.03C453.88 117.61 454.47 118.27 454.89 118.97C455.32 119.67 455.55 120.48 455.55 121.49C455.55 123.97 453.34 127.19 449.5 127.46C445.08 127.77 443.76 128.2 443.76 129.24C443.76 131.88 457.32 128.46 457.32 135.6C457.32 140.21 451.89 142.19 447.86 142.19C443.21 142.19 439.49 140.02 439.49 137.23C439.49 134.87 442.44 133.24 444.68 133.08V133L444.7 133.01ZM447.87 140.88C452.13 140.88 454.54 138.98 454.54 136.89C454.54 134.99 452.29 133.75 447.45 133.75C443.85 133.75 442.3 135.3 442.3 136.81C442.3 138.98 444.86 140.88 447.88 140.88H447.87ZM444.62 121.7C444.62 124.88 446.01 126.39 448.11 126.39C450.21 126.39 451.6 124.88 451.6 121.7C451.6 118.52 450.21 117.01 448.11 117.01C446.01 117.01 444.62 118.52 444.62 121.7Z" fill="white"/>
<path d="M463.53 125.15C463.53 130.5 465.82 133.52 469.15 133.52C471.75 133.52 473.49 131.93 474.96 129.95L475.89 130.57C474.15 133.13 472.01 134.83 467.87 134.83C463.06 134.83 459.34 130.41 459.34 125.26C459.34 120.11 463.06 115.69 467.87 115.69C472.4 115.69 476.09 118.87 476.09 125.15H463.53ZM472.13 123.83C472.13 121.04 471.59 117.01 467.79 117.01C463.99 117.01 463.53 121.04 463.53 123.83H472.13Z" fill="white"/>
<path d="M488.18 134.37H477.95V133.05C480.2 133.05 480.9 132.66 480.9 131.42V119.1C480.9 117.86 480.2 117.47 478.11 117.47V116.15L484.27 115.92V121.19H484.35C485.16 118.09 486.44 115.69 489.66 115.69C491.79 115.69 492.72 117.2 492.72 118.36C492.72 119.41 491.87 120.41 490.67 120.41C489.47 120.41 488.77 119.67 488.77 118.59C488.77 117.97 489.04 117.43 489.58 117.08C489.42 117.04 489.31 117 489.08 117C486.48 117 484.55 121.77 484.55 129.13C484.55 132.35 484.78 133.04 488.19 133.04V134.36L488.18 134.37Z" fill="white"/>
</svg>
