<?xml version="1.0" encoding="utf-8"?>
<!-- Generator: Adobe Illustrator 25.2.3, SVG Export Plug-In . SVG Version: 6.00 Build 0)  -->
<svg version="1.1" id="Layer_1" xmlns="http://www.w3.org/2000/svg" xmlns:xlink="http://www.w3.org/1999/xlink" x="0px" y="0px"
	 viewBox="0 0 266 26" style="enable-background:new 0 0 266 26;" xml:space="preserve">
<style type="text/css">
	.st0{fill:#0F5EA6;}
</style>
<g>
	<path class="st0" d="M28.5,16.9V1.1h4.6v15.4c0,2.2,1.2,4,4.4,4c3.2,0,4.2-1.8,4.2-4V1.1h4.7v15.8c0,5.1-3.8,8.1-8.9,8.1
		C32.3,25,28.4,22,28.5,16.9"/>
	<polygon class="st0" points="64.9,20.1 60.2,24.6 51.3,24.6 51.3,1.1 55.9,1.1 55.9,20.1 	"/>
	<path class="st0" d="M67.7,16.9V1.1h4.6v15.4c0,2.2,1.2,4,4.4,4c3.2,0,4.4-1.6,4.4-4V1.1h4.6v15.8c0,5.1-3.8,8.1-8.9,8.1
		C71.6,25,67.7,22,67.7,16.9"/>
	<polygon class="st0" points="108.8,1.1 108.8,24.6 105.3,24.6 95.3,10.2 95.3,24.6 90.7,24.6 90.7,1.1 94.2,1.1 104.2,15.4 
		104.2,1.1 	"/>
	<polygon class="st0" points="141.3,20.1 141.3,24.6 126.8,24.6 126.8,1.1 141,1.1 136.5,5.5 131.4,5.5 131.4,10.5 140.2,10.5 
		140.2,14.9 131.4,14.9 131.4,20.1 	"/>
	<polygon class="st0" points="163.5,1.1 163.5,24.6 160,24.6 150,10.2 150,24.6 145.4,24.6 145.4,1.1 148.8,1.1 158.9,15.4 
		158.9,1.1 	"/>
	<polygon class="st0" points="183.2,20.1 183.2,24.6 168.7,24.6 168.7,1.1 183,1.1 178.4,5.5 173.3,5.5 173.3,10.5 182.1,10.5 
		182.1,14.9 173.3,14.9 173.3,20.1 	"/>
	<path class="st0" d="M191.9,12.3h4.7c1.8,0,3.2-1.5,3.2-3.5s-1.4-3.4-3.2-3.4h-4.7V12.3z M195.4,16.4h-3.5v8.1h-4.6V1.1h9.4
		c4.2,0,7.8,3.4,7.8,7.8l0,0c0,2.9-1.9,5.5-4.5,6.8l5.2,8.8h-4.9L195.4,16.4z"/>
	<rect x="234.9" y="1.1" class="st0" width="4.6" height="23.4"/>
	<path class="st0" d="M253.6,6.4l3.2,9.5h-6.5L253.6,6.4z M250.8,1.1l-8.2,23.4h4.9l1.4-4.2h9.3l1.4,4.2h5.1l-8.2-23.4L250.8,1.1z"
		/>
	<path class="st0" d="M224,12h-4.5v4.1h7.1c-0.6,2-2,3.4-4.1,4.1c-0.8,0.2-1.8,0.4-2.7,0.4c-0.9,0-1.8-0.1-2.7-0.4
		c-0.7-0.2-1.4-0.5-2-0.9c-2.1-1.3-3.3-3.6-3.3-6.4c0-2.8,1.3-5.2,3.3-6.5c0.6-0.4,1.2-0.6,1.8-0.8c0.8-0.2,1.6-0.4,2.6-0.4
		c0.4,0,0.7,0,1.1,0.1l3.8-3.6c-0.5-0.2-0.9-0.4-1.4-0.5c-2.2-0.6-4.6-0.6-6.9,0c-2.1,0.6-4,1.8-5.5,3.3c-2.1,2.2-3.3,5.3-3.3,8.5
		c0,3.1,1.2,6.1,3.3,8.4c1.5,1.6,3.5,2.7,5.7,3.3c1.2,0.4,2.4,0.5,3.5,0.5s2.5-0.1,3.6-0.5c0.6-0.1,1.1-0.4,1.6-0.6
		c3.9-1.6,6.2-5.4,6.2-10.1v-1.8L224,12z"/>
	<path class="st0" d="M23.2,6l-3.4,3.2c0.2,0.6,0.5,1.2,0.7,1.8c1.2,4.4-1.3,8.2-5.3,9.3S7.1,19,5.9,14.8c-1.2-4.4,1.2-8.2,5.3-9.4
		c0.6-0.1,1.1-0.2,1.6-0.2l-0.4,5.4l8.2-7.3L20.4,3c-2.1-1.6-4.7-2.5-7.4-2.4l0,0c-1.1,0-2,0.1-2.9,0.5C3.5,2.9-0.3,9.4,1.4,16
		c1.6,6.5,8.2,10.5,14.7,8.8s10.5-8.2,8.8-14.7c0-0.1-0.1-0.2-0.1-0.4C24.5,8.3,24,7,23.2,6"/>
</g>
</svg>
