<?xml version="1.0" encoding="UTF-8"?>
<svg id="Layer_1" data-name="Layer 1" xmlns="http://www.w3.org/2000/svg" viewBox="0 0 142.43 41.23">
  <defs>
    <style>
      .cls-1 {
        fill: #900;
        stroke-width: 0px;
      }
    </style>
  </defs>
  <path class="cls-1" d="m19.82,15.64s-3.25-.01-3.33-.01V4.36c.13,0,3.35,0,3.35,0,4.12,0,8.5,1.18,8.5,5.75s-4.38,5.53-8.52,5.53M21.6.33h-10.05C3.84.33.35,2.94.35,9.66v15.71c0,.46.4.83.9.83h14.37c.5,0,.88-.36.88-.83v-5.7h5.08c15,0,23.68-1.96,23.68-9.64S36.57.33,21.6.33"/>
  <path class="cls-1" d="m63.37.33c-7.56,0-11.13,2.66-11.13,9.29v15.75c0,.46.39.83.88.83h14.64c.52,0,.88-.36.88-.83v-7.86h17.25c.5,0,.88-.37.88-.83v-2.8c0-.44-.39-.83-.88-.83h-17.25s0-8.01,0-8.01h20.13c.51,0,.89-.38.89-.83V1.16c0-.49-.36-.83-.89-.83h-25.4Z"/>
  <path class="cls-1" d="m103.49,16.55l6.85-11.09,6.84,11.09h-13.68Zm38.46,8.61l-13.24-19.74c-2.84-4.17-4.12-5.23-11.14-5.23h-2.82c-7.21,0-8.69,2.59-10.15,4.73l-13.56,20.28c-.29.44-.18.99.51.99h5.22c.72,0,.91-.19,1.27-.78l3.06-4.95h18.5l2.94,4.78c.47.77.84.96,1.94.96h16.96c.63,0,.82-.61.53-1.04"/>
</svg>