<?xml version="1.0" encoding="UTF-8"?>
<svg id="Layer_2" data-name="Layer 2" xmlns="http://www.w3.org/2000/svg" viewBox="0 0 617.4 145.88">
  <defs>
    <style>
      .cls-1 {
        fill: none;
      }
    </style>
  </defs>
  <g id="Layer_1-2" data-name="Layer 1">
    <g>
      <rect class="cls-1" y=".2" width="617.4" height="145.68"/>
      <g id="uuid-17b3d371-3321-4608-ab30-e29be5114a63" data-name="Layer 1-2">
        <g>
          <g>
            <g>
              <path d="M0,2.63h42.68c19.78,0,33.87,12.23,33.87,31.68s-14.77,31.68-33.6,31.68h-24.52v38.76H0V2.63ZM42.41,49.04c9.62,0,15.72-5.97,15.72-14.73s-5.83-14.73-15.58-14.73h-24.12v29.46s23.98,0,23.98,0Z"/>
              <path d="M89.01,75.85l17.34-8.2c0,14.03,8.94,22.93,23.57,22.93,11.52,0,20.05-5.42,20.05-14.17,0-23.76-58.53-4.72-58.53-45.29,0-18.76,16.8-31.12,37.39-31.12,22.08,0,36.18,12.92,38.48,29.04l-16.53,7.36c0-11.81-8.54-20.15-21.95-20.15-10.97,0-18.83,5.14-18.83,13.62,0,23.48,58.53,4.45,58.53,45.85,0,19.87-16.94,31.12-38.61,31.12s-37.94-10.98-40.92-30.98h0Z"/>
              <path d="M178.02,2.63h20.19l26.83,78.36L252,2.63h20.05l-36.72,102.12h-21.14L178.02,2.63Z"/>
            </g>
            <path d="M261.84,94.16h9.06v2.03h-3.43v8.56h-2.25v-8.56h-3.38v-2.03ZM283.24,94.16v10.59h-2.22v-7.21l-2.35,7.08h-1.98l-2.35-7.05v7.19h-2.25v-10.59h3.06l2.51,7.9,2.56-7.9h3.02Z"/>
          </g>
          <g>
            <path d="M393.33,13.29h-33.78v91.46h-11.68V13.29h-33.78V2.59h79.23v10.7h0Z"/>
            <path d="M456.99,72.37h-58.24c.65,7.78,3.24,13.78,7.78,18s10.24,6.33,17.1,6.33c11.58,0,19.5-4.91,23.77-14.73l8.76,7.37c-3.06,5.84-7.53,10.22-13.41,13.13-5.89,2.92-12.3,4.38-19.25,4.38s-13.6-1.6-19.11-4.8c-5.51-3.2-9.8-7.69-12.86-13.48s-4.59-12.44-4.59-19.95,1.53-13.76,4.59-19.6,7.3-10.42,12.72-13.76,11.47-5,18.14-5c7.13,0,13.34,1.55,18.63,4.66,5.28,3.11,9.31,7.46,12.09,13.07s4.17,12.07,4.17,19.39c0,1.11-.09,2.78-.28,5h-.01ZM406.81,46.38c-4.36,3.99-7,9.59-7.92,16.82h46.01c0-7.04-2.06-12.6-6.19-16.68-4.12-4.08-9.57-6.12-16.33-6.12-6.03,0-11.21,1.99-15.57,5.98Z"/>
            <path d="M527.88,35.6c5.84,3.57,9.91,8.18,12.23,13.83l-10.01,6.25c-1.3-4.73-3.99-8.38-8.06-10.98-4.08-2.59-8.67-3.89-13.76-3.89-7.97,0-14.39,2.55-19.25,7.65-4.87,5.1-7.3,11.81-7.3,20.16s2.36,15.15,7.09,20.15,11.21,7.51,19.46,7.51c5.28,0,9.98-1.41,14.11-4.24,4.12-2.83,6.83-6.37,8.13-10.63l9.73,6.39c-2.41,5.65-6.56,10.24-12.44,13.76-5.89,3.52-12.4,5.28-19.53,5.28s-14.02-1.58-19.81-4.73-10.31-7.62-13.55-13.41c-3.25-5.79-4.87-12.49-4.87-20.08s1.64-14.04,4.93-19.88c3.29-5.84,7.85-10.38,13.69-13.62,5.84-3.24,12.37-4.87,19.6-4.87s13.76,1.79,19.6,5.35h.01Z"/>
            <path d="M610.1,38.11c4.87,5.14,7.3,12.3,7.3,21.48v45.17h-11.4v-43.51c0-6.76-1.58-11.88-4.73-15.36-3.15-3.48-7.78-5.21-13.9-5.21-6.77,0-12.12,2.15-16.05,6.46-3.94,4.31-5.91,10.45-5.91,18.42v39.2h-11.4V2.59h11.4v40.45c5-8.43,13.07-12.65,24.19-12.65,8.8,0,15.64,2.57,20.5,7.71h0Z"/>
          </g>
        </g>
      </g>
    </g>
  </g>
</svg>