<?xml version="1.0" encoding="UTF-8"?>
<svg xmlns="http://www.w3.org/2000/svg" width="84" height="36" viewBox="0 0 202 87" fill="none">
  <path d="M37.7002 0C59.3534 9.48514e-05 75.4004 15.95 75.4004 35.7666C75.4004 46.3033 71.0502 54.0368 66.7002 58.9668C64.0902 61.8668 61.19 64.2835 58 66.2168C58.87 67.2801 59.8371 68.1505 61.0938 68.9238C63.317 70.3736 66.4103 71.5332 71.0498 71.5332C72.4998 71.5332 73.3702 71.4365 74.0469 71.3398L74.917 71.0498V86.5166L73.8535 86.8066C73.1768 86.9033 72.2098 87 71.0498 87C60.1266 87 52.7796 83.1332 48.1396 79.2666C45.4331 77.0433 43.2097 74.4331 41.5664 71.5332H37.7002C16.0469 71.5332 0 55.5833 0 35.7666C3.72739e-05 15.95 16.0469 0 37.7002 0ZM135.413 18.3662H116.562V69.5996H98.1963V18.3662H79.3457V1.93359H135.413V18.3662ZM143.188 59.5342H139.635V69.5996H137.774V59.5342H134.222V57.7588H143.188V59.5342ZM155.119 59.5342H148.606V62.5791H153.766V64.3555H148.606V67.8242H155.288V69.5996H146.745V57.7588H155.119V59.5342ZM161.131 63.5098L166.46 57.7588H168.828L164.261 62.6641L169.166 69.5996H166.883L162.992 64.0176L161.131 66.0479V69.5996H159.271V57.7588H161.131V63.5098ZM180.747 59.5342H174.234V62.5791H179.394V64.3555H174.234V67.8242H180.916V69.5996H172.373V57.7588H180.747V59.5342ZM186.759 67.8242H192.511V69.5996H184.898V57.7588H186.759V67.8242ZM37.7002 16.917C27.0669 16.917 18.8496 25.23 18.8496 35.7666C18.8496 46.3999 27.0669 54.6162 37.7002 54.6162C48.2368 54.6161 56.5498 46.3999 56.5498 35.7666C56.5498 25.23 48.2368 16.9171 37.7002 16.917ZM141.073 38.2559C144.626 38.256 147.332 40.9625 147.332 44.3457C147.332 46.3248 146.503 47.6783 145.641 48.541C145.15 49.0484 144.575 49.4543 143.949 49.7588C144.135 50.0464 144.372 50.3006 144.659 50.5205C145.15 50.9096 145.894 51.2812 146.909 51.2812C147.112 51.2812 147.315 51.2649 147.45 51.248L147.671 51.1973V52.8037L147.434 52.8545C147.281 52.8714 147.078 52.8887 146.824 52.8887C145.2 52.8886 144.05 52.2798 143.289 51.6201C142.832 51.248 142.46 50.8251 142.173 50.3516L141.817 50.4023C141.598 50.4193 141.327 50.4355 141.073 50.4355C137.521 50.4355 134.813 47.729 134.813 44.3457C134.814 40.9624 137.521 38.2559 141.073 38.2559ZM153.162 45.5303C153.162 47.3909 154.515 48.744 156.291 48.7441C157.983 48.7441 159.421 47.3064 159.421 45.5303V38.4248H161.281V45.5303C161.281 48.406 159.251 50.4355 156.291 50.4355C153.331 50.4354 151.301 48.4059 151.301 45.5303V38.4248H153.162V45.5303ZM175.661 50.2666H173.716L172.531 47.2217H167.287L166.103 50.2666H164.157L168.895 38.4248H170.924L175.661 50.2666ZM187.252 47.1367V38.4248H189.113V50.2666H187.421L180.908 41.5547V50.2666H179.048V38.4248H180.739L187.252 47.1367ZM201.63 40.2012H198.077V50.2666H196.217V40.2012H192.664V38.4248H201.63V40.2012ZM141.073 39.9473C138.62 39.9473 136.675 41.8928 136.675 44.3457C136.675 46.7986 138.62 48.7441 141.073 48.7441C143.526 48.744 145.472 46.7985 145.472 44.3457C145.472 41.893 143.526 39.9474 141.073 39.9473ZM167.964 45.5303H171.854L169.909 40.624L167.964 45.5303Z" fill="white"></path>
</svg>
