<?xml version="1.0" encoding="UTF-8" standalone="no"?>
<svg width="250px" height="61px" viewBox="0 0 250 61" version="1.1" xmlns="http://www.w3.org/2000/svg" xmlns:xlink="http://www.w3.org/1999/xlink">
    <!-- Generator: Sketch 39.1 (31720) - http://www.bohemiancoding.com/sketch -->
    <title>Page 1</title>
    <desc>Created with Sketch.</desc>
    <defs>
        <polygon id="path-1" points="40.563 0.0003 0 0.0003 0 30.43065 0 60.861 40.563 60.861 40.563 0.0003"></polygon>
        <polygon id="path-3" points="60.8833 0.0003 20.3203 0.0003 20.3203 60.861 60.8833 60.861 60.8833 0.0003"></polygon>
    </defs>
    <g id="Rarik-Desktop" stroke="none" stroke-width="1" fill="none" fill-rule="evenodd">
        <g id="Rarik-Article-Detail" transform="translate(-100.000000, -1773.000000)">
            <g id="Page-1" transform="translate(100.000000, 1773.000000)">
                <path d="M169.0977,23.3027 L169.0977,33.4937 L172.8027,33.4937 C175.1697,33.4937 176.8207,33.0837 178.0547,32.2597 C179.1897,31.4357 179.7027,30.1987 179.7027,28.5587 C179.7027,26.6977 179.0837,25.3637 177.8457,24.5347 C176.5077,23.7167 174.4517,23.3027 171.6717,23.3027 L169.0977,23.3027 Z M158.5917,16.2007 L174.5547,16.2007 C179.8077,16.2007 183.7227,17.1247 186.2887,18.7737 C188.8657,20.5257 190.2087,23.1017 190.2087,26.6977 C190.2087,29.2737 189.4847,31.3357 188.1467,33.0837 C186.8067,34.7267 184.8537,35.8657 182.2757,36.3787 C184.3367,37.2027 186.0847,39.3647 187.3227,42.9667 L192.1617,56.2407 L181.0407,56.2407 L177.5407,45.3277 C176.9217,43.5837 176.2017,42.3477 175.1697,41.6267 C174.2457,41.0097 172.7027,40.5997 170.6407,40.5997 L169.0977,40.5997 L169.0977,56.2407 L158.5917,56.2407 L158.5917,16.2007 Z M195.7457,56.2397 L206.4567,56.2397 L206.4567,16.2007 L195.7457,16.2007 L195.7457,56.2397 Z M136.2107,25.1547 L130.9587,40.1907 L141.1537,40.1907 L136.2107,25.1547 Z M129.9287,16.2007 L142.8007,16.2007 L158.0407,56.2407 L146.6097,56.2407 L143.7247,47.8047 L128.2817,47.8047 L125.2947,56.2407 L114.7927,56.2407 L129.9287,16.2007 Z M91.5817,23.3027 L91.5817,33.4937 L95.3927,33.4937 C97.6567,33.4937 99.4077,33.0837 100.5407,32.2597 C101.7797,31.4357 102.2887,30.1987 102.2887,28.5587 C102.2887,26.6977 101.6737,25.3637 100.3317,24.5347 C99.0997,23.7167 97.0387,23.3027 94.2577,23.3027 L91.5817,23.3027 Z M81.1817,16.2007 L97.0387,16.2007 C102.3947,16.2007 106.3047,17.1247 108.8807,18.7737 C111.4527,20.5257 112.6897,23.1017 112.6897,26.6977 C112.6897,29.2737 112.0747,31.3357 110.7347,33.0837 C109.3947,34.7267 107.4377,35.8657 104.8657,36.3787 C106.9257,37.2027 108.6767,39.3647 109.9117,42.9667 L114.7487,56.2407 L103.5297,56.2407 L100.0287,45.3277 C99.5117,43.5837 98.6877,42.3477 97.7597,41.6267 C96.7327,41.0097 95.2897,40.5997 93.1277,40.5997 L91.5817,40.5997 L91.5817,56.2407 L81.1817,56.2407 L81.1817,16.2007 Z M212.9887,16.2007 L223.7017,16.2007 L223.7017,33.4937 L236.1567,16.2007 L248.1037,16.2007 L233.3787,34.6317 L249.5427,56.2407 L236.3637,56.2407 L223.7017,37.7127 L223.7017,56.2407 L212.9887,56.2407 L212.9887,16.2007 Z" id="Fill-1" fill="#FFFFFF"></path>
                <mask id="mask-2" fill="white">
                    <use xlink:href="#path-1"></use>
                </mask>
                <g id="Clip-4"></g>
                <polygon id="Fill-3" fill="#FFFFFF" mask="url(#mask-2)" points="0 0 40.563 40.545 20.318 40.545 40.563 60.861 0 60.861"></polygon>
                <mask id="mask-4" fill="white">
                    <use xlink:href="#path-3"></use>
                </mask>
                <g id="Clip-7"></g>
                <polygon id="Fill-6" fill="#FFFFFF" mask="url(#mask-4)" points="20.3203 0 60.8833 0 60.8833 60.861 40.5623 40.545 60.8833 40.545"></polygon>
            </g>
        </g>
    </g>
</svg>