<svg width="311" height="311" viewBox="0 0 311 311" fill="none" xmlns="http://www.w3.org/2000/svg">
<circle cx="155.162" cy="155.162" r="154.537" stroke="#06FF48" stroke-width="1.24967"/>
<circle cx="155.162" cy="155.162" r="154.537" stroke="#06FF48" stroke-width="1.24967"/>
<circle cx="155.161" cy="155.162" r="89.8864" stroke="#06FF48" stroke-width="1.24967"/>
<mask id="path-4-inside-1_650_31988" fill="white">
<path d="M153.009 101.286V223.044L96.9775 183.177L142.233 151.929L115.295 132.534L120.683 123.914L142.233 138.999V101.286H153.009ZM114.218 183.179L143.311 202.575V163.785L114.218 183.179Z"/>
</mask>
<path d="M153.009 101.286V223.044L96.9775 183.177L142.233 151.929L115.295 132.534L120.683 123.914L142.233 138.999V101.286H153.009ZM114.218 183.179L143.311 202.575V163.785L114.218 183.179Z" fill="#06FF48"/>
<path d="M153.009 101.286H154.747V99.5472H153.009V101.286ZM153.009 223.044L152.001 224.461L154.747 226.415V223.044H153.009ZM96.9775 183.177L95.9898 181.747L93.9488 183.156L95.9697 184.594L96.9775 183.177ZM142.233 151.929L143.221 153.36L145.25 151.959L143.249 150.518L142.233 151.929ZM115.295 132.534L113.821 131.612L112.958 132.993L114.279 133.945L115.295 132.534ZM120.683 123.914L121.68 122.489L120.179 121.439L119.208 122.992L120.683 123.914ZM142.233 138.999L141.236 140.423L143.972 142.337V138.999H142.233ZM142.233 101.286V99.5472H140.495V101.286H142.233ZM114.218 183.179L113.253 181.733L111.084 183.179L113.253 184.626L114.218 183.179ZM143.311 202.575L142.346 204.021L145.049 205.823V202.575H143.311ZM143.311 163.785H145.049V160.536L142.346 162.338L143.311 163.785ZM153.009 101.286H151.27V223.044H153.009H154.747V101.286H153.009ZM153.009 223.044L154.017 221.628L97.9854 181.761L96.9775 183.177L95.9697 184.594L152.001 224.461L153.009 223.044ZM96.9775 183.177L97.9653 184.608L143.221 153.36L142.233 151.929L141.246 150.499L95.9898 181.747L96.9775 183.177ZM142.233 151.929L143.249 150.518L116.311 131.123L115.295 132.534L114.279 133.945L141.218 153.34L142.233 151.929ZM115.295 132.534L116.769 133.455L122.157 124.835L120.683 123.914L119.208 122.992L113.821 131.612L115.295 132.534ZM120.683 123.914L119.686 125.338L141.236 140.423L142.233 138.999L143.23 137.574L121.68 122.489L120.683 123.914ZM142.233 138.999H143.972V101.286H142.233H140.495V138.999H142.233ZM142.233 101.286V103.024H153.009V101.286V99.5472H142.233V101.286ZM114.218 183.179L113.253 184.626L142.346 204.021L143.311 202.575L144.275 201.128L115.182 181.733L114.218 183.179ZM143.311 202.575H145.049V163.785H143.311H141.572V202.575H143.311ZM143.311 163.785L142.346 162.338L113.253 181.733L114.218 183.179L115.182 184.626L144.275 165.231L143.311 163.785Z" fill="#06FF48" mask="url(#path-4-inside-1_650_31988)"/>
<mask id="path-6-inside-2_650_31988" fill="white">
<path d="M156.241 207.961L156.241 86.2021L212.272 126.069L167.016 157.317L193.955 176.713L188.567 185.333L167.016 170.248L167.016 207.961L156.241 207.961ZM195.031 126.069L165.938 106.674L165.938 145.465L195.031 126.069Z"/>
</mask>
<path d="M156.241 207.961L156.241 86.2021L212.272 126.069L167.016 157.317L193.955 176.713L188.567 185.333L167.016 170.248L167.016 207.961L156.241 207.961ZM195.031 126.069L165.938 106.674L165.938 145.465L195.031 126.069Z" fill="#06FF48"/>
<path d="M156.241 207.961L154.502 207.961L154.502 209.699L156.241 209.699L156.241 207.961ZM156.241 86.2021L157.249 84.7856L154.503 82.8316L154.503 86.2021L156.241 86.2021ZM212.272 126.069L213.26 127.5L215.301 126.091L213.28 124.653L212.272 126.069ZM167.016 157.317L166.029 155.887L164 157.288L166.001 158.728L167.016 157.317ZM193.955 176.713L195.429 177.634L196.292 176.253L194.971 175.302L193.955 176.713ZM188.567 185.333L187.57 186.757L189.071 187.807L190.041 186.254L188.567 185.333ZM167.016 170.248L168.013 168.824L165.278 166.909L165.278 170.248L167.016 170.248ZM167.016 207.961L167.016 209.699L168.755 209.699L168.755 207.961L167.016 207.961ZM195.031 126.069L195.995 127.516L198.165 126.069L195.995 124.623L195.031 126.069ZM165.938 106.674L166.903 105.227L164.2 103.425L164.2 106.674L165.938 106.674ZM165.938 145.465L164.2 145.465L164.2 148.713L166.903 146.911L165.938 145.465ZM156.241 207.961L157.979 207.961L157.979 86.2021L156.241 86.2021L154.503 86.2021L154.502 207.961L156.241 207.961ZM156.241 86.2021L155.233 87.6186L211.264 127.486L212.272 126.069L213.28 124.653L157.249 84.7856L156.241 86.2021ZM212.272 126.069L211.284 124.639L166.029 155.887L167.016 157.317L168.004 158.748L213.26 127.5L212.272 126.069ZM167.016 157.317L166.001 158.728L192.939 178.124L193.955 176.713L194.971 175.302L168.032 155.907L167.016 157.317ZM193.955 176.713L192.481 175.791L187.093 184.412L188.567 185.333L190.041 186.254L195.429 177.634L193.955 176.713ZM188.567 185.333L189.564 183.909L168.013 168.824L167.016 170.248L166.019 171.672L187.57 186.757L188.567 185.333ZM167.016 170.248L165.278 170.248L165.278 207.961L167.016 207.961L168.755 207.961L168.755 170.248L167.016 170.248ZM167.016 207.961L167.016 206.222L156.241 206.222L156.241 207.961L156.241 209.699L167.016 209.699L167.016 207.961ZM195.031 126.069L195.995 124.623L166.903 105.227L165.938 106.674L164.974 108.12L194.067 127.516L195.031 126.069ZM165.938 106.674L164.2 106.674L164.2 145.465L165.938 145.465L167.677 145.465L167.677 106.674L165.938 106.674ZM165.938 145.465L166.903 146.911L195.995 127.516L195.031 126.069L194.067 124.623L164.974 144.018L165.938 145.465Z" fill="#06FF48" mask="url(#path-6-inside-2_650_31988)"/>
<circle cx="155.163" cy="155.164" r="120.057" stroke="#06FF48" stroke-width="1.24967"/>
<path d="M155.162 21.5515L155.162 43.1018" stroke="#06FF48" stroke-width="1.24967"/>
<path d="M155.162 267.226L155.162 288.776" stroke="#06FF48" stroke-width="1.24967"/>
<path d="M288.772 155.163L267.222 155.163" stroke="#06FF48" stroke-width="1.24967"/>
<path d="M43.0977 155.163L21.5474 155.163" stroke="#06FF48" stroke-width="1.24967"/>
<path d="M249.638 249.642L234.399 234.404" stroke="#06FF48" stroke-width="1.24967"/>
<path d="M75.9231 75.924L60.6847 60.6856" stroke="#06FF48" stroke-width="1.24967"/>
<path d="M60.6826 249.642L75.921 234.404" stroke="#06FF48" stroke-width="1.24967"/>
<path d="M234.401 75.924L249.639 60.6856" stroke="#06FF48" stroke-width="1.24967"/>
<path d="M221.965 39.453L211.19 58.1161" stroke="#06FF48" stroke-width="1.24967"/>
<path d="M99.1306 252.212L88.3555 270.875" stroke="#06FF48" stroke-width="1.24967"/>
<path d="M270.873 221.97L252.21 211.195" stroke="#06FF48" stroke-width="1.24967"/>
<path d="M58.1125 99.1326L39.4494 88.3574" stroke="#06FF48" stroke-width="1.24967"/>
<path d="M189.743 284.224L184.166 263.408" stroke="#06FF48" stroke-width="1.24967"/>
<path d="M126.157 46.9196L120.58 26.1036" stroke="#06FF48" stroke-width="1.24967"/>
<path d="M26.1008 189.745L46.9168 184.167" stroke="#06FF48" stroke-width="1.24967"/>
<path d="M263.404 126.159L284.22 120.581" stroke="#06FF48" stroke-width="1.24967"/>
<path d="M270.873 88.3582L252.21 99.1333" stroke="#06FF48" stroke-width="1.24967"/>
<path d="M58.1125 211.193L39.4494 221.968" stroke="#06FF48" stroke-width="1.24967"/>
<path d="M221.965 270.873L211.19 252.21" stroke="#06FF48" stroke-width="1.24967"/>
<path d="M99.1306 58.1145L88.3555 39.4514" stroke="#06FF48" stroke-width="1.24967"/>
<path d="M120.579 284.224L126.156 263.408" stroke="#06FF48" stroke-width="1.24967"/>
<path d="M184.165 46.9196L189.742 26.1036" stroke="#06FF48" stroke-width="1.24967"/>
<path d="M26.1008 120.581L46.9168 126.159" stroke="#06FF48" stroke-width="1.24967"/>
<path d="M263.404 184.167L284.22 189.745" stroke="#06FF48" stroke-width="1.24967"/>
</svg>