<svg id="Logo" xmlns="http://www.w3.org/2000/svg" viewBox="0 0 369.93 155.97"><defs><style>.cls-1{fill:#2d8c2d;}.cls-2{fill:#f07d1b;}</style></defs><title>RLB v1 farver</title><g id="Layer_2" data-name="Layer 2"><path class="cls-1" d="M259,298.15a19.58,19.58,0,0,1-19.28-13.53,18,18,0,0,0-.6,5.05c.23,10.49,9.22,18.79,20.1,18.56s19.51-8.92,19.29-19.41a18.5,18.5,0,0,0-.82-5A19.61,19.61,0,0,1,259,298.15Z" transform="translate(-238.62 -209.37)"/><path class="cls-1" d="M272.74,307.12c-1.05,7.35-11.89,9.51-11.89,9.51l-1.46,48.71c2.88-2.65,4-4.82,8.05-27.35C270.68,320.05,273.47,307.81,272.74,307.12Z" transform="translate(-238.62 -209.37)"/><path class="cls-1" d="M251.07,315.38s-6.64-4.06-7.53-10.65c-.75,1.46,4.69,33.34,4.69,33.34s2.75,19.19,5.91,23.16Z" transform="translate(-238.62 -209.37)"/><path class="cls-2" d="M279.11,250.79c0-14.38-11.73-34.29-14.1-37.65-6.78-9.59-5.52,1.91-5.52,3.71,0,30.51-20.87,25.24-20.87,44.77,0,9.91,6.92,15.1,11.14,19.63-3.16-7.36-7.54-15.31,2.91-25,6.49-6,14.12-11.26,15-20.58,0,0,.08-.94.19-.91s.53,1,.53,1c6.47,20.5-5.65,21.48-12.36,30.69-6.13,8.41-1.44,17.14,3.1,24.45,1.06,1.16.87-2,.87-3.29C260,270.07,279.11,273,279.11,250.79Z" transform="translate(-238.62 -209.37)"/><path class="cls-1" d="M324.26,339.21H306.71V290.69h7v42.39h10.58Z" transform="translate(-238.62 -209.37)"/><path class="cls-1" d="M346.1,339.21l-1-3.16s-2.7,3.84-6.81,3.84c-4.31,0-9.56-1.62-9.56-11.52s7.54-11.45,11.65-11.45h4.52v-4.38c0-3.24-1.35-4.11-4.59-4.11-3.7,0-8.89,1.88-8.89,1.88v-5.59a32.25,32.25,0,0,1,10.38-1.88c4.85,0,10.1,1.34,10.1,9.9v26.47Zm-1.21-18-3.1.06c-3.91.07-6.07,1.22-6.07,6.87s1.69,6.4,4,6.4c2.69,0,5.12-2.83,5.12-2.83Z" transform="translate(-238.62 -209.37)"/><path class="cls-1" d="M377.89,339.21v-26c0-3-.6-4.24-3.23-4.24-3.57,0-8,2.56-8,2.56v27.68h-7v-35.7H365l1.48,3.37s4.58-4,10-4,8.36,2.76,8.36,9.29v27.08Z" transform="translate(-238.62 -209.37)"/><path class="cls-1" d="M412.17,339.21l-.87-3a10.83,10.83,0,0,1-8,3.64c-4.31,0-11.58-1.55-11.58-18.53s9.09-18.52,12.93-18.52a8.27,8.27,0,0,1,5.93,2.36V290.71h7v48.5Zm-1.61-29a8.46,8.46,0,0,0-5-1.76c-3.3,0-6.87,1.55-6.87,12.87,0,11.79,3.3,12.93,6.2,12.93s5.66-2.35,5.66-2.35Z" transform="translate(-238.62 -209.37)"/><path class="cls-1" d="M436.15,339.89a54.73,54.73,0,0,1-10.77-1.55V290.71h7v15a10.56,10.56,0,0,1,7.21-2.83c4.38,0,11,1.55,11,18.18C450.57,338.4,442.08,339.89,436.15,339.89Zm1.82-31.4a9.85,9.85,0,0,0-5.59,2v23.64a31.57,31.57,0,0,0,4.31.47c2.9,0,6.87-1.34,6.87-13.54S440.94,308.49,438,308.49Z" transform="translate(-238.62 -209.37)"/><path class="cls-1" d="M469.16,339.89c-6.88,0-13.41-3.3-13.41-18.53,0-14.68,6.4-18.52,13.41-18.52,6.73,0,13.4,3.23,13.4,18.52S476,339.89,469.16,339.89Zm0-32c-4,0-6.4,2.69-6.4,13.47,0,11,3.36,13.41,6.4,13.41s6.4-2.29,6.4-13.41C475.56,309.91,472.86,307.89,469.16,307.89Z" transform="translate(-238.62 -209.37)"/><path class="cls-1" d="M499,339.89a54.89,54.89,0,0,1-10.78-1.55V290.71h7v15a10.52,10.52,0,0,1,7.2-2.83c4.38,0,11,1.55,11,18.18C513.4,338.4,504.91,339.89,499,339.89Zm1.82-31.4a9.81,9.81,0,0,0-5.59,2v23.64a31.35,31.35,0,0,0,4.31.47c2.89,0,6.87-1.34,6.87-13.54S503.77,308.49,500.81,308.49Z" transform="translate(-238.62 -209.37)"/><path class="cls-1" d="M535.89,339.21l-1-3.16s-2.7,3.84-6.81,3.84c-4.31,0-9.56-1.62-9.56-11.52s7.54-11.45,11.65-11.45h4.52v-4.38c0-3.24-1.35-4.11-4.59-4.11-3.7,0-8.89,1.88-8.89,1.88v-5.59a32.25,32.25,0,0,1,10.38-1.88c4.85,0,10.1,1.34,10.1,9.9v26.47Zm-1.21-18-3.1.06c-3.91.07-6.07,1.22-6.07,6.87s1.69,6.4,4,6.4c2.69,0,5.12-2.83,5.12-2.83Z" transform="translate(-238.62 -209.37)"/><path class="cls-1" d="M567.68,339.21v-26c0-3-.61-4.24-3.23-4.24-3.57,0-8,2.56-8,2.56v27.68h-7v-35.7h5.32l1.49,3.37s4.58-4,10-4,8.35,2.76,8.35,9.29v27.08Z" transform="translate(-238.62 -209.37)"/><path class="cls-1" d="M582.55,339.17V290.69h7.2v48.48Zm18,0-10-21.09,8.47-15.57h7.44l-9,15.06,11.07,21.6Z" transform="translate(-238.62 -209.37)"/><rect class="cls-1" x="200.51" y="42.15" width="4.1" height="20.96"/><rect class="cls-1" x="200.51" y="35.45" width="4.1" height="3.46"/><path class="cls-1" d="M373.64,272.49V244.83h4.11v27.66Zm10.29,0-5.7-12.06,4.84-8.9h4.26l-5.16,8.61,6.34,12.35Z" transform="translate(-238.62 -209.37)"/><path class="cls-1" d="M317,272.48l-1.42-7.06c-.59-2.92-1.58-4.3-2.32-4.77l-2.41.2v11.63h-4.1V244.87h5.95c5.21,0,8.4,1.66,8.4,7.73,0,3.91-1.77,6-4.34,7.14,1.62.91,2.33,3,2.89,5.21l1.85,7.53Zm-4.57-24.33h-1.58v9.74c4.06-.2,6.15-.79,6.15-5.29C317,248.78,315.71,248.15,312.4,248.15Z" transform="translate(-238.62 -209.37)"/><path class="cls-1" d="M346.19,272.48V257.26c0-1.74-.36-2.49-1.9-2.49a11.39,11.39,0,0,0-4.65,1.5v16.21h-4.1v-20.9h3.11l.87,2a10.1,10.1,0,0,1,5.88-2.37c3.12,0,4.89,1.62,4.89,5.45v15.85Z" transform="translate(-238.62 -209.37)"/><path class="cls-1" d="M407.89,272.88a8.41,8.41,0,0,1-2.8-.44l-1.73,4.38h-2.65l2.21-5.6c-1.73-1.5-2.88-4.3-2.88-9.19,0-8.6,3.87-10.85,7.85-10.85a8.33,8.33,0,0,1,2.8.44l1.74-4.38h2.64l-2.21,5.6c1.7,1.5,2.88,4.3,2.88,9.19C415.74,271,411.87,272.88,407.89,272.88Zm0-18.74c-2.17,0-3.74,1.58-3.74,7.89a15.82,15.82,0,0,0,.55,4.69l4.89-12.18A3.55,3.55,0,0,0,407.89,254.14Zm3.28,3-4.85,12.23a2.78,2.78,0,0,0,1.57.51c1.78,0,3.75-1.34,3.75-7.85A19.38,19.38,0,0,0,411.17,257.14Z" transform="translate(-238.62 -209.37)"/><path class="cls-1" d="M426.31,272.88A32.05,32.05,0,0,1,420,272V244.86h4.11v8a6.14,6.14,0,0,1,4.22-1.66c2.56,0,6.42.91,6.42,10.65C434.75,272,429.78,272.88,426.31,272.88Zm1.07-18.38a5.78,5.78,0,0,0-3.27,1.14v13.85a18.6,18.6,0,0,0,2.52.27c1.7,0,4-.79,4-7.93S429.11,254.5,427.38,254.5Z" transform="translate(-238.62 -209.37)"/><path class="cls-1" d="M459.21,272.48V257.26c0-1.74-.36-2.49-1.9-2.49a11.39,11.39,0,0,0-4.65,1.5v16.21h-4.1v-20.9h3.11l.87,2a10.1,10.1,0,0,1,5.88-2.37c3.11,0,4.89,1.62,4.89,5.45v15.85Z" transform="translate(-238.62 -209.37)"/><rect class="cls-1" x="87.49" y="42.21" width="4.1" height="20.91"/><rect class="cls-1" x="87.49" y="35.45" width="4.1" height="3.46"/><rect class="cls-1" x="153.29" y="35.45" width="4.1" height="3.46"/><path class="cls-1" d="M395.94,272.43c0,4.08-2.09,8-6.48,8h-1.13v-2.54h.36c2.17,0,3.28-2.52,3.28-5.59V251.52h4Z" transform="translate(-238.62 -209.37)"/><path class="cls-1" d="M366.83,254.42a6.42,6.42,0,0,1,1.27,3.82c0,5.33-2.69,7.22-6.67,7.22a6,6,0,0,1-2.25-.35s-1,.67-1,1.53c0,1,.67,1.42,2,1.54l3.59.36c3.63.35,6,1.42,6,5.44,0,4.73-2.92,6.39-8.79,6.39-4.14,0-6.91-1.3-6.91-5a6.08,6.08,0,0,1,2.49-4.61,3.36,3.36,0,0,1-1.7-3.12,4.46,4.46,0,0,1,2.33-3.63,7,7,0,0,1-2.44-5.84c0-5.2,3.11-7,6.7-7,1.3,0,1.89.4,3,.4h5.76v2.84Zm-3.9,17.43-3-.28c-.32,0-.83-.11-.83-.11a5.47,5.47,0,0,0-1.26,3.35c0,1.85,1.18,2.8,3.12,2.8,3.47,0,4.89-.91,4.89-3.23C365.85,272.4,364.78,272,362.93,271.85Zm-1.5-18c-1.74,0-2.64,1.14-2.64,4.33,0,3.36.79,4.54,2.64,4.54,2,0,2.64-1.18,2.64-4.54C364.07,255.05,363.36,253.87,361.43,253.87Z" transform="translate(-238.62 -209.37)"/><path class="cls-1" d="M479.88,254.42a6.41,6.41,0,0,1,1.26,3.82c0,5.33-2.68,7.22-6.66,7.22a6,6,0,0,1-2.25-.35s-1,.67-1,1.53c0,1,.67,1.42,2,1.54l3.59.36c3.63.35,6,1.42,6,5.44,0,4.73-2.92,6.39-8.79,6.39-4.14,0-6.91-1.3-6.91-5a6.08,6.08,0,0,1,2.49-4.61,3.36,3.36,0,0,1-1.7-3.12,4.46,4.46,0,0,1,2.33-3.63,7,7,0,0,1-2.45-5.84c0-5.2,3.12-7,6.71-7,1.3,0,1.89.4,3,.4h5.75v2.84ZM476,271.85l-3-.28c-.32,0-.83-.11-.83-.11a5.47,5.47,0,0,0-1.26,3.35c0,1.85,1.18,2.8,3.12,2.8,3.47,0,4.89-.91,4.89-3.23C478.9,272.4,477.83,272,476,271.85Zm-1.5-18c-1.74,0-2.64,1.14-2.64,4.33,0,3.36.79,4.54,2.64,4.54,2,0,2.64-1.18,2.64-4.54C477.12,255.05,476.41,253.87,474.48,253.87Z" transform="translate(-238.62 -209.37)"/></g></svg>