<svg width="109" height="25" viewBox="0 0 109 25" fill="none" xmlns="http://www.w3.org/2000/svg">
<path d="M18.8371 7.80114L13.3972 8.91422C12.9935 6.78869 11.248 5.74374 9.46861 5.74374C7.62142 5.74374 6.44747 6.75618 6.44747 8.038C6.44747 8.94828 6.84957 9.62324 8.26077 9.92667L12.9273 10.9732C16.8235 11.8494 19.1067 13.9749 19.1067 17.5526C19.1067 22.3779 14.8423 24.875 9.83836 24.875C4.7682 24.875 0.603921 22.4461 0 18.0263L5.70798 16.9116C6.278 19.24 7.88948 20.2524 10.1403 20.2524C12.2217 20.2524 13.465 19.3081 13.465 17.9241C13.465 16.9116 12.9951 16.2707 11.3836 15.9332L6.68164 14.9208C3.45868 14.1777 0.637815 12.4919 0.637815 8.37548C0.637815 3.98975 4.26442 1.25583 9.5364 1.25583C14.4386 1.25428 17.9975 3.68478 18.8371 7.80114Z" fill="#0E0E0E"/>
<path d="M77.8455 24.3672H72.4718V23.0173C71.1623 24.1985 69.4152 24.8735 67.2337 24.8735C62.769 24.8735 59.0068 21.2633 59.0068 15.8992C59.0068 10.5676 62.7675 6.92338 67.2337 6.92338C69.4168 6.92338 71.1623 7.59834 72.4718 8.77953V0.875H77.8455V24.3672ZM72.4733 15.8992C72.4733 13.3 70.526 11.5135 68.343 11.5135C65.992 11.5135 64.2804 13.3015 64.2804 15.8992C64.2804 18.5309 65.992 20.2849 68.343 20.2849C70.526 20.2849 72.4733 18.5309 72.4733 15.8992Z" fill="#0E0E0E"/>
<path d="M45.8024 19.0171H40.4903C41.5333 22.2557 44.1 24.3208 47.2891 24.7744C47.3307 24.7806 48.0532 24.8735 48.691 24.8735C53.5594 24.8735 57.5896 21.2633 57.5896 15.8992C57.5896 10.5676 53.5609 6.9234 48.6587 6.9234C43.8905 6.9234 40.0621 10.3648 39.9619 15.8992V17.2832H52.3192C51.8816 19.3081 50.5059 20.5559 48.6926 20.5559C47.4709 20.5543 46.4541 20.0342 45.8024 19.0171ZM45.2662 13.9749C45.77 12.1528 47.1134 11.3091 48.6571 11.3091C50.1685 11.3091 51.7137 12.2535 52.216 13.9749H45.2662Z" fill="#0E0E0E"/>
<path d="M29.2906 20.5543C27.4773 20.5543 26.1015 19.3065 25.664 17.2816H38.0213V15.8977C37.9211 10.3632 34.0927 6.92184 29.3245 6.92184C24.4223 6.92184 20.3936 10.566 20.3936 15.8977C20.3936 21.2618 24.4223 24.8719 29.2921 24.8719C29.7143 24.8719 30.1611 24.8394 30.5662 24.7868C30.6078 24.7806 30.6525 24.7775 30.6941 24.7713C33.8832 24.3177 36.4498 22.2541 37.4928 19.014H32.1793C31.5199 20.0372 30.4738 20.5543 29.2906 20.5543ZM29.3245 11.3091C30.8697 11.3091 32.2116 12.1528 32.7154 13.9749H25.7641C26.2679 12.255 27.8132 11.3091 29.3245 11.3091Z" fill="#0E0E0E"/>
<path d="M89.5022 13.3325C89.1848 13.0461 88.7596 12.882 88.2296 12.882C87.145 12.882 86.2314 13.7675 86.2314 15.0632C86.2314 16.3667 87.145 17.2445 88.2296 17.2445C88.7596 17.2445 89.1848 17.0804 89.5022 16.794V17.1206H90.8071V13.0058H89.5022V13.3325ZM88.4977 16.1283C87.9261 16.1283 87.5102 15.7026 87.5102 15.0632C87.5102 14.4331 87.9261 13.9981 88.4977 13.9981C89.0277 13.9981 89.5006 14.4331 89.5006 15.0632C89.5022 15.7026 89.0277 16.1283 88.4977 16.1283Z" fill="#0E0E0E"/>
<path d="M94.2396 12.882C93.7096 12.882 93.2844 13.0461 92.967 13.3325V13.0058H91.6621V18.5139H92.967V16.7924C93.2844 17.0788 93.7096 17.2429 94.2396 17.2429C95.3241 17.2429 96.2377 16.3652 96.2377 15.0617C96.2393 13.7675 95.3257 12.882 94.2396 12.882ZM93.9715 16.1283C93.44 16.1283 92.9685 15.7026 92.9685 15.0632C92.9685 14.4331 93.4415 13.9981 93.9715 13.9981C94.5431 13.9981 94.9575 14.4331 94.9575 15.0632C94.9575 15.7026 94.5415 16.1283 93.9715 16.1283Z" fill="#0E0E0E"/>
<path d="M98.0627 13.0058H96.7578V17.1206H98.0627V13.0058Z" fill="#0E0E0E"/>
<path d="M97.4095 11.0459C96.9688 11.0459 96.6592 11.3896 96.6592 11.7921C96.6592 12.2101 96.9688 12.5213 97.4095 12.5213C97.8501 12.5213 98.169 12.2101 98.169 11.7921C98.169 11.3896 97.8501 11.0459 97.4095 11.0459Z" fill="#0E0E0E"/>
<path d="M101.184 16.071C100.842 16.071 100.637 15.8992 100.637 15.4719V14.0461H101.845V13.0043H100.637V11.7906H99.3324V13.0043H98.5898V14.0461H99.3324V15.6035C99.3324 16.6856 99.944 17.2429 100.964 17.2429C101.428 17.2429 101.764 17.1113 102.081 16.9395L101.779 15.9069C101.608 16.006 101.363 16.071 101.184 16.071Z" fill="#0E0E0E"/>
<path d="M105.472 13.3325C105.154 13.0461 104.73 12.882 104.198 12.882C103.114 12.882 102.2 13.7675 102.2 15.0632C102.2 16.3667 103.114 17.2445 104.198 17.2445C104.73 17.2445 105.154 17.0804 105.472 16.794V17.1206H106.777V13.0058H105.472V13.3325ZM104.468 16.1283C103.896 16.1283 103.48 15.7026 103.48 15.0632C103.48 14.4331 103.896 13.9981 104.468 13.9981C104.998 13.9981 105.471 14.4331 105.471 15.0632C105.472 15.7026 104.998 16.1283 104.468 16.1283Z" fill="#0E0E0E"/>
<path d="M109 11.2178H107.695V17.1206H109V11.2178Z" fill="#0E0E0E"/>
<path d="M85.9121 15.4146H84.6195C84.5379 15.7382 84.2513 16.0958 83.7891 16.0958C83.2022 16.0958 82.8108 15.6685 82.8108 15.0632C82.8108 14.4641 83.2022 14.0306 83.7891 14.0306C84.1805 14.0306 84.4978 14.2381 84.6288 14.6777L85.8505 14.4719L85.8782 14.4657C85.6502 13.4981 84.7859 12.8835 83.7891 12.8835C82.5659 12.8835 81.5537 13.769 81.5537 15.0648C81.5537 16.3683 82.5644 17.246 83.7891 17.246C84.5933 17.246 85.2959 16.8513 85.6579 16.2073C85.8243 15.9069 85.8952 15.5586 85.9121 15.4146Z" fill="#0E0E0E"/>
</svg>
