<?xml version="1.0" encoding="UTF-8"?>
<svg width="223px" height="55px" viewBox="0 0 223 55" version="1.1" xmlns="http://www.w3.org/2000/svg" xmlns:xlink="http://www.w3.org/1999/xlink">
    <!-- Generator: Sketch 50.2 (55047) - http://www.bohemiancoding.com/sketch -->
    <title>sentica</title>
    <desc>Created with Sketch.</desc>
    <defs></defs>
    <g id="Page-1" stroke="none" stroke-width="1" fill="none" fill-rule="evenodd">
        <g id="sentica" transform="translate(-1.000000, 0.000000)" fill="#2F3C50" fill-rule="nonzero">
            <path d="M26.25,43.14 C26.25,46.8266667 25.0833333,49.62 22.75,51.52 C20.4166667,53.42 16.9733333,54.3666667 12.42,54.36 C10.3709585,54.3415632 8.32709404,54.1508917 6.31,53.79 C4.5320122,53.5200085 2.78171497,53.0916375 1.08,52.51 L1.08,43.38 L2.86,43.38 L4.79,48.56 C6.92377138,50.4045958 9.68214902,51.3634093 12.5,51.24 C17.6066667,51.24 20.16,49.0533333 20.16,44.68 C20.16,41.4666667 18.16,39.1766667 14.16,37.81 L10.6,36.66 C8.54195933,36.0668439 6.58379094,35.1703331 4.79,34 C3.61696633,33.1391721 2.66152149,32.0159251 2,30.72 C1.30056435,29.24705 0.957977198,27.6300387 1,26 C0.862041781,23.0461995 2.09445795,20.193931 4.34,18.27 C6.56,16.39 9.56,15.45 13.34,15.45 C16.7675916,15.533688 20.179527,15.9421828 23.53,16.67 L23.53,24.77 L21.7,24.77 L20,20.46 C18.6066667,19.2333333 16.4066667,18.6166667 13.4,18.61 C11.6329477,18.4831605 9.88602057,19.0499253 8.53,20.19 C7.38250349,21.3058425 6.77048182,22.8613976 6.85,24.46 C6.81515516,25.8783822 7.36474999,27.2487535 8.37,28.25 C9.69325948,29.4539734 11.2783208,30.3338022 13,30.82 C15.5874189,31.6307099 18.1251026,32.5923585 20.6,33.7 C21.7186683,34.2687269 22.7329964,35.0227107 23.6,35.93 C24.4234201,36.8039406 25.0808105,37.8205236 25.54,38.93 C26.0350883,40.269887 26.2692972,41.6921116 26.23,43.12" id="Shape"></path>
            <path d="M40.28,34.89 L40.28,35.6 C40.1659206,38.4733715 40.5759397,41.3435056 41.49,44.07 C42.1929979,45.9662849 43.4955983,47.581369 45.2,48.67 C47.1998587,49.8081316 49.4814033,50.3559797 51.78,50.25 C53.4721775,50.2353772 55.1619245,50.1184975 56.84,49.9 C58.79,49.66 60.39,49.4 61.66,49.11 L61.66,51.32 C60.0557175,52.283097 58.3165079,53.0010265 56.5,53.45 C54.3356548,54.0573457 52.0979427,54.363559 49.85,54.36 C44.0766667,54.36 39.8533333,52.8066667 37.18,49.7 C34.5066667,46.5933333 33.1733333,41.5933333 33.18,34.7 C33.18,28.22 34.5366667,23.3866667 37.25,20.2 C39.9633333,17.0133333 43.8366667,15.42 48.87,15.42 C58.3833333,15.42 63.1366667,20.82 63.13,31.62 L63.13,34.86 L40.28,34.89 Z M48.86,18.61 C46.3157545,18.5031659 43.9101299,19.7708919 42.56,21.93 C41.0933333,24.1433333 40.36,27.41 40.36,31.73 L56.25,31.73 C56.25,27.01 55.6433333,23.6433333 54.43,21.63 C53.2840919,19.6632851 51.1327383,18.5045668 48.86,18.63 L48.86,18.61 Z" id="Shape"></path>
            <path d="M79.28,19.44 C81.3373294,18.2665459 83.508457,17.3049508 85.76,16.57 C87.601359,15.9053792 89.533908,15.5276384 91.49,15.45 C94.7033333,15.45 97.1266667,16.3833333 98.76,18.25 C100.39,20.12 101.21,22.84 101.21,26.39 L101.21,50.81 L105.71,51.81 L105.71,53.59 L89.71,53.59 L89.71,51.79 L94.65,50.79 L94.65,27.1 C94.7409711,25.2637132 94.1736077,23.4552425 93.05,22 C91.7550463,20.6469504 89.9156181,19.9553254 88.05,20.12 C85.1072919,20.1906016 82.1806055,20.576133 79.32,21.27 L79.32,50.81 L84.32,51.81 L84.32,53.59 L68.32,53.59 L68.32,51.79 L72.79,50.79 L72.79,19.2 L68.32,18.2 L68.32,16.43 L78.92,16.43 L79.28,19.44 Z" id="Shape"></path>
            <path d="M120,54.36 C117.865412,54.5162614 115.776634,53.6873814 114.33,52.11 C112.981159,50.289632 112.318849,48.051236 112.46,45.79 L112.46,19.79 L107.6,19.79 L107.6,18 L112.54,16.45 L116.54,8.04 L119,8.04 L119,16.45 L127.5,16.45 L127.5,19.77 L119,19.77 L119,45.08 C118.890329,46.4897409 119.315145,47.8891331 120.19,49 C120.965794,49.8670053 122.08739,50.3435002 123.25,50.3 C125.122172,50.2629646 126.986853,50.0520581 128.82,49.67 L128.82,52.24 C127.590609,52.994868 126.235847,53.5232252 124.82,53.8 C123.242262,54.1886867 121.624825,54.3933831 120,54.41" id="Shape"></path>
            <path d="M146.56,50.81 L152.92,51.81 L152.92,53.59 L133.68,53.59 L133.68,51.79 L140.01,50.79 L140.01,19.2 L134.75,18.2 L134.75,16.43 L146.56,16.43 L146.56,50.81 Z M146.96,4.31 C146.971582,5.44296139 146.511521,6.52971904 145.69,7.31 C144.031469,8.96280181 141.348531,8.96280181 139.69,7.31 C138.875182,6.52591562 138.419414,5.44075412 138.43,4.31 C138.427568,3.18086424 138.882046,2.09877347 139.69,1.31 C141.348531,-0.342801807 144.031469,-0.342801807 145.69,1.31 C146.519284,2.08825865 146.992844,3.17274546 147,4.31 L146.96,4.31 Z" id="Shape"></path>
            <path d="M186.35,51.32 C184.731202,52.4089193 182.912959,53.1668038 181,53.55 C178.706767,54.0950648 176.357109,54.3669538 174,54.36 C162,54.36 156,47.8166667 156,34.73 C156,28.5433333 157.533333,23.78 160.6,20.44 C163.666667,17.1 168.06,15.4333333 173.78,15.44 C177.693133,15.4780928 181.593871,15.8865821 185.43,16.66 L185.43,27 L183.26,27 L181.56,20.44 C179.145116,19.1512175 176.436201,18.513623 173.7,18.59 C166.64,18.59 163.11,23.9633333 163.11,34.71 C163.11,40.29 164.183333,44.29 166.33,46.71 C168.476667,49.13 171.81,50.32 176.33,50.28 C179.709062,50.3396627 183.078506,49.901635 186.33,48.98 L186.35,51.32 Z" id="Shape"></path>
            <path d="M207.37,15.61 C211.43,15.61 214.413333,16.4366667 216.32,18.09 C218.23,19.75 219.18,22.3 219.18,25.72 L219.18,50.81 L223.81,51.81 L223.81,53.58 L213.61,53.58 L212.86,49.87 C209.813896,52.8894792 205.656513,54.517697 201.37,54.37 C195.023333,54.37 191.85,50.6833333 191.85,43.31 C191.764053,41.1705926 192.261832,39.0481166 193.29,37.17 C194.366225,35.4522846 195.985148,34.1430685 197.89,33.45 C200.843012,32.4578141 203.945457,31.9841584 207.06,32.05 L212.63,31.89 L212.63,26.09 C212.63,23.53 212.16,21.6466667 211.22,20.44 C210.162714,19.1654798 208.550569,18.4862889 206.9,18.62 C204.369641,18.593419 201.876609,19.2313317 199.67,20.47 L198.32,25.1 L196.11,25.1 L196.11,17 C199.804843,16.1480445 203.578774,15.68552 207.37,15.62 L207.37,15.61 Z M212.63,34.62 L207.45,34.78 C203.916667,34.9066667 201.526667,35.5733333 200.28,36.78 C199.033333,37.9866667 198.406667,40.0533333 198.4,42.98 C198.4,47.6466667 200.283333,49.98 204.05,49.98 C205.619127,50.0092758 207.183609,49.8002287 208.69,49.36 C210.041755,48.9428312 211.359053,48.4212615 212.63,47.8 L212.63,34.62 Z" id="Shape"></path>
        </g>
    </g>
</svg>