<svg xmlns="http://www.w3.org/2000/svg" width="273.58" height="25.135" viewBox="0 0 273.58 25.135">
  <g id="SisuPartners_Logo_DarkBlue_Rgb" transform="translate(-149.26 -229.37)">
    <path id="Path_1" data-name="Path 1" d="M2297.867,258.164h4.855a19.828,19.828,0,0,1-2.927-3.2l-6.471-8.3c3.856-.588,6.13-2.857,6.13-6.163,0-3.823-3.067-6.442-8.16-6.442h-9.435c1.068,1.382,1.068,1.826,1.068,2.689v18.66a3.549,3.549,0,0,1-1.068,2.755h6.06c-1.377-1.41-1.377-1.858-1.377-2.788V236.095h4.062c3.272,0,5.06,1.615,5.06,4.44s-1.788,4.44-5.06,4.44h-2.837l1.427,1.863h0l2.372,3.1,1.759,2.3h0l4.544,5.933Z" transform="translate(-1898.912 -4.176)" fill="#fff"/>
    <path id="Path_2" data-name="Path 2" d="M149.741,251.612l-.481-5.439c2.512,4.062,5.579,5.957,8.884,5.957,2.685,0,4.407-1.48,4.407-3.856,0-1.723-1.036-3.17-3.342-4.131l-4.44-1.858c-3.236-1.345-4.612-3.375-4.612-6.2,0-4,3.236-6.714,7.815-6.714a10.75,10.75,0,0,1,7.022,2.339v4.546a8.766,8.766,0,0,0-7.54-4.579c-2.549,0-4.029,1.48-4.029,3.408,0,1.652.9,2.824,3,3.72l4.682,1.929c3.063,1.27,4.752,3.441,4.752,6.541,0,4.337-3.375,7.231-8.3,7.231a10.588,10.588,0,0,1-7.815-2.894Z" transform="translate(0 0)" fill="#fff"/>
    <path id="Path_3" data-name="Path 3" d="M352.915,255.419v-18.66c0-.863,0-1.307-1.065-2.689H357.6a3.565,3.565,0,0,0-1.065,2.755v18.665c0,.859,0,1.307,1.065,2.685H351.85A3.555,3.555,0,0,0,352.915,255.419Z" transform="translate(-180.39 -4.185)" fill="#fff"/>
    <path id="Path_4" data-name="Path 4" d="M454.341,251.612l-.481-5.439c2.512,4.062,5.579,5.957,8.884,5.957,2.685,0,4.407-1.48,4.407-3.856,0-1.723-1.036-3.17-3.342-4.131l-4.44-1.858c-3.236-1.345-4.612-3.375-4.612-6.2,0-4,3.236-6.714,7.815-6.714a10.75,10.75,0,0,1,7.022,2.339v4.546a8.766,8.766,0,0,0-7.54-4.579c-2.549,0-4.029,1.48-4.029,3.408,0,1.652.9,2.824,3,3.72l4.682,1.929c3.063,1.27,4.752,3.441,4.752,6.541,0,4.337-3.375,7.231-8.3,7.231a10.588,10.588,0,0,1-7.815-2.894Z" transform="translate(-271.222 0)" fill="#fff"/>
    <path id="Path_5" data-name="Path 5" d="M652.838,249V236.74c0-.863,0-1.307-1.068-2.689h6.13c-1.448,1.415-1.448,1.863-1.448,2.791V249.2c0,4.3,2.479,6.952,6.508,6.952s6.3-2.652,6.3-6.952V236.772c0-.9,0-1.307-1.517-2.722h5.1a3.622,3.622,0,0,0-1.068,2.791v12.082c0,6.269-3.441,9.747-9.4,9.747s-9.538-3.408-9.538-9.678Z" transform="translate(-447.446 -4.167)" fill="#fff"/>
    <path id="Path_6" data-name="Path 6" d="M1149.578,253.8l8.538-20.658h2.376l8.576,20.765a24.293,24.293,0,0,0,1.685,3.441h-6.13c1.274-1.517,1.068-2.068.621-3.236l-1.549-3.959h-10.052l-1.549,3.959c-.481,1.274-.69,1.788.551,3.236h-4.785A23.839,23.839,0,0,0,1149.578,253.8Zm13.258-5.785-4.168-10.57-4.164,10.57h8.333Z" transform="translate(-889.175 -3.357)" fill="#fff"/>
    <path id="Path_7" data-name="Path 7" d="M1609.531,234.07h19.421v4.649c-2.1-2.41-2.791-2.41-4.029-2.41h-3.893v19.178c0,.859,0,1.307,1.517,2.685h-6.578c1.48-1.41,1.48-1.9,1.48-2.824V236.311h-3.922c-1.208,0-1.928,0-4,2.41v-4.649Z" transform="translate(-1300.255 -4.185)" fill="#fff"/>
    <path id="Path_8" data-name="Path 8" d="M1830.675,255.428v-20.28l-.962-1.068h4.3l13.978,17.735V236.8c0-.9,0-1.307-1.513-2.722h5.06a3.5,3.5,0,0,0-1.1,2.755v21.624h-1.723l-15.565-19.454v16.457c0,.9,0,1.312,1.517,2.722h-5.06a3.555,3.555,0,0,0,1.065-2.755Z" transform="translate(-1496.219 -4.194)" fill="#fff"/>
    <path id="Path_9" data-name="Path 9" d="M2085.085,255.419v-18.66c0-.863,0-1.307-1.065-2.689H2100v4.2c-2.171-2.03-2.894-2.03-4.1-2.03h-7.2v8.127h5.886c1.1,0,1.685,0,3.478-1.345v4.818c-1.793-1.307-2.413-1.307-3.478-1.307H2088.7V256h6.611c1.34,0,2.134,0,5.024-2.307l-.551,4.477H2084.02a3.555,3.555,0,0,0,1.065-2.755Z" transform="translate(-1722.751 -4.185)" fill="#fff"/>
    <path id="Path_10" data-name="Path 10" d="M2494.946,251.612l-.486-5.439c2.516,4.062,5.579,5.957,8.884,5.957,2.685,0,4.407-1.48,4.407-3.856,0-1.723-1.032-3.17-3.338-4.131l-4.445-1.858c-3.236-1.345-4.612-3.375-4.612-6.2,0-4,3.236-6.714,7.815-6.714a10.762,10.762,0,0,1,7.026,2.339v4.546a8.766,8.766,0,0,0-7.54-4.579c-2.549,0-4.029,1.48-4.029,3.408,0,1.652.9,2.824,2.992,3.72l4.682,1.929c3.067,1.27,4.753,3.441,4.753,6.541,0,4.337-3.375,7.231-8.3,7.231a10.581,10.581,0,0,1-7.815-2.894Z" transform="translate(-2088.216 0)" fill="#fff"/>
    <path id="Path_11" data-name="Path 11" d="M1415.617,258.164h4.855a19.828,19.828,0,0,1-2.927-3.2l-6.47-8.3c3.856-.588,6.13-2.857,6.13-6.163,0-3.823-3.067-6.442-8.16-6.442h-9.435c1.068,1.382,1.068,1.826,1.068,2.689v18.66a3.549,3.549,0,0,1-1.068,2.755h6.06c-1.377-1.41-1.377-1.858-1.377-2.788V236.095h4.062c3.272,0,5.06,1.615,5.06,4.44s-1.788,4.44-5.06,4.44h-2.837l1.427,1.863h0l2.373,3.1,1.759,2.3h0l4.544,5.933Z" transform="translate(-1113.338 -4.176)" fill="#fff"/>
    <path id="Path_12" data-name="Path 12" d="M989.013,234.061H979.48c1.065,1.382,1.065,1.826,1.065,2.689v18.66a3.555,3.555,0,0,1-1.065,2.755h6.125c-1.443-1.377-1.443-1.826-1.443-2.685V236.1h4.062c3.375,0,5.06,1.929,5.06,4.612s-1.685,4.612-5.06,4.612H985.89l1.555,2.03h1.568c5.027,0,8.057-2.755,8.057-6.644s-3.03-6.648-8.057-6.648Z" transform="translate(-739.245 -4.176)" fill="#fff"/>
  </g>
</svg>
