<svg width="144" height="21" viewBox="0 0 144 21" fill="none" xmlns="http://www.w3.org/2000/svg">
<path d="M0 5.63448C0 8.71257 1.88971 10.3037 5.43473 11.3735L10.1597 12.8084C13.9921 13.9564 14.3595 15.3913 14.3595 17.3475C14.3595 18.4694 13.9921 19.5646 12.0756 19.5646H8.00608C5.90618 19.5646 4.69875 18.8605 4.06884 16.9043L2.99237 13.5126H1.65334L0.288761 20.3995V20.8694H13.5705C16.4319 20.8694 17.9281 18.7564 17.9281 15.9887V14.6084C17.9281 11.6084 16.3264 9.75638 12.3106 8.50367L8.08465 7.20215C4.54095 6.10367 3.35971 5.47764 3.35971 3.70367C3.35971 2.32146 4.06884 1.43448 5.82695 1.43448H10.8406C12.6256 1.43448 13.3341 2.11257 14.2265 3.96463L15.6671 6.9386H16.9767V0.129705H4.59333C1.54857 0.129705 0 2.21669 0 4.72146V5.63448ZM127.962 9.96463V1.43448H134.314C136.099 1.43448 136.676 2.03448 136.676 3.78242V7.64337C136.676 9.39066 136.099 9.96463 134.314 9.96463H127.962ZM120.061 20.8694H130.8V20.3215L127.965 19.5405V11.3735H131.272C132.821 11.3735 133.398 12.0776 133.976 13.4345L136.128 18.5755C136.68 19.9063 137.125 20.8713 138.622 20.8713H144.003V20.2974C142.375 19.8275 141.719 18.9959 141.247 17.8193L139.698 13.9583C139.147 12.5494 138.674 11.4015 136.784 11.1405V11.0364H137.992C139.987 11.0364 141.588 9.62753 141.588 7.67135V3.65161C141.588 1.69543 140.016 0.129705 138.018 0.129705H120.064V0.677644L122.925 1.45855V19.5366L120.064 20.3176L120.061 20.8694ZM103.551 20.8694H114.26V20.3215L111.426 19.5405V1.46051L114.26 0.679596V0.129705H103.551V0.677644L106.412 1.45855V19.5366L103.551 20.3176V20.8694ZM83.628 19.5646V10.9824H88.3006V9.54749H83.628V1.43448H89.9795C91.7644 1.43448 92.3419 2.00845 92.3419 3.78242V17.2173C92.3419 18.9913 91.7644 19.5646 89.9795 19.5646H83.628ZM75.7536 20.8694H93.6816C94.1515 20.8733 94.6174 20.7842 95.0523 20.6073C95.4872 20.4303 95.8822 20.1691 96.2144 19.8389C96.5467 19.5086 96.8094 19.116 96.9874 18.6838C97.1653 18.2515 97.2549 17.7884 97.2509 17.3215V3.67764C97.2548 3.21069 97.1652 2.74763 96.9872 2.31545C96.8092 1.88328 96.5465 1.49063 96.2143 1.16041C95.882 0.830177 95.487 0.568972 95.0522 0.392015C94.6174 0.215057 94.1515 0.125888 93.6816 0.129705H75.7536V0.650312L78.6143 1.48524V19.5373L75.7536 20.3462V20.8694ZM54.7808 17.3475V3.65161C54.7808 1.87764 55.3295 1.30107 57.1432 1.30107H62.4719C64.5194 1.30107 65.0969 1.87504 65.0969 3.64901V17.3475C65.0969 19.1215 64.5194 19.6954 62.4719 19.6954H57.1432C55.3295 19.6954 54.7808 19.1215 54.7808 17.3475ZM49.8699 17.4256C49.8699 19.4084 51.4184 20.9995 53.4136 20.9995H66.4327C68.4278 20.9995 70.0026 19.4084 70.0026 17.4256V3.54749C70.0065 3.0807 69.9169 2.6178 69.7391 2.18576C69.5612 1.75371 69.2987 1.36116 68.9667 1.03095C68.6347 0.700752 68.2399 0.439506 67.8053 0.262432C67.3707 0.0853583 66.905 -0.00400316 66.4353 -0.000447215H53.4162C51.421 -0.000447215 49.8725 1.56463 49.8725 3.54749L49.8699 17.4256ZM23.8598 6.91257H24.9362L26.5372 3.23448C26.9576 2.24337 28.0072 1.43448 29.7928 1.43448H31.3937V19.5646L28.533 20.3455V20.8661H39.242V20.3455L36.4068 19.5646V1.43448H37.9783C39.7632 1.43448 40.8135 2.24337 41.2856 3.3386L42.8342 6.91257H43.9106V0.129705H23.8598V6.91257Z" fill="white"/>
</svg>
