<svg id="Vector" xmlns="http://www.w3.org/2000/svg" xmlns:xlink="http://www.w3.org/1999/xlink" viewBox="0 0 216 64"><defs><style>.cls-1,.cls-5{fill-rule:evenodd;}.cls-1{fill:url(#Ny_övertoningsruta_3);}.cls-2{fill:url(#Namnlös_övertoning_4);}.cls-3{fill:url(#Namnlös_övertoning_3);}.cls-4{fill:#faaf5a;}.cls-5{fill:url(#Namnlös_övertoning_9);}.cls-6{fill:#dc8730;}.cls-7{fill:#8d4428;}.cls-8{fill:#9f5024;}.cls-9{fill:#ad5725;}.cls-10{fill:#e48e33;}.cls-11{fill:#db7b29;}.cls-12{fill:#ffb560;}.cls-13{fill:#bc6327;}.cls-14{fill:#ffcb80;}.cls-15{fill:#ffd68e;}.cls-16{fill:#d57c3f;}.cls-17{fill:#ffcd85;}.cls-18{fill:#efa952;}.cls-19{fill:#fdac4a;}.cls-20{fill:#eb962a;}.cls-21{fill:#ffc378;}.cls-22{fill:#ffce89;}.cls-23{fill:#ffd79d;}.cls-24{fill:#eeaf67;}.cls-25{fill:#bf6b29;}.cls-26{fill:#fcb664;}.cls-27{fill:#994822;}.cls-28{fill:#d47429;}.cls-29{fill:#e7944b;}.cls-30{fill:#964c25;}.cls-31{fill:#823d1e;}.cls-32{fill:#6c2b13;}.cls-33{fill:#ba6019;}.cls-34{fill:#d89050;}.cls-35{fill:#7e3717;}.cls-36{fill:#94441e;}.cls-37{fill:#dd8732;}.cls-38{fill:#ffc278;}.cls-39{fill:#ea913e;}.cls-40{fill:#c57231;}.cls-41{fill:#642813;}.cls-42{fill:#56220c;}.cls-43{fill:#f49e4d;}.cls-44{fill:#76310a;}.cls-45{fill:#994b17;}.cls-46{fill:#a35622;}.cls-47{fill:#af6638;}.cls-48{fill:#a5572a;}.cls-49{fill:#e69646;}.cls-50{fill:#d27c3c;}.cls-51{fill:#7a2c13;}.cls-52{fill:#c27138;}.cls-53{fill:#9a4921;}.cls-54{fill:#96441e;}.cls-55{fill:#a04e14;}.cls-56{fill:#aa5a28;}.cls-57{fill:#944428;}.cls-58{fill:#ffc283;}.cls-59{fill:#aa5e33;}.cls-60{fill:#e5872b;}.cls-61{fill:#b96534;}.cls-62{fill:#f29b40;}.cls-63{fill:#b46027;}.cls-64{fill:url(#Ny_övertoningsruta_3-2);}.cls-65{fill:url(#Ny_övertoningsruta_3-3);}.cls-66{fill:url(#Ny_övertoningsruta_3-4);}.cls-67{fill:url(#Ny_övertoningsruta_3-5);}.cls-68{fill:url(#Ny_övertoningsruta_3-6);}.cls-69{fill:url(#Ny_övertoningsruta_3-7);}.cls-70{fill:url(#Ny_övertoningsruta_3-8);}.cls-71{fill:url(#Ny_övertoningsruta_3-9);}.cls-72{fill:url(#Ny_övertoningsruta_3-10);}.cls-73{fill:url(#Ny_övertoningsruta_3-11);}.cls-74{fill:url(#Ny_övertoningsruta_3-12);}.cls-75{fill:url(#Ny_övertoningsruta_3-13);}.cls-76{fill:url(#Ny_övertoningsruta_3-14);}.cls-77{fill:url(#Ny_övertoningsruta_3-15);}.cls-78{fill:url(#Ny_övertoningsruta_3-16);}.cls-79{fill:url(#Ny_övertoningsruta_3-17);}.cls-80{fill:url(#Ny_övertoningsruta_3-18);}.cls-81{fill:url(#Ny_övertoningsruta_3-19);}.cls-82{fill:url(#Ny_övertoningsruta_3-20);}.cls-83{fill:url(#Ny_övertoningsruta_3-21);}.cls-84{fill:url(#Ny_övertoningsruta_3-22);}.cls-85{fill:url(#Ny_övertoningsruta_3-23);}.cls-86{fill:url(#Ny_övertoningsruta_3-24);}.cls-87{fill:url(#Ny_övertoningsruta_3-25);}.cls-88{fill:url(#Ny_övertoningsruta_3-26);}.cls-89{fill:url(#Ny_övertoningsruta_3-27);}.cls-90{fill:url(#Ny_övertoningsruta_3-28);}.cls-91{fill:url(#Ny_övertoningsruta_3-29);}.cls-92{fill:url(#Ny_övertoningsruta_3-30);}.cls-93{fill:url(#Ny_övertoningsruta_3-31);}.cls-94{fill:url(#Ny_övertoningsruta_3-32);}.cls-95{fill:url(#Ny_övertoningsruta_3-33);}.cls-96{fill:url(#Ny_övertoningsruta_3-34);}.cls-97{fill:url(#Ny_övertoningsruta_3-35);}.cls-98{fill:url(#Ny_övertoningsruta_3-36);}.cls-99{fill:url(#Ny_övertoningsruta_3-37);}.cls-100{fill:url(#Ny_övertoningsruta_3-38);}.cls-101{fill:url(#Ny_övertoningsruta_3-39);}.cls-102{fill:#f8a943;}.cls-103{fill:#ec9c4b;}.cls-104{fill:#b43c19;}.cls-105{fill:#ff5f00;}.cls-106{fill:none;}</style><radialGradient id="Ny_övertoningsruta_3" cx="198.46" cy="10.24" r="32.92" gradientTransform="translate(-1.44 2.89)" gradientUnits="userSpaceOnUse"><stop offset="0" stop-color="#ffe178"/><stop offset="0.18" stop-color="#ffd05f"/><stop offset="0.4" stop-color="#ffbe46"/><stop offset="0.6" stop-color="#ff9b0f"/><stop offset="0.8" stop-color="#f7780f"/><stop offset="0.9" stop-color="#f3640f"/><stop offset="1" stop-color="#e65f19"/></radialGradient><linearGradient id="Namnlös_övertoning_4" x1="205.01" y1="4.83" x2="179.06" y2="43.07" gradientUnits="userSpaceOnUse"><stop offset="0.02" stop-color="#ffe6a5"/><stop offset="0.11" stop-color="#fcc677"/><stop offset="0.29" stop-color="#f5871e"/><stop offset="0.29" stop-color="#f5871e"/><stop offset="0.56" stop-color="#e1690f"/><stop offset="0.63" stop-color="#cc5c0e"/><stop offset="0.8" stop-color="#9c3d0c"/><stop offset="0.93" stop-color="#7e2a0b"/><stop offset="1" stop-color="#73230a"/></linearGradient><linearGradient id="Namnlös_övertoning_3" x1="180.04" y1="41.77" x2="203.87" y2="6.37" gradientUnits="userSpaceOnUse"><stop offset="0.01" stop-color="#ffe6a0"/><stop offset="0.11" stop-color="#fcc877"/><stop offset="0.33" stop-color="#f5871e"/><stop offset="0.33" stop-color="#f5871e"/><stop offset="0.64" stop-color="#e1690f"/><stop offset="0.65" stop-color="#db650f"/><stop offset="0.76" stop-color="#ae490d"/><stop offset="0.86" stop-color="#8e340b"/><stop offset="0.94" stop-color="#7a280a"/><stop offset="0.99" stop-color="#73230a"/></linearGradient><radialGradient id="Namnlös_övertoning_9" cx="196.77" cy="8.77" r="36.96" gradientUnits="userSpaceOnUse"><stop offset="0" stop-color="#ffc85a"/><stop offset="0.27" stop-color="#f59619"/><stop offset="0.44" stop-color="#e56b16"/><stop offset="0.55" stop-color="#dc5014"/><stop offset="0.79" stop-color="#ba3f18"/><stop offset="0.82" stop-color="#b43c19"/></radialGradient><radialGradient id="Ny_övertoningsruta_3-2" cx="194.52" cy="9.31" r="35.7" gradientTransform="matrix(1, 0, 0, 1, 0, 0)" xlink:href="#Ny_övertoningsruta_3"/><radialGradient id="Ny_övertoningsruta_3-3" cx="194.46" cy="9.28" r="35.81" gradientTransform="matrix(1, 0, 0, 1, 0, 0)" xlink:href="#Ny_övertoningsruta_3"/><radialGradient id="Ny_övertoningsruta_3-4" cx="194.44" cy="9.24" r="35.76" gradientTransform="matrix(1, 0, 0, 1, 0, 0)" xlink:href="#Ny_övertoningsruta_3"/><radialGradient id="Ny_övertoningsruta_3-5" cx="194.56" cy="9.26" r="35.7" gradientTransform="matrix(1, 0, 0, 1, 0, 0)" xlink:href="#Ny_övertoningsruta_3"/><radialGradient id="Ny_övertoningsruta_3-6" cx="193.16" cy="7.64" r="39.56" gradientTransform="matrix(1, 0, 0, 1, 0, 0)" xlink:href="#Ny_övertoningsruta_3"/><radialGradient id="Ny_övertoningsruta_3-7" cx="195.24" cy="8.85" r="36.52" gradientTransform="matrix(1, 0, 0, 1, 0, 0)" xlink:href="#Ny_övertoningsruta_3"/><radialGradient id="Ny_övertoningsruta_3-8" cx="193.87" cy="8.05" r="37.96" gradientTransform="matrix(1, 0, 0, 1, 0, 0)" xlink:href="#Ny_övertoningsruta_3"/><radialGradient id="Ny_övertoningsruta_3-9" cx="194.23" cy="9.36" r="35.9" gradientTransform="matrix(1, 0, 0, 1, 0, 0)" xlink:href="#Ny_övertoningsruta_3"/><radialGradient id="Ny_övertoningsruta_3-10" cx="193.83" cy="8.76" r="37.35" gradientTransform="matrix(1, 0, 0, 1, 0, 0)" xlink:href="#Ny_övertoningsruta_3"/><radialGradient id="Ny_övertoningsruta_3-11" cx="195.03" cy="9.05" r="36.49" gradientTransform="matrix(1, 0, 0, 1, 0, 0)" xlink:href="#Ny_övertoningsruta_3"/><radialGradient id="Ny_övertoningsruta_3-12" cx="193.92" cy="9.31" r="37.53" gradientTransform="matrix(1, 0, 0, 1, 0, 0)" xlink:href="#Ny_övertoningsruta_3"/><radialGradient id="Ny_övertoningsruta_3-13" cx="194.3" cy="9.1" r="36.3" gradientTransform="matrix(1, 0, 0, 1, 0, 0)" xlink:href="#Ny_övertoningsruta_3"/><radialGradient id="Ny_övertoningsruta_3-14" cx="194.39" cy="9.15" r="36.79" gradientTransform="matrix(1, 0, 0, 1, 0, 0)" xlink:href="#Ny_övertoningsruta_3"/><radialGradient id="Ny_övertoningsruta_3-15" cx="194.32" cy="9.39" r="36.38" gradientTransform="matrix(1, 0, 0, 1, 0, 0)" xlink:href="#Ny_övertoningsruta_3"/><radialGradient id="Ny_övertoningsruta_3-16" cx="194.5" cy="9.44" r="37.24" gradientTransform="matrix(1, 0, 0, 1, 0, 0)" xlink:href="#Ny_övertoningsruta_3"/><radialGradient id="Ny_övertoningsruta_3-17" cx="194.32" cy="9.49" r="36.28" gradientTransform="matrix(1, 0, 0, 1, 0, 0)" xlink:href="#Ny_övertoningsruta_3"/><radialGradient id="Ny_övertoningsruta_3-18" cx="194.47" cy="9.39" r="36.41" gradientTransform="matrix(1, 0, 0, 1, 0, 0)" xlink:href="#Ny_övertoningsruta_3"/><radialGradient id="Ny_övertoningsruta_3-19" cx="194.51" cy="9.59" r="37.1" gradientTransform="matrix(1, 0, 0, 1, 0, 0)" xlink:href="#Ny_övertoningsruta_3"/><radialGradient id="Ny_övertoningsruta_3-20" cx="194.6" cy="9.57" r="36.2" gradientTransform="matrix(1, 0, 0, 1, 0, 0)" xlink:href="#Ny_övertoningsruta_3"/><radialGradient id="Ny_övertoningsruta_3-21" cx="194.7" cy="9.2" r="36.77" gradientTransform="matrix(1, 0, 0, 1, 0, 0)" xlink:href="#Ny_övertoningsruta_3"/><radialGradient id="Ny_övertoningsruta_3-22" cx="194.31" cy="9.27" r="36.14" gradientTransform="matrix(1, 0, 0, 1, 0, 0)" xlink:href="#Ny_övertoningsruta_3"/><radialGradient id="Ny_övertoningsruta_3-23" cx="194.69" cy="9.4" r="36.56" gradientTransform="matrix(1, 0, 0, 1, 0, 0)" xlink:href="#Ny_övertoningsruta_3"/><radialGradient id="Ny_övertoningsruta_3-24" cx="194.92" cy="8.92" r="36.92" gradientTransform="matrix(1, 0, 0, 1, 0, 0)" xlink:href="#Ny_övertoningsruta_3"/><radialGradient id="Ny_övertoningsruta_3-25" cx="194.72" cy="9.51" r="36.05" gradientTransform="matrix(1, 0, 0, 1, 0, 0)" xlink:href="#Ny_övertoningsruta_3"/><radialGradient id="Ny_övertoningsruta_3-26" cx="195.19" cy="9.05" r="36.93" gradientTransform="matrix(1, 0, 0, 1, 0, 0)" xlink:href="#Ny_övertoningsruta_3"/><radialGradient id="Ny_övertoningsruta_3-27" cx="194.76" cy="9.1" r="36.23" gradientTransform="matrix(1, 0, 0, 1, 0, 0)" xlink:href="#Ny_övertoningsruta_3"/><radialGradient id="Ny_övertoningsruta_3-28" cx="195.34" cy="9.18" r="37.54" gradientTransform="matrix(1, 0, 0, 1, 0, 0)" xlink:href="#Ny_övertoningsruta_3"/><radialGradient id="Ny_övertoningsruta_3-29" cx="194.71" cy="9.18" r="36.58" gradientTransform="matrix(1, 0, 0, 1, 0, 0)" xlink:href="#Ny_övertoningsruta_3"/><radialGradient id="Ny_övertoningsruta_3-30" cx="195.09" cy="8.42" r="36.97" gradientTransform="matrix(1, 0, 0, 1, 0, 0)" xlink:href="#Ny_övertoningsruta_3"/><radialGradient id="Ny_övertoningsruta_3-31" cx="195.03" cy="8.88" r="36.46" gradientTransform="matrix(1, 0, 0, 1, 0, 0)" xlink:href="#Ny_övertoningsruta_3"/><radialGradient id="Ny_övertoningsruta_3-32" cx="194.99" cy="8.89" r="36.67" gradientTransform="matrix(1, 0, 0, 1, 0, 0)" xlink:href="#Ny_övertoningsruta_3"/><radialGradient id="Ny_övertoningsruta_3-33" cx="194.96" cy="8.59" r="36.86" gradientTransform="matrix(1, 0, 0, 1, 0, 0)" xlink:href="#Ny_övertoningsruta_3"/><radialGradient id="Ny_övertoningsruta_3-34" cx="194.28" cy="8.2" r="37.82" gradientTransform="matrix(1, 0, 0, 1, 0, 0)" xlink:href="#Ny_övertoningsruta_3"/><radialGradient id="Ny_övertoningsruta_3-35" cx="195.04" cy="8.34" r="37.23" gradientTransform="matrix(1, 0, 0, 1, 0, 0)" xlink:href="#Ny_övertoningsruta_3"/><radialGradient id="Ny_övertoningsruta_3-36" cx="194.17" cy="8.17" r="37.63" gradientTransform="matrix(1, 0, 0, 1, 0, 0)" xlink:href="#Ny_övertoningsruta_3"/><radialGradient id="Ny_övertoningsruta_3-37" cx="194.24" cy="8.65" r="36.95" gradientTransform="matrix(1, 0, 0, 1, 0, 0)" xlink:href="#Ny_övertoningsruta_3"/><radialGradient id="Ny_övertoningsruta_3-38" cx="194.1" cy="8.6" r="36.73" gradientTransform="matrix(1, 0, 0, 1, 0, 0)" xlink:href="#Ny_övertoningsruta_3"/><radialGradient id="Ny_övertoningsruta_3-39" cx="193.2" cy="7.35" r="39" gradientTransform="matrix(1, 0, 0, 1, 0, 0)" xlink:href="#Ny_övertoningsruta_3"/></defs><path d="M9.05,61.83l-2.63-5H4.9v5H2.76V50.53H7c2.31,0,3.65,1.26,3.65,3.13a3.15,3.15,0,0,1-2,3l2.74,5.2ZM6.61,55.06c1.29,0,1.79-.61,1.79-1.43S7.92,52.3,6.58,52.3H4.9v2.76Z"/><path d="M11.75,57.76a4,4,0,0,1,4.2-4.2A4.2,4.2,0,0,1,16,62,4,4,0,0,1,11.75,57.76Zm6.28,0c0-1.49-.68-2.55-2.08-2.55s-2.09,1.06-2.09,2.55.68,2.55,2.09,2.55S18,59.24,18,57.76Z"/><path d="M21.63,61.83V50.24h2.05v4.53a3.3,3.3,0,0,1,2.56-1.21c2.17,0,3.44,2,3.44,4.18S28.33,62,26.13,62a3,3,0,0,1-2.45-1.25c0,.39-.07.79-.12,1.12Zm5.94-4.07c0-1.49-.62-2.55-2-2.55s-2,1.06-2,2.55.68,2.55,2,2.55S27.57,59.24,27.57,57.76Z"/><path d="M36.67,61.83a9.21,9.21,0,0,1-.11-1.2A3,3,0,0,1,34,62c-1.63,0-2.68-1.1-2.68-3v-5.3h2v5a1.49,1.49,0,0,0,1.51,1.64c1.08,0,1.71-1.11,1.71-3V53.69h2v8.14Z"/><path d="M40.68,61.83V53.69h1.94a12.08,12.08,0,0,1,.13,1.42,3.14,3.14,0,0,1,2.56-1.55,5.43,5.43,0,0,1,1,.1l-.39,2.05a3.43,3.43,0,0,0-.79-.1c-1.45,0-2.39.89-2.39,3.52v2.7Z"/><path class="cls-1" d="M213.2,24A21.2,21.2,0,1,1,192,2.8,21.2,21.2,0,0,1,213.2,24Z"/><path class="cls-2" d="M192,1a23,23,0,1,0,23,23A23,23,0,0,0,192,1Zm0,45a22,22,0,1,1,22-22A22,22,0,0,1,192,46Z"/><path class="cls-3" d="M192,2a22,22,0,1,0,22,22A22,22,0,0,0,192,2Zm0,43a21,21,0,1,1,21-21A21,21,0,0,1,192,45Z"/><path class="cls-4" d="M192,46.1A22.1,22.1,0,1,1,214.1,24,22.12,22.12,0,0,1,192,46.1Zm0-44A21.9,21.9,0,1,0,213.9,24,21.92,21.92,0,0,0,192,2.1Z"/><path class="cls-5" d="M210.39,26.9c-.15.7-2,.57-2.54.56a.92.92,0,0,0-.84.68,14.13,14.13,0,0,1-1.63.15c-1.66,0-2.1-.65-2.1-.65-.75,0-.81.66-1.53.89-.39.12-.9-.69-.9-.69a10.14,10.14,0,0,1-3.4-.25c-.47-.32-1.42-2-1.78-2a3.36,3.36,0,0,0-.55,0c-.5.06-.76.54-.7,1.33s.26,2.33.37,2.86c.22,1,2.14,1.42,3,1.84l.08.41c-.95-.12-3.2-.38-2.75.15.16.19.48.5.71.8v.34a10.14,10.14,0,0,0-3.76-.95,7.85,7.85,0,0,0-3.76.94l0-.38c.34-.32.55-.53.78-.77s-.7-.33-2.24-.25l.1-.42c.91-.27,2.33-.43,2.51-1.36s.34-3,.34-3c.14-1.24-.8-2-1.33-1.84A3.73,3.73,0,0,0,187,26c-.18.29.14.72.11,1.33,0,.35-1.13.37-2.43.28-.53,0-1.47,1-1.7,1.05a9.73,9.73,0,0,1-1.07.06c-.28,0-.59-.57-1.1-.6-.29,0-.7.56-.89.54a5.25,5.25,0,0,1-1.8-.53c-.18-.08.16-1.19.12-1.25a1.94,1.94,0,0,0-1.1.06c-.17.11-.64.54-.74.56a4.88,4.88,0,0,1-2.48.07,4.56,4.56,0,0,1,.24-1.52c.46-.46,1.36-1.22,1.23-1.48s-.94-.73-.78-1a4.2,4.2,0,0,1,.36-.52c.21-.27.7.08,1-.07s.43-.61.54-.65a3.37,3.37,0,0,1,.83-.05c.18,0,.44.74.57.74.32,0,.68,0,.79-.17a3.29,3.29,0,0,0,.3-1.24c0-.42-1.22-.77-1.23-1a3.62,3.62,0,0,1,.59-1.57c.32-.11.9-.33.86-.53-.1-.62-.42-1.85-.26-2a8.93,8.93,0,0,1,1.07-.77c.2-.14.52,0,.82.16a.82.82,0,0,0,1.08-.18c.12-.22.09-1.49.26-1.61s.69-.39.84-.48.87.33,1,.19c.39-.45.62-.77.56-1a6,6,0,0,1-.33-1.61,5.87,5.87,0,0,1,.5-1c.25-.32,1.15-.14,1.51-.45s.26-.84.91-.91a6.81,6.81,0,0,0,2.26-1.06,6.33,6.33,0,0,1,2.43.14c.31,0,.88-.52,1.15-.56a5.29,5.29,0,0,1,1.56.28c.23.1.26,1.11.79,1.28a6,6,0,0,0,1.25.33c1.07.14,1.38-.73,1.75-.64a2.44,2.44,0,0,1,1.29,1c.29.37-.2,1.7.49,2,.87.36,1.79,1.33,1.72,1.61s-.55,1.15-.34,1.44.81,0,1.08-.1a1.62,1.62,0,0,1,1.08.3,3.16,3.16,0,0,0,.76.79c.47.22,1.16.53,1.23.73.23.67-.32,1.59-.22,1.9,0,0,.87.32,1,.57a17.09,17.09,0,0,1,0,1.79,2.43,2.43,0,0,1,1.36-.05c.36.14.51.58.67,1.12,0,.14.5.21.55.33.27.65.25,1.08,0,1.19-.6.25-2,.73-1.79,1.3s.43.54.68.56a5.84,5.84,0,0,1,1.75.31A1.71,1.71,0,0,1,210.39,26.9Z"/><path class="cls-6" d="M206.85,18.4l-.53.37a.31.31,0,0,1,.09.11l.51-.32A.77.77,0,0,0,206.85,18.4Z"/><path class="cls-7" d="M206.91,18.53l-.51.33h0s0,.13,0,.24l.5-.34v-.1A.59.59,0,0,0,206.91,18.53Z"/><path class="cls-8" d="M206.93,18.75l-.5.33c0,.11,0,.28,0,.43l.51-.38Z"/><path class="cls-9" d="M206.93,19.11l-.51.37c0,.53,0,1.21,0,1.21l0,0,.59-.75H207S206.94,19.77,206.93,19.11Z"/><path class="cls-10" d="M204.3,14.68l-.46.42.27.31.48-.4A2.44,2.44,0,0,1,204.3,14.68Z"/><path class="cls-11" d="M204.56,15l-.47.4a2.19,2.19,0,0,0,.22.2l.48-.44A1.27,1.27,0,0,1,204.56,15Z"/><path class="cls-6" d="M207,19.93l-.6.75.42-.1.59-.67A1.85,1.85,0,0,0,207,19.93Z"/><path class="cls-12" d="M206.79,20.59a1,1,0,0,1,.19,0l.56-.63-.16,0Z"/><path class="cls-12" d="M203.68,14.89l.18.23.46-.42c-.06-.08-.16-.2-.27-.32a1,1,0,0,0-.5-.29l-.58.52A1.42,1.42,0,0,1,203.68,14.89Z"/><path class="cls-13" d="M192.75,7.57,192.7,7a4.16,4.16,0,0,0-.51.28l.05.6Z"/><path class="cls-14" d="M207.52,19.93l-.57.63h.16l.54-.6Z"/><path class="cls-15" d="M207.63,20l-.55.6a1.65,1.65,0,0,1,.69.09l.36-.52A1.65,1.65,0,0,0,207.63,20Z"/><path class="cls-12" d="M204.45,15.68l.16.08.5-.46-.19-.09-.16-.08-.48.44A.69.69,0,0,0,204.45,15.68Z"/><path class="cls-16" d="M193,7.46h.24l0-.55h-.22a1.07,1.07,0,0,0-.4.1l0,.58A1,1,0,0,1,193,7.46Z"/><path class="cls-17" d="M194.38,7.66l.36-.44a8.59,8.59,0,0,0-1.46-.31l0,.55A6.33,6.33,0,0,1,194.38,7.66Z"/><path class="cls-18" d="M194.56,7.72c.06,0,.11.13.17.28l.38-.49a.48.48,0,0,0-.26-.25l-.14,0-.35.45Z"/><path class="cls-6" d="M194.87,8.41l.41-.55a1.82,1.82,0,0,0-.18-.37l-.38.48C194.76,8.09,194.81,8.26,194.87,8.41Z"/><path class="cls-10" d="M195.23,9l.36-.49c-.13-.08-.21-.36-.32-.62l-.41.54A1.14,1.14,0,0,0,195.23,9Z"/><path class="cls-17" d="M195.36,9a5.64,5.64,0,0,0,1.48.35l.07-.57a2.81,2.81,0,0,1-1.34-.35l-.36.49A.53.53,0,0,0,195.36,9Z"/><path class="cls-11" d="M198,8.89l.08-.73a2.61,2.61,0,0,0-.57.36l-.12.76A2.2,2.2,0,0,0,198,8.89Z"/><path class="cls-19" d="M197.37,9.27l.13-.77a1.16,1.16,0,0,1-.61.3l-.08.57A1.4,1.4,0,0,0,197.37,9.27Z"/><path class="cls-20" d="M198.37,8.71l.11,0,.12-.56a.88.88,0,0,0-.3-.07.67.67,0,0,0-.28.06l-.08.74C198.1,8.78,198.23,8.68,198.37,8.71Z"/><path class="cls-21" d="M198.85,8.91l.12-.56a3.34,3.34,0,0,0-.4-.18l-.11.57A1.71,1.71,0,0,1,198.85,8.91Z"/><path class="cls-22" d="M199.19,9.16l.21-.53a4.82,4.82,0,0,0-.45-.29l-.12.56A2.47,2.47,0,0,1,199.19,9.16Z"/><path class="cls-23" d="M199.6,9.6l.46-.35a3.49,3.49,0,0,0-.68-.64l-.22.53A2.78,2.78,0,0,1,199.6,9.6Z"/><path class="cls-24" d="M199.7,9.76l.48-.32a.41.41,0,0,0-.06-.11l-.08-.1-.46.34.07.08A.61.61,0,0,1,199.7,9.76Z"/><path class="cls-6" d="M199.74,10.61l.57-.41a2,2,0,0,0-.15-.8l-.47.33A3,3,0,0,1,199.74,10.61Z"/><path class="cls-9" d="M199.85,11.37l.5-.39a6.07,6.07,0,0,1,0-.8l-.57.41A1.59,1.59,0,0,0,199.85,11.37Z"/><path class="cls-25" d="M200,11.53l.5-.37a.23.23,0,0,1-.11-.2l-.52.39A.68.68,0,0,0,200,11.53Z"/><path class="cls-26" d="M200.44,11.15l-.5.36a.83.83,0,0,0,.18.13l.11,0,.48-.36Z"/><path class="cls-21" d="M200.64,11.91l.44-.32-.39-.28-.48.36Z"/><path class="cls-15" d="M201.64,12.8l.43-.3a7.13,7.13,0,0,0-1-.93l-.44.33A4.58,4.58,0,0,1,201.64,12.8Z"/><path class="cls-19" d="M201.78,13l.43-.32a1.46,1.46,0,0,0-.16-.21l-.42.3A1.82,1.82,0,0,1,201.78,13Z"/><path class="cls-6" d="M201.84,13.24l.5-.34a1.42,1.42,0,0,0-.14-.23l-.43.31A.41.41,0,0,1,201.84,13.24Z"/><path class="cls-9" d="M201.84,13.24a4,4,0,0,1-.14.41l.72-.49a.69.69,0,0,0-.09-.29l-.48.35Z"/><path class="cls-27" d="M201.54,14.71l.74-.69c-.14,0,0-.37.13-.75a.53.53,0,0,0,0-.13l-.71.48c-.21.53-.32.88-.19,1.07C201.53,14.7,201.53,14.71,201.54,14.71Z"/><path class="cls-26" d="M201.73,14.75l.82-.75-.21,0a.13.13,0,0,1-.09,0l-.73.68S201.62,14.75,201.73,14.75Z"/><path class="cls-15" d="M202.6,14.6a1.21,1.21,0,0,1,.41,0l.56-.52a2.86,2.86,0,0,0-1-.1l-.82.75A4,4,0,0,0,202.6,14.6Z"/><path class="cls-23" d="M205.19,16.05l.56-.41a5.48,5.48,0,0,0-.67-.36l-.5.46Z"/><path class="cls-12" d="M205.5,16.24l.55-.34a1.81,1.81,0,0,0-.33-.28l-.55.42Z"/><path class="cls-6" d="M205.67,16.44l.54-.28a1.21,1.21,0,0,0-.18-.28l-.56.34c.08.06.17.13.19.2Z"/><path class="cls-7" d="M205.65,17.29l.6-.37a2.13,2.13,0,0,0-.05-.78l-.54.28A1.61,1.61,0,0,1,205.65,17.29Z"/><path class="cls-9" d="M205.43,18.32h0l.61-.38v0a6.87,6.87,0,0,0,.17-1l-.59.37A4,4,0,0,0,205.43,18.32Z"/><path class="cls-12" d="M205.71,18.44l.57-.41c-.14-.05-.21-.08-.2-.12l-.65.41Z"/><path class="cls-15" d="M206.34,18.79l.53-.35a1.11,1.11,0,0,0-.61-.42l-.57.41A2,2,0,0,1,206.34,18.79Z"/><path class="cls-12" d="M208.1,20.11l-.35.52a.63.63,0,0,1,.28.21l.37-.48A.91.91,0,0,0,208.1,20.11Z"/><path class="cls-6" d="M208.63,20.75a1.87,1.87,0,0,0-.25-.41l-.37.48a1,1,0,0,1,.22.38Z"/><path class="cls-28" d="M208.4,21.74c0,.05.09.1.21.14l.42-.48-.09-.06c-.13-.09-.2-.34-.32-.61l-.4.45A3.69,3.69,0,0,1,208.4,21.74Z"/><path class="cls-12" d="M209,21.39l-.43.48c.15.07.35.12.38.2l0,0,.37-.47Z"/><path class="cls-29" d="M209.33,21.6l-.37.47s0,.1.06.13l.43-.47A.74.74,0,0,0,209.33,21.6Z"/><path class="cls-9" d="M209.07,23.14l.53.17a2.09,2.09,0,0,0-.13-1.54l0-.06-.42.46C209.18,22.62,209.2,23,209.07,23.14Z"/><path class="cls-30" d="M208.94,23.24c-.26.11-.7.27-1.07.46l.67.3.79-.37a.64.64,0,0,0,.28-.35l-.53-.17A.29.29,0,0,1,208.94,23.24Z"/><path class="cls-31" d="M208.57,24l-.68-.29a3.28,3.28,0,0,0-.37.22l.69.24Z"/><path class="cls-32" d="M207.54,23.9a1,1,0,0,0-.37.35l.73.07a.37.37,0,0,1,.14-.09l.2-.1Z"/><path class="cls-31" d="M207.92,24.3l-.74-.08a.39.39,0,0,0,0,.35l.68-.09C207.8,24.42,207.86,24.35,207.92,24.3Z"/><path class="cls-33" d="M207.81,24.46l-.68.09a1.36,1.36,0,0,0,.14.27l.68-.27C207.84,24.54,207.81,24.5,207.81,24.46Z"/><path class="cls-9" d="M207.49,25l.71-.47-.28,0-.66.26A.56.56,0,0,0,207.49,25Z"/><path class="cls-28" d="M207.84,25.13H208l.75-.53c-.2,0-.4,0-.54-.05l-.71.47A.86.86,0,0,0,207.84,25.13Z"/><path class="cls-29" d="M208.87,25.24l.68-.47a4.57,4.57,0,0,0-.85-.17l-.75.54C208.24,25.17,208.58,25.19,208.87,25.24Z"/><path class="cls-22" d="M209.58,25.43a.85.85,0,0,1,.21.14l.5-.36a1.54,1.54,0,0,0-.53-.38l-.23-.07-.68.47A2.8,2.8,0,0,1,209.58,25.43Z"/><path class="cls-34" d="M210.05,25.85l.48-.32a2,2,0,0,0-.26-.34l-.51.35A1.74,1.74,0,0,1,210.05,25.85Z"/><path class="cls-13" d="M210.37,26.89a.41.41,0,0,1-.09.19l.54.32a1,1,0,0,0,.12-.38,2.59,2.59,0,0,0-.43-1.51l-.48.32A1.54,1.54,0,0,1,210.37,26.89Z"/><path class="cls-7" d="M210.83,27.37l-.53-.31c-.25.32-1,.4-1.61.4l.2.61C209.65,28,210.53,27.9,210.83,27.37Z"/><path class="cls-32" d="M207.84,27.45a.8.8,0,0,0-.26,0l.17.59h0c.08,0,.57,0,1.13,0l-.2-.61C208.35,27.47,208,27.45,207.84,27.45Z"/><path class="cls-7" d="M207.07,27.93l.27.74c.2-.17.22-.57.44-.6l-.17-.59A.88.88,0,0,0,207.07,27.93Z"/><path class="cls-35" d="M207.36,28.64l-.27-.73a1.1,1.1,0,0,0-.11.25l.21.58.12,0Z"/><path class="cls-32" d="M205.38,28.27c-1.66,0-2.09-.65-2.09-.65h0l-.19.7a.3.3,0,0,1,.13.06,4.44,4.44,0,0,0,2.15.52,7.71,7.71,0,0,0,1.85-.17l-.22-.6A14.4,14.4,0,0,1,205.38,28.27Z"/><path class="cls-30" d="M202.43,28.05l-.21.93a2.66,2.66,0,0,0,.63-.51c.14-.13.19-.17.25-.14l.19-.71A1.06,1.06,0,0,0,202.43,28.05Z"/><path class="cls-35" d="M201.73,28.51l-.14.65a1.36,1.36,0,0,0,.66-.19l.21-.95A1.54,1.54,0,0,1,201.73,28.51Z"/><path class="cls-32" d="M200.85,27.81h0l-.32.62h0a1.32,1.32,0,0,0,1.07.72l.14-.66C201.36,28.63,200.85,27.81,200.85,27.81Z"/><path class="cls-35" d="M197.44,27.56l-.36.52a5,5,0,0,0,2,.36l.26-.6A5,5,0,0,1,197.44,27.56Z"/><path class="cls-32" d="M195.67,25.54h-.41l.11.6a.27.27,0,0,1,.2.08c.38.29,1.27,1.74,1.54,1.87l.35-.51C197,27.25,196,25.56,195.67,25.54Z"/><path class="cls-35" d="M195.29,25.54a1,1,0,0,0-.45.1l.31.57a.52.52,0,0,1,.25-.07Z"/><path class="cls-32" d="M194.54,26l.49.54a.39.39,0,0,1,.14-.32l-.31-.56A.71.71,0,0,0,194.54,26Z"/><path class="cls-30" d="M199.32,27.84l-.27.6c.58,0,1.16,0,1.49,0l.31-.63A12.3,12.3,0,0,1,199.32,27.84Z"/><path class="cls-36" d="M194.39,26.79l.67.43a3.26,3.26,0,0,1,0-.75l-.48-.53A1.72,1.72,0,0,0,194.39,26.79Z"/><path class="cls-9" d="M194.81,29.88l.57-.18c0-.2-.25-1.71-.33-2.5l-.66-.44A29.61,29.61,0,0,0,194.81,29.88Z"/><path class="cls-37" d="M195.38,29.68l-.58.18a1.43,1.43,0,0,0,.23.38l.52-.33A.4.4,0,0,1,195.38,29.68Z"/><path class="cls-12" d="M195.53,29.89l-.52.32a2.56,2.56,0,0,0,.73.56l.39-.51A3.34,3.34,0,0,1,195.53,29.89Z"/><path class="cls-38" d="M196.66,31.18l.31-.53c-.28-.12-.61-.27-.87-.4l-.39.5A9.14,9.14,0,0,0,196.66,31.18Z"/><path class="cls-39" d="M197.42,31.48l.3-.52-.78-.33-.31.53Z"/><path class="cls-40" d="M197.76,31.63l.37-.43a1.09,1.09,0,0,0-.44-.25l-.3.51Z"/><path class="cls-36" d="M197.81,32l.56.52c.12-.08,0-.67-.1-1a1,1,0,0,0-.16-.35l-.38.45Z"/><path class="cls-35" d="M197,31.9l.54.59.67.1c.14,0,.18,0,.21-.05L197.8,32Z"/><path class="cls-35" d="M195.76,33.31l.47.61c.14-.07.11-.48.1-.77l-.57-.18Z"/><path class="cls-41" d="M196.09,32.41a8.49,8.49,0,0,1,1.45.09l-.54-.59c-.87-.09-2-.15-2,.11l1.06.46C196,32.42,196.06,32.41,196.09,32.41Z"/><path class="cls-30" d="M196,32.43,195,32a.2.2,0,0,0,0,.16,10.57,10.57,0,0,1,.75.85l.54.17a2,2,0,0,0-.05-.32C196.21,32.66,196,32.49,196,32.43Z"/><path class="cls-32" d="M195.52,33.17l0,.66c.41.15.62.15.71.07l-.5-.63Z"/><path class="cls-35" d="M192.45,32.35l-.13.62a8.72,8.72,0,0,1,3,.75l.29.12,0-.66A9.83,9.83,0,0,0,192.45,32.35Z"/><path class="cls-32" d="M188.48,33.16l-.29.77a8.06,8.06,0,0,1,4.16-1l.13-.62A7.62,7.62,0,0,0,188.48,33.16Z"/><path class="cls-42" d="M188.23,33.28l-.41.7c.07.05.21,0,.41-.07l.29-.77Z"/><path class="cls-32" d="M187.77,33.92a.15.15,0,0,0,.08.08l.42-.74,0-.38-.58,0A2.4,2.4,0,0,0,187.77,33.92Z"/><path class="cls-36" d="M188.06,32.37c.15,0-.36.29-.41.53h.59c.34-.32.56-.53.78-.77,0,0,.08-.09,0-.14Z"/><path class="cls-42" d="M188.46,31.84l-.66.51c.22,0,.27,0,.28,0l1-.36C189.08,31.92,188.86,31.86,188.46,31.84Z"/><path class="cls-32" d="M186.74,31.87l-.59.41c.11.22,1,0,1.68.07l.66-.51A15.47,15.47,0,0,0,186.74,31.87Z"/><path class="cls-36" d="M186.89,31.45l-.33-.44a2.21,2.21,0,0,0-.42,1.2.17.17,0,0,0,0,.1l.61-.44Z"/><path class="cls-13" d="M188,31.2l-.45-.49-.89.25-.1.07.34.46C187.2,31.39,187.66,31.29,188,31.2Z"/><path class="cls-43" d="M188.64,31l-.48-.47a5.66,5.66,0,0,1-.66.24l.44.49A3.89,3.89,0,0,0,188.64,31Z"/><path class="cls-37" d="M189.19,30.54l-.47-.46a1.54,1.54,0,0,1-.58.41l.48.48A1.65,1.65,0,0,0,189.19,30.54Z"/><path class="cls-44" d="M189.39,30.12c.15-.81.36-3.1.35-3.23l-.63.17c-.07.81-.18,2.31-.31,2.85a.39.39,0,0,1-.1.19l.47.46A.92.92,0,0,0,189.39,30.12Z"/><path class="cls-30" d="M189.39,25.76l-.47.36a1.57,1.57,0,0,1,.19,1l.63-.18A1.94,1.94,0,0,0,189.39,25.76Z"/><path class="cls-32" d="M188.38,25.26A3.75,3.75,0,0,0,187,26l.64.44c-.07-.29.75-.62.91-.62a.55.55,0,0,1,.37.3l.47-.35A1,1,0,0,0,188.38,25.26Z"/><path class="cls-30" d="M187,26c-.12.2,0,.46.06.78l.68.52a4.66,4.66,0,0,0-.11-.88L187,26Z"/><path class="cls-35" d="M187.13,27.34a.12.12,0,0,1,0,.09l.4.45a.73.73,0,0,0,.27-.6l-.69-.52A2.07,2.07,0,0,1,187.13,27.34Z"/><path class="cls-36" d="M186.67,27.6l.25.52a1.12,1.12,0,0,0,.59-.25l-.41-.45C187.05,27.5,186.9,27.56,186.67,27.6Z"/><path class="cls-32" d="M184.7,27.61l.13.58c.45,0,1.57,0,2.11-.07l-.25-.52A11,11,0,0,1,184.7,27.61Z"/><path class="cls-45" d="M183.71,28.13l.19.65a3.14,3.14,0,0,1,.79-.58h.16l-.13-.58A1.88,1.88,0,0,0,183.71,28.13Z"/><path class="cls-35" d="M183.74,28.11c-.36.28-.62.54-.75.55l.16.58a2.06,2.06,0,0,0,.77-.48Z"/><path class="cls-32" d="M182,28.72c-.25,0-.56-.47-1-.58l0,.59a.33.33,0,0,1,.17.1,1.19,1.19,0,0,0,.78.47,9.81,9.81,0,0,0,1.28-.06l-.17-.58A7.33,7.33,0,0,1,182,28.72Z"/><path class="cls-46" d="M180.85,28.11c-.2,0-.46.26-.66.43l.12.64a3.43,3.43,0,0,0,.49-.41.18.18,0,0,1,.18,0l0-.6Z"/><path class="cls-35" d="M180.22,28.52a.53.53,0,0,1-.27.15h0l0,.6a.67.67,0,0,0,.37-.11Z"/><path class="cls-32" d="M178.18,28.14a.11.11,0,0,1,0-.05l-.5.32a1,1,0,0,0,.35.3,6.3,6.3,0,0,0,2,.56l-.05-.6A5.32,5.32,0,0,1,178.18,28.14Z"/><path class="cls-47" d="M178.24,27.27l-.67.52c0,.07,0,.18,0,.29a.52.52,0,0,0,.12.36l.49-.33A1.87,1.87,0,0,1,178.24,27.27Z"/><path class="cls-35" d="M178.3,26.88h0l-.76.62h0s0,.09,0,.32l.66-.51A1.45,1.45,0,0,0,178.3,26.88Z"/><path class="cls-32" d="M177.31,26.89l.06.73a.48.48,0,0,1,.11-.09.13.13,0,0,1,.07,0l.75-.61A2.28,2.28,0,0,0,177.31,26.89Z"/><path class="cls-48" d="M177.17,27c-.12.07-.4.32-.58.45l.27.58a5.77,5.77,0,0,0,.53-.38l0-.72A.54.54,0,0,0,177.17,27Z"/><path class="cls-32" d="M176.43,27.5a4.59,4.59,0,0,1-2.47.07l-.54.29,0,0c.24.32,1.31.51,3.08.21a1,1,0,0,0,.36-.13l-.27-.59A.66.66,0,0,1,176.43,27.5Z"/><path class="cls-48" d="M174.14,26.28l-.54-.22a4.81,4.81,0,0,0-.16,1.83l.54-.31A6.49,6.49,0,0,1,174.14,26.28Z"/><path class="cls-49" d="M174.22,26.09l.22-.22-.54-.35a1.81,1.81,0,0,0-.18.23,1.42,1.42,0,0,0-.13.34l.54.22A.59.59,0,0,1,174.22,26.09Z"/><path class="cls-50" d="M175.45,24.61l-.85.1,0,0c.07.12-.43.47-.74.8l.53.36C174.86,25.47,175.52,24.86,175.45,24.61Z"/><path class="cls-51" d="M175.44,24.59a5.79,5.79,0,0,0-.48-.46l-.73.06a5.84,5.84,0,0,0,.39.55l.83-.1A.09.09,0,0,0,175.44,24.59Z"/><path class="cls-8" d="M174.65,23.65l-.64,0a1.22,1.22,0,0,0,.24.58l.74-.05C174.81,24,174.62,23.79,174.65,23.65Z"/><path class="cls-6" d="M174.79,23.41l-.61-.18-.15.27a.26.26,0,0,0,0,.15l.64,0C174.64,23.62,174.66,23.6,174.79,23.41Z"/><path class="cls-25" d="M175,23.07a.24.24,0,0,1,.11-.08l-.22-.56a2.13,2.13,0,0,0-.76.83l.61.18A4.28,4.28,0,0,1,175,23.07Z"/><path class="cls-9" d="M175.54,23l-.09-.66a.8.8,0,0,0-.56.09l.22.55A.72.72,0,0,1,175.54,23Z"/><path class="cls-6" d="M175.42,22.36l.1.65a1,1,0,0,0,.38,0l-.12-.71A1.89,1.89,0,0,1,175.42,22.36Z"/><path class="cls-25" d="M175.84,22.31l-.08,0,.12.7A.2.2,0,0,0,176,23Z"/><path class="cls-49" d="M176.32,22.65l-.21-.69c-.13.15-.24.34-.29.37L176,23A1.1,1.1,0,0,0,176.32,22.65Z"/><path class="cls-6" d="M176.1,22l.2.7a2.62,2.62,0,0,1,.17-.27l-.17-.61A.71.71,0,0,0,176.1,22Z"/><path class="cls-25" d="M176.52,22.37l.08,0-.07-.63-.15,0-.1,0,.17.62Z"/><path class="cls-9" d="M177.19,22.31l0-.61a3.33,3.33,0,0,0-.73,0l.08.62A4.77,4.77,0,0,1,177.19,22.31Z"/><path class="cls-25" d="M177.2,21.7l0,.61h.18l.15-.61Z"/><path class="cls-19" d="M177.5,21.71h0l-.15.61h0s0,0,.08,0l.27-.61Z"/><path class="cls-49" d="M177.61,22.63l.29-.69a.41.41,0,0,0-.23-.19l-.27.59A1.14,1.14,0,0,1,177.61,22.63Z"/><path class="cls-25" d="M177.81,23l.29-.73c-.07-.1-.15-.25-.22-.33l-.29.68C177.66,22.71,177.74,22.87,177.81,23Z"/><path class="cls-49" d="M177.92,23.06h.13l.19-.64a1.29,1.29,0,0,1-.17-.21l-.28.72C177.84,23,177.88,23.06,177.92,23.06Z"/><path class="cls-48" d="M178.63,23l-.27-.57,0,0c-.05,0-.06,0-.11,0l-.2.66A1.31,1.31,0,0,0,178.63,23Z"/><path class="cls-49" d="M178.73,22.88a.67.67,0,0,0,.06-.15l-.39-.47c0,.09,0,.15-.06.16h0l.27.56A.24.24,0,0,0,178.73,22.88Z"/><path class="cls-6" d="M178.9,22.43l-.47-.4a1.78,1.78,0,0,1,0,.26l.4.46A2.39,2.39,0,0,0,178.9,22.43Z"/><path class="cls-52" d="M179,21.63a.17.17,0,0,0,0-.07l-.62.18a.64.64,0,0,1,0,.32l.47.39A2.9,2.9,0,0,0,179,21.63Z"/><path class="cls-51" d="M178.62,21.18l-.65.25c.2.13.41.26.43.33l.62-.18A.8.8,0,0,0,178.62,21.18Z"/><path class="cls-53" d="M178.16,20.91l-.61.22a4.6,4.6,0,0,0,.45.32l.65-.25A4.85,4.85,0,0,0,178.16,20.91Z"/><path class="cls-9" d="M177.8,20.6l-.54.14a.83.83,0,0,0,.31.41l.62-.22C177.91,20.77,177.79,20.69,177.8,20.6Z"/><path class="cls-54" d="M177.28,20.48s0,.11,0,.14a.33.33,0,0,0,0,.14l.54-.14a1.06,1.06,0,0,1,0-.2Z"/><path class="cls-9" d="M177.86,20.29l-.53,0c0,.08,0,.18-.06.24l.55-.06S177.84,20.35,177.86,20.29Z"/><path class="cls-49" d="M178.26,19.22l-.48-.27a6.26,6.26,0,0,0-.46,1.34l.53,0A4.84,4.84,0,0,1,178.26,19.22Z"/><path class="cls-43" d="M177.77,19l.48.28a.45.45,0,0,1,.11-.15l-.49-.29Z"/><path class="cls-6" d="M178.52,19l-.53-.36a.54.54,0,0,0-.14.16l.49.28s0,0,0,0Z"/><path class="cls-55" d="M179,18.81l-.55-.36-.45.2-.06.05.52.35A4.25,4.25,0,0,0,179,18.81Z"/><path class="cls-43" d="M178.64,18.3v0a.46.46,0,0,1-.18.12l.54.36c.14-.08.26-.19.25-.28Z"/><path class="cls-49" d="M179.25,18.54c0-.21-.1-.52-.16-.81l-.56-.14a4.45,4.45,0,0,1,.11.73l.61.24Z"/><path class="cls-6" d="M179,16.82l-.51-.14a6.13,6.13,0,0,0,.1.94l.56.14A6.9,6.9,0,0,1,179,16.82Z"/><path class="cls-56" d="M179,16.55l.15-.13-.51-.36a.81.81,0,0,0-.19.64l.51.15C178.94,16.69,179,16.58,179,16.55Z"/><path class="cls-57" d="M179.91,15.87l-.2-.63c-.32.22-.83.61-1.1.84l.5.37C179.35,16.25,179.67,16,179.91,15.87Z"/><path class="cls-48" d="M180,15.78a.36.36,0,0,1,.19,0l0-.66a.56.56,0,0,0-.34.08l-.17.11.19.63Z"/><path class="cls-58" d="M180.62,15.84v-.67a1.21,1.21,0,0,0-.44-.1l0,.66A1.26,1.26,0,0,1,180.62,15.84Z"/><path class="cls-12" d="M180.6,15.16v.67a1.22,1.22,0,0,0,1.07.16l-.22-.57C181.34,15.5,181,15.28,180.6,15.16Z"/><path class="cls-52" d="M182,15.75l-.48-.42c0,.06,0,.08,0,.1l.21.57A.57.57,0,0,0,182,15.75Z"/><path class="cls-57" d="M181.52,14.67c0,.19,0,.43,0,.69l.47.41a2.09,2.09,0,0,0,.1-.61Z"/><path class="cls-9" d="M182.07,14.89l-.52-.51c0,.09,0,.21,0,.31l.53.49A2.83,2.83,0,0,1,182.07,14.89Z"/><path class="cls-6" d="M182.15,14.28l-.42-.45a1.13,1.13,0,0,0-.18.58l.52.5A3.25,3.25,0,0,1,182.15,14.28Z"/><path class="cls-59" d="M182.21,14.16l.17-.11-.39-.43-.2.14-.08.09.43.45A.26.26,0,0,1,182.21,14.16Z"/><path class="cls-57" d="M182.9,13.75l-.17-.59a5.89,5.89,0,0,0-.77.48l.4.43Z"/><path class="cls-9" d="M183,13.68a.23.23,0,0,1,.15,0l-.18-.62a1.38,1.38,0,0,0-.29.12l.17.6Z"/><path class="cls-58" d="M183.32,13.7l-.18-.66a.35.35,0,0,0-.17,0l.19.61Z"/><path class="cls-12" d="M183.71,13.84l-.17-.68a1.93,1.93,0,0,0-.42-.12l.17.65Z"/><path class="cls-60" d="M184,13.86v0l-.22-.59h0a2.51,2.51,0,0,1-.29-.1l.18.68C183.85,13.88,184,13.92,184,13.86Z"/><path class="cls-9" d="M184.23,13.63l-.29-.51c-.06.08-.11.13-.14.13l.24.61Z"/><path class="cls-57" d="M184.61,13l-.57-.12v0a.63.63,0,0,1-.12.23l.29.51A1.78,1.78,0,0,0,184.61,13Z"/><path class="cls-61" d="M184.61,12.85a1,1,0,0,1-.05-.18l-.61-.13c.05.19.09.34.09.37l.56.11A.33.33,0,0,0,184.61,12.85Z"/><path class="cls-9" d="M184.38,12l-.58-.12c0,.23.11.5.16.69l.6.12C184.51,12.5,184.43,12.24,184.38,12Z"/><path class="cls-62" d="M184.29,11.22l-.54-.13a.8.8,0,0,0,0,.15,2.3,2.3,0,0,0,.08.66l.58.13C184.27,11.56,184.23,11.32,184.29,11.22Z"/><path class="cls-6" d="M184.65,10.49,184.3,10a4.4,4.4,0,0,0-.56,1.1l.54.14A6.67,6.67,0,0,1,184.65,10.49Z"/><path class="cls-13" d="M184.78,10.29l.13-.1-.27-.56a1.29,1.29,0,0,0-.21.19l-.15.22.35.47Z"/><path class="cls-57" d="M185.27,10.09l-.26-.6a1.38,1.38,0,0,0-.39.16l.26.55A1.21,1.21,0,0,1,185.27,10.09Z"/><path class="cls-63" d="M185,9.5l.26.59c.36-.06.83-.06,1.06-.27l-.24-.69C185.89,9.45,185.4,9.4,185,9.5Z"/><path class="cls-9" d="M186.63,9.37l-.26-.72a1.24,1.24,0,0,0-.28.43.25.25,0,0,1,0,.07l.24.68h0A1.4,1.4,0,0,0,186.63,9.37Z"/><path class="cls-6" d="M187.21,8.93l-.13-.58a1.16,1.16,0,0,0-.73.33l.26.72C186.72,9.16,186.76,9,187.21,8.93Z"/><path class="cls-19" d="M188,8.72l-.14-.57a2.17,2.17,0,0,1-.68.19h-.07l.12.58A2.54,2.54,0,0,0,188,8.72Z"/><path class="cls-13" d="M188.73,8.31l-.16-.57a3.87,3.87,0,0,1-.78.42l.13.57A5.6,5.6,0,0,0,188.73,8.31Z"/><path class="cls-25" d="M189.41,7.9l-.12-.61a1.05,1.05,0,0,0-.26.13c-.13.1-.29.22-.48.34l.16.57C189,8.15,189.26,8,189.41,7.9Z"/><path class="cls-19" d="M189.45,7.88a2.41,2.41,0,0,1,1.05-.08l0-.54a2.8,2.8,0,0,0-1.2,0l.13.61Z"/><path class="cls-21" d="M191.42,7.92l0-.51c-.27,0-.62-.12-.95-.16l0,.55C190.8,7.82,191.16,7.88,191.42,7.92Z"/><path class="cls-19" d="M191.87,8h0V7.45a1.53,1.53,0,0,1-.53,0l0,.51C191.68,8,191.87,8,191.87,8Z"/><path class="cls-16" d="M192.26,7.86l0-.6a1.54,1.54,0,0,1-.35.2V8A1,1,0,0,0,192.26,7.86Z"/><path class="cls-64" d="M190.91,19.46c-.07.17-.26.85-.56,1.06s-1.14,0-1.34.08a.34.34,0,0,0,.05.57,25.64,25.64,0,0,1,2.5,1.34c.08,0,.2,0,.24-.18s.45-2.67.41-2.77C192.07,19.22,191,19.31,190.91,19.46Z"/><path class="cls-65" d="M193.82,19.94c0,.07-.37,2.77-.31,2.8s.89-.88,2.4-1.9c.08-.05,0-.22,0-.24a3.52,3.52,0,0,0-.68-.85C195.12,19.75,193.83,19.92,193.82,19.94Z"/><path class="cls-66" d="M194.43,24.13c0,.15,1,.34,1.81.05.21-.06.51-.89.9-1s1.34.27,1.64,0,.19-.85-.16-.87a6.46,6.46,0,0,1-1.75-.31C196.78,22,194.54,23.22,194.43,24.13Z"/><path class="cls-67" d="M187.73,22.38c-.08.05-.29.6-.51.76a.61.61,0,0,1-.4.09,1.72,1.72,0,0,1-.72-.17,1,1,0,0,0-.43-.14c-.25,0-.51.29-.61.59-.23.69,1.1,1,1.28,1.07a2.47,2.47,0,0,0,1.32-.42,2.2,2.2,0,0,1,1-.3c.28,0,.64.18,1.11.23a.31.31,0,0,0,.21-.15.47.47,0,0,0,0-.4,9.82,9.82,0,0,0-1.64-1A1.09,1.09,0,0,0,187.73,22.38Z"/><path class="cls-68" d="M204.32,23.89a1,1,0,0,0,.1.49c0,.06.52,0,.54-.05s0-.4-.36-.66C204.54,23.62,204.31,23.79,204.32,23.89Z"/><path class="cls-69" d="M176.33,25.11a1,1,0,0,0,0,.7c.2.17.83-.29.94-.44a.4.4,0,0,0,.12-.31c0-.21-.12-.25-.2-.25A4,4,0,0,0,176.33,25.11Z"/><path class="cls-70" d="M205.61,22a.33.33,0,0,0-.32.37c0,.23.15.41.65.38s.6.29.86.29c.56,0,.45-.54.46-.79S206.27,22,205.61,22Z"/><path class="cls-71" d="M202.21,16.43a.37.37,0,0,0-.28.46c.07.09.37,0,.76.22a4.26,4.26,0,0,1,.66,1,.78.78,0,0,0,.72.25c.17-.1-.17-1.15-.28-1.2a10.73,10.73,0,0,1-.92-.6A2,2,0,0,0,202.21,16.43Z"/><path class="cls-72" d="M204.17,20.4a.41.41,0,0,0-.17.49,1.18,1.18,0,0,0,.86.21.28.28,0,0,0,.14-.35c0-.11-.27-.76-.46-.76S204.33,20.27,204.17,20.4Z"/><path class="cls-73" d="M181.55,20.66a2.42,2.42,0,0,0-.69.87c-.08.13-.17.4-.1.4a.39.39,0,0,0,.39-.17c.27-.43.63-.23.78-.37.4-.38.4-.79.35-.85A.86.86,0,0,0,181.55,20.66Z"/><path class="cls-74" d="M199.9,14.17a1.22,1.22,0,0,0,0,1.2c.09.08.39,0,.45-.08a1,1,0,0,0-.22-1C200.07,14.2,200,14.13,199.9,14.17Z"/><path class="cls-75" d="M201.1,18.76c-.18.06-.56.41-.48.55s.2.15.64.09c.18,0,.39.32.5.37a2.56,2.56,0,0,0,.64.18.45.45,0,0,0,.28-.36c0-.06-.37-.3-.46-.42-.24-.28-.07-.45-.15-.56S201.26,18.71,201.1,18.76Z"/><path class="cls-76" d="M195.93,16.7c0,.09.26.27.36.25a3.88,3.88,0,0,1,.44-.14c.38,0,1,.45,1.26.39a.47.47,0,0,0,.16-.47,1.24,1.24,0,0,0-.8-.36c-.35,0-.61-.23-.75-.16C196.08,16.46,196,16.42,195.93,16.7Z"/><path class="cls-77" d="M197,13.7c0,.09.14.24.51.56.16.13.19.43.39.67,0,0,.35.13.36.06.05-.29-.18-.4-.16-.71,0-.49,0-.62-.06-.73a1.36,1.36,0,0,0-.69-.18C197.21,13.37,197,13.56,197,13.7Z"/><path class="cls-78" d="M192.47,11.48c0,.22.31.56.44.56s.5-.3.83-.29a.45.45,0,0,0,.48-.52.47.47,0,0,0-.37-.18.55.55,0,0,1-.65,0C193,10.92,192.58,10.93,192.47,11.48Z"/><path class="cls-79" d="M197.18,11.43c.06.2.16.17.24.1a.72.72,0,0,1,.49-.19c.32,0,.69,1,.82,1s.13-.43.1-.62a2,2,0,0,0-.39-.74,1.5,1.5,0,0,0-.79-.42C197.38,10.54,197.12,11.23,197.18,11.43Z"/><path class="cls-80" d="M193.87,13.26c-.26.36-.51.39-.78.64s-.21.67,0,.67.26-.29,1-.56a1.63,1.63,0,0,1,1.24-.15c.24,0,.35-.26.32-.31a2.86,2.86,0,0,0-.89-.41A1.28,1.28,0,0,0,193.87,13.26Z"/><path class="cls-81" d="M193.1,9.1a.57.57,0,0,0,.57.74.43.43,0,0,0,.44-.62C194,9,193.24,8.85,193.1,9.1Z"/><path class="cls-82" d="M189.87,9.44c-.05.14,0,.43.12.5s.27-.22.58-.18.5.38.61.38.43-.29.29-.74c0,0-.07,0-.22-.11S191.08,9,191,9C190.63,9,190,9.07,189.87,9.44Z"/><path class="cls-83" d="M188.81,15.82c-.25.16-.65.46-.55.82,0,.12.49.05.74,0a.81.81,0,0,0,.6-.87C189.47,15.56,189.24,15.55,188.81,15.82Z"/><path class="cls-84" d="M198.92,18.1c-.21.54-.21.75,0,.8s.3,0,.87-.73c.08-.11.41-.16.43-.17a.52.52,0,0,0,.23-.36c0-.11-.59-.37-.72-.36S199,18,198.92,18.1Z"/><path class="cls-85" d="M190.7,13.23c-.42.58-.39,1.29-.12,1.31.11,0,.21-.21.23-.3s0-.25.11-.44a.31.31,0,0,1,.29-.14s.15-.51,0-.61S190.85,13,190.7,13.23Z"/><path class="cls-86" d="M182.84,17.92a1,1,0,0,0-.29.53c0,.19.18.41.55.3s.43-.3.91-.53c.23-.12.25-.4.13-.43a5.44,5.44,0,0,0-.57-.13A1.3,1.3,0,0,0,182.84,17.92Z"/><path class="cls-87" d="M187,11.09a3.36,3.36,0,0,1-.63.12.84.84,0,0,0-.57.65,4.78,4.78,0,0,0,.36,1.5.41.41,0,0,0,.34,0c.12-.08-.14-1.19.08-1.45s1.33-.5,1.44-.67,0-.71-.12-.72S187.24,11,187,11.09Z"/><path class="cls-88" d="M180.69,17a1.84,1.84,0,0,0-.47.33.52.52,0,0,0-.13.5c0,.14.15.18.31.05a.87.87,0,0,1,.59-.28c.1,0,.13-.35,0-.49A.31.31,0,0,0,180.69,17Z"/><path class="cls-89" d="M185.18,20.72s.47.4.3.59-.16,0-.49.09a1.43,1.43,0,0,0-.65.41,1.84,1.84,0,0,1-.75.45.3.3,0,0,1-.2-.08.58.58,0,0,1-.08-.43c0-.08.12-.36.26-.38a1.79,1.79,0,0,0,.76-.24C184.65,21,184.66,20.66,185.18,20.72Z"/><path class="cls-90" d="M183.31,15.72a.56.56,0,0,0-.2.38c0,.18.28.48.49.28s.53-.84.36-.93S183.45,15.57,183.31,15.72Z"/><path class="cls-91" d="M186.27,15a1.58,1.58,0,0,0-1.15.88.31.31,0,0,0,.22.35c.19,0,.57-.58.8-.65a1.69,1.69,0,0,1,.73.13c.33.11.43.19.49,0s0-.61-.2-.66A2.11,2.11,0,0,0,186.27,15Z"/><path class="cls-92" d="M179.45,26.69c0,.27.11.43.65.46s.55-.32.48-.34a1.9,1.9,0,0,1-.75-.49A.38.38,0,0,0,179.45,26.69Z"/><path class="cls-93" d="M179.07,23.91a.66.66,0,0,0,.06.37.41.41,0,0,0,.2.13c.11,0,.21,0,.52-.24.12-.1.25-.09.34-.19a.23.23,0,0,0,0-.22.75.75,0,0,0-.44-.34A1.32,1.32,0,0,0,179.07,23.91Z"/><path class="cls-94" d="M180.61,19.07a1.28,1.28,0,0,0-.66.17.65.65,0,0,0-.36.63.36.36,0,0,0,.26.32.38.38,0,0,0,.39-.2.52.52,0,0,1,.5-.39c.21,0,.36,0,.43-.13s.05-.34,0-.35A1.75,1.75,0,0,0,180.61,19.07Z"/><path class="cls-95" d="M183,26.31c0,.23.13.39.26.39s.37-.11.52-.12.33.07.36,0a.43.43,0,0,0-.06-.4c-.08-.17-.3-.09-.4-.08s-.37-.17-.45-.17S183,26.22,183,26.31Z"/><path class="cls-96" d="M197.74,25.83a1,1,0,0,0,1,.24c.12,0,.23-.35.08-.43a1.16,1.16,0,0,0-.94-.15A.23.23,0,0,0,197.74,25.83Z"/><path class="cls-97" d="M181.25,24.87c-.3.09-.44.18-.48.42s.14.22.42.22c.46,0,.68-.23.68-.43C181.87,24.71,181.52,24.78,181.25,24.87Z"/><path class="cls-98" d="M200.36,26.3c.15.26.54,0,1,.18.14.05.34.42.57.36s.25-.49.26-.79-.42-.33-.6-.26a5.35,5.35,0,0,1-1.07.27A.25.25,0,0,0,200.36,26.3Z"/><path class="cls-99" d="M200.89,23.71c0,.12.74,0,1,.22s.69.28.73.2a.58.58,0,0,0-.2-.69,1.59,1.59,0,0,0-.73-.25C200.94,23.25,200.85,23.6,200.89,23.71Z"/><path class="cls-100" d="M205.56,25.78c-.15,0-.36.39-.68.37s-.48-.17-.61-.16-.49.44-.42.56a1.53,1.53,0,0,0,1.12.35.51.51,0,0,0,.47-.24c.15-.23.42-.27.49-.33a.61.61,0,0,0,0-.33A.51.51,0,0,0,205.56,25.78Z"/><path class="cls-101" d="M207.82,26.16a.36.36,0,0,0,.22.55c.11,0,.66-.1.7-.2s-.11-.48-.27-.51S207.93,26,207.82,26.16Z"/><path class="cls-8" d="M195,23.3l-.13-.11a1.83,1.83,0,0,0-.57.86l.17,0A1.59,1.59,0,0,1,195,23.3Z"/><path class="cls-62" d="M194.29,24a.65.65,0,0,0,0,.14c0,.09.11.16.25.2l.07-.15a.3.3,0,0,1-.15-.08.11.11,0,0,1,0-.08Z"/><path class="cls-12" d="M195.27,24.3a2.41,2.41,0,0,1-.66-.07l-.07.15a2.2,2.2,0,0,0,.73.09,2.49,2.49,0,0,0,1.12-.2l-.14-.11A2.9,2.9,0,0,1,195.27,24.3Z"/><path class="cls-12" d="M186.23,13.34l-.13.11a.52.52,0,0,0,.5,0l-.12-.13A.46.46,0,0,1,186.23,13.34Z"/><path class="cls-18" d="M186.48,12.56a3.55,3.55,0,0,1,0,.8l.11.13a.08.08,0,0,0,0,0,1.94,1.94,0,0,0,0-.72c0-.28-.08-.62.06-.74l-.11-.13C186.43,12,186.46,12.29,186.48,12.56Z"/><path class="cls-19" d="M207.82,26.47l-.17,0a.52.52,0,0,0,.25.28l.09-.15A.26.26,0,0,1,207.82,26.47Z"/><path class="cls-35" d="M197.67,10.58a1.51,1.51,0,0,1,.6.28l.09-.14a1.53,1.53,0,0,0-.69-.31.57.57,0,0,0-.46.36l.15.08S197.51,10.58,197.67,10.58Z"/><path class="cls-35" d="M180.61,17a.27.27,0,0,1,.27,0l.05-.16a.45.45,0,0,0-.43.07l-.23.16.11.13Z"/><path class="cls-62" d="M195.53,13.74a.22.22,0,0,1-.14.09l0,.17a.36.36,0,0,0,.21-.11Z"/><path class="cls-19" d="M186,24.45l-.06.16.34.11.05-.16Z"/><path class="cls-12" d="M188.17,11.26a.78.78,0,0,0,0-.28H188a1.28,1.28,0,0,1,0,.22.12.12,0,0,1,0,.07l.14.1A.24.24,0,0,0,188.17,11.26Z"/><path class="cls-6" d="M191.25,13.25a.55.55,0,0,1,0,.22l.17,0a.91.91,0,0,0,0-.33Z"/><path class="cls-19" d="M190.8,14.13c0,.2-.14.38-.22.38l0,.17c.18,0,.34-.28.35-.44a.61.61,0,0,1,.07-.35l-.06-.18A.5.5,0,0,0,190.8,14.13Z"/><path class="cls-19" d="M205.06,21.1l-.13-.1a.16.16,0,0,1-.07.07l.06.16A.31.31,0,0,0,205.06,21.1Z"/><path class="cls-35" d="M193.83,9.05l0-.16c-.2-.06-.67-.16-.88.11l.13.11C193.24,8.93,193.65,9,193.83,9.05Z"/><path class="cls-8" d="M194.09,9.23a.59.59,0,0,1,0,.14l.17.05a.88.88,0,0,0,0-.24.51.51,0,0,0-.37-.29l-.06.16A.38.38,0,0,1,194.09,9.23Z"/><path class="cls-12" d="M193.41,9.74l-.06.16c.53.23.91-.06.93-.48l-.17-.06C194.13,9.7,193.87,9.94,193.41,9.74Z"/><path class="cls-6" d="M193.11,9.4l-.17,0a.76.76,0,0,0,.41.46l.06-.16A.57.57,0,0,1,193.11,9.4Z"/><path class="cls-8" d="M193.13,9.11,193,9a.52.52,0,0,0-.06.44l.17,0A.34.34,0,0,1,193.13,9.11Z"/><path class="cls-8" d="M191.09,9.14a.59.59,0,0,0,.35.27.43.43,0,0,1,0,.28l.17,0c0-.23,0-.48-.19-.49s-.23-.19-.29-.26a.13.13,0,0,0-.06-.05l-.09.15S191.05,9.1,191.09,9.14Z"/><path class="cls-35" d="M191,9.08l.09-.15a1.88,1.88,0,0,0-1.19.21l.13.11A2,2,0,0,1,191,9.08Z"/><path class="cls-12" d="M191.48,9.69a.63.63,0,0,1-.06.27.41.41,0,0,1-.24.15s-.13-.17-.24-.24a.74.74,0,0,0-.42-.13V9.9a.55.55,0,0,1,.33.11c.1.07.18.24.3.26a.45.45,0,0,0,.39-.19.62.62,0,0,0,.12-.35Z"/><path class="cls-19" d="M190.19,9.84l.05.16a.47.47,0,0,1,.28-.1V9.74A.55.55,0,0,0,190.19,9.84Z"/><path class="cls-12" d="M190,9.92h0l-.06.15.09,0a.36.36,0,0,0,.22-.09l-.06-.16C190.1,9.9,190.07,9.92,190,9.92Z"/><path class="cls-6" d="M189.7,9.55c0,.21.07.47.24.53l.06-.16c-.11,0-.14-.28-.13-.36Z"/><path class="cls-8" d="M190.05,9.25l-.12-.12a.56.56,0,0,0-.23.42h.17A.37.37,0,0,1,190.05,9.25Z"/><path class="cls-35" d="M193.18,11.07a.62.62,0,0,0,.68,0,.34.34,0,0,1,.19,0l.08-.14a.38.38,0,0,0-.36,0,.43.43,0,0,1-.49,0,.6.6,0,0,0-.8.17l.15.08A.43.43,0,0,1,193.18,11.07Z"/><path class="cls-8" d="M194.2,11.25s0,.08,0,.11l.16,0a.59.59,0,0,0,0-.13c0-.11-.11-.22-.24-.29l-.08.15A.33.33,0,0,1,194.2,11.25Z"/><path class="cls-12" d="M193.54,11.92c.12,0,.26,0,.39-.05a.51.51,0,0,0,.42-.48l-.16,0c-.06.29-.22.33-.3.35a2.08,2.08,0,0,0-.41,0c-.21.07-.44.24-.56.25s-.09,0-.17-.09l-.12.12a.42.42,0,0,0,.28.14C193.09,12.19,193.34,12,193.54,11.92Z"/><path class="cls-6" d="M192.5,11.53h-.17a.87.87,0,0,0,.31.51l.11-.12A.69.69,0,0,1,192.5,11.53Z"/><path class="cls-8" d="M192.63,11.18l-.14-.09a.8.8,0,0,0-.16.45h.17A.63.63,0,0,1,192.63,11.18Z"/><path class="cls-8" d="M198.38,11a1.78,1.78,0,0,1,.42.74.49.49,0,0,1,0,.13l.17,0a1,1,0,0,0,0-.19,2,2,0,0,0-.48-.84l-.14-.11-.08.14Z"/><path class="cls-6" d="M198.81,11.83a1.65,1.65,0,0,1-.08.47l.06.18c.1,0,.17-.38.19-.63Z"/><path class="cls-21" d="M198.73,12.3a2,2,0,0,1-.3-.44c-.15-.26-.3-.53-.51-.54v.16c.14,0,.31.36.44.58.25.43.38.44.45.42Z"/><path class="cls-18" d="M197.84,11.31c-.28,0-.44.23-.49.23h0l-.06.16h.12c.17,0,.23-.23.48-.23h.07v-.17Z"/><path class="cls-8" d="M197.25,11.7l.05-.16c-.05,0-.06,0-.09-.12a1.17,1.17,0,0,1,.15-.57l-.15-.09a1.21,1.21,0,0,0-.16.71C197.09,11.59,197.13,11.67,197.25,11.7Z"/><path class="cls-35" d="M197.29,13.24a.49.49,0,0,0-.24.12l.11.13a.52.52,0,0,1,.15-.09,1.5,1.5,0,0,1,.55.07l0-.16A1.58,1.58,0,0,0,197.29,13.24Z"/><path class="cls-8" d="M198.26,14.31c0-.33.08-.52-.06-.81a.48.48,0,0,0-.29-.19l0,.16a.41.41,0,0,1,.18.09c.13.18.05.49.05.75a.84.84,0,0,0,.14.42.86.86,0,0,1,0,.13l.17,0a.46.46,0,0,0-.06-.25A.91.91,0,0,1,198.26,14.31Z"/><path class="cls-12" d="M197.93,14.91l-.09.14a.88.88,0,0,0,.43.1c.15,0,.16-.12.16-.25l-.17,0V15A.77.77,0,0,1,197.93,14.91Z"/><path class="cls-18" d="M197.72,14.48a1.06,1.06,0,0,0-.4-.44l-.11.13a.89.89,0,0,1,.37.42c.07.16.16.41.27.46l.08-.14A2.14,2.14,0,0,1,197.72,14.48Z"/><path class="cls-6" d="M197.11,13.79l-.13.11a1.82,1.82,0,0,0,.24.27l.1-.13A2.39,2.39,0,0,1,197.11,13.79Z"/><path class="cls-63" d="M197,13.69s0-.12.13-.21l-.12-.12a.42.42,0,0,0-.17.39.64.64,0,0,0,.11.16l.12-.12Z"/><path class="cls-35" d="M199.91,14.19a.31.31,0,0,1,.22.11l.12-.12a.43.43,0,0,0-.4-.15c-.07,0-.14.15-.18.3l.15.08A.81.81,0,0,1,199.91,14.19Z"/><path class="cls-8" d="M200.41,15l.17,0a1.19,1.19,0,0,0-.33-.85l-.12.12A1,1,0,0,1,200.41,15Z"/><path class="cls-12" d="M200.33,15.29a.54.54,0,0,1-.38.06l-.09.14a.61.61,0,0,0,.57-.07.47.47,0,0,0,.15-.39l-.17,0C200.42,15.12,200.4,15.25,200.33,15.29Z"/><path class="cls-63" d="M199.86,15.5h0l.09-.15c-.09-.06-.17-.3-.16-.79a1.31,1.31,0,0,1,0-.15l-.15-.08a1.56,1.56,0,0,0,0,.22C199.61,14.91,199.65,15.35,199.86,15.5Z"/><path class="cls-35" d="M194.49,13a1.42,1.42,0,0,0-.71.18,1.82,1.82,0,0,1-.31.31l-.17.1.09.14.17-.1a1.63,1.63,0,0,0,.35-.34,1.45,1.45,0,0,1,.58-.12,1.57,1.57,0,0,1,.71.19l.06-.16A1.88,1.88,0,0,0,194.49,13Z"/><path class="cls-8" d="M195.78,13.55c0-.11-.26-.26-.53-.38l-.05.16a1.61,1.61,0,0,1,.41.24s0,0,0,.06l.15.07A.37.37,0,0,0,195.78,13.55Z"/><path class="cls-12" d="M195.75,13.7l-.16-.07a.39.39,0,0,1-.06.11l.08.16A.66.66,0,0,0,195.75,13.7Z"/><path class="cls-12" d="M195.31,13.82a2,2,0,0,0-1.15.11l-.09.05.06.16.11-.06a1.8,1.8,0,0,1,1-.09.58.58,0,0,0,.15,0l0-.17A.11.11,0,0,1,195.31,13.82Z"/><path class="cls-19" d="M193.41,14.37a.47.47,0,0,1-.29.17l-.06,0-.09.14a.3.3,0,0,0,.15.05.64.64,0,0,0,.41-.22,2.2,2.2,0,0,1,.6-.35l-.06-.16A2,2,0,0,0,193.41,14.37Z"/><path class="cls-6" d="M192.81,14.21a.49.49,0,0,0,.17.46l.08-.15a.38.38,0,0,1-.09-.28Z"/><path class="cls-8" d="M193.39,13.7l-.09-.14c-.43.24-.47.47-.49.65l.16,0C193,14.13,193,13.93,193.39,13.7Z"/><path class="cls-35" d="M190.81,13.15a.25.25,0,0,1,.29-.1l.08-.15a.43.43,0,0,0-.5.14,2.51,2.51,0,0,0-.19.24l.15.09Z"/><path class="cls-8" d="M191.17,12.9l-.07.15a.23.23,0,0,1,.15.2l.16-.07A.36.36,0,0,0,191.17,12.9Z"/><path class="cls-12" d="M191.41,13.5l-.17,0a.46.46,0,0,1,0,.16l.08.16C191.35,13.76,191.39,13.61,191.41,13.5Z"/><path class="cls-6" d="M191.2,13.63h-.09l0,.19a.21.21,0,0,1,.15,0h.05Z"/><path class="cls-62" d="M191.08,13.83l0-.19a.21.21,0,0,0-.14.07l.06.18Z"/><path class="cls-12" d="M190.51,14.47l-.08.15a.25.25,0,0,0,.18.06l0-.17A.12.12,0,0,1,190.51,14.47Z"/><path class="cls-6" d="M190.43,14.63h0l.08-.16a.38.38,0,0,1-.1-.22l-.16,0A.5.5,0,0,0,190.43,14.63Z"/><path class="cls-8" d="M190.59,13.45a.25.25,0,0,1,0-.08l-.14-.1-.06.1a1.92,1.92,0,0,0-.19.92l.16,0A1.8,1.8,0,0,1,190.59,13.45Z"/><path class="cls-35" d="M187.94,10.4c-.32,0-.73.45-1,.58a5.86,5.86,0,0,1-.58.1.81.81,0,0,0-.51.38l.14.09a.71.71,0,0,1,.4-.31,2.89,2.89,0,0,0,.62-.11c.22-.09.67-.55.9-.56l.08-.16Z"/><path class="cls-8" d="M188,10.41l-.07.16a1.17,1.17,0,0,1,.1.42h.16C188.17,10.75,188.11,10.47,188,10.41Z"/><path class="cls-19" d="M188.11,11.37l-.15-.09c-.08.06-.72.28-.73.29l.1.14A3.43,3.43,0,0,0,188.11,11.37Z"/><path class="cls-12" d="M186.61,11.86l.1.14a2.07,2.07,0,0,1,.62-.29l-.1-.14A2.19,2.19,0,0,0,186.61,11.86Z"/><path class="cls-6" d="M186.1,13c0-.08-.1-.34-.11-.37a2.92,2.92,0,0,1-.14-.74l-.17,0a3.13,3.13,0,0,0,.18.92,2.68,2.68,0,0,1,.07.27,1.15,1.15,0,0,0,.18.39l.12-.12A.9.9,0,0,1,186.1,13Z"/><path class="cls-8" d="M185.85,11.86a1.2,1.2,0,0,1,.15-.31l-.14-.1a1.09,1.09,0,0,0-.17.38.13.13,0,0,0,0,.06l.17,0Z"/><path class="cls-35" d="M189.33,15.64h.08l.05-.16-.13,0a2.29,2.29,0,0,0-.83.39l.1.14A2.08,2.08,0,0,1,189.33,15.64Z"/><path class="cls-8" d="M189.57,15.76a.62.62,0,0,1,0,.29l.16.05a.61.61,0,0,0,0-.43.47.47,0,0,0-.25-.18l-.06.16A.27.27,0,0,1,189.57,15.76Z"/><path class="cls-102" d="M189.71,16.1l-.16-.05a.76.76,0,0,1-.55.55l.06.15A.9.9,0,0,0,189.71,16.1Z"/><path class="cls-12" d="M189,16.6a2,2,0,0,1-.5.08c-.09,0-.19,0-.2-.05l-.11.13a.5.5,0,0,0,.31.09,2.59,2.59,0,0,0,.59-.1L189,16.6Z"/><path class="cls-6" d="M188.18,16.76l.1-.13h0a.52.52,0,0,1,0-.3l-.16,0C188.1,16.4,188.07,16.68,188.18,16.76Z"/><path class="cls-8" d="M188.6,16l-.1-.14a1,1,0,0,0-.34.43l.16,0A1.22,1.22,0,0,1,188.6,16Z"/><path class="cls-35" d="M185.37,15.31l.11.13a1.55,1.55,0,0,1,1.44-.39l0-.17A1.79,1.79,0,0,0,185.37,15.31Z"/><path class="cls-8" d="M187.19,14.94a1.55,1.55,0,0,0-.23-.06l0,.17.21,0a.31.31,0,0,1,.18.23l.16-.06A.5.5,0,0,0,187.19,14.94Z"/><path class="cls-6" d="M187.31,15.33a.66.66,0,0,1,0,.28l.17,0a1,1,0,0,0-.05-.38Z"/><path class="cls-102" d="M187.52,15.65l-.17,0a.26.26,0,0,1-.06.18l.08.15A.39.39,0,0,0,187.52,15.65Z"/><path class="cls-12" d="M187.29,15.79h0c-.18,0-.68-.22-.87-.24v.17a6.87,6.87,0,0,0,.88.24l.08,0Z"/><path class="cls-102" d="M186,15.61l.07.15a.41.41,0,0,1,.32,0v-.17A.56.56,0,0,0,186,15.61Z"/><path class="cls-6" d="M186,15.61a1.4,1.4,0,0,0-.35.33c-.16.18-.27.25-.33.25v.17c.17,0,.35-.2.44-.29a1.52,1.52,0,0,1,.31-.31Z"/><path class="cls-12" d="M185.26,16.15l-.11.13a.41.41,0,0,0,.19.08v-.17h0Z"/><path class="cls-18" d="M185.16,16.28l.1-.13a.24.24,0,0,1-.09-.11l-.16.06A.38.38,0,0,0,185.16,16.28Z"/><path class="cls-8" d="M185,16a.59.59,0,0,0,0,.14l.16-.06a.19.19,0,0,1,0-.08.82.82,0,0,1,.33-.53l-.12-.12A.93.93,0,0,0,185,16Z"/><path class="cls-35" d="M183.88,15.47h.06l.06-.16a.23.23,0,0,0-.12,0,1.15,1.15,0,0,0-.74.39l.13.11A1,1,0,0,1,183.88,15.47Z"/><path class="cls-8" d="M184,15.32l-.06.16c.07,0,.05.15,0,.21l.17,0A.31.31,0,0,0,184,15.32Z"/><path class="cls-6" d="M184,15.69a1,1,0,0,1-.14.33l.15.08a1.26,1.26,0,0,0,.16-.43Z"/><path class="cls-12" d="M183.61,16.33a.32.32,0,0,1-.19.09.33.33,0,0,1-.13-.08l-.12.13a.88.88,0,0,0,.21.12.47.47,0,0,0,.34-.13,1.41,1.41,0,0,0,.28-.36l-.16-.08A1,1,0,0,1,183.61,16.33Z"/><path class="cls-6" d="M183.15,16.15l-.16,0a.51.51,0,0,0,.19.29l.11-.13A.32.32,0,0,1,183.15,16.15Z"/><path class="cls-8" d="M183.14,16.1a.52.52,0,0,1,.13-.3l-.13-.11a.64.64,0,0,0-.16.41.28.28,0,0,0,0,.09l.16,0A.43.43,0,0,0,183.14,16.1Z"/><path class="cls-8" d="M180.93,16.83l-.06.16a.24.24,0,0,1,.18.2l.16-.07A.43.43,0,0,0,180.93,16.83Z"/><path class="cls-6" d="M181.05,17.18a.54.54,0,0,1,0,.22l.17,0a.79.79,0,0,0,0-.31Z"/><path class="cls-12" d="M181,17.52a.73.73,0,0,1-.21.06.45.45,0,0,0-.3.15c-.08.07-.25.21-.34.13l-.12.12c.14.12.33.07.51-.07s.13-.15.27-.17.31,0,.35-.17a1,1,0,0,0,0-.14l-.17,0S181,17.47,181,17.52Z"/><path class="cls-6" d="M180.06,18l.11-.13a.35.35,0,0,1-.07-.23h-.17A.46.46,0,0,0,180.06,18Z"/><path class="cls-8" d="M180.39,17.19l-.12-.13-.12.1a.69.69,0,0,0-.22.46h.17a.53.53,0,0,1,.17-.35Z"/><path class="cls-35" d="M180.76,19.1l.06-.16a1.39,1.39,0,0,0-1.25.47l.15.08A1.21,1.21,0,0,1,180.76,19.1Z"/><path class="cls-8" d="M181.17,19.16a.38.38,0,0,1,0,.26l.14.09c.11-.21,0-.48-.05-.5a1.57,1.57,0,0,0-.45-.07l-.05.16A2.37,2.37,0,0,1,181.17,19.16Z"/><path class="cls-12" d="M181.17,19.42h0s-.08.14-.31.13a.68.68,0,0,0-.49.16l.12.12a.52.52,0,0,1,.38-.11c.27,0,.4-.1.46-.24Z"/><path class="cls-6" d="M180.21,20a.28.28,0,0,1-.12.15l.1.13a.41.41,0,0,0,.19-.24.45.45,0,0,1,.1-.18l-.12-.11A.56.56,0,0,0,180.21,20Z"/><path class="cls-62" d="M180.09,20.12a.52.52,0,0,1-.23,0v.17a.61.61,0,0,0,.35-.07Z"/><path class="cls-12" d="M179.82,20.14l-.09-.07-.11.13.09.07a.25.25,0,0,0,.15.05v-.17Z"/><path class="cls-6" d="M179.66,20a.46.46,0,0,1,0-.21h-.17a.57.57,0,0,0,.07.29.29.29,0,0,0,.11.11l.1-.13Z"/><path class="cls-8" d="M179.72,19.49l-.14-.09a.7.7,0,0,0-.13.4h.17A.54.54,0,0,1,179.72,19.49Z"/><path class="cls-35" d="M182.12,20.53l0-.16a1.38,1.38,0,0,0-1.24.78l.13.1A1.29,1.29,0,0,1,182.12,20.53Z"/><path class="cls-8" d="M182.42,20.53a.26.26,0,0,0-.25-.16l0,.16c.09,0,.13,0,.13,0a.57.57,0,0,1,0,.19h.17A.79.79,0,0,0,182.42,20.53Z"/><path class="cls-6" d="M182.26,20.76a1.32,1.32,0,0,1-.14.35l.14.08a1.2,1.2,0,0,0,.17-.44Z"/><path class="cls-62" d="M182.12,21.11a2.15,2.15,0,0,1-.23.28l.08.14a2,2,0,0,0,.3-.34Z"/><path class="cls-19" d="M181.89,21.39c-.14.07-.28,0-.55.12s-.24.29-.3.33a.44.44,0,0,1-.22.07h0v.17a.56.56,0,0,0,.32-.1c.11-.07.18-.26.29-.32s.37,0,.55-.13Z"/><path class="cls-12" d="M180.77,21.9l-.11.14a.33.33,0,0,0,.15,0v-.17Z"/><path class="cls-8" d="M181.07,21.24l-.14-.09-.22.35h0l.15.07Z"/><path class="cls-6" d="M180.64,22h0l.11-.14h0a.8.8,0,0,1,.1-.33l-.16-.06C180.65,21.61,180.54,21.93,180.64,22Z"/><path class="cls-35" d="M179.72,23.45c.09,0,.15,0,.28.09l.09-.13a.46.46,0,0,0-.37-.14,1.17,1.17,0,0,0-.45.24l.11.13A1.09,1.09,0,0,1,179.72,23.45Z"/><path class="cls-8" d="M180.09,23.41l-.1.13a.81.81,0,0,1,.21.21v0l.16-.07A.67.67,0,0,0,180.09,23.41Z"/><path class="cls-6" d="M180.36,23.7l-.16.07a.24.24,0,0,1,0,.17l.13.11A.42.42,0,0,0,180.36,23.7Z"/><path class="cls-19" d="M180.19,23.94s-.07.08-.16.11a1.46,1.46,0,0,0-.41.27.44.44,0,0,1-.26.08v.17a.64.64,0,0,0,.36-.11,1.72,1.72,0,0,1,.37-.25.48.48,0,0,0,.25-.17Z"/><path class="cls-12" d="M179.21,24.32l-.09.15a.47.47,0,0,0,.24.1V24.4A.37.37,0,0,1,179.21,24.32Z"/><path class="cls-6" d="M179,24.4l.1.07.08-.15-.06,0a.8.8,0,0,1-.06-.17l-.16,0A.64.64,0,0,0,179,24.4Z"/><path class="cls-8" d="M179.1,23.91a1.21,1.21,0,0,1,.28-.27l-.11-.13a1.59,1.59,0,0,0-.32.31.55.55,0,0,0,0,.32l.16,0A.4.4,0,0,1,179.1,23.91Z"/><path class="cls-35" d="M184.68,20.89a.5.5,0,0,1,.38-.15h.13l.08.09.13-.11-.1-.11a.45.45,0,0,0-.24-.05.64.64,0,0,0-.51.21,1.35,1.35,0,0,1-.31.24l.12.13A2.12,2.12,0,0,0,184.68,20.89Z"/><path class="cls-8" d="M185.27,20.84a.65.65,0,0,1,.22.35.13.13,0,0,1,0,.06l.15.07c.1-.22-.09-.45-.23-.6Z"/><path class="cls-19" d="M185.64,21.31l-.16-.06,0,.05-.12,0,.07.16a.3.3,0,0,0,.16-.06A.44.44,0,0,0,185.64,21.31Z"/><path class="cls-62" d="M184.65,21.51l.07.16a1.6,1.6,0,0,1,.68-.19l-.07-.16A1.48,1.48,0,0,0,184.65,21.51Z"/><path class="cls-19" d="M184.73,21.66l-.08-.15c-.21.13-.4.36-.57.46,0,0-.41.28-.51.26l0,.17a2.44,2.44,0,0,0,.56-.28C184.4,22,184.53,21.79,184.73,21.66Z"/><path class="cls-12" d="M183.46,22.19l-.09.14a.4.4,0,0,0,.24.07l0-.17A.21.21,0,0,1,183.46,22.19Z"/><path class="cls-6" d="M183.37,22.33l.09-.14c-.1-.06-.22-.31,0-.67l-.12-.11C183,21.89,183.22,22.23,183.37,22.33Z"/><path class="cls-8" d="M183.59,21.4a1.53,1.53,0,0,0,.77-.25l-.11-.13a1.19,1.19,0,0,1-.68.21.36.36,0,0,0-.26.19l.13.1C183.48,21.46,183.53,21.4,183.59,21.4Z"/><path class="cls-35" d="M181.69,24.84l.05-.16a1.35,1.35,0,0,0-.89.21L181,25A1.16,1.16,0,0,1,181.69,24.84Z"/><path class="cls-8" d="M181.74,24.68l-.05.16a.2.2,0,0,1,.16.2l.17,0A.37.37,0,0,0,181.74,24.68Z"/><path class="cls-6" d="M181.85,25a.27.27,0,0,1,0,.18l.14.1A.46.46,0,0,0,182,25Z"/><path class="cls-12" d="M180.85,25.42l-.09.15a1,1,0,0,0,1.2-.26l-.15-.09C181.6,25.58,181,25.51,180.85,25.42Z"/><path class="cls-6" d="M180.63,25.27a.28.28,0,0,0,.13.3l.09-.15,0,0a.18.18,0,0,1,0-.11Z"/><path class="cls-8" d="M180.81,25.23A.31.31,0,0,1,181,25l-.1-.14a.49.49,0,0,0-.21.3.44.44,0,0,0,0,.1h.17A.11.11,0,0,1,180.81,25.23Z"/><path class="cls-35" d="M176.35,25.12a8.12,8.12,0,0,1,.82-.29.22.22,0,0,1,.11,0l.07-.16a.31.31,0,0,0-.18,0,4,4,0,0,0-.92.32.34.34,0,0,0-.1.2l.16.07A.29.29,0,0,1,176.35,25.12Z"/><path class="cls-8" d="M177.35,24.69l-.07.15s.09.08.11.26a.34.34,0,0,1-.07.19l.14.09a.47.47,0,0,0,.09-.3C177.53,24.84,177.44,24.73,177.35,24.69Z"/><path class="cls-12" d="M177.47,25.37l-.15-.08a.83.83,0,0,1-.24.25l.09.15A1.49,1.49,0,0,0,177.47,25.37Z"/><path class="cls-62" d="M176.62,25.79V26a2,2,0,0,0,.55-.28l-.1-.14A1.79,1.79,0,0,1,176.62,25.79Z"/><path class="cls-19" d="M176.62,25.79a.45.45,0,0,1-.16,0V26a.62.62,0,0,0,.18,0Z"/><path class="cls-12" d="M176.37,25.79l-.11.13a.31.31,0,0,0,.2.07v-.17A.13.13,0,0,1,176.37,25.79Z"/><path class="cls-6" d="M176.14,25.55a.76.76,0,0,0,.1.34l0,0,.1-.13a.72.72,0,0,1-.06-.27Z"/><path class="cls-8" d="M176.31,25.25l-.16-.06a1.5,1.5,0,0,0,0,.37l.17,0A1.22,1.22,0,0,1,176.31,25.25Z"/><path class="cls-35" d="M180.11,26.59l.08-.15a1.1,1.1,0,0,1-.27-.23.16.16,0,0,0-.11,0,.54.54,0,0,0-.43.26l.14.1a.39.39,0,0,1,.29-.2A1.14,1.14,0,0,0,180.11,26.59Z"/><path class="cls-8" d="M180.63,26.66l-.44-.22-.08.15.44.23s0,0,0,0l.17,0A.24.24,0,0,0,180.63,26.66Z"/><path class="cls-6" d="M180.59,26.86a.2.2,0,0,1-.06.17l.13.11a.43.43,0,0,0,.1-.27Z"/><path class="cls-62" d="M180.53,27c-.11.13-.49.1-.54.1v.17s.52.05.68-.17Z"/><path class="cls-19" d="M179.65,27l-.07.15a1.2,1.2,0,0,0,.41.11v-.17A1,1,0,0,1,179.65,27Z"/><path class="cls-12" d="M179.44,27.1a.56.56,0,0,0,.15.1l.06-.16-.08-.05Z"/><path class="cls-19" d="M179.5,26.9l-.15.09a.53.53,0,0,0,.1.12l.12-.12A.18.18,0,0,1,179.5,26.9Z"/><path class="cls-6" d="M179.47,26.75h-.17a.48.48,0,0,0,.06.24l.14-.1A.27.27,0,0,1,179.47,26.75Z"/><path class="cls-8" d="M179.52,26.54l-.14-.1a.72.72,0,0,0-.08.33l.17,0A.5.5,0,0,1,179.52,26.54Z"/><path class="cls-35" d="M183.45,25.91c-.09-.05-.16-.12-.26-.12a.35.35,0,0,0-.32.24l.15.09a.21.21,0,0,1,.17-.16.85.85,0,0,1,.18.1.48.48,0,0,0,.26.06l0-.17A.38.38,0,0,1,183.45,25.91Z"/><path class="cls-8" d="M183.85,25.94h-.19l0,.17a1.62,1.62,0,0,1,.22,0c.1,0,.16,0,.23.25a.76.76,0,0,1,0,.15l.16.07a.62.62,0,0,0,0-.27C184.18,26.12,184.1,25.94,183.85,25.94Z"/><path class="cls-6" d="M184.25,26.57l-.16-.06a.64.64,0,0,1,0,.07l.09.15C184.22,26.7,184.23,26.64,184.25,26.57Z"/><path class="cls-19" d="M184.07,26.58c-.08,0-.13,0-.23,0a2.2,2.2,0,0,0-.54.12l0,.16a2.46,2.46,0,0,1,.51-.11c.11,0,.24.06.33,0Z"/><path class="cls-12" d="M183.11,26.64l-.1.14a.39.39,0,0,0,.33,0l0-.16A.2.2,0,0,1,183.11,26.64Z"/><path class="cls-19" d="M183,26.55l-.14.09a.51.51,0,0,0,.14.15l.09-.15A.26.26,0,0,1,183,26.55Z"/><path class="cls-6" d="M183,26.43l-.16.06a.56.56,0,0,0,.07.16l.13-.1A.42.42,0,0,1,183,26.43Z"/><path class="cls-8" d="M183,26.12l-.15-.1a.7.7,0,0,0-.05.47l.16-.06A.47.47,0,0,1,183,26.12Z"/><path class="cls-35" d="M182.91,17.92a1.44,1.44,0,0,1,.6-.23,1.64,1.64,0,0,1,.33.06l0-.16a1,1,0,0,0-1,.15.68.68,0,0,0-.24.19l.14.1A.28.28,0,0,1,182.91,17.92Z"/><path class="cls-8" d="M183.89,17.58l0,.17a2.07,2.07,0,0,1,.32.09l.13-.11C184.26,17.67,184,17.62,183.89,17.58Z"/><path class="cls-6" d="M184.29,17.72l-.13.12a.23.23,0,0,1,0,.18l.16.07A.42.42,0,0,0,184.29,17.72Z"/><path class="cls-19" d="M184.15,18a.31.31,0,0,1-.16.16c-.11.05-.67.44-.8.5l.08.15c.11,0,.71-.46.79-.5a.44.44,0,0,0,.25-.25Z"/><path class="cls-12" d="M183.11,18.72v.16a.33.33,0,0,0,.15-.05l-.08-.15Z"/><path class="cls-19" d="M182.77,18.72l0,.17a1,1,0,0,0,.38,0l0-.16A1,1,0,0,1,182.77,18.72Z"/><path class="cls-12" d="M182.69,18.67l-.11.13a.43.43,0,0,0,.18.09v-.17A.18.18,0,0,1,182.69,18.67Z"/><path class="cls-6" d="M182.58,18.5l-.17,0a.5.5,0,0,0,.18.29l.1-.14A.32.32,0,0,1,182.58,18.5Z"/><path class="cls-8" d="M182.58,18.44a1.28,1.28,0,0,1,.2-.41l-.13-.11a1.66,1.66,0,0,0-.23.48.57.57,0,0,0,0,.13l.17,0Z"/><path class="cls-35" d="M197.38,16.23c-.3,0-.5-.18-.75-.17a1.84,1.84,0,0,0-.36.14l.1.13.28-.11c.14,0,.42.21.74.18a1.2,1.2,0,0,1,.37.09l.08-.14A1.26,1.26,0,0,0,197.38,16.23Z"/><path class="cls-8" d="M198.29,16.7c0-.15-.25-.27-.46-.36l-.07.15c.17.07.34.17.37.27a.29.29,0,0,1,0,.22l.15.07A.48.48,0,0,0,198.29,16.7Z"/><path class="cls-12" d="M198.11,17a.44.44,0,0,1-.13.19.63.63,0,0,1-.26-.05,3,3,0,0,0-1-.33V17a2.66,2.66,0,0,1,.91.31.66.66,0,0,0,.41.06.54.54,0,0,0,.21-.28Z"/><path class="cls-103" d="M196.73,16.79c-.14,0-.36.13-.46.14v.17c.14,0,.36-.13.48-.14v-.17Z"/><path class="cls-12" d="M196.27,16.93a.38.38,0,0,1-.15-.07L196,17a.56.56,0,0,0,.26.11v-.17Z"/><path class="cls-6" d="M196,17l.1-.14c-.06,0-.16-.11-.16-.17l-.17,0C195.8,16.86,195.94,16.94,196,17Z"/><path class="cls-8" d="M196.05,16.49l.32-.16-.1-.14-.3.15a.43.43,0,0,0-.18.38l.17,0A.28.28,0,0,1,196.05,16.49Z"/><path class="cls-35" d="M199.67,17.15a1.06,1.06,0,0,0-.41.3,2.45,2.45,0,0,0-.5.66,2.15,2.15,0,0,0-.14.54h.17a2,2,0,0,1,.16-.57,3,3,0,0,1,.44-.53.93.93,0,0,1,.31-.25,1,1,0,0,1,.39.13l.11-.14A1.1,1.1,0,0,0,199.67,17.15Z"/><path class="cls-8" d="M200.47,17.47a1.56,1.56,0,0,0-.28-.17l-.1.14a1.39,1.39,0,0,1,.28.16s0,0,0,.12l.15.08A.26.26,0,0,0,200.47,17.47Z"/><path class="cls-12" d="M200.38,17.72a.52.52,0,0,1-.2.26l0,.16a.62.62,0,0,0,.32-.35Z"/><path class="cls-103" d="M200.07,18.18l.16,0,0-.16h0L200,18a.62.62,0,0,0-.18,0l.07.16A.42.42,0,0,1,200.07,18.18Z"/><path class="cls-12" d="M199.63,18.27a3.91,3.91,0,0,1-.51.59.35.35,0,0,1-.22,0l-.09.14a.48.48,0,0,0,.38,0,2.93,2.93,0,0,0,.57-.65.56.56,0,0,1,.16-.15l-.07-.16A.73.73,0,0,0,199.63,18.27Z"/><path class="cls-6" d="M198.82,19l.08-.15a.2.2,0,0,1-.11-.22l-.17,0A.38.38,0,0,0,198.82,19Z"/><path class="cls-35" d="M202,16.88a.33.33,0,0,1,.28-.42,1.81,1.81,0,0,1,.63.09,3.61,3.61,0,0,1,.54.4l.23.12.11-.13a1.83,1.83,0,0,1-.24-.13,3.3,3.3,0,0,0-.57-.41,1.89,1.89,0,0,0-.72-.11c-.48.06-.51.64-.36.74l.12-.15Z"/><path class="cls-8" d="M204,17.72a2,2,0,0,1,.09.4l.17,0a1.89,1.89,0,0,0-.12-.54,1.72,1.72,0,0,0-.24-.54.48.48,0,0,0-.16-.12l-.11.13a.39.39,0,0,1,.14.1A1.57,1.57,0,0,1,204,17.72Z"/><path class="cls-63" d="M204.09,18.12a.31.31,0,0,1-.05.2l.09.15a.44.44,0,0,0,.13-.34Z"/><path class="cls-62" d="M203.79,18.3l0,.16c.09,0,.32.06.38,0l-.09-.15A.71.71,0,0,1,203.79,18.3Z"/><path class="cls-12" d="M203.39,18.09l-.12.12a1,1,0,0,0,.49.26l0-.17A.77.77,0,0,1,203.39,18.09Z"/><path class="cls-62" d="M203.36,18a4.07,4.07,0,0,0-.38-.6,1.18,1.18,0,0,0-.25-.32l-.11.13a1.51,1.51,0,0,1,.27.36,3.13,3.13,0,0,1,.32.5.26.26,0,0,0,.07.11l.11-.12Z"/><path class="cls-12" d="M202,16.88l-.12.14a0,0,0,0,0,0,0,1.26,1.26,0,0,1,.74.21l.1-.14A1.3,1.3,0,0,0,202,16.88Z"/><path class="cls-35" d="M202.23,18.86c0-.1,0-.15,0-.23a.19.19,0,0,0-.19-.17,3.54,3.54,0,0,0-.9.14,1,1,0,0,0-.38.22l.14.1a.83.83,0,0,1,.29-.16,3.33,3.33,0,0,1,.86-.13s0,0,0,.11a.6.6,0,0,0,.13.46l.14-.11S202.25,19,202.23,18.86Z"/><path class="cls-8" d="M202.32,19.09l-.13.11.34.28.11-.13Z"/><path class="cls-63" d="M202.64,19.35l-.11.13.13.12,0,.09.15.09c.06-.12.08-.23,0-.29Z"/><path class="cls-62" d="M202.77,19.77l-.15-.08a.54.54,0,0,1-.22.23l0,.16A.62.62,0,0,0,202.77,19.77Z"/><path class="cls-12" d="M202.4,19.92h0a2.29,2.29,0,0,1-.62-.18l0,.17a1.65,1.65,0,0,0,.73.17Z"/><path class="cls-62" d="M201.76,19.74a.71.71,0,0,1-.15-.15,1.09,1.09,0,0,0-.19-.18l-.09.15c.1.06.19.22.34.32l.05,0,0-.17Z"/><path class="cls-12" d="M201.21,19.37c-.12,0-.36,0-.39,0s-.15-.06-.17-.1l-.16.07a.49.49,0,0,0,.28.19,2.32,2.32,0,0,0,.44,0,.23.23,0,0,1,.13,0l.08-.15A.41.41,0,0,0,201.21,19.37Z"/><path class="cls-8" d="M200.63,19.28s0,0,0-.06a1.31,1.31,0,0,1,.24-.3l-.13-.11a2.24,2.24,0,0,0-.26.32.23.23,0,0,0,0,.25l.16-.08Z"/><path class="cls-35" d="M204.3,20.32c.06-.09.15-.28.24-.29s.18.15.32.46l.16,0c-.07-.15-.22-.59-.48-.58s-.29.22-.37.34-.23.19-.3.37l.16.05A1.62,1.62,0,0,1,204.3,20.32Z"/><path class="cls-8" d="M205,20.43l-.16.06.12.27.16-.05A2,2,0,0,0,205,20.43Z"/><path class="cls-6" d="M205.14,20.7l-.16.06a.28.28,0,0,1,0,.13l.15.06A.43.43,0,0,0,205.14,20.7Z"/><path class="cls-12" d="M205.14,21l-.16-.06a.37.37,0,0,1,0,.11l.13.11A1.19,1.19,0,0,0,205.14,21Z"/><path class="cls-12" d="M204.73,21.09a1.46,1.46,0,0,1-.63-.17l-.1.13a1.59,1.59,0,0,0,.73.21.54.54,0,0,0,.19,0l-.06-.16A.31.31,0,0,1,204.73,21.09Z"/><path class="cls-6" d="M204,20.86l-.15.08a.38.38,0,0,0,.13.12l.1-.14Z"/><path class="cls-8" d="M204,20.62l-.16-.06a.52.52,0,0,0,0,.39l.15-.09A.33.33,0,0,1,204,20.62Z"/><path class="cls-35" d="M206.39,21.85l-.74,0a.4.4,0,0,0-.34.1l.12.12a.22.22,0,0,1,.2-.06c.15,0,.45,0,.77,0a2.27,2.27,0,0,1,.62.09l.06-.16A2.3,2.3,0,0,0,206.39,21.85Z"/><path class="cls-8" d="M207.08,22l-.06.16c.1,0,.19.07.19.13a1.32,1.32,0,0,1,0,.27l.16,0a2.41,2.41,0,0,0,0-.33C207.37,22.08,207.24,22,207.08,22Z"/><path class="cls-6" d="M207.2,22.51a1.39,1.39,0,0,1-.07.34l.11.13c.07-.05.1-.25.12-.43Z"/><path class="cls-12" d="M207.25,23l-.12-.12a.52.52,0,0,1-.33.11l0,.17A.65.65,0,0,0,207.25,23Z"/><path class="cls-19" d="M206.7,22.93a.89.89,0,0,0-.24-.17l-.06.16a.62.62,0,0,1,.18.13.38.38,0,0,0,.24.08l0-.17A.13.13,0,0,1,206.7,22.93Z"/><path class="cls-12" d="M205.91,22.67h-.21a.49.49,0,0,1-.19,0l-.11.13a.72.72,0,0,0,.29.08h.22a1.12,1.12,0,0,1,.49.08l.06-.16A1.22,1.22,0,0,0,205.91,22.67Z"/><path class="cls-6" d="M205.4,22.54l-.15.08a.36.36,0,0,0,.16.14l.1-.13A.33.33,0,0,1,205.4,22.54Z"/><path class="cls-8" d="M205.44,22.08l-.13-.11a.53.53,0,0,0-.05.66l.14-.09A.36.36,0,0,1,205.44,22.08Z"/><path class="cls-35" d="M204.57,23.53a.48.48,0,0,0-.38.32.74.74,0,0,0,0,.25h.17c0-.09,0-.17,0-.21a.4.4,0,0,1,.22-.18.91.91,0,0,1,.22.2l.13-.1C204.81,23.66,204.66,23.53,204.57,23.53Z"/><path class="cls-8" d="M204.92,23.79l-.13.11a.65.65,0,0,1,.14.22l.16,0A1,1,0,0,0,204.92,23.79Z"/><path class="cls-6" d="M205.09,24.07l-.16.05v.12l.17,0A1.27,1.27,0,0,0,205.09,24.07Z"/><path class="cls-12" d="M204.89,24.34a1.37,1.37,0,0,1-.37,0l-.08.16a1.11,1.11,0,0,0,.54,0,.28.28,0,0,0,.12-.22l-.17,0C204.93,24.3,204.92,24.32,204.89,24.34Z"/><path class="cls-6" d="M204.44,24.35l-.11.14a.19.19,0,0,0,.12,0l.07-.16Z"/><path class="cls-8" d="M204.44,24.35a1.05,1.05,0,0,1-.07-.26h-.17a1,1,0,0,0,.13.41l.11-.15Z"/><path class="cls-35" d="M207.88,26l.09.14c.17-.06.47-.12.57,0l.12-.12C208.48,25.77,208.05,25.89,207.88,26Z"/><path class="cls-8" d="M208.66,26l-.12.12a.5.5,0,0,1,.17.32l.17,0A.74.74,0,0,0,208.66,26Z"/><path class="cls-12" d="M208.87,26.56a.53.53,0,0,0,0-.13l-.17,0v.1h0l.13.11S208.87,26.58,208.87,26.56Z"/><path class="cls-19" d="M208.7,26.51l-.19.07,0,.17a1,1,0,0,0,.3-.13Z"/><path class="cls-12" d="M208.05,26.67l-.06,0-.1.14a.43.43,0,0,0,.13,0,1.55,1.55,0,0,0,.51-.08l0-.17A1.88,1.88,0,0,1,208.05,26.67Z"/><path class="cls-6" d="M207.63,26.3a.82.82,0,0,0,0,.22l.17-.05a.47.47,0,0,1,0-.16Z"/><path class="cls-8" d="M208,26.1l-.08-.14a.36.36,0,0,0-.26.35h.17C207.81,26.25,207.8,26.17,208,26.1Z"/><path class="cls-35" d="M205.56,25.64c-.16,0-.31.19-.44.29a.32.32,0,0,1-.23.09c-.15,0-.49-.16-.63-.16a.54.54,0,0,0-.3.15l.14.1c.07-.06.12-.09.17-.08s.37.14.6.16.55-.37.69-.38a.5.5,0,0,1,.22.09l.08-.15A.58.58,0,0,0,205.56,25.64Z"/><path class="cls-8" d="M206.09,26a.45.45,0,0,0-.23-.3l-.08.16.1.07a.13.13,0,0,1,0,.07v.15h.17Z"/><path class="cls-19" d="M206.06,26.37a.36.36,0,0,0,0-.18h-.17a.31.31,0,0,1,0,.11h0l.11.13A.19.19,0,0,0,206.06,26.37Z"/><path class="cls-6" d="M205.89,26.31c-.12.07-.22.08-.3.14s-.21.26-.28.32l.09.15c.13-.12.18-.25.29-.33a3.13,3.13,0,0,0,.32-.16Z"/><path class="cls-12" d="M204,26.64l-.1.14a2,2,0,0,0,1.27.23l0-.16A1.91,1.91,0,0,1,204,26.64Z"/><path class="cls-19" d="M205.31,26.77a.22.22,0,0,1-.15.08l0,.16a.41.41,0,0,0,.21-.1Z"/><path class="cls-6" d="M203.88,26.53l-.16.06a.47.47,0,0,0,.22.19l.09-.14C203.92,26.58,203.89,26.55,203.88,26.53Z"/><path class="cls-8" d="M204.1,26.11,204,26c-.18.16-.32.46-.25.6l.16-.07A.52.52,0,0,1,204.1,26.11Z"/><path class="cls-35" d="M201.67,23.05a1.18,1.18,0,0,0-.83.35l.15.07a1.16,1.16,0,0,1,.7-.25,1.42,1.42,0,0,1,.49.12l.07-.15A1.64,1.64,0,0,0,201.67,23.05Z"/><path class="cls-8" d="M202.43,23.27l-.19-.09-.06.16a.8.8,0,0,1,.16.08.69.69,0,0,1,.28.39l.17,0A1,1,0,0,0,202.43,23.27Z"/><path class="cls-6" d="M202.62,23.81a.4.4,0,0,1,0,.19l.16.05a.62.62,0,0,0,0-.27Z"/><path class="cls-19" d="M202.8,24l-.16,0v0a.22.22,0,0,1,0,.12h0l.09.15A.32.32,0,0,0,202.8,24Z"/><path class="cls-12" d="M202.56,24.14h0a.79.79,0,0,1-.3-.06,1.54,1.54,0,0,1-.23-.14l-.08.15.24.14a1,1,0,0,0,.37.08.27.27,0,0,0,.13,0Z"/><path class="cls-103" d="M201.82,23.85h0l-.06.16h0a.56.56,0,0,1,.17.09l.07-.16Z"/><path class="cls-12" d="M201.32,23.77l-.25,0-.06.16.3,0a1.84,1.84,0,0,1,.41.06l.05-.16A1.9,1.9,0,0,0,201.32,23.77Z"/><path class="cls-6" d="M200.92,23.7l-.15.08a.34.34,0,0,0,.24.13l.06-.16A.33.33,0,0,1,200.92,23.7Z"/><path class="cls-8" d="M200.91,23.69c0-.05,0-.16.08-.22l-.15-.08c-.05.07-.16.27-.07.4l.15-.09Z"/><path class="cls-35" d="M201.15,25.8c-.18.05-.45.09-.64.13a.37.37,0,0,0-.23.17l.16.07a.19.19,0,0,1,.11-.08,5.74,5.74,0,0,0,.65-.13,2.53,2.53,0,0,1,.53-.15.74.74,0,0,1,.33.09l.11-.13a.83.83,0,0,0-.44-.13A2.26,2.26,0,0,0,201.15,25.8Z"/><path class="cls-8" d="M202.34,26.05a.36.36,0,0,0-.17-.29l-.11.14c.1.05.11.11.11.15a2.45,2.45,0,0,1,0,.27h.16A1.67,1.67,0,0,0,202.34,26.05Z"/><path class="cls-19" d="M202.15,26.32a1.44,1.44,0,0,1-.13.4l.13.11a1.23,1.23,0,0,0,.16-.5Z"/><path class="cls-6" d="M202,26.8,202,27a.29.29,0,0,0,.15-.14l-.13-.1C202,26.77,202,26.8,202,26.8Z"/><path class="cls-12" d="M201.91,26.81a.23.23,0,0,1-.11,0l-.07.16a.53.53,0,0,0,.18,0l.1,0L202,26.8Z"/><path class="cls-19" d="M201.55,26.56a.6.6,0,0,0-.43-.17v.16a.49.49,0,0,1,.3.12.91.91,0,0,0,.32.27l.06-.16A.76.76,0,0,1,201.55,26.56Z"/><path class="cls-12" d="M200.71,26.39l0,.17a2.15,2.15,0,0,1,.44,0v-.17A2.69,2.69,0,0,0,200.71,26.39Z"/><path class="cls-19" d="M200.59,26.39h-.05l0,.17h.16l0-.17Z"/><path class="cls-6" d="M200.46,26.34l-.1.13a.44.44,0,0,0,.16.09l0-.17A.25.25,0,0,1,200.46,26.34Z"/><path class="cls-8" d="M200.4,26.27a.19.19,0,0,1,0-.1l-.15-.07a.31.31,0,0,0-.06.2c0,.05.06.12.13.18l.1-.14Z"/><path class="cls-35" d="M197.66,25.45a.39.39,0,0,0-.09.17l.17,0s0-.07,0-.08a.92.92,0,0,1,.92,0l.06-.16A1.05,1.05,0,0,0,197.66,25.45Z"/><path class="cls-8" d="M198.75,25.45l-.05.16.1.06a.22.22,0,0,1,0,.22l.17,0a.37.37,0,0,0-.07-.38A.55.55,0,0,0,198.75,25.45Z"/><path class="cls-12" d="M198.75,26a1.15,1.15,0,0,1-.64,0l-.05.16a1.14,1.14,0,0,0,.79,0,.43.43,0,0,0,.14-.23l-.17,0A.29.29,0,0,1,198.75,26Z"/><path class="cls-6" d="M197.77,25.84l-.15.08a.93.93,0,0,0,.45.27l0-.16A.92.92,0,0,1,197.77,25.84Z"/><path class="cls-8" d="M197.76,25.82a.25.25,0,0,1,0-.17l-.17,0a.46.46,0,0,0,0,.3h0l.15-.08Z"/><path class="cls-35" d="M196.87,21.83a6.77,6.77,0,0,0-2,1.37l.14.1a7.5,7.5,0,0,1,1.87-1.3,6.94,6.94,0,0,0,1.62.31l.05-.17A6.1,6.1,0,0,1,196.87,21.83Z"/><path class="cls-8" d="M198.52,22.14l0,.17a.36.36,0,0,1,.39.24l.16-.05A.5.5,0,0,0,198.52,22.14Z"/><path class="cls-6" d="M198.87,22.55a.7.7,0,0,1,0,.38L199,23a.91.91,0,0,0,0-.49Z"/><path class="cls-12" d="M198.87,22.93a.42.42,0,0,1-.06.15.41.41,0,0,1-.37.14c-.29,0-.69-.12-1-.12a.9.9,0,0,0-.37.07l.08.15a.79.79,0,0,1,.29-.05c.32,0,.71.12,1,.12a.58.58,0,0,0,.5-.21A.69.69,0,0,0,199,23Z"/><path class="cls-19" d="M196.3,24.13l-.05,0,.13.12,0,0c.09-.07.5-.82.72-.94l-.09-.15C196.78,23.31,196.42,24,196.3,24.13Z"/><path class="cls-35" d="M195.32,19.63h-.07c-.18,0-.62.06-1,.11s-.57.09-.57.09l.14.14.46-.07c.38-.05.79-.1.95-.1h0Z"/><path class="cls-8" d="M195.31,19.62l-.05.17a2.4,2.4,0,0,1,.39.42l.13-.11A2.33,2.33,0,0,0,195.31,19.62Z"/><path class="cls-63" d="M195.92,20.6s0,.1,0,.12l.17.05c0-.06,0-.13,0-.2a2.06,2.06,0,0,0-.32-.48l-.12.12A2.32,2.32,0,0,1,195.92,20.6Z"/><path class="cls-19" d="M196.1,20.76l-.17,0c0,.05,0,.07-.08.12a13.93,13.93,0,0,0-1.67,1.28c-.29.28-.51.47-.65.59v0l-.13.31a4.91,4.91,0,0,0,.9-.75A15.88,15.88,0,0,1,195.94,21,.33.33,0,0,0,196.1,20.76Z"/><path class="cls-25" d="M193.5,21.3a8,8,0,0,0-.12,1.69,0,0,0,0,0,0,0l.13-.29c0-.31.08-.88.16-1.52Z"/><path class="cls-8" d="M193.85,20h0l-.15-.14s-.11.72-.2,1.48l.19-.12C193.73,20.79,193.79,20.37,193.85,20Z"/><path class="cls-35" d="M191.55,19.2a1.12,1.12,0,0,0-.75.18l.14.09a1.44,1.44,0,0,1,.61-.1,2.38,2.38,0,0,1,.39,0l.07-.15A1.62,1.62,0,0,0,191.55,19.2Z"/><path class="cls-8" d="M192,19.25l-.07.15a.6.6,0,0,1,.26.18l.17-.06A.73.73,0,0,0,192,19.25Z"/><path class="cls-62" d="M192.19,19.57c-.06.47-.14,1.08-.22,1.6l.16.09c.12-.82.24-1.74.24-1.74Z"/><path class="cls-19" d="M192,21.17a9.75,9.75,0,0,1-.22,1.23l.15.08a7.7,7.7,0,0,0,.23-1.23Z"/><path class="cls-62" d="M191.61,22.5v.17a.34.34,0,0,0,.29-.2l-.15-.07A.17.17,0,0,1,191.61,22.5Z"/><path class="cls-19" d="M191.57,22.49l-.23-.15-.08.14.21.15a.23.23,0,0,0,.14,0V22.5Z"/><path class="cls-62" d="M189.12,21.19l0,0-.13.12.09.05a23.6,23.6,0,0,1,2.21,1.15l.08-.15A22.67,22.67,0,0,0,189.12,21.19Z"/><path class="cls-8" d="M188.91,20.78a.31.31,0,0,1,.05-.1l-.13-.11a.51.51,0,0,0,.14.72l.12-.12A.37.37,0,0,1,188.91,20.78Z"/><path class="cls-35" d="M189.85,20.49a4.7,4.7,0,0,1-.68-.07.41.41,0,0,0-.34.15l.13.11a.26.26,0,0,1,.21-.09,6.54,6.54,0,0,0,.68.06,1,1,0,0,0,.52-.1l-.08-.14A1.07,1.07,0,0,1,189.85,20.49Z"/><path class="cls-8" d="M190.28,20.41l.09.14a2.54,2.54,0,0,0,.58-1.08l-.15-.09A2.52,2.52,0,0,1,190.28,20.41Z"/><path class="cls-35" d="M188.42,22.4a1.46,1.46,0,0,0-.59-.17.37.37,0,0,0-.15,0l.06.16s0,0,.09,0a1.24,1.24,0,0,1,.51.15c.2.1.8.44,1.21.71l.11-.13C189.19,22.82,188.51,22.44,188.42,22.4Z"/><path class="cls-8" d="M189.65,23.12l-.1.14a1.8,1.8,0,0,1,.39.3.37.37,0,0,1,0,.31l.15.09a.56.56,0,0,0,0-.49A2,2,0,0,0,189.65,23.12Z"/><path class="cls-19" d="M189.94,23.87s-.07.18-.19.18a6.21,6.21,0,0,1-.85-.18,1.29,1.29,0,0,0-.55,0V24a1,1,0,0,1,.51,0,6.45,6.45,0,0,0,.89.19.38.38,0,0,0,.34-.27Z"/><path class="cls-12" d="M187.37,24.28l0,.17a4.32,4.32,0,0,1,1-.41v-.18A3.5,3.5,0,0,0,187.37,24.28Z"/><path class="cls-12" d="M186.59,24.55l0,.17a3.36,3.36,0,0,0,.79-.27l0-.17A3,3,0,0,1,186.59,24.55Z"/><path class="cls-62" d="M186.59,24.55a.52.52,0,0,1-.22,0l-.06.16a.71.71,0,0,0,.31,0Z"/><path class="cls-12" d="M185.12,23.87,185,24a1.91,1.91,0,0,0,1,.64l.06-.16A1.74,1.74,0,0,1,185.12,23.87Z"/><path class="cls-62" d="M185.11,23.47l-.15-.09a.63.63,0,0,0,0,.59l.14-.1A.43.43,0,0,1,185.11,23.47Z"/><path class="cls-35" d="M186.83,23.09a1.92,1.92,0,0,1-.88-.24.47.47,0,0,0-.25-.07.92.92,0,0,0-.74.61l.15.08a.77.77,0,0,1,.59-.52.28.28,0,0,1,.17.05,2.13,2.13,0,0,0,1,.26.77.77,0,0,0,.39-.09l-.08-.15A.51.51,0,0,1,186.83,23.09Z"/><path class="cls-8" d="M187.14,23l.08.14c.22-.13.42-.67.52-.75l-.05-.17C187.5,22.32,187.37,22.86,187.14,23Z"/><path class="cls-104" d="M180.08,33.66a.87.87,0,0,0-.58.23,1,1,0,0,0-.24,1.08c.05.18.14.45.15.52a.52.52,0,0,1-.13.57.39.39,0,0,1-.27.11.57.57,0,0,1-.39-.21.78.78,0,0,1-.1-.87L178,34.9a1.26,1.26,0,0,0,.23,1.42,1.19,1.19,0,0,0,.87.44.92.92,0,0,0,.63-.25,1,1,0,0,0,.3-1c0-.11-.16-.5-.21-.68a.46.46,0,0,1,.1-.49.35.35,0,0,1,.22-.09.37.37,0,0,1,.28.13.46.46,0,0,1,.05.53l.51.21A1,1,0,0,0,180.8,34a1,1,0,0,0-.72-.36Z"/><path class="cls-104" d="M182.32,35.56l-2.1,2.62.5.4,2.1-2.62-.29-.24-.21-.16Z"/><path class="cls-104" d="M183.76,36.69l-1.59,3,.5.26,1.11-2.09.11,2.75.53.28,1.59-3-.48-.26-1.12,2.1L184.29,37l-.53-.28Z"/><path class="cls-104" d="M188,38.55a1.56,1.56,0,0,0-1.51,1.34,1.54,1.54,0,0,0,1.07,2A2,2,0,0,0,188,42a1.25,1.25,0,0,0,1-.53l-.45-.36a.88.88,0,0,1-.65.33.69.69,0,0,1-.2,0c-.47-.11-.77-.57-.57-1.35s.53-.95.93-.95a.82.82,0,0,1,.77.56l.58-.15a1.32,1.32,0,0,0-1-.91,1.4,1.4,0,0,0-.41-.05Z"/><path class="cls-104" d="M190.53,39l-.1,3.37,2.17.06,0-.53-1.53,0,0-1,1.11,0,0-.53-1.12,0,0-.77,1.48,0V39.1L190.53,39Z"/><path class="cls-104" d="M196.52,38.39l-.31.08-.87.82.31.42.47-.36.66,2.46.62-.17-.88-3.25Z"/><path class="cls-104" d="M198.8,37.53a1.26,1.26,0,0,0-.51.12,1,1,0,0,0-.58,1.25.81.81,0,0,0,.75.46.86.86,0,0,0-.2,1,.92.92,0,0,0,.88.54,1.45,1.45,0,0,0,.59-.14,1.06,1.06,0,0,0,.66-1.38.88.88,0,0,0-.8-.52h-.12a.8.8,0,0,0,.14-.87.88.88,0,0,0-.81-.49ZM198.63,39a.38.38,0,0,1-.36-.25.41.41,0,0,1,.23-.58.49.49,0,0,1,.22-.06.43.43,0,0,1,.38.26.41.41,0,0,1-.24.58.68.68,0,0,1-.23.05Zm.58,1.42a.49.49,0,0,1-.45-.29.55.55,0,0,1,.31-.74.74.74,0,0,1,.28-.06.52.52,0,0,1,.48.3.53.53,0,0,1-.32.72.66.66,0,0,1-.3.07Z"/><path class="cls-104" d="M201.46,36a1.31,1.31,0,0,0-.74.26,1,1,0,0,0-.26,1.53l.49-.34c-.18-.31-.16-.57.09-.75a.51.51,0,0,1,.29-.1.49.49,0,0,1,.4.23,1.09,1.09,0,0,1,.11.81l-.2,1.8.17.23,1.84-1.33-.31-.43-1,.76.15-1.24a1.39,1.39,0,0,0-.2-1,.94.94,0,0,0-.79-.41Z"/><path class="cls-104" d="M204,33.77a1.25,1.25,0,0,0-.94.42c-.48.52-.52,1.38.34,2.17a1.9,1.9,0,0,0,1.26.57,1.22,1.22,0,0,0,.93-.41,1.47,1.47,0,0,0-.33-2.17,1.89,1.89,0,0,0-1.26-.58Zm.76,2.56a1.4,1.4,0,0,1-.91-.46c-.59-.54-.65-1-.38-1.31a.53.53,0,0,1,.42-.18,1.42,1.42,0,0,1,.92.45c.59.55.64,1,.38,1.32a.55.55,0,0,1-.43.18Z"/><path class="cls-105" d="M1.86,18.44c0,4.41,2.94,6,7.35,7.15,4.21,1,5.07,2.32,5.07,4,0,1.83-1.65,3.12-4,3.12a10.09,10.09,0,0,1-7-3L1,32.51a13.42,13.42,0,0,0,9.18,3.63c4.71,0,7.88-2.8,7.88-7,0-3.66-2.19-5.84-7.1-7.08-4.45-1.1-5.32-2.3-5.32-4,0-1.48,1.27-3,3.69-3a9.84,9.84,0,0,1,6,2.34c.07-.1,2-2.87,2-3a12.09,12.09,0,0,0-8-2.85C5,11.63,1.86,14.5,1.86,18.44Z"/><path class="cls-105" d="M30.62,18.49c0,.09-3.76,12.14-3.76,12.14s-3.38-12-3.41-12.08h-3.8L25,35.94h3.33c0-.08,3.83-12,3.83-12l3.79,12h3.34c0-.09,5.4-17.23,5.45-17.39H41.07c0,.09-3.47,12.08-3.47,12.08L33.8,18.49Z"/><path class="cls-105" d="M46.6,27.18v.07c0,5.19,3.59,9,8.54,9a10.62,10.62,0,0,0,6.27-1.8l-1-3a8.46,8.46,0,0,1-5.19,1.56,4.69,4.69,0,0,1-4.89-4.33v-.07H62.64v0l.06-1c0-4.62-2.47-9.29-8-9.29C50.09,18.19,46.6,22.06,46.6,27.18ZM50.28,26c.37-2.82,2.1-4.64,4.41-4.64S58.73,23.1,59,26V26H50.27Z"/><path class="cls-105" d="M79.14,11.63V20L79,20a7.55,7.55,0,0,0-5.12-1.76c-3.83,0-7.71,3.08-7.71,9v.06c0,5.88,4.09,9,8.13,9a62,62,0,0,0,8.52-.78V11.63ZM70,27.21v-.06c0-3.26,2-5.63,4.88-5.63,2.63,0,4.37,1.76,4.37,2.47v8.55h0a24.43,24.43,0,0,1-4.32.29C72.05,32.84,70,30.42,70,27.21Z"/><path class="cls-105" d="M87.8,11.63V35.39a62.17,62.17,0,0,0,8.53.78c4,0,8.13-3.08,8.13-9v-.06c0-5.88-3.88-9-7.72-9A7.59,7.59,0,0,0,91.62,20l-.1.08v-8.4Zm3.71,20.92h-.05V24c0-.71,1.74-2.47,4.36-2.47,2.84,0,4.89,2.37,4.89,5.63v.06c0,3.21-2.1,5.63-4.89,5.63A24.23,24.23,0,0,1,91.51,32.55Z"/><path class="cls-105" d="M109,19.71l1,3.08a11.28,11.28,0,0,1,4.75-1.07c2.71,0,4.19,1.34,4.19,3.78v.42l-.08,0a13.6,13.6,0,0,0-4.62-.72c-4.21,0-6.73,2.11-6.73,5.63v.07c0,3.64,3.06,5.3,5.91,5.3a67.24,67.24,0,0,0,9.18-.78V25.57c0-4.76-2.53-7.28-7.31-7.28A13.86,13.86,0,0,0,109,19.71Zm2.21,11V30.6c0-1.72,1.46-2.76,3.9-2.76a10.92,10.92,0,0,1,3.87.7h0V33h0a25.61,25.61,0,0,1-4.46.32C112.57,33.3,111.24,32.24,111.24,30.67Z"/><path class="cls-105" d="M127.33,19V35.81h3.72v-14h0a25.38,25.38,0,0,1,3.79-.27c2.29,0,3.65,1.67,3.65,4.47v9.81h3.72v-11c0-4.08-2.27-6.62-5.91-6.62A63.31,63.31,0,0,0,127.33,19Z"/><path class="cls-105" d="M147,11.63V35.81h3.71V30.88l2.42-2.61,5.08,7.54h4.29l-6.85-10.25,6.6-7h-4.49l-7.05,7.81V11.63Z"/><rect class="cls-106" x="215" y="63" width="1" height="1"/><rect class="cls-106" width="1" height="1"/></svg>