<?xml version="1.0" encoding="utf-8"?>
<!-- Generator: Adobe Illustrator 27.4.1, SVG Export Plug-In . SVG Version: 6.00 Build 0)  -->
<svg version="1.1" id="Layer_1" xmlns="http://www.w3.org/2000/svg" xmlns:xlink="http://www.w3.org/1999/xlink" x="0px" y="0px"
	 viewBox="0 0 1077 219.2" style="enable-background:new 0 0 1077 219.2;" xml:space="preserve">
<style type="text/css">
	.st0{display:none;}
	.st1{display:none;fill:#FFFFFF;}
	.st2{fill:#FFFFFF;}
</style>
<rect x="-1.5" y="-430.4" class="st0" width="1080" height="1080"/>
<g id="_x35_c6fddfb-e26f-47fe-ac60-da3118774a29" transform="matrix(1 0 0 1 540 540)">
	<rect x="-541.5" y="-970.4" vector-effect="non-scaling-stroke" class="st1" width="1080" height="1080"/>
</g>
<g id="_x31_ac42ded-9e43-4d3f-9876-85724a8c0f53" transform="matrix(1 0 0 1 540 540)">
</g>
<g transform="matrix(8.63 0 0 8.63 540 540)">
	<path class="st2" d="M-34.1-54.8l-5.7,13.9c-1.2,3-2.4,3.7-5.1,3.7c-1.4,0-2.5-0.4-2.5-0.4v-3h1.5l0.3,1.8c0,0,0.3,0.1,0.7,0.1
		c1,0,2.2-0.1,3.3-2.8l0.7-1.7h-0.9l-5-11.6l-2-0.3v-1.1h6.7v1.1l-1.5,0.3l3.8,9.1l3.7-9.1l-1.9-0.3v-1.1h6v1.1L-34.1-54.8z
		 M-50.8-53.2c-3.2-2-8.7-1.4-8.7-4.8c0-2.4,1.5-2.9,3.9-2.9c2,0,3.5,0.5,3.5,0.5l0.5,2h1.6v-3.1c0,0-2.3-1.1-6.1-1.1
		s-6.5,1.6-6.5,5c0,3.2,1.6,4.6,6.2,5.8c3.5,0.9,4.5,1.7,4.7,3.5c0.2,3.3-1.8,3.8-4.5,3.8c-2.2,0-4.2-0.9-4.2-0.9l-0.5-2.3h-1.6v3.6
		c0,0,3.3,1.4,6.4,1.4c4.4,0,7.7-0.8,7.7-5.5C-48.4-50.8-49.1-52-50.8-53.2 M-21.8-43.2l-0.1-1c0,0-2.7,1.4-4.9,1.4
		c-3.1,0-5-2.3-5-6.8c0-4.3,2.1-7,5.4-7c2.4,0,4,0.6,4.5,0.9v-5.1l-2-0.4v-1.1h5.1v17.8l2,0.3v1H-21.8z M-22-54.3
		c0,0-1.5-0.3-3.3-0.3c-2.1,0-3.2,1.8-3.2,4.9c0,3.4,1.1,5,3,5c1.6,0,3.5-0.9,3.5-0.9V-54.3z M2.8-43.2v-1l1.7-0.3v-6.8
		c0-1.7,0.2-3.2-2.2-3.2c-1.8,0-3.6,0.7-3.6,0.7v9.3l1.7,0.3v1h-6.8v-1l1.9-0.3v-10.2l-2-0.4v-1h5l0.1,0.8c2.1-0.9,3.8-1.4,5.1-1.4
		c1.5,0,2.6,0.5,3.2,1.3c0.6,0.8,0.7,1.4,0.7,3.5v7.4l2,0.3v1H2.8z M-15.2-43.2v-0.9l2-0.4v-10.2l-2-0.4v-1.1h5.2v11.6l1.9,0.4v1
		 M28.6-49.1c0,3.1,1.5,4.5,3.9,4.5c1.2,0,2.9-0.3,4.9-0.9l0.4,1.2c-2.6,1.1-4.3,1.6-6.3,1.6c-3.9,0-6.2-2.9-6.2-6.8
		c0-4.7,2.9-7.1,6.7-7.1c4.1,0,6,2.4,6.2,6.3v1.3L28.6-49.1z M31.9-55.1c-1.8,0-3.3,1-3.3,4.6h6.1C34.8-53.9,33.8-55.1,31.9-55.1
		 M45.2-42.8c-1.9,0-3.2-0.3-4.9-0.8v-3h1.2l0.3,1.7c0,0,1.4,0.4,2.6,0.4c1.9,0,3.4-0.7,3.4-2.1c0-1.5-1.6-1.9-3.6-2.4
		c-2.1-0.6-4-1.5-4-3.8s1.8-3.9,5.3-3.9c1.4,0,3.1,0.3,4.6,0.8v2.6h-1.2l-0.3-1.4c0,0-1.3-0.4-2.6-0.4c-1.4,0-2.8,0.5-2.8,1.9
		c0,2.8,7.6,1.5,7.6,6.2C50.8-44.4,48.6-42.8,45.2-42.8 M57.9-42.8c-1.3,0-2.1-0.3-2.7-0.9c-0.5-0.6-0.7-1.4-0.7-2.9v-8.1h-2.7v-1.2
		l2.7-0.3v-3.5h3.2v3.5h3.6v1.5h-3.6v7c0,2.2,0,2.4,0.2,2.7c0.2,0.3,0.6,0.5,1.3,0.5c0.8,0,1.5-0.1,2.6-0.4l0.4,1.1
		C60.8-43.2,59.3-42.8,57.9-42.8 M15.6-43.1l-5-11.6l-1.9-0.4v-1.1h6.7v1.1l-1.5,0.4l3.8,9.1l3.7-9.1l-2-0.4v-1.1h6v1.1l-2,0.4
		l-4.8,11.6 M-13.3-62.3h3.2v2h-3.2V-62.3z"/>
</g>
</svg>
