<svg width="164" height="36" viewBox="0 0 164 36" fill="none" xmlns="http://www.w3.org/2000/svg">
<path d="M92.7135 25.1704C89.0385 25.1704 86.0585 21.9494 86.0585 17.9764C86.0585 14.0034 89.0385 10.7814 92.7135 10.7814C96.3875 10.7814 99.3675 14.0034 99.3675 17.9764C99.3675 21.9494 96.3875 25.1704 92.7135 25.1704ZM92.7515 5.89941C86.4135 5.89941 81.2715 11.3124 81.2715 17.9874C81.2715 24.6634 86.4135 30.0734 92.7515 30.0734C99.0915 30.0734 104.23 24.6634 104.23 17.9874C104.23 11.3124 99.0915 5.89941 92.7515 5.89941Z" fill="#003C4B"/>
<path d="M42.683 11.1521H0V0.5H42.683V11.1521Z" fill="#D40031"/>
<path d="M42.683 35.4995H0V24.8477H42.683V35.4995Z" fill="#D40031"/>
<path d="M42.683 24.8484H0V11.1523H42.683V24.8484Z" fill="white"/>
<path d="M23.1805 15.0831V21.8151L24.7045 22.7451V23.3761H17.6045V22.7451L19.1285 21.8151V15.0831H16.2965L15.6175 17.1171H14.8555V13.2441H27.4595V17.1171H26.6945L26.0015 15.0831H23.1805Z" fill="#003C4B"/>
<path d="M56.0771 6.08496V11.188H63.2701V29.914H68.7401V11.188H75.8351V6.08496H56.0771Z" fill="#003C4B"/>
<path d="M117.163 21.21V29.914H112.137V6.08496H122.682C125.294 6.08496 127.361 6.74996 128.889 8.03696C130.418 9.32396 131.256 11.15 131.256 13.475C131.256 15.178 130.813 16.589 129.973 17.709C129.136 18.831 127.904 20.048 126.278 20.671L131.649 29.914H126.229L121.155 21.21H117.163ZM117.163 16.46H122.534C124.949 16.46 126.283 15.909 126.283 13.876C126.283 11.677 124.949 11.188 122.534 11.188H117.163V16.46Z" fill="#003C4B"/>
<path d="M163.322 29.8827V6.05371H157.261L151.741 19.2127L146.076 6.05371H139.721V29.8827H144.746V14.9377L149.3 25.1477H154.051L158.296 15.0617V29.8827H163.322Z" fill="#003C4B"/>
</svg>
