<?xml version="1.0" encoding="utf-8"?>
<!-- Generator: Adobe Illustrator 27.7.0, SVG Export Plug-In . SVG Version: 6.00 Build 0)  -->
<svg version="1.1" xmlns="http://www.w3.org/2000/svg" xmlns:xlink="http://www.w3.org/1999/xlink" x="0px" y="0px"
	 viewBox="0 0 2381.1 742.9" style="enable-background:new 0 0 2381.1 742.9;" xml:space="preserve">
<style type="text/css">
	.st0{fill:#F1D8B9;}
</style>
<g id="Stödlinjer">
</g>
<g id="Lager_1">
	<g>
		<g>
			<g>
				<path class="st0" d="M1312.1,287.9l-94.2,264.4h-48.7l-93.4-264.4h48.4l64.8,200.6c2.1,6.4,3.7,13.8,4.8,22.3h0.7
					c0.9-7,2.6-14.6,5.3-22.7l66.2-200.2H1312.1z"/>
				<path class="st0" d="M1579.4,552.3h-47.7L1508,485h-103.2l-22.7,67.3h-47.6l98.2-264.4h49L1579.4,552.3z M1496.5,449.3
					l-36.4-105.5c-1.1-3.4-2.3-9-3.5-16.6h-0.7c-1.1,7-2.3,12.5-3.7,16.6l-36,105.5H1496.5z"/>
				<path class="st0" d="M1794.6,325.2h-75.4v227.2h-43.5V325.2h-75.2v-37.2h194.1V325.2z"/>
				<path class="st0" d="M1963.1,556.8c-37.8,0-68.1-12.4-90.8-37.1c-22.7-24.7-34.1-56.9-34.1-96.4c0-42.5,11.6-76.5,34.8-101.8
					c23.2-25.3,54.6-38,94.4-38c36.8,0,66.5,12.3,89,36.9c22.5,24.6,33.8,56.7,33.8,96.4c0,43.1-11.5,77.3-34.6,102.3
					C2032.4,544.2,2001.6,556.8,1963.1,556.8z M1965.1,322c-24,0-43.6,9-58.6,27.1c-15.1,18.1-22.6,41.9-22.6,71.4
					c0,29.4,7.3,53,22,71c14.6,17.9,33.8,26.9,57.4,26.9c25.1,0,44.9-8.5,59.5-25.6c14.5-17.1,21.8-41,21.8-71.7
					c0-31.6-7-56-21.1-73.2C2009.2,330.6,1989.8,322,1965.1,322z"/>
				<path class="st0" d="M2378.3,552.3h-50.9l-41.9-70.8c-3.8-6.5-7.5-12.1-11.1-16.7c-3.6-4.6-7.3-8.4-11-11.3
					c-3.7-3-7.8-5.1-12.2-6.5c-4.4-1.4-9.3-2-14.8-2h-17.6v107.3h-43.4V287.9h86.3c12.3,0,23.7,1.5,34,4.4
					c10.4,3,19.4,7.4,27.1,13.4c7.7,6,13.7,13.4,18,22.3c4.3,8.9,6.5,19.3,6.5,31.3c0,9.3-1.4,17.9-4.1,25.7
					c-2.7,7.8-6.6,14.8-11.7,20.8c-5.1,6.1-11.2,11.3-18.3,15.6c-7.1,4.3-15.2,7.6-24.1,10v0.7c4.8,2.7,8.9,5.7,12.4,8.9
					c3.5,3.3,6.9,6.6,10.1,10c3.2,3.4,6.3,7.3,9.4,11.7c3.1,4.4,6.6,9.4,10.3,15.2L2378.3,552.3z M2218.9,323.5v85.9h36.2
					c6.7,0,12.9-1,18.6-3.1c5.7-2.1,10.6-5.1,14.7-9c4.1-3.9,7.4-8.7,9.7-14.4c2.3-5.7,3.5-12,3.5-19c0-12.7-4-22.6-11.9-29.7
					c-7.9-7.1-19.3-10.7-34.2-10.7H2218.9z"/>
			</g>
			<g>
				<path class="st0" d="M1076,733.1V712c1.9,1.7,4.1,3.3,6.7,4.6c2.6,1.4,6.2,2.5,9.1,3.5c2.9,0.9,5.8,1.7,8.8,2.2
					c2.9,0.5,5.6,0.8,8.1,0.8c8.6,0,15-1.4,19.2-4.3c4.2-2.9,6.3-7,6.3-12.5c0-2.9-0.7-5.5-2.1-7.6c-1.4-2.2-3.4-4.1-5.9-5.9
					c-2.5-1.8-5.5-3.5-8.9-5.1c-3.4-1.6-7.1-3.3-10.9-5.1c-4.2-2.2-8.1-4.5-11.7-6.8c-3.6-2.3-6.7-4.8-9.4-7.6
					c-2.7-2.8-5.6-5.9-7.1-9.4c-1.5-3.5-2.3-7.6-2.3-12.3c0-5.8,1.3-10.8,3.9-15.1c2.6-4.3,6.8-7.8,11.1-10.6
					c4.3-2.8,9.1-4.8,14.5-6.2c5.4-1.3,11-2,16.7-2c12.9,0,22.3,1.5,28.2,4.4v20.2c-7-5-16-7.6-26.9-7.6c-3,0-6.1,0.3-9.1,0.9
					c-3,0.6-5.7,1.5-8.1,2.8c-2.4,1.3-4.3,3-5.8,5.1c-1.5,2.1-2.2,4.6-2.2,7.5c0,2.8,0.6,5.1,1.7,7.1c1.1,2,2.8,3.8,5,5.5
					c2.2,1.7,4.9,3.3,8.1,4.9c3.2,1.6,6.9,3.3,11,5.1c4.3,2.2,8.3,4.6,12.1,7.1c3.8,2.5,7.2,5.2,10,8.2c2.9,3,5.2,6.3,6.9,9.9
					c1.7,3.6,2.5,7.8,2.5,12.4c0,6.3-1.3,11.5-3.8,15.8c-2.5,4.3-5.9,7.8-10.2,10.5c-4.3,2.7-9.2,4.6-14.7,5.9
					c-5.6,1.2-11.4,1.8-17.6,1.8c-2.1,0-4.6-0.2-7.6-0.5c-3-0.3-6.1-0.8-9.2-1.4c-3.1-0.6-6.9-1.3-9.7-2.2
					C1080,735.2,1077.7,734.2,1076,733.1z"/>
				<path class="st0" d="M1292.1,738H1223V614.6h66.3V632h-45.9v34.9h42.3v17.3h-42.3v36.5h48.7V738z"/>
				<path class="st0" d="M1444.6,732.8c-9.3,4.8-20.8,7.2-34.6,7.2c-17.9,0-32.2-5.6-42.9-17c-10.8-11.3-16.1-26.1-16.1-44.5
					c0-19.7,6.1-35.7,18.2-47.8c12.1-12.2,27.4-18.2,45.9-18.2c11.9,0,21.8,1.7,29.6,5.1v20.3c-8.3-4.9-17.5-7.4-27.5-7.4
					c-13.3,0-24.1,4.3-32.4,12.8c-8.3,8.5-12.4,20-12.4,34.2c0,13.6,3.9,24.4,11.6,32.5c7.7,8.1,17.9,12.1,30.5,12.1
					c11.6,0,21.7-2.8,30.2-8.3V732.8z"/>
				<path class="st0" d="M1607.4,688.1c0,34.6-16.4,52-49.1,52c-31.4,0-47-16.7-47-50v-75.5h20.4v71.2c0,24.2,9.4,36.3,28.2,36.3
					c18.1,0,27.1-11.7,27.1-35v-72.5h20.4V688.1z"/>
				<path class="st0" d="M1776.3,738h-23.9l-19.7-33c-1.8-3-3.5-5.6-5.2-7.8c-1.7-2.2-3.4-3.9-5.1-5.3c-1.7-1.4-3.6-2.4-5.7-3
					c-2.1-0.6-4.4-0.9-7-0.9h-8.2V738h-20.3V614.6h40.5c5.8,0,11.1,0.7,16,2.1c4.9,1.4,9.1,3.5,12.7,6.2c3.6,2.8,6.4,6.3,8.5,10.4
					c2,4.2,3,9,3,14.6c0,4.4-0.6,8.4-1.9,12c-1.3,3.6-3.1,6.9-5.5,9.7c-2.4,2.8-5.2,5.3-8.6,7.3c-3.3,2-7.1,3.6-11.3,4.6v0.3
					c2.2,1.3,4.2,2.7,5.8,4.2c1.7,1.5,3.2,3.1,4.7,4.7c1.5,1.6,3,3.4,4.4,5.5c1.5,2,3.1,4.4,4.8,7.1L1776.3,738z M1701.5,631.2v40.1
					h17c3.1,0,6.1-0.5,8.7-1.5c2.7-1,5-2.4,6.9-4.2c1.9-1.8,3.5-4.1,4.5-6.7c1.1-2.6,1.6-5.6,1.6-8.9c0-5.9-1.9-10.5-5.6-13.9
					c-3.7-3.3-9.1-5-16-5H1701.5z"/>
				<path class="st0" d="M1856.4,738h-21V614.6h21V738z"/>
				<path class="st0" d="M2010.4,632h-35.4v106h-20.4V632h-35.3v-17.4h91.1V632z"/>
				<path class="st0" d="M2094.2,738h-21V614.6h21V738z"/>
				<path class="st0" d="M2238.4,738h-69.1V614.6h66.3V632h-45.9v34.9h42.3v17.3h-42.3v36.5h48.7V738z"/>
				<path class="st0" d="M2299.5,733.1V712c1.9,1.7,4.1,3.3,6.7,4.6c2.6,1.4,5.4,2.5,8.3,3.5c2.9,0.9,5.8,1.7,8.8,2.2
					c2.9,0.5,5.6,0.8,8.1,0.8c8.6,0,15-1.4,19.2-4.3c4.2-2.9,6.3-7,6.3-12.5c0-2.9-0.7-5.5-2.1-7.6c-1.4-2.2-3.4-4.1-5.9-5.9
					c-2.5-1.8-5.5-3.5-8.9-5.1c-3.4-1.6-7.1-3.3-10.9-5.1c-4.2-2.2-8.1-4.5-11.7-6.8c-3.6-2.3-6.7-4.8-9.4-7.6
					c-2.7-2.8-4.8-5.9-6.3-9.4c-1.5-3.5-2.3-7.6-2.3-12.3c0-5.8,1.3-10.8,3.9-15.1c2.6-4.3,6-7.8,10.3-10.6
					c4.3-2.8,9.1-4.8,14.5-6.2c5.4-1.3,11-2,16.7-2c12.9,0,22.3,1.5,28.2,4.4v20.2c-7-5-16-7.6-26.9-7.6c-3,0-6.1,0.3-9.1,0.9
					c-3,0.6-5.7,1.5-8.1,2.8c-2.4,1.3-4.3,3-5.8,5.1c-1.5,2.1-2.2,4.6-2.2,7.5c0,2.8,0.6,5.1,1.7,7.1c1.1,2,2.8,3.8,5,5.5
					c2.2,1.7,4.9,3.3,8.1,4.9c3.2,1.6,6.9,3.3,11,5.1c4.3,2.2,8.3,4.6,12.1,7.1c3.8,2.5,7.2,5.2,10,8.2c2.9,3,5.2,6.3,6.9,9.9
					c1.7,3.6,2.5,7.8,2.5,12.4c0,6.3-1.3,11.5-3.8,15.8c-2.5,4.3-5.9,7.8-10.2,10.5c-4.3,2.7-9.2,4.6-14.7,5.9
					c-5.6,1.2-11.4,1.8-17.6,1.8c-2.1,0-4.6-0.2-7.6-0.5c-3-0.3-6.1-0.8-9.2-1.4c-3.1-0.6-6.1-1.3-8.9-2.2
					C2303.5,735.2,2301.2,734.2,2299.5,733.1z"/>
			</g>
		</g>
		<g>
			<path id="_x3C_Path_x3E__00000094580243760539447360000018112323641598452878_" class="st0" d="M256.3,417.4
				c0,0,97.2,62.7,91.9,75.5c-5.3,13-42.2,2.7-59.3-20.7C272,448.5,256.3,417.4,256.3,417.4z"/>
			<path id="_x3C_Path_x3E__00000075156749562328622900000003976424044477728685_" class="st0" d="M445.2,688.4
				c2.4,3.6,6.3,19.5-2.7,18.3c-9.2-1-56.2-58.1-56.2-58.1C431.9,661.7,442.7,684.6,445.2,688.4L445.2,688.4z"/>
			<path id="_x3C_Path_x3E__00000152983012931913709020000000059641851730942633_" class="st0" d="M482.5,492.6
				c0,0-79.8,0.5-77.9-31.8c1.9-32.6,46.8-23.9,54.3-21.7c7.2,2.2,104.7,31.1,104.7,31.1C560.9,481.8,482.5,492.6,482.5,492.6
				L482.5,492.6z"/>
			<path id="_x3C_Path_x3E__00000163771023795968533750000004462287204848416643_" class="st0" d="M267.2,350.8
				c0.2,8.9-5.5,35.9-16.4,39.1c-10.6,2.9-36.9-3.6-43.2-31.6c-6.3-28.2,82-63.4,82-63.4C280.2,301.1,266.7,341.9,267.2,350.8
				L267.2,350.8z"/>
			<path id="_x3C_Path_x3E__00000172426042098033077850000018038449421161223854_" class="st0" d="M205.7,364.3
				c0,0,37.1,98.1,26.5,104.9c-10.9,6.5-32.6-20.7-32.3-47.3C200.1,395.7,205.7,364.3,205.7,364.3z"/>
			<path id="_x3C_Path_x3E__00000054227606210854303680000010370355011747325571_" class="st0" d="M339,646.7
				c-12.5-11.6-21.5-42-6.5-39.5c14.7,2.7,80.3,77.6,80.3,77.6C362.7,669.4,351.8,658,339,646.7L339,646.7z"/>
			<path id="_x3C_Path_x3E__00000142877974202327346750000002735395658904406666_" class="st0" d="M340,343.3
				c-21.5-15.2-68.5-13.3-47.3-15c21.2-1.4,103-44.4,103-44.4C396.7,294.9,361.2,358.8,340,343.3L340,343.3z"/>
			<path id="_x3C_Path_x3E__00000018939270668409741730000002712803789935444114_" class="st0" d="M814.4,175.3
				c3.9-12.3,21.9-28,24.8-16.9c2.9,10.9-27.7,79.3-27.7,79.3C806.2,198.7,810.5,187.6,814.4,175.3z"/>
			<path id="_x3C_Path_x3E__00000045577534676549817070000008349512924420034734_" class="st0" d="M323.4,367.2
				c-4.6,2.4-20,6.8-24.4,1.9c-4.3-4.8-8-19.8,4.8-30.4c12.8-10.6,54.3,25.3,54.3,25.3C352.3,360.7,328,364.6,323.4,367.2z"/>
			<path id="_x3C_Path_x3E__00000147902874590262655300000014798496167089289648_" class="st0" d="M838,224
				c-3.4-2.4-12.3-11.8-10.4-16.9c1.7-4.8,11.3-13,23.6-8c12.5,5.3,2.2,48.5,2.2,48.5C853.4,242.3,841.6,226.1,838,224z"/>
			<path id="_x3C_Path_x3E__00000160186174909676607840000008409803502096482488_" class="st0" d="M727.3,378.1
				c-4.8-7-14-31.1-7.2-38.8c7-8,30.9-16.2,50.2,2.9c19.1,18.8-32.3,91.4-32.3,91.4C742.2,423.6,732.1,384.8,727.3,378.1
				L727.3,378.1z"/>
			<path id="_x3C_Path_x3E__00000109018486316522365170000011845646558974634154_" class="st0" d="M320.5,425.1
				c0,0-55-1.7-57.2-18.3c-2.2-16.6,10.9-25.3,17.1-25.8c6.5-0.5,15.2,13,16.6,18.1C298.8,403.9,314,423.6,320.5,425.1z"/>
			<path id="_x3C_Path_x3E__00000137101149959535539580000004005630045237454215_" class="st0" d="M438.9,719.3
				c-7.2,8-8.7,27.2-8.4,18.6c0.5-8.7-13.3-44.1-13.3-44.1C421.8,693.7,446.1,711.3,438.9,719.3L438.9,719.3z"/>
			<path id="_x3C_Path_x3E__00000144340229576505495820000005449582417925430448_" class="st0" d="M285.3,371.6
				c-14,4.6-28.5,26.3-22.4,16.2c6.3-9.9,14-61,14-61C282.1,329.8,299.3,366.7,285.3,371.6z"/>
			<path id="_x3C_Path_x3E__00000096754495432139277030000006564624932983248518_" class="st0" d="M824.7,322.8
				c0,0,17.4-6.8,18.6-7.2c1.4-0.5,9.4-2.7,10.4,3.4c0.7,5.8-13.7,6.8-13.7,6.8S825.4,324.8,824.7,322.8z"/>
			<path id="_x3C_Path_x3E__00000161622993223289494510000003818492287438940593_" class="st0" d="M778.2,228.8
				c0,0-39.3-51.1-39.1-61c0.2-9.9,18.6-0.2,24.4,9.2C769,186.6,774.8,194.8,778.2,228.8L778.2,228.8z"/>
			<path id="_x3C_Path_x3E__00000080913562467977808130000012056274396728592055_" class="st0" d="M388.7,281.6
				c0,0-97.7,51.1-105.9,40.8c-8.2-10.4,17.6-36.4,45.1-39.3C355.4,279.9,388.7,281.6,388.7,281.6z"/>
			<path id="_x3C_Path_x3E__00000041255729454586032160000010409281500389699516_" class="st0" d="M318.3,592
				c0,0,25.3-101.3,38.1-100.6c12.5,0.7,14.5,35.4-0.7,56.7C340.5,569.5,318.3,592,318.3,592z"/>
			<path id="_x3C_Path_x3E__00000020395842648449286940000010550620451493050262_" class="st0" d="M500.9,276.3
				c0,0,46.8-17.1,50.4-18.3c3.6-1.2,25.3-7,27.2,8.9c1.9,15.9-37.4,18.1-37.4,18.1S502.5,282.1,500.9,276.3z"/>
			<path id="_x3C_Path_x3E__00000030466906025396619210000013782246885390876587_" class="st0" d="M452.6,694.2
				c0,0,19.3,34.2,9.9,41.5c-9.2,7.5-19.3,2.7-21.9-1c-2.7-3.9,2.4-14,4.8-16.9C447.8,715.2,454.1,698.6,452.6,694.2L452.6,694.2z"
				/>
			<path id="_x3C_Path_x3E__00000117665897598392758750000001552540951575612092_" class="st0" d="M362.4,356.6
				c-1.2-6.8,3.6-18.3,7.7-13.7c3.9,4.3,5.5,44.1,5.5,44.1C363.9,369.6,363.4,363.4,362.4,356.6z"/>
			<path id="_x3C_Path_x3E__00000035511000594074397990000003059585110519286170_" class="st0" d="M805.9,192.1
				c0,0-26.5-55.2-11.3-65.8c15.2-10.6,30.4-2.2,34.2,3.9c3.9,6-5.3,21.5-9.4,25.6C815.3,159.8,804,184.9,805.9,192.1z"/>
			<path id="_x3C_Path_x3E__00000173158315906033985900000014462708362818063283_" class="st0" d="M394.3,433.8c0,0-21-61-14.2-64.9
				c6.8-3.9,19.5,13.5,18.8,29.7C398.4,414.7,394.3,433.8,394.3,433.8L394.3,433.8z"/>
			<path id="_x3C_Path_x3E__00000036944793939077828500000013419788405467234465_" class="st0" d="M591.8,449.9
				c-2.9-5.8-13.5-10.9-8.7-8.7c4.8,1.9,25.6,2.7,25.6,2.7C607.4,446.3,594.7,456,591.8,449.9z"/>
			<path id="_x3C_Path_x3E__00000098186044388164553970000015761170803967916197_" class="st0" d="M258,489.7c0,0-25.1,0-26.5-7.5
				c-1.2-7.5,4.6-11.8,7.5-12.1c2.9-0.2,7,5.8,8,8C247.7,480.3,255.1,489,258,489.7L258,489.7z"/>
			<path id="_x3C_Path_x3E__00000008130046675212520360000015742069058055049622_" class="st0" d="M637.8,379
				c-6.8,2.7-29.4,5.3-34.5-2.4c-5.3-7.7-7-29.7,13.3-42c20.5-12.3,70.9,47.5,70.9,47.5C680,376.4,644.8,376.4,637.8,379L637.8,379z
				"/>
			<path id="_x3C_Path_x3E__00000103983495017702340660000016498321101748627081_" class="st0" d="M249.3,395.2
				c1.9-0.5,8.2-1,9.4,1.2c1.4,2.2,1.4,8.2-4.3,11.3c-5.8,3.1-18.6-14.2-18.6-14.2C237.8,395.2,247.4,395.9,249.3,395.2z"/>
			<path id="_x3C_Path_x3E__00000136407192306122699910000015196515449808840632_" class="st0" d="M407.1,285
				c0,0,42.7,52.6,37.4,58.8c-5.3,6-24.1-6.3-29.2-22.4C409.9,305.2,407.1,285,407.1,285z"/>
			<path id="_x3C_Path_x3E__00000005225037203878639920000010367353519647222688_" class="st0" d="M343.1,432.6
				c-8.9-2.7-34-16.6-33.5-28.2c0.5-11.8,15.2-35.4,44.9-32.8c29.7,2.7,36.9,100.8,36.9,100.8C388,461,352.1,435,343.1,432.6
				L343.1,432.6z"/>
			<path id="_x3C_Path_x3E__00000170996831543459494420000016570641690473889169_" class="st0" d="M413.8,329.8
				c4.1,5.3,11.8,25.1,6.3,31.6c-5.5,6.3-24.8,13.3-40.8-1.7c-15.9-15.2,25.1-75,25.1-75C401,292.7,409.9,324.3,413.8,329.8
				L413.8,329.8z"/>
			<path id="_x3C_Path_x3E__00000144322545312383593680000009340532085905848511_" class="st0" d="M313,583.8c0,0-10.9-81-1.4-83.9
				c9.4-3.1,20.7,21.5,15.9,41.2C322.7,561.1,313,583.8,313,583.8z"/>
			<path id="_x3C_Path_x3E__00000152973153269750483580000005938751983011871651_" class="st0" d="M434.5,376.6
				c-3.6-2.9-11.8-13.5-9.6-18.6c2.4-5.1,13-12.8,25.6-6.3c12.5,6.8-2.2,50.9-2.2,50.9C449,397.1,437.9,379.3,434.5,376.6
				L434.5,376.6z"/>
			<path id="_x3C_Path_x3E__00000166645288835187900980000009788653403331944619_" class="st0" d="M378.6,464.2
				c4.8,4.6,15.7,26.5,2.2,28C367,493.3,280,425.8,280,425.8C350.4,429.9,374,459.6,378.6,464.2L378.6,464.2z"/>
			<path id="_x3C_Path_x3E__00000181064939830723529230000004527870628389636509_" class="st0" d="M295.9,486.8
				c0,0,19.1,57.4,2.9,83c-16.2,25.8-24.4,10.4-22.4-3.6C278,552.2,293.2,488.5,295.9,486.8L295.9,486.8z"/>
			<path id="_x3C_Path_x3E__00000036242112993515082040000012784794532488667042_" class="st0" d="M416.7,430.4
				c0,0-20,25.3-21.9,32.3c-1.7,7,1.9-8.9-1.9-17.1C389,437.4,413.1,429.4,416.7,430.4L416.7,430.4z"/>
			<path id="_x3C_Path_x3E__00000157992042802055811710000012696028683127390087_" class="st0" d="M771.2,125.3
				c0,0-1.2,46.3,2.7,55.9c3.9,9.9-5.5-11.6-17.1-17.8C745.1,157.2,766.1,127.3,771.2,125.3z"/>
			<path id="_x3C_Path_x3E__00000099639862674874830210000011328114491959880885_" class="st0" d="M402.5,280.4
				c0,0,116-5.1,119.4,8.4c3.1,13.7-33,26.8-60.8,17.4C433.3,297,402.5,280.4,402.5,280.4z"/>
			<path id="_x3C_Path_x3E__00000129896963584487635590000010381344514662522003_" class="st0" d="M284.8,374.7
				c0,0,35.2,0.5,42.7-2.7c7.5-3.1-8.9,4.3-13.5,13.3C309.4,394.2,286.2,378.5,284.8,374.7L284.8,374.7z"/>
			<path id="_x3C_Path_x3E__00000016039911559166214220000002470361200885045415_" class="st0" d="M277.3,535.8
				c0,0-12.8-31.6-18.3-37.1c-5.3-5.5,7.2,6.3,16.9,7.2C285.5,506.6,280.2,532.9,277.3,535.8z"/>
			<path id="_x3C_Path_x3E__00000121250830680123231940000006656453967447772067_" class="st0" d="M869.1,215.1
				c1.7-2.4,10.9-8.9,12.5-2.9c1.4,6-22.7,50.2-22.7,50.2C855.8,230.2,867.4,217.5,869.1,215.1z"/>
			<path id="_x3C_Path_x3E__00000131335108020564152190000008907712416253343410_" class="st0" d="M332.5,648.6
				c0,0-59.3-25.1-54.7-44.1c4.6-19.1,22.4-23.2,29.7-21s10.9,20.7,10.6,26.8C317.6,616.3,326.3,644.3,332.5,648.6z"/>
			<path id="_x3C_Path_x3E__00000099636827126999092770000016761287510521416846_" class="st0" d="M412.8,427.7
				c0,0,24.8-28.9,29.4-29.4c4.6-0.5,2.7,7.7,1.2,9.4C442.3,409.7,436.5,421.5,412.8,427.7z"/>
			<path id="_x3C_Path_x3E__00000116920338822320495400000009877580941494840964_" class="st0" d="M273.7,459.3
				c0,0,19.8,29.4,11.8,36.9c-7.7,7.2-17.1,3.9-20,0.5c-2.7-3.1,1.4-12.8,3.4-15.4C270.8,478.6,275.4,463.2,273.7,459.3L273.7,459.3
				z"/>
			<path id="_x3C_Path_x3E__00000134210545942481543800000006449129487814522008_" class="st0" d="M266.2,447.8
				c5.8,14.7,0.7,43.4-10.4,35.2c-11.1-8.2-35.2-96.2-35.2-96.2C256.1,419.5,260.4,433.3,266.2,447.8L266.2,447.8z"/>
			<path id="_x3C_Path_x3E__00000073721774693132183460000014615557591637698233_" class="st0" d="M339.3,573.4
				c0,0,3.1,32.3,6.5,38.8c3.6,6.5-4.8-7.7-13.3-11.1C323.9,597.8,335.9,575.3,339.3,573.4z"/>
			<path id="_x3C_Path_x3E__00000169526128773787140290000011662086610834076844_" class="st0" d="M403,396.4
				c-1.4-5.1-1.9-21.2,3.9-24.4c5.5-3.1,21.5-3.1,28.9,11.8c7.5,15.2-37.9,47.5-37.9,47.5C402.5,426.5,404.4,401.5,403,396.4
				L403,396.4z"/>
			<path id="_x3C_Path_x3E__00000004504275441016200750000016890726113174117292_" class="st0" d="M423.2,432.8
				c0,0,37.9-36.9,50.9-27.2c12.8,9.6,10.1,24.4,6.3,29.2c-4.1,4.8-19.1,1.4-23.6-0.7C452.4,431.8,428.5,429.4,423.2,432.8
				L423.2,432.8z"/>
			<path id="_x3C_Path_x3E__00000064352463729257546270000009829527373657841849_" class="st0" d="M665.3,470.2
				c0,0-40.3-71.4-10.9-84.9c29.7-13.5,42.9,30.1,44.6,37.6S721,530,721,530C709.5,533.1,665.3,470.2,665.3,470.2L665.3,470.2z"/>
			<path id="_x3C_Path_x3E__00000151541569094296143830000001927590604978182288_" class="st0" d="M733.3,549.8
				c0,0-31.1-113.3-18.3-119.6c12.5-6.3,33.8,26.8,30.9,55.9C742.7,515.5,733.3,549.8,733.3,549.8L733.3,549.8z"/>
			<path id="_x3C_Path_x3E__00000123424988636778585810000018146576598993825182_" class="st0" d="M771.4,599.7
				c0,0-43.9-39.1-34.2-54c9.4-15.2,26-13.5,31.6-9.4c5.8,4.1,3.4,21,1.4,26C768.1,567.4,767.3,593.9,771.4,599.7L771.4,599.7z"/>
			<path id="_x3C_Path_x3E__00000042005815868621445550000006659455949633816501_" class="st0" d="M748.8,497.4
				c0,0,15.7,30.1,21.5,35c6,5.1-7.5-5.5-17.1-5.3C743.5,527.1,746.1,500.6,748.8,497.4L748.8,497.4z"/>
			<path id="_x3C_Path_x3E__00000021799287608093552260000018009353336403793305_" class="st0" d="M596.4,467.5
				c0,0,36.7-54,39.8-68.5c2.9-14.7-2.4,18.1,6.5,34.2C651.6,449.4,603.8,469,596.4,467.5z"/>
			<path id="_x3C_Path_x3E__00000081607861376547764600000010830712127652488888_" class="st0" d="M562.4,436.4
				c16.6,3.6,39.1,25.6,24.8,30.6c-14,4.8-106.6-27.5-106.6-27.5C531.2,428.2,546,432.8,562.4,436.4z"/>
			<path id="_x3C_Path_x3E__00000178185665288473527920000010935829943006765970_" class="st0" d="M452.4,404.1
				c0,0,9.9-30.6,9.2-37.9c-0.5-7.2,1.4,8.9,8,15.2C476,388,456.2,403.6,452.4,404.1z"/>
			<path id="_x3C_Path_x3E__00000163033397048018684860000006307072002709930386_" class="st0" d="M421.5,294.9
				c0,0,102.5,53.5,98.6,67c-4.1,13.3-42,6.5-61.3-15.2C439.8,324.8,421.5,294.9,421.5,294.9z"/>
			<path id="_x3C_Path_x3E__00000175293576087754669040000012364277158634746777_" class="st0" d="M474.6,375.7
				c-6.3-2.7-13.3-13-7.5-14c6-0.7,39.8,19.3,39.8,19.3C486.1,381.2,480.6,378.3,474.6,375.7z"/>
			<path id="_x3C_Path_x3E__00000019648484801713572670000006764990119096847791_" class="st0" d="M528.4,411.1
				c0,0-25.1-26.3-18.3-35c6.5-8.9,16.6-7,20-4.1c3.1,2.7,1,13-0.7,16.2C527.9,391.1,526.2,407.5,528.4,411.1z"/>
			<path id="_x3C_Path_x3E__00000048485430154261121600000012524950194352062907_" class="st0" d="M773.4,339.7
				c0,0-89.2-73.8-82.5-86.1c6.5-12.3,42.2,2.2,56.4,27.7C761.5,306.7,773.4,339.7,773.4,339.7z"/>
			<path id="_x3C_Path_x3E__00000138552771463604368930000015231589967079944842_" class="st0" d="M719.1,330.1
				c-4.6,2.2-20.3,5.3-24.4,0.2c-3.9-5.1-6.3-20.5,7.2-30.1c13.5-9.6,52.1,29.4,52.1,29.4C748.5,326,723.9,327.9,719.1,330.1z"/>
			<path id="_x3C_Path_x3E__00000016791293146838875730000002673028275574852769_" class="st0" d="M530.5,286.9
				c0,0,0.2,50.9-15,53.5c-15.2,2.4-23.6-9.2-24.4-15.2c-0.5-5.8,11.6-14.2,16.2-15.7C512,307.9,529.3,292.9,530.5,286.9z"/>
			<path id="_x3C_Path_x3E__00000176040542537356524800000010150928024532369549_" class="st0" d="M464.4,312.5
				c0,0,26.8,1.9,32.6-0.2c5.8-1.9-7,3.1-10.9,9.6S465.4,315.6,464.4,312.5z"/>
			<path id="_x3C_Path_x3E__00000040566086632326058200000001950414163797860755_" class="st0" d="M512.4,428.2
				c0,0,68-61.7,89.9-44.4c21.7,17.4,16.2,42.9,9.2,50.9c-7.2,8.2-33.3,1.7-40.8-2.4C563.1,428.2,521.8,422.7,512.4,428.2
				L512.4,428.2z"/>
			<path id="_x3C_Path_x3E__00000107589006731132098590000007212480468400231337_" class="st0" d="M481.3,408.7
				c-3.1-2.7-11.1-12.8-8.9-17.6c2.2-4.8,12.3-12.3,24.4-6c11.8,6.3-2.2,48.7-2.2,48.7C495.3,428.5,484.7,411.3,481.3,408.7
				L481.3,408.7z"/>
			<path id="_x3C_Path_x3E__00000052816295774873654380000012381275035011705489_" class="st0" d="M499.9,432.3c0,0,7.7-37.4,6-46.1
				c-1.7-8.4,2.7,10.4,11.1,17.1C525.7,410.1,504.2,431.4,499.9,432.3z"/>
			<path id="_x3C_Path_x3E__00000113310655136734331980000007078184439091542938_" class="st0" d="M820.1,256
				c-2.9,7.5-14.5,16.9-15.9,9.9c-1.7-7,19.3-48.5,19.3-48.5C825.7,241.8,822.8,248.6,820.1,256z"/>
			<path id="_x3C_Path_x3E__00000028316004894145875950000007968202469781557665_" class="st0" d="M826.2,218.9
				c0,0,37.9,37.1,28.5,50.4c-9.4,13-24.1,10.9-28.9,6.8c-5.1-3.9-2.2-18.8,0-23.4C827.9,248.1,829.8,224.2,826.2,218.9z"/>
			<path id="_x3C_Path_x3E__00000143615274791979687820000007115851848050975620_" class="st0" d="M866,681.7
				c0,0,24.1,33.5,9.9,41.7c-14,8.4-22.9-12.8-24.1-16.4c-1.4-3.6-16.9-52.3-16.9-52.3C840.6,652.5,866,681.7,866,681.7z"/>
			<path id="_x3C_Path_x3E__00000035508782371387755320000009005000806664882366_" class="st0" d="M775.8,548.1
				c0,0,43.9,94.5,33.8,101.8c-10.1,7.5-33.5-18.3-35.2-44.4C772.6,579.4,775.8,548.1,775.8,548.1z"/>
			<path id="_x3C_Path_x3E__00000062163479986798335280000012849176227975174806_" class="st0" d="M816.3,633.4
				c0,0,26.5,33.8,17.8,43.4c-8.9,9.4-20.5,6.3-24.1,2.7c-3.6-3.6,0.2-15.7,2.4-19.1C814.6,657.1,818.5,638,816.3,633.4z"/>
			<path id="_x3C_Path_x3E__00000093170918305831761790000011247163638133999238_" class="st0" d="M843.5,714.2
				c3.6-5.5,2.4-17.4,3.1-12.1c0.7,5.3,11.1,23.2,11.1,23.2C854.9,725.8,840.2,719.8,843.5,714.2L843.5,714.2z"/>
			<path id="_x3C_Path_x3E__00000170964172187879334750000012322643713387784116_" class="st0" d="M841.6,686.5
				c-0.2,5.5,5.5,13.7,2.7,10.1c-2.7-3.6-17.6-12.8-17.6-12.8C828.6,682.4,842.1,680.7,841.6,686.5L841.6,686.5z"/>
			<path id="_x3C_Path_x3E__00000077311690716850780830000014170265405755380623_" class="st0" d="M599,236.8
				c0,0-14.2,30.6-14.5,38.3c-0.2,7.7-0.5-9.4-6.3-16.9C572.2,250.5,594.9,236.5,599,236.8z"/>
			<path id="_x3C_Path_x3E__00000153670800829027459550000001458089482963954336_" class="st0" d="M750,275.3
				c-4.1-3.9-13.5-18.8-9.9-25.1c3.6-6,18.3-14.7,33.8-4.6c15.2,10.1-9.4,65.4-9.4,65.4C765.9,304,754.1,279.2,750,275.3z"/>
			<path id="_x3C_Path_x3E__00000057119030279599110910000009241556652919525294_" class="st0" d="M695.5,238.9c0,0,41.2,1,42,5.8
				c1,4.8-12.3,8.7-21.9,4.8C706.1,245.4,695.5,238.9,695.5,238.9L695.5,238.9z"/>
			<path id="_x3C_Path_x3E__00000143602772670873993240000016358011608995070851_" class="st0" d="M601.9,237.5
				c0,0,86.1-1.4,88.3,8.7c2.2,10.1-25.1,19.3-45.3,11.8C624.6,250.5,601.9,237.5,601.9,237.5z"/>
			<path id="_x3C_Path_x3E__00000037651446140385178840000003853678358164238499_" class="st0" d="M656.9,264.5
				c8.9-0.5,35.9,4.6,39.1,15.2s-2.7,36.7-30.4,43.6c-27.7,6.8-64.6-80.1-64.6-80.1C607.2,252.7,648,265,656.9,264.5L656.9,264.5z"
				/>
			<path id="_x3C_Path_x3E__00000021805710111751387100000007579072252706416545_" class="st0" d="M737.2,426.5
				c0,0-70.2-71.6-71.9-86.8c-1.4-15.2,28.7-3.9,39.3,9.9C715.2,363.1,725.6,374.9,737.2,426.5z"/>
			<path id="_x3C_Path_x3E__00000127006450996725806400000009098283753180270985_" class="st0" d="M714.8,420
				c-7.2,8.2-8.4,28-8.2,19.1c0.2-8.9-11.8-41.5-11.8-41.5C699.3,397.8,722.2,411.6,714.8,420L714.8,420z"/>
			<path id="_x3C_Path_x3E__00000124120158727168611060000004229143366240817302_" class="st0" d="M842.8,282.1
				c16.2-6.3,48-0.5,39.1,11.8c-9.2,12.3-107.3,38.3-107.3,38.3C811.5,293.4,826.6,288.6,842.8,282.1z"/>
			<path id="_x3C_Path_x3E__00000120559288319286709940000015845065447662164105_" class="st0" d="M839.2,329.4
				c0,0-57.9,43.4-66.1,57.6c-8.4,14.2,8.9-18.1,5.3-38.3C775,328.4,832,325,839.2,329.4z"/>
			<path id="_x3C_Path_x3E__00000051365465958489258800000006390480733234955186_" class="st0" d="M920.9,408.5
				c0,0-64.6-76.9-64.9-92.1c-0.2-15.2,28.7-1.7,38.3,12.8C903.8,343.6,913.5,356.1,920.9,408.5L920.9,408.5z"/>
			<path id="_x3C_Path_x3E__00000138554714485203258400000012134653007144576661_" class="st0" d="M884.3,313.4
				c-2.2-1-8.4-6-7.7-9.2c0.7-3.1,5.8-8.9,13.7-6.8s5.3,29.2,5.3,29.2C895.1,323.6,886.7,314.6,884.3,313.4z"/>
			<path id="_x3C_Path_x3E__00000161631533409554069130000015844601284916172714_" class="st0" d="M891.8,381c0,0,40.8,40,30.6,54.3
				c-9.9,14-26,11.6-31.1,7.5c-5.5-4.3-2.4-20.5,0-25.6C893.4,412.3,895.6,386.7,891.8,381z"/>
			<g id="_x3C_Group_x3E__00000062168334846164800970000008314822992868523410_">
				<path id="_x3C_Path_x3E__00000003793993646608046980000014760953172613314451_" class="st0" d="M919.2,443.9
					c0,0-32.3,52.3-49.4,45.1c-17.1-7-18.6-24.4-15.4-30.9c3.1-6.5,21-7.2,26.8-6C886.7,453.3,914.2,449.2,919.2,443.9L919.2,443.9z
					"/>
				<path id="_x3C_Path_x3E__00000076581216421053589960000000682818857986257041_" class="st0" d="M754.1,41.7
					c0,0-11.6-3.4-10.6,9.9c1,13-5.1,23.9-11.6,27.2c-6.5,3.4,15.2-11.1-8.9-18.8c-24.4-7.5-22.4,24.6-18.6,32.8
					c4.1,8.4-24.4,1.2-24.8-19.8c-0.5-21,5.5-26,5.5-26s-16.2,23.4-8.9,49.2c7.2,26-8.7,19.3-8.7,19.3s10.1,13.3,0,28
					c-10.4,15-9.6,16.4-7.7,25.3c1.9,8.7-13.7-10.4-8.9-25.3s-17.6,1.2-16.2-13.5c1.4-14.5-3.9,30.9-10.1,41
					c-6.5,10.4-14.7,12.5-13.7,28.7c1,16.2-10.4,21-15.4,22.9c-5.1,2.2,7.5-6,0-22.9c-7.5-16.9-15.2-29.4-5.1-36.9
					c10.4-7.5,16.2-16.6,13.7-22.9c-2.4-6.5-7-23.4,8.2-28.5c15.2-4.8-2.4-8.2,8.4-20.5c10.6-12.1,1.7-35,22.9-34
					c21.5,1,19.1,2.4,26-6.8c7-9.4,19.8-21,38.3-20c18.6,1-1-20.5,31.1-25.1c32.3-4.3,10.1,15.7,34.2,10.4
					c24.4-5.3,21.9-16.9,39.1-10.9c16.9,6,33,15.2,33,25.6c0,10.1,2.9,9.6,15.7,11.1c12.5,1.4,21.7,12.8,20.5,23.4
					c-1,10.9,2.9,8,9.2,8c6.5,0-16.2,15.4-22.9,21.9c-6.8,6.3-10.6-23.4-20-16.2c-9.2,7.2-24.6-2.4-20.5,13
					c3.9,15.7-16.2-5.3-9.6-21.5c6.3-15.9-17.1-11.6-17.6-0.5c-0.5,11.3-9.4-18.3-10.4,3.6c-1,21.9-16.6,19.3-16.4,1
					c0.5-18.6,12.1-32.3-2.7-25.6C756.2,55.4,767.8,27,754.1,41.7L754.1,41.7z"/>
			</g>
			<path id="_x3C_Path_x3E__00000111877937714181447470000004258086622505038514_" class="st0" d="M879.5,104.8
				c-2.7,1.2-13.7,2.9-12.5-3.1c1.4-6,43.2-34.2,43.2-34.2C898.3,97.4,882.1,103.4,879.5,104.8z"/>
			<path id="_x3C_Path_x3E__00000085969153138602633830000000810812062039430819_" class="st0" d="M920.9,72.1
				c0,0-2.9,18.6-8.4,18.6c-5.8,0-8.2-4.8-8-7c0-2.2,4.8-4.3,6.8-4.8C913,78.6,920.2,74.2,920.9,72.1z"/>
			<path id="_x3C_Path_x3E__00000101804751474808045400000002537266563895407265_" class="st0" d="M878.7,109.9
				c0,0,18.8-10.4,22.9-19.3s-0.2,4.3,11.1,6.5c11.1,2.4,8.9,13,4.3,18.6c-4.6,5.3-3.6,8.7,0,15.7c3.4,6.8,14.5,29.4-7,45.8
				s-21.2,21.7-18.1,30.1s-12.5-13.7,0-28c12.3-14,1-8.4,0-16.6s13-16.4-5.8-14.2c-18.6,1.9,19.8-11.6,2.2-18.3
				C871,123.2,899.7,110.6,878.7,109.9L878.7,109.9z"/>
			<path id="_x3C_Path_x3E__00000139989280276228733030000003880060389336955543_" class="st0" d="M634.2,395.4
				c-0.5,2.4-4.3,9.4-7.7,9.4c-3.1,0-9.9-4.1-9.4-12.3c0.7-8.4,28.2-10.9,28.2-10.9C642.2,382.6,634.9,392.8,634.2,395.4
				L634.2,395.4z"/>
			<path id="_x3C_Path_x3E__00000008108559647674185430000012873229448277351597_" class="st0" d="M554.4,392.1
				c-2.2,2.7-10.6,8.9-14.5,7c-3.9-1.9-9.4-10.4-4.1-19.8c5.3-9.6,39.1,2.7,39.1,2.7C570.6,381.4,556.6,389.4,554.4,392.1z"/>
			<path id="_x3C_Path_x3E__00000093896755849018608480000007115913486969222789_" class="st0" d="M599.7,377.3
				c0,0-74.5-4.8-75.5-13.7c-1.2-8.9,22.9-14.7,39.8-7C581.2,364.6,599.7,377.3,599.7,377.3L599.7,377.3z"/>
			<path id="_x3C_Path_x3E__00000161606681304196251930000004677988523628375989_" class="st0" d="M780.1,235.5
				c0,0-134.8,0.5-137.7-15c-2.7-15.7,40.5-28.7,71.9-16.9C745.6,215.5,780.1,235.5,780.1,235.5z"/>
			<path id="_x3C_Path_x3E__00000065791778901828320790000006398276804218278847_" class="st0" d="M795.3,306.9
				c0,0-16.4,19.3-23.2,15.4c-6.5-4.1-5.8-11.3-4.1-13.7c1.7-2.4,8.9-1.4,11.1-0.7C781.6,308.9,792.9,308.9,795.3,306.9z"/>
			<path id="_x3C_Path_x3E__00000183214885225541672610000014897801106072589444_" class="st0" d="M134.3,527.1
				c0,0,88.3-48.5,96-39.1c7.7,9.4-15.4,33.5-40.5,36.9C164.7,528.1,134.3,527.1,134.3,527.1z"/>
			<path id="_x3C_Path_x3E__00000001646786978334963960000003197185028434114177_" class="st0" d="M228.4,478.1
				c0,0-53.8,0.2-56.7-15.7c-2.7-16.2,9.6-25.3,16.2-26c6.3-0.7,15,12.3,16.9,17.1C206.4,458.4,222.1,476.9,228.4,478.1z"/>
			<path id="_x3C_Path_x3E__00000152265885325662801390000004961281132781298313_" class="st0" d="M222.3,482.5
				c0,0-88.5,35.2-94.8,25.6c-6-9.6,18.6-29.7,42.4-29.9C193.9,478.1,222.3,482.5,222.3,482.5L222.3,482.5z"/>
			<path id="_x3C_Path_x3E__00000030485578139850211400000013306605068777819313_" class="st0" d="M140.6,479.8
				c0,0,23.2-26.8,25.8-34.5c2.4-7.7-2.4,9.6,1.2,19.1C171.5,473.6,144.7,481,140.6,479.8L140.6,479.8z"/>
			<path id="_x3C_Path_x3E__00000155840167076899890420000011065302857085879991_" class="st0" d="M96.7,518.9
				c13.3-8.7,42.7-9.4,36.9,3.4c-5.8,12.8-88.7,54-88.7,54C70.7,534.6,83.2,527.6,96.7,518.9L96.7,518.9z"/>
			<path id="_x3C_Path_x3E__00000105428101708488889990000015934678433480493742_" class="st0" d="M81.5,561.3
				c0,0-15.2,27.5-30.9,30.4s-12.5-5.8-6.5-9.9C50.2,577.5,79.8,560.9,81.5,561.3z"/>
			<path id="_x3C_Path_x3E__00000083774285007553877620000002103222898463954321_" class="st0" d="M34,617.3
				c1.9,4.3,3.9,18.8-1,22.4c-4.6,3.4-18.8,4.8-27-8C-2.2,619,35,585.5,35,585.5C31.6,590.5,32.3,612.9,34,617.3L34,617.3z"/>
			<path id="_x3C_Path_x3E__00000034084962472356039640000009108319709021246386_" class="st0" d="M41,629.6c0,0,17.4,46.5,4.1,54
				c-13,7.5-24.6-0.5-27.2-5.5c-2.7-5.3,5.8-17.1,9.4-20C30.9,654.9,42,635.6,41,629.6L41,629.6z"/>
			<path id="_x3C_Path_x3E__00000092416089398893369630000013957915772932127129_" class="st0" d="M46.5,628.4c0,0-11.8-16.4-9.2-26
				c2.7-9.9,6.8-5.8,7.5-1.2C45.8,605.7,47.3,627.7,46.5,628.4z"/>
			<path id="_x3C_Path_x3E__00000098219840742506379710000002806874090460788102_" class="st0" d="M203.8,336.8
				c-4.1,9.6-20,19.5-42.7,27.5c-22.7,8-30.4,29.7-29.9,16.4c0.7-13,23.2-27.7,23.2-27.7s-55.9,17.4-35.9,58.1
				c20,40.8-5.3,102,3.1,70.4c8.4-31.6-20.5-66.1-24.6-76.7c-4.1-10.6,2.4-27.5,2.4-27.5s-7.2,1.7-9.6,33.8
				c-2.7,32.1-2.7-6.5-15,24.4c-12.5,30.9-43.6,26.8-54.3,26.3c-10.6-0.7-32.1-37.6-3.1-24.6c28.9,13,52.8-52.6,88.7-95.5
				c35.9-42.7,134.3-32.1,134.3-32.1S207.9,326.9,203.8,336.8L203.8,336.8z"/>
			<path id="_x3C_Path_x3E__00000124150271819435261310000005089124904575679638_" class="st0" d="M55.2,481.5
				c-3.6,21.7-28.9,42.4-28.9,73.3c0,30.6-21.5,31.6-21.5,31.6s20.5-3.4,12.5-31.6c-8.2-28.5,0.2-49,14.5-60.3
				c14-11.3-10.6-27,1.9-27c12.3,0,31.8-11.1,31.8-11.1S58.8,459.8,55.2,481.5L55.2,481.5z"/>
			<path id="_x3C_Path_x3E__00000070107561920123002480000012168968275407948216_" class="st0" d="M31.8,544.5c0,0,5.3-19.1,13-28
				c7.7-8.9,19.5-32.8,18.1-44.1c-1.4-11.1,15-32.6,18.6-35.9c3.6-3.4-3.6,12.8,0,28c3.6,15.4,13,37.6,8.2,50.2
				c-4.8,12.5-22.2,11.1-29.4,29.9c-7,18.8-5.5-21.9,5.3-29.9c10.6-8-30.9,15.2-30.4,46.8C35.7,592.9,30.9,547.1,31.8,544.5
				L31.8,544.5z"/>
			<path id="_x3C_Path_x3E__00000134942319697997575430000012139915650050151314_" class="st0" d="M102,422c5.5,11.3,1,42,3.6,57.9
				c2.7,16.2-0.2,35.2,0,23.9c0.2-11.1-9.9-23.4-15.9-41.2c-6.3-18.1,0-31.1,0-31.1C92.4,418.3,96.2,410.4,102,422z"/>
			<path id="_x3C_Path_x3E__00000059306467578550221810000000783983311186496677_" class="st0" d="M202.3,355.6
				c0,0-3.6,22.4-21.2,23.9c-17.4,1.4-19.5,14.2-15.4,30.1c4.1,16.2,1.4,25.6-7,42.2c-8.7,16.6,2.9-18.6-4.3-27.5
				c-7-8.9-2.7,44.4-13.7,47.5c-10.9,3.4,0.5-36.7-10.4-55.5c-10.9-18.8,16.9-40.5,24.1-43.6C161.6,369.6,191,363.1,202.3,355.6
				L202.3,355.6z"/>
			<path id="_x3C_Path_x3E__00000016063335519677848880000015595812153411101074_" class="st0" d="M67.8,389.4
				c0,0-28.5,45.6-38.8,43.4c-10.4-2.4-20.7-2.9-18.3-19.1c2.7-15.9,1.9,16.6,23.6,3.6C55.7,404.1,67.8,389.4,67.8,389.4L67.8,389.4
				z"/>
			<path id="_x3C_Path_x3E__00000136381646613720627170000007361123137087236525_" class="st0" d="M859.7,200.3
				c-1.2-1.9-3.4-8.4-1.4-10.6c1.9-2.2,8.4-4.1,13.5,1.2c5.1,5.3-9.4,24.6-9.4,24.6C863.5,212.9,861.1,202.3,859.7,200.3z"/>
			<path id="_x3C_Path_x3E__00000178888910407762734100000013457944667202817969_" class="st0" d="M832.2,195.5
				c0,0,9.9-16.6,15.4-14.5c5.3,1.9,5.8,7.5,5.1,9.6c-1,1.9-6.8,2.4-8.4,1.9C842.3,192.4,833.6,193.8,832.2,195.5z"/>
			<path id="_x3C_Path_x3E__00000026155427375762616220000015488384655872862138_" class="st0" d="M881.4,175.5c1-1.4,6-6,7.2-2.7
				c1.4,3.6-10.1,32.1-10.1,32.1C874.4,185.6,880.7,177.2,881.4,175.5z"/>
			<path id="_x3C_Path_x3E__00000122722644121678896260000000046068097174245253_" class="st0" d="M866.4,151.4
				c3.9,2.2,13.7,12.3,12.1,17.6c-1.7,5.5-11.8,14.7-25.3,9.4c-13.7-5.1-4.1-52.3-4.1-52.3C849.1,131.9,862.6,149,866.4,151.4z"/>
			<path id="_x3C_Path_x3E__00000014614051153940022590000005854217939256820663_" class="st0" d="M839.4,144.6
				c-0.7,1.7-5.5,6.5-7,3.1c-1.7-3.4,8.2-32.3,8.2-32.3C845.9,134.3,840.2,143.2,839.4,144.6z"/>
			<path id="_x3C_Path_x3E__00000152950797477950726120000017107099486331476899_" class="st0" d="M847.4,83.1
				c0,0,35,57.9,28.9,63.2c-6,5.5-22.9-9.4-25.8-26S847.4,83.1,847.4,83.1z"/>
			<path id="_x3C_Path_x3E__00000055685126693111598130000017118903999735454105_" class="st0" d="M761.5,216.7
				c0,0-79.8-42-85.4-54.5c-5.3-12.5,23.4-11.1,36.2-2.4C725.1,168.8,737.4,175.7,761.5,216.7z"/>
			<path id="_x3C_Path_x3E__00000055682025581867918260000001614069630926188692_" class="st0" d="M672.1,148
				c0,0,53.1-42.7,68.2-28.9c15.4,14,10.4,32.6,4.6,38.1c-5.5,5.8-24.6-0.2-29.9-3.6C709.5,150.2,679.3,144.4,672.1,148z"/>
			<path id="_x3C_Path_x3E__00000045608610954472339830000013099581403447216000_" class="st0" d="M676.7,193.8
				c-3.6,1.4-15.7,3.4-18.6-0.7c-3.1-4.1-4.3-15.9,6.3-22.7c10.6-7,39.1,24.1,39.1,24.1C699.3,191.4,680.3,192.4,676.7,193.8z"/>
			<path id="_x3C_Path_x3E__00000155135176074257853600000009856091123885104816_" class="st0" d="M775,152.8c0,0-0.5-32.8-3.4-39.5
				c-3.1-7,4.1,8.2,12.5,12.3C792.6,129.7,778.7,151.4,775,152.8z"/>
			<path id="_x3C_Path_x3E__00000145764817808676121580000012011796352934988179_" class="st0" d="M789,95c4.1,0,16.4,3.1,17.6,8.2
				c1.2,5.1-2.4,16.9-15.4,19.1c-13,2.4-27.2-39.1-27.2-39.1C766.6,87.7,784.9,94.7,789,95z"/>
			<path id="_x3C_Path_x3E__00000044885446384723757400000005692703871344702618_" class="st0" d="M758.6,84.4
				c0,0,15.7,30.9,7.2,36.9c-8.4,6.3-17.1,1.9-19.3-1.4c-2.2-3.6,2.7-12.3,4.8-14.7C753.6,102.7,759.9,88.4,758.6,84.4z"/>
			<path id="_x3C_Path_x3E__00000106113304592939932080000002684068943097851020_" class="st0" d="M648,191.7
				c-1,11.3-13,28.2-17.6,19.5c-4.8-8.7,7-73.1,7-73.1C649.9,170.4,648.7,180.6,648,191.7L648,191.7z"/>
			<path id="_x3C_Path_x3E__00000090260468200811311290000004232067439650458787_" class="st0" d="M621.9,184.4
				c0,0,5.1,31.3,5.3,33.8c0.2,2.4,1.2,16.6-8.9,15.9c-10.1-1-6.5-25.6-6.5-25.6S618.3,184.9,621.9,184.4z"/>
			<path id="_x3C_Path_x3E__00000074404650939817227630000015286640794398314920_" class="st0" d="M814.1,85.3
				c0,0,11.8,33.5,17.1,39.3c5.5,6-7-6.8-17.1-8C804.2,115.2,811,88.2,814.1,85.3z"/>
			<path id="_x3C_Path_x3E__00000017495047833962576240000000842941795448849576_" class="st0" d="M677.9,134
				c0,0,36.9-53.1,46.3-55.7c9.4-2.9,5.8,17.6-1.4,25.8C715.2,112.6,709.2,120.5,677.9,134L677.9,134z"/>
			<path id="_x3C_Path_x3E__00000053540082230726146630000003513973532578201741_" class="st0" d="M738.4,109.7
				c-2.4,2.2-13.7,6.8-14,0s37.1-48,37.1-48C756.7,96.9,741,107.5,738.4,109.7L738.4,109.7z"/>
			<path id="_x3C_Path_x3E__00000177472070472391247850000014852934386720955064_" class="st0" d="M842.1,84.4c0,0,4.1,25.6-3.1,28
				c-7.5,2.7-12.8-2.7-13.5-5.5c-1-2.9,4.6-8,6.8-9.2C834.4,96.4,841.8,87.5,842.1,84.4z"/>
			<path id="_x3C_Path_x3E__00000160167781567110812850000010614133767446936482_" class="st0" d="M627.9,321.4
				c-5.1-6.8-6.8-21.9,0.2-19.3c6.8,2.4,31.6,43.4,31.6,43.4C637.3,333.9,633,327.7,627.9,321.4L627.9,321.4z"/>
			<path id="_x3C_Path_x3E__00000088122635666612512910000006552721653067872676_" class="st0" d="M595.4,353.7
				c0,0-11.6-91.9-1-95.3c10.6-3.6,23.6,24.4,17.8,47C606.7,327.9,595.4,353.7,595.4,353.7z"/>
			<path id="_x3C_Path_x3E__00000051369932500698800930000004656975659761154193_" class="st0" d="M606.7,336.3
				c0,0,11.3-23.9,11.6-29.9c0.2-6,0.2,7.5,4.8,13.3C627.7,325.7,609.9,336.6,606.7,336.3z"/>
			<path id="_x3C_Path_x3E__00000087391677438755094310000015282188736543751858_" class="st0" d="M534.6,351.5
				c-2.2,1.2-9.4,3.1-11.3,0.7c-2.2-2.2-3.6-9.2,2.4-14c6-5.1,25.1,12.1,25.1,12.1C548.1,348.6,536.8,350.3,534.6,351.5z"/>
			<path id="_x3C_Path_x3E__00000165216766768584661680000015848051921226187138_" class="st0" d="M593.5,367.9
				c0,0-65.4-32.6-62.9-41c2.4-8.4,26.3-4.6,38.6,8.9C581.4,349.4,593.5,367.9,593.5,367.9z"/>
			<path id="_x3C_Path_x3E__00000127008569874343057940000016869974854525476227_" class="st0" d="M566.9,306.2
				c-1.9-11.8,6.8-32.3,13.7-24.4c6.8,8,9.6,77.6,9.6,77.6C569.8,328.9,568.9,318,566.9,306.2z"/>
			<path id="_x3C_Path_x3E__00000031173503073693052130000016960460314187107512_" class="st0" d="M546.9,319
				c-3.6,0-14.2-2.9-15.2-7.5c-1-4.3,2.2-14.5,13.5-16.4c11.3-1.7,23.4,34,23.4,34C566.5,325.3,550.5,319,546.9,319z"/>
			<path id="_x3C_Path_x3E__00000049927827785282954010000017369848166789681551_" class="st0" d="M567.9,282.1c0,0-7,18.8-6.8,23.4
				c0.2,4.6-0.5-5.5-4.6-9.6C552.7,291.7,565.5,282.1,567.9,282.1z"/>
			<path id="_x3C_Path_x3E__00000049941416236157873060000013383624443467007364_" class="st0" d="M555.1,287.9
				c0,0-21.9,9.6-23.6,7.2c-1.7-2.2,4.3-7.5,10.4-7.7C547.9,286.9,555.1,287.9,555.1,287.9z"/>
			<path id="_x3C_Path_x3E__00000104676224336036355130000014010628733004179120_" class="st0" d="M658.3,235.5
				c0,0-19.1,0.2-20.5,0.2c-1.2,0-9.9-0.7-8.4-6.5c1.2-6,15.4-1.7,15.4-1.7S658.3,233.4,658.3,235.5z"/>
		</g>
	</g>
</g>
</svg>
