<?xml version="1.0" encoding="utf-8"?>
<!-- Generator: Adobe Illustrator 23.0.6, SVG Export Plug-In . SVG Version: 6.00 Build 0)  -->
<svg version="1.1" id="Lager_1" xmlns="http://www.w3.org/2000/svg" xmlns:xlink="http://www.w3.org/1999/xlink" x="0px" y="0px"
	 viewBox="0 0 325.98 155.91" style="enable-background:new 0 0 325.98 155.91;" xml:space="preserve">
<g>
	<path d="M123.31,4.29l0.01,0.3c2.29-0.03,4.39,0.08,6.33,0.31c2.7,0.33,5.09,0.93,7.23,1.8c13,5.26,17.19,20.43,29.18,47.74
		c-3.94,0.81-8.34,2.68-10.84,4.41c-4.01,2.78-5.99,5.11-4.4,9.27c1.45,3.78,5.23,6.36,8.72,8.06c8.5,4.13,17.63,4.53,26.19,0.36
		c3.94-1.92,6.53-5.03,10.61-6.79c4.35-1.88,8.2-1.41,11.37,1.85c2.35,2.41,4.29,5.24,6.04,8.23c-5.9,3.92-11.52,8.27-17.08,12.68
		c-10.56-4.63-17.91,1.31-23.33,9.4c-2.76,4.13-5.38,9.2-8.66,12.97c-6.85,7.88-16.32,14.77-24.76,19.91
		c-3.57,2.08-7.38,4.19-11.5,6.34l1.52,2.65c18.31-8.41,36.99-21.21,67.93-44.7c5.02,4.56,9.5,15.62,5.25,48.2l3.34-0.02
		c3.2-19.07,6.71-34.62,12.2-58.15c1.16,2.29,2.33,4.54,3.59,6.66c4.73,7.93,10.18,15.87,17.7,21.41
		c7.34,5.41,16.16,7.59,25.16,7.63c7.08,7.99,15.09,15.12,24.33,20.26c9.32,5.19,20.25,7.9,30.88,5.95
		c-20.71,2.58-37.87-10.21-51.18-26.31c8.2-0.55,16.95-3.06,21.68-10.22c5.37-8.13,3.46-18.72-1.07-26.76
		c-9.94-17.68-31.03-23.37-49.83-19.08c-0.98,0.22-1.96,0.48-2.93,0.74c-1.19-2.62-2.39-5.24-3.55-7.87
		c-0.68-1.55-1.4-3.3-2.18-4.68c-4.88-8.64-10.9,3.15-14.48,16.83c0,0.01,0,0.01,0,0.02c-0.29-0.45-0.57-0.9-0.87-1.34
		c-4.65-6.86-11.62-11.58-20.35-8.67c-4.14,1.38-6.27,3.65-9.84,6.01c-3.63,2.39-6.34,3.64-10.67,3.79
		c-4.29,0.15-8.69-0.69-12.59-2.52c-2.36-1.1-7.67-3.63-5.02-6.55c1.8-1.98,5.85-4.06,10.74-5.2c4.02,9,5.49,12.21,11.99,8.09
		c6.67-4.22,3.4-9.87,0.3-11.63c-2.83-1.61-6.74-2-10.67-1.71c-0.59-1.26-1.23-2.65-1.97-4.18c-9.87-20.52-16.17-37.75-30.96-43.48
		c-1.47-0.57-3.01-1.02-4.66-1.36c-1.79-0.36-3.69-0.59-5.72-0.65C125.46,4.24,124.4,4.24,123.31,4.29z M171.95,58.61
		c4.41-0.31,6.8,1,7.25,2.36c0.36,1.09-0.52,1.91-1.42,2.55C175.37,65.23,174.5,64.09,171.95,58.61z M231.13,71.21
		c-3.05,1.07-6.04,2.33-8.94,3.77c0.55-1.91,1.13-3.82,1.76-5.71c0.64-1.92,1.95-5.47,3.02-7.53c0.61,1.42,1.44,3.35,1.83,4.27
		C229.55,67.76,230.34,69.48,231.13,71.21z M264.67,119c-6.01-8.08-11.12-16.6-15.28-24.2c-3.57-6.52-6.81-13.21-9.92-19.96
		c4.59-1.2,9.36-1.85,14.36-1.75c16.08,0.31,35.66,13.33,34.23,31.37C287.15,115.88,275.86,119.48,264.67,119z M221.83,82.31
		c3.84-2.2,7.8-4.13,11.91-5.65c0.54,1.08,1.05,2.18,1.61,3.25c4.49,8.58,9.32,16.99,14.7,25.04c3.06,4.59,6.33,9.17,9.84,13.6
		c-5.24-0.75-10.13-2.31-13.49-4.28C234.28,107.19,228.35,94.32,221.83,82.31z M192.34,95.96c-0.81,0.64-1.62,1.29-2.43,1.93
		c-5.74,4.54-11.3,9.37-17.64,14.5c3.02-3.88,5.87-8.78,8.62-12.03C183.8,96.94,187.75,94.69,192.34,95.96z M213.48,87.56
		c-1.88,8.59-3.48,17.12-4.89,25.53c-0.75-8.05-2.93-13.53-6.63-17.11c0.22-0.17,0.43-0.33,0.66-0.5
		C206.16,92.77,209.77,90.09,213.48,87.56z"/>
	<path d="M135.44,45.86h-16.02L98.05,96.73c-2.27,5.34-4.01,10.42-5.21,15.36c-1.07-5.07-2.8-10.01-5.07-15.36L66.4,45.86H50.24
		l12.43,28.96l-9.2,21.92c-2.27,5.34-4.01,10.42-5.21,15.36c-1.07-5.07-2.8-10.01-5.07-15.36L21.83,45.86H5.67l42.6,99.21
		l22.29-51.91l22.29,51.91L135.44,45.86z"/>
</g>
</svg>
