<?xml version="1.0" encoding="UTF-8"?> <svg xmlns="http://www.w3.org/2000/svg" xmlns:xlink="http://www.w3.org/1999/xlink" id="Layer_1" data-name="Layer 1" viewBox="0 0 443.5 224.29"><defs><style>.cls-1{fill:#ff7865;}.cls-2{fill:url(#radial-gradient);}.cls-3{fill:url(#radial-gradient-2);}.cls-4{fill:url(#radial-gradient-3);}.cls-5{fill:url(#radial-gradient-4);}.cls-6{fill:#5b6f80;}</style><radialGradient id="radial-gradient" cx="160.3" cy="92.02" r="20.06" gradientTransform="translate(75.93 -55.26) rotate(40.99) scale(1 0.61)" gradientUnits="userSpaceOnUse"><stop offset="0" stop-color="#c94532"></stop><stop offset="1" stop-color="#ff7865"></stop></radialGradient><radialGradient id="radial-gradient-2" cx="148.18" cy="116.54" r="47.5" gradientTransform="translate(271.05 230.2) rotate(-164.94) scale(1 0.67)" gradientUnits="userSpaceOnUse"><stop offset="0" stop-color="#c94532"></stop><stop offset="0.85" stop-color="#ff7865"></stop></radialGradient><radialGradient id="radial-gradient-3" cx="196.72" cy="95.11" r="26.59" gradientTransform="translate(90.08 271.82) rotate(-76.5) scale(1 0.66)" xlink:href="#radial-gradient"></radialGradient><radialGradient id="radial-gradient-4" cx="175.51" cy="99.57" r="42.85" gradientTransform="matrix(-0.02, -1, 0.6, -0.01, 120.12, 276.42)" gradientUnits="userSpaceOnUse"><stop offset="0" stop-color="#c94532"></stop><stop offset="0.88" stop-color="#ff7865"></stop></radialGradient></defs><title>logo_duvi_default</title><path class="cls-1" d="M273.18,25.25c6.26-1.8,11.34-8.81,11.34-15.66s-5.08-11-11.34-9.16-11.34,8.81-11.34,15.66S266.92,27,273.18,25.25Z"></path><path class="cls-1" d="M35,168.35c-7.46,2.14-13.52-3.5-13.52-12.57v-6.67c0-9.07,6.07-18.18,13.52-20.32s13.52,3.5,13.52,12.57V148C48.53,157.09,42.46,166.21,35,168.35Zm55.46-28.51c0,7-4.59,13.93-10.23,15.54S70,152.65,70,145.7V59.39L48.53,65.55v39a28.94,28.94,0,0,0-13.52.77c-19.3,5.53-35,28-35,50v6.67c0,22,15.7,35.46,35,29.93,8.92-2.56,17.06-8.73,23.25-16.79,5.7,4.63,13.45,6.27,22,3.82s16.26-8.52,22-16.4c6.19,4.51,14.32,6,23.23,3.45,18.94-5.43,35-27.46,35-50.23a76.11,76.11,0,0,0,16-5c5.08,16.1,15,28.46,30.46,31.16a8.91,8.91,0,0,0,6.91-2.11c15.86-12.52,26.32-30.68,31.43-50a84.23,84.23,0,0,0,3.18-22.17l14-4V90c0,20.2,14.42,32.5,32.14,27.42s32.14-25.65,32.14-45.85l-21.48,6.16c0,7.23-4.78,14.49-10.66,16.17s-10.66-2.83-10.66-10.06v-50l-57,16.34V74.62c0,2.38-.36,6.74-2.2,14-3.64,13.57-9.56,22.22-13.67,26.94a1.18,1.18,0,0,1-1.41.42c-6.69-3.87-11-11.82-13.26-20.12,6.1-7.58,9.06-16.43,8.9-22.93h0c-.06-6.08-3.11-11.13-8.46-12.44-10.63-2.59-23.42,9.2-23.71,27.93a54.15,54.15,0,0,1-12.69,3.64c-.4-16.13-11-24.41-23.73-14.33C128.18,84.46,128.21,95,128.21,95c-.21,6.87,3.2,15,10.74,18.92v8.14c0,9.07-6.07,18.19-13.52,20.32h0c-7.46,2.14-13.52-3.5-13.52-12.57V83.22L90.46,89.37v50.47"></path><path class="cls-2" d="M160.41,92.08c-.3-12.1-6.32-19.78-14.7-18.61,0,0-4.88.57-5.38,6.38s4.55,9.59,4.55,9.59c5.32,4.22,15.53,2.63,15.53,2.63"></path><path class="cls-3" d="M160.43,115.71S148,118.53,139,114v8.14c0,9.07-6.07,18.19-13.52,20.32v23.52C144.37,160.51,160.43,138.48,160.43,115.71Z"></path><path class="cls-4" d="M196.38,95.87c6.1-7.58,9.06-16.43,8.9-22.93h0a15.06,15.06,0,0,0-1.94-7.51,28.09,28.09,0,0,0-7.17,13.14,36.94,36.94,0,0,0,.22,17.3"></path><path class="cls-5" d="M144.88,89.44c5.32,4.22,15.53,2.63,15.53,2.63a54.15,54.15,0,0,0,12.69-3.64,68,68,0,0,0,3.33,22.28,76.11,76.11,0,0,1-16,5S148,118.53,139,114C139,114,138.8,100.1,144.88,89.44Z"></path><path class="cls-6" d="M186.4,182.88l9.11-2.61c9.52-2.73,15.82,1.09,15.82,9.66s-6.3,16.19-15.88,18.94L191.53,210v7.42a6.87,6.87,0,0,1-4.79,6.68c-2.86.82-4.84-.78-4.84-3.92V189.09A6.44,6.44,0,0,1,186.4,182.88Zm5.14,17.84,4.73-1.36a6.66,6.66,0,0,0,4.84-6.5c0-2.94-1.93-4.37-4.84-3.53l-4.73,1.36Z"></path><path class="cls-6" d="M223.7,172.19l16.17-4.64c2.63-.75,4.49.76,4.49,3.7a6.44,6.44,0,0,1-4.49,6.21l-11,3.16V186l8.7-2.49c2.63-.75,4.5.76,4.5,3.7a6.44,6.44,0,0,1-4.5,6.21l-8.7,2.49v5.88l11-3.16c2.63-.75,4.49.76,4.49,3.7a6.44,6.44,0,0,1-4.49,6.21l-16.17,4.64c-2.63.75-4.49-.76-4.49-3.63V178.4A6.44,6.44,0,0,1,223.7,172.19Z"></path><path class="cls-6" d="M286.22,159.25V189c0,4.09-2.16,7.2-5.37,8.12-3.68,1.05-5.55-.58-7.76-3.46l-10.92-14.26v17.77a6.87,6.87,0,0,1-4.79,6.68c-2.86.82-4.84-.78-4.84-3.92V170.18c0-4.28,2.28-7.24,5.66-8.21s5.2.56,7.41,3.56l11,14.95V162a6.87,6.87,0,0,1,4.79-6.68C284.24,154.51,286.22,156.11,286.22,159.25Z"></path><path class="cls-6" d="M299.83,179.58c3.15-.9,5.72,1.17,10.39-.17,2.34-.67,4.26-2.05,4.26-4,0-5.56-19,2.32-19-12.13,0-7.35,5.6-14.27,14.89-16.93,6.89-2,13.13-1.34,13.13,4.29a5.73,5.73,0,0,1-4.09,5.45c-3.33,1-5.43-.87-10.39.55-2.39.69-3.21,1.88-3.21,3.29,0,5.37,18.62-2.33,18.62,12,0,7.61-5.55,14.89-14.94,17.58-7.12,2-13.78,1.14-13.78-4.55A5.73,5.73,0,0,1,299.83,179.58Z"></path><path class="cls-6" d="M333.16,167.65c3.85-1.1,3.27,3.6,7.76,2.31,2.39-.69,3.39-2.89,3.39-6.41v-21a6.87,6.87,0,0,1,4.79-6.68c2.86-.82,4.85.78,4.85,3.92V160.1c0,11.44-5.72,18.33-13.31,20.5-6.13,1.76-11.56-.84-11.56-6.92A5.91,5.91,0,0,1,333.16,167.65Z"></path><path class="cls-6" d="M381.73,168.81c-10.8,3.1-19.61-4-19.61-15.86s8.81-23.95,19.61-27,19.61,4,19.61,15.86S392.53,165.72,381.73,168.81Zm0-32.35c-5.14,1.47-9.28,7.52-9.28,13.53s4.14,9.74,9.28,8.27,9.28-7.52,9.28-13.53S386.87,135,381.73,136.46Z"></path><path class="cls-6" d="M443.5,114.15v29.73c0,4.09-2.16,7.2-5.37,8.12-3.68,1.05-5.55-.58-7.76-3.46l-10.92-14.26v17.77a6.87,6.87,0,0,1-4.79,6.68c-2.86.82-4.84-.78-4.84-3.92V125.09c0-4.28,2.28-7.24,5.66-8.21s5.2.56,7.41,3.56l11,14.95V116.91a6.87,6.87,0,0,1,4.79-6.68C441.51,109.41,443.5,111,443.5,114.15Z"></path></svg> 